<?xml version="1.0" encoding="UTF-8"?>
<svg version="1.1" xmlns="http://www.w3.org/2000/svg" width="500" height="500">
<path d="M0 0 C6.42072109 5.48976452 11.3046584 11.67988656 13.11328125 20.046875 C13.21388385 22.88606481 13.26109882 25.7008876 13.26045227 28.54017639 C13.26412896 29.40562952 13.26780565 30.27108265 13.27159375 31.16276163 C13.28262323 34.06823054 13.28647321 36.97366368 13.2902832 39.87915039 C13.29654849 41.96038934 13.30319535 44.04162717 13.31019592 46.12286377 C13.33123374 52.96341168 13.34159913 59.8039598 13.3515625 66.64453125 C13.35561038 69.00063018 13.35972731 71.35672899 13.36391258 73.71282768 C13.38296487 84.78399695 13.39719495 95.85515956 13.40552455 106.92634207 C13.41529276 119.69831473 13.4416014 132.47011389 13.48202544 145.24202543 C13.51220938 155.11820625 13.52699566 164.99433741 13.53030556 174.87056345 C13.53265374 180.76691189 13.54158405 186.66307498 13.56676674 192.55937386 C13.59009166 198.11045824 13.59426277 203.66123583 13.58400536 209.21235657 C13.58351094 211.24440978 13.58980347 213.27647833 13.6035614 215.30848503 C13.68669986 228.32099941 13.33842336 239.25137598 5.11328125 250.046875 C4.30890625 251.2534375 4.30890625 251.2534375 3.48828125 252.484375 C-5.10446282 261.7554936 -15.17432214 265.42750421 -27.55078125 266.10546875 C-38.74138873 265.90891241 -48.25649349 261.36647323 -56.57421875 254.046875 C-61.25526797 249.09833725 -66.88671875 240.03331896 -66.88671875 233.046875 C-68.14484375 233.129375 -69.40296875 233.211875 -70.69921875 233.296875 C-78.87133971 233.296875 -86.46387901 229.97603108 -92.88671875 225.046875 C-93.85609375 224.36625 -94.82546875 223.685625 -95.82421875 222.984375 C-104.21935212 215.73804936 -108.05961575 205.38460687 -109.12890625 194.60546875 C-109.3554195 187.36962895 -107.65020455 180.68852994 -104.88671875 174.046875 C-105.75683594 173.28117187 -105.75683594 173.28117187 -106.64453125 172.5 C-114.65414191 165.04551087 -120.38276173 156.24626094 -121.16015625 145.140625 C-121.50218239 134.02234963 -120.20808688 125.5289272 -113.88671875 116.046875 C-114.27599486 113.26163183 -115.21079214 111.37280235 -116.44921875 108.796875 C-119.26330668 101.25511936 -119.215492 92.21696126 -116.78515625 84.58984375 C-113.10008634 76.75660692 -107.87889661 69.82095899 -99.88671875 66.046875 C-98.89671875 66.046875 -97.90671875 66.046875 -96.88671875 66.046875 C-96.94472656 65.10328125 -97.00273437 64.1596875 -97.0625 63.1875 C-97.49158262 50.97703458 -94.85091919 41.59401938 -86.828125 32.01171875 C-83.53660828 28.68046541 -79.98939649 26.27791794 -75.88671875 24.046875 C-75.13777344 23.63308594 -74.38882813 23.21929687 -73.6171875 22.79296875 C-66.22575518 19.27499018 -58.89054897 19.66269115 -50.88671875 20.046875 C-50.77585937 19.1496875 -50.665 18.2525 -50.55078125 17.328125 C-49.00600303 9.6951032 -43.26995194 3.29373197 -36.88671875 -0.953125 C-24.72980951 -7.48144803 -11.82597378 -8.00133544 0 0 Z M-36.88671875 11.046875 C-41.47528666 17.50726665 -43.75376377 23.67119589 -42.4765625 31.58984375 C-40.76436023 38.36688389 -37.81456089 43.27626807 -32.0703125 47.328125 C-26.90088218 50.2522472 -21.75205246 50.80649247 -15.88671875 51.046875 C-15.84430152 53.37982275 -15.84578938 55.71390067 -15.88671875 58.046875 C-16.88671875 59.046875 -16.88671875 59.046875 -20.26171875 59.359375 C-29.819704 59.15456103 -37.05370102 54.93880345 -43.7890625 48.40625 C-48.88372008 42.67594613 -50.57830763 36.48415925 -51.88671875 29.046875 C-61.46352192 28.5834813 -69.51160688 30.12064688 -77.0703125 36.3203125 C-82.9847693 41.94222627 -87.60776775 48.60163867 -87.97021484 56.97607422 C-88.00005073 59.86750302 -87.97804824 62.7491398 -87.86474609 65.63867188 C-87.80448572 67.44041369 -87.83880131 69.24476269 -87.88671875 71.046875 C-89.88671875 73.046875 -89.88671875 73.046875 -93.63671875 74.359375 C-99.4819551 76.49839265 -103.34743089 79.60117828 -106.19921875 85.171875 C-108.81826244 90.85199508 -110.00177484 96.2284562 -108.21484375 102.34765625 C-107.49167552 104.26814547 -106.69509367 106.16066686 -105.88671875 108.046875 C-105.32984375 107.75941406 -104.77296875 107.47195312 -104.19921875 107.17578125 C-101.79564105 106.00241308 -99.36913592 104.97961237 -96.88671875 103.984375 C-96.04109375 103.64277344 -95.19546875 103.30117187 -94.32421875 102.94921875 C-84.67746959 99.37806642 -73.26397124 99.84743127 -63.88671875 104.046875 C-54.19655961 108.83062445 -47.64833715 115.33449941 -43.5078125 125.3984375 C-39.15697498 138.58738747 -39.15697498 138.58738747 -41.88671875 144.046875 C-43.86671875 144.046875 -45.84671875 144.046875 -47.88671875 144.046875 C-47.9846875 143.44101562 -48.08265625 142.83515625 -48.18359375 142.2109375 C-50.18821387 130.97815236 -53.54923329 121.59232074 -62.91796875 114.51171875 C-70.154706 110.01497803 -78.57421216 108.26204276 -87.01171875 109.546875 C-95.06678536 111.59301732 -101.97502571 115.84168422 -106.63671875 122.78125 C-111.00197835 130.69328302 -113.29952321 138.34481085 -111.4140625 147.2890625 C-108.81079614 156.29917002 -103.94212742 163.24461214 -95.88671875 168.046875 C-95.22671875 168.046875 -94.56671875 168.046875 -93.88671875 168.046875 C-93.43978469 173.41008374 -94.29507938 176.55648187 -96.9140625 181.25 C-100.21047353 187.33975532 -99.76507291 195.25831127 -98.23828125 201.84375 C-95.25226126 210.06168536 -89.77706505 216.65437924 -82.21875 221.08203125 C-77.64709872 222.97348496 -72.7747042 223.50104996 -67.88671875 224.046875 C-67.73976562 223.23605469 -67.5928125 222.42523438 -67.44140625 221.58984375 C-65.19715825 210.51048148 -61.25576752 199.99978689 -51.88671875 193.046875 C-43.97195171 188.21069485 -35.67847604 184.44772769 -26.26171875 185.421875 C-25.47796875 185.628125 -24.69421875 185.834375 -23.88671875 186.046875 C-23.84417519 188.04642246 -23.84591092 190.04729136 -23.88671875 192.046875 C-25.61071979 193.77087604 -28.09779323 193.54447822 -30.44921875 193.859375 C-39.20066995 195.27123427 -46.81915974 198.60468386 -52.296875 205.93359375 C-57.78825224 214.33876299 -58.76398629 222.10085428 -57.88671875 232.046875 C-55.85025008 240.59772926 -51.22831913 247.01602775 -43.94921875 251.859375 C-36.09939972 256.36191271 -27.86516581 257.34796954 -19.05078125 255.4296875 C-9.96597751 252.55410536 -3.31410866 247.34731394 1.11328125 238.859375 C3.90564233 232.85773782 4.26103463 227.27949453 4.25372314 220.72357178 C4.25669427 219.88852151 4.25966539 219.05347125 4.26272655 218.19311643 C4.27139403 215.39663775 4.27292014 212.60020198 4.27441406 209.80371094 C4.27904361 207.79789641 4.28406845 205.79208277 4.28945923 203.78627014 C4.30257186 198.33778891 4.30902594 192.88932 4.31346989 187.44082546 C4.31640237 184.03575665 4.32050751 180.6306912 4.32497406 177.22562408 C4.33864583 166.56879465 4.34831413 155.9119729 4.35217595 145.2551353 C4.35665643 132.95917677 4.37420526 120.66332942 4.40317655 108.3674047 C4.42480137 98.85895935 4.43488066 89.35054526 4.43621707 79.84207559 C4.43726449 74.16493469 4.44315914 68.48789836 4.46103668 62.81078339 C4.47753118 57.46902444 4.47966609 52.1274485 4.47089767 46.78567314 C4.47012805 44.82857459 4.47446014 42.87146615 4.48435593 40.91439247 C4.49710417 38.23541619 4.4911831 35.55708529 4.48077393 32.87811279 C4.48883033 32.11009456 4.49688673 31.34207633 4.50518727 30.55078483 C4.44004026 23.34458352 2.80677626 15.82276186 -2.25390625 10.3984375 C-7.98108985 5.65775442 -14.06313502 3.26720622 -21.5 3.6875 C-27.47409516 4.58703642 -32.6279279 6.67298169 -36.88671875 11.046875 Z " fill="#585858" transform="translate(232.88671875,119.953125)"/>
<path d="M0 0 C6.45704996 4.62032727 10.65089526 9.7414752 13.25 17.25 C13.25 18.24 13.25 19.23 13.25 20.25 C14.19359375 20.19199219 15.1371875 20.13398438 16.109375 20.07421875 C28.21446425 19.64883911 37.68696492 22.23095172 47.21484375 30.16796875 C51.01349483 34.05411275 53.68423748 38.48699911 56.25 43.25 C56.79333984 44.21873047 56.79333984 44.21873047 57.34765625 45.20703125 C60.38890096 51.69973506 59.49609239 59.25003861 59.25 66.25 C60.24 65.92 61.23 65.59 62.25 65.25 C62.66636719 65.68183594 63.08273437 66.11367187 63.51171875 66.55859375 C65.27829166 68.27752874 67.14111182 69.77008384 69.0625 71.3125 C74.3417258 75.88068616 78.04263246 81.62789739 80.25 88.25 C80.84317774 96.81704246 81.13767043 104.39458022 76.9296875 112.13671875 C75.96925469 115.12289203 76.88273012 116.48974357 78.25 119.25 C78.59160156 120.01441406 78.93320312 120.77882813 79.28515625 121.56640625 C79.97148789 123.0669412 80.65899318 124.56693987 81.34765625 126.06640625 C84.89383797 134.64785898 84.58429389 146.56968982 81.625 155.3125 C79.27253391 160.79881667 75.98937022 165.61309999 71.68359375 169.7578125 C70.00285516 171.3354482 70.00285516 171.3354482 68.25 174.25 C68.39680765 177.42330385 69.2598787 180.24588196 70.25 183.25 C73.00438653 193.99210748 70.99220827 204.75909008 65.484375 214.3125 C58.84440069 223.93262025 49.93877345 230.95720213 38.25 233.25 C36.66788427 233.31548492 35.08329919 233.33578381 33.5 233.3125 C32.70078125 233.30347656 31.9015625 233.29445313 31.078125 233.28515625 C30.17320312 233.26775391 30.17320312 233.26775391 29.25 233.25 C29.13914062 234.12785156 29.02828125 235.00570312 28.9140625 235.91015625 C26.99564668 245.55865937 20.75460072 253.20052851 13.00390625 258.90234375 C2.80132927 265.57891013 -7.78418147 267.47200896 -19.75 265.25 C-25.68564099 263.5143367 -30.77954285 260.94894486 -35.75 257.25 C-36.55566406 256.65574219 -37.36132812 256.06148438 -38.19140625 255.44921875 C-40.85257077 253.16183612 -42.50537134 251.0206111 -44.375 248.0625 C-44.94476563 247.18207031 -45.51453125 246.30164063 -46.1015625 245.39453125 C-49.76030124 238.41518366 -51.19689132 231.98832012 -51.13768005 224.1486969 C-51.14306559 223.27826608 -51.14845113 222.40783526 -51.15399987 221.51102775 C-51.16821214 218.618614 -51.16119245 215.72666227 -51.15405273 212.83422852 C-51.1597598 210.75062698 -51.16672536 208.66702857 -51.17485046 206.58343506 C-51.19275922 200.94086927 -51.1916178 195.29845919 -51.18590808 189.65587354 C-51.18281309 184.93920017 -51.18891211 180.22255657 -51.19494683 175.50588745 C-51.20898281 164.37621412 -51.20743831 153.24661757 -51.19604492 142.11694336 C-51.18456307 130.64762659 -51.19864275 119.17854363 -51.2254414 107.70925766 C-51.24761479 97.84911218 -51.25423211 87.98904002 -51.24836498 78.12887138 C-51.24499835 72.24550554 -51.24739125 66.36228958 -51.26461601 60.47894478 C-51.2801092 54.94582468 -51.276103 49.41305041 -51.25731087 43.87994385 C-51.25363167 41.85392764 -51.25671385 39.82788567 -51.26719666 37.80189323 C-51.33539277 23.52774054 -50.60635607 13.26211564 -40.32421875 2.453125 C-28.52051725 -7.64898069 -12.92609002 -8.13864927 0 0 Z M-36.75 12.25 C-40.91251469 18.92598202 -41.89912931 24.63428696 -41.89044189 32.44631958 C-41.89341302 33.27980986 -41.89638414 34.11330013 -41.8994453 34.97204769 C-41.90812755 37.76929844 -41.90964016 40.56650637 -41.91113281 43.36376953 C-41.9157614 45.36781404 -41.92078611 47.37185767 -41.92617798 49.37590027 C-41.9393019 54.82450785 -41.94574717 60.27310311 -41.95018864 65.72172403 C-41.95311996 69.12696276 -41.95722494 72.53219812 -41.96169281 75.93743515 C-41.97536902 86.59480401 -41.98503452 97.25216518 -41.9888947 107.9095422 C-41.99337295 120.20550078 -42.01090958 132.50134806 -42.0398953 144.7972728 C-42.06152851 154.30486437 -42.0715999 163.81242467 -42.07293582 173.32004058 C-42.07398286 178.99666934 -42.07986907 184.67319349 -42.09775543 190.3497963 C-42.11426392 195.69318662 -42.11637807 201.03639402 -42.10761642 206.3798008 C-42.10684748 208.33647846 -42.11116982 210.29316606 -42.12107468 212.2498188 C-42.27370268 231.2762007 -42.27370268 231.2762007 -32.75 247.25 C-25.42081477 254.0689255 -17.51057404 256.91872305 -7.515625 256.59765625 C1.08179172 255.51690754 9.10438726 251.06495646 14.75 244.5078125 C18.14455252 239.63824608 19.34992768 234.56855283 20.4765625 228.7890625 C21.25 226.25 21.25 226.25 24.25 224.25 C26.1953125 224.125 26.1953125 224.125 28.375 224.25 C38.422061 224.4125738 45.55778796 221.42358827 53.0078125 214.65234375 C59.7902931 207.44382793 61.94101814 199.19877236 61.65234375 189.453125 C61.06109037 184.74605929 59.73939391 178.73939391 56.25 175.25 C56.20907063 172.91702567 56.20758277 170.58294775 56.25 168.25 C56.95125 168.023125 57.6525 167.79625 58.375 167.5625 C66.81252816 163.71058497 70.41198567 157.15137156 73.5625 148.75 C75.11293524 140.85687512 74.55522173 133.65279114 71.25 126.25 C69.43107861 123.58380327 67.53887031 121.05991325 65.48046875 118.57421875 C64.25 116.25 64.25 116.25 64.921875 113.6796875 C67.20740936 109.49850405 67.20740936 109.49850405 68.3125 107.6875 C71.42818148 102.15967803 72.15521572 97.34128994 70.75390625 91.0078125 C68.45114548 83.27990347 65.30283441 79.24016108 58.25537109 75.34423828 C55.60946931 73.93351708 52.93729739 72.57987777 50.25 71.25 C50.29640625 70.22261719 50.3428125 69.19523437 50.390625 68.13671875 C50.74406659 57.07426462 49.86077221 48.29521312 42.625 39.375 C37.35216028 33.87547745 30.83669375 30.27759253 23.25 29.25 C19.78298014 29.2569133 16.33261912 29.32297375 12.86914062 29.46484375 C10.76953125 29.5078125 10.76953125 29.5078125 7.25 29.25 C5.32570528 26.36355791 4.98373422 25.31618852 4.5 22.0625 C3.25306187 16.12746114 0.32230338 11.54593298 -4.55859375 7.8984375 C-15.45041028 1.38677084 -27.94518532 3.24507589 -36.75 12.25 Z " fill="#585858" transform="translate(304.75,119.75)"/>
<path d="M0 0 C1.625 2.6875 1.625 2.6875 2 5 C-2.44970271 5.85859501 -6.66327779 6.058257 -11.1875 6.125 C-19.00496858 6.60974461 -24.11111505 8.88152473 -30 14 C-35.44064048 20.36953032 -36.30027518 27.48876133 -36.26069641 35.55708313 C-36.26452196 36.39313668 -36.26834751 37.22919023 -36.27228898 38.09057873 C-36.28256792 40.87856591 -36.27863655 43.66634517 -36.2746582 46.4543457 C-36.27900754 48.45883372 -36.28419143 50.46332007 -36.29014587 52.46780396 C-36.30352428 57.90385669 -36.30411574 63.33983986 -36.30158257 68.77590585 C-36.30051192 73.31850021 -36.30539874 77.86108056 -36.310188 82.40367192 C-36.32127952 93.12386163 -36.3217228 103.84401631 -36.31567383 114.56420898 C-36.30963571 125.61196191 -36.32194181 136.65958742 -36.3432439 147.7073186 C-36.36087661 157.20223784 -36.36685855 166.69711659 -36.36360615 176.19205159 C-36.36179557 181.858567 -36.36440695 187.52499154 -36.37832069 193.19149208 C-36.39092127 198.52262205 -36.38893375 203.85355391 -36.37590981 209.18468094 C-36.37354921 211.13651917 -36.37626009 213.08837143 -36.38453293 215.04019356 C-36.65650158 227.78440967 -36.65650158 227.78440967 -33.54550457 240.02180767 C-32.81410515 242.67412042 -33.18363769 244.39346024 -34 247 C-36.5625 249.3125 -36.5625 249.3125 -39 251 C-39.80294647 249.82009775 -40.59171174 248.63054311 -41.375 247.4375 C-42.03628906 246.44556641 -42.03628906 246.44556641 -42.7109375 245.43359375 C-45.88318926 239.44476694 -46.29306702 233.77525845 -46.26742554 227.13920593 C-46.27195665 226.27048396 -46.27648776 225.401762 -46.28115618 224.50671512 C-46.29377322 221.60818178 -46.29218155 218.70983699 -46.29052734 215.8112793 C-46.29651426 213.72797403 -46.30332018 211.64467099 -46.31088257 209.56137085 C-46.32853279 203.91045581 -46.33323753 198.25960136 -46.33451414 192.60866141 C-46.33593681 189.07592691 -46.34020861 185.54320775 -46.34550858 182.01047707 C-46.36400539 169.6795822 -46.37217959 157.34873054 -46.37060547 145.01782227 C-46.36940406 133.53378797 -46.39050723 122.04994161 -46.4220928 110.56595486 C-46.44826564 100.69736495 -46.45897234 90.82883639 -46.45769465 80.96021205 C-46.45718533 75.07009923 -46.46285218 69.18015348 -46.48405075 63.2900753 C-46.50345004 57.7487889 -46.50354582 52.20782868 -46.48901749 46.66653061 C-46.48693043 44.63728546 -46.49162406 42.6080198 -46.5037384 40.57880974 C-46.58348658 26.29086752 -45.86704447 16.02335171 -35.57421875 5.203125 C-25.68317545 -3.26204711 -11.87153923 -5.61758603 0 0 Z " fill="#4F4F4F" transform="translate(300,117)"/>
<path d="M0 0 C3.22191896 2.78256637 5.52587012 5.28558886 6.75 9.375 C6.69103714 11.1768356 6.57572318 12.97721399 6.421875 14.7734375 C6.32486648 22.67543987 9.74368822 28.33844968 13.625 35 C14.3192123 36.22722803 15.01141556 37.45559458 15.70166016 38.68505859 C16.73645725 40.5247889 17.77407433 42.36247458 18.82333374 44.19400024 C20.88052722 47.78770567 22.81725256 51.41529827 24.65625 55.125 C25.0805127 55.9607959 25.50477539 56.7965918 25.94189453 57.65771484 C26.70467639 59.16785293 27.44697253 60.68860039 28.16357422 62.22119141 C29.71284375 65.18755502 30.67941429 66.98068238 33.90161133 68.16748047 C35.47953537 68.48999236 37.06636077 68.77195557 38.65917969 69.01025391 C41.29504095 69.47008304 42.75334287 70.42460965 44.6875 72.25 C45.23277344 72.74242187 45.77804687 73.23484375 46.33984375 73.7421875 C49.69394513 77.62588384 50.19833606 81.06465738 50.05859375 86.0625 C49.46020608 90.54662029 47.63468085 93.72468361 44.2421875 96.6953125 C39.68452531 99.72668781 35.10273452 100.32071281 29.75 99.375 C25.45879396 97.75130042 22.08187089 95.39099986 19.75 91.375 C17.99797777 86.11893331 17.89882379 81.14544651 20.3125 76.125 C20.786875 75.2175 21.26125 74.31 21.75 73.375 C21.35101935 69.54193591 20.04717198 66.75910662 18.125 63.453125 C17.31808716 62.04945679 17.31808716 62.04945679 16.49487305 60.61743164 C15.91906494 59.6299292 15.34325684 58.64242676 14.75 57.625 C13.5671483 55.56747565 12.38617431 53.50887073 11.20703125 51.44921875 C10.62260254 50.42876465 10.03817383 49.40831055 9.43603516 48.35693359 C5.7175786 41.78044528 2.23230912 35.07867001 -1.25 28.375 C-1.91 28.375 -2.57 28.375 -3.25 28.375 C-3.25586624 29.18266312 -3.26173248 29.99032623 -3.26777649 30.82246399 C-3.32565468 38.42998578 -3.39770272 46.03717823 -3.48571491 53.64440632 C-3.53046315 57.55547848 -3.56970911 61.46644541 -3.59643555 65.37768555 C-3.62242461 69.15152088 -3.6627949 72.92495219 -3.71318626 76.69853783 C-3.72988494 78.13899909 -3.74138053 79.57953028 -3.74761391 81.02007484 C-3.75722148 83.03603774 -3.78696102 85.05187441 -3.81762695 87.06762695 C-3.82873001 88.21568314 -3.83983307 89.36373932 -3.85127258 90.54658508 C-4.25 93.375 -4.25 93.375 -5.61686707 95.27702332 C-7.25 96.375 -7.25 96.375 -9.8125 96.25 C-12.25 95.375 -12.25 95.375 -14.25 92.375 C-14.4299469 89.67634583 -14.4299469 89.67634583 -14.33422852 86.37817383 C-14.30502823 85.14291458 -14.27582794 83.90765533 -14.2457428 82.63496399 C-14.22615068 81.97497217 -14.20655857 81.31498035 -14.18637276 80.63498878 C-14.1084045 77.84961828 -14.06605186 75.06405809 -14.0213995 72.27798748 C-13.93764518 67.0944368 -13.83864583 61.91209774 -13.6809082 56.73022461 C-13.57243249 53.12166978 -13.5088807 49.51465378 -13.47398186 45.90466881 C-13.45245343 44.53491326 -13.41459822 43.16530647 -13.35956001 41.79648781 C-12.91269489 33.80534879 -12.91269489 33.80534879 -16.24752808 26.85971069 C-18.62508599 24.73490671 -18.62508599 24.73490671 -21.13877869 23.05619812 C-24.13480635 20.67041505 -24.80817082 18.31994707 -25.30078125 14.609375 C-25.17936206 9.26693059 -23.23831764 5.60371922 -19.9375 1.5 C-13.49760561 -3.59200952 -7.1248816 -3.5624408 0 0 Z M-13.625 9 C-15.56351084 11.32595516 -15.56351084 11.32595516 -15.125 14.5 C-14.46691176 17.47181373 -14.46691176 17.47181373 -12.25 19.375 C-9.14652746 19.70515665 -7.09218824 19.88031294 -4.375 18.25 C-2.72145469 15.49409116 -2.85634432 13.52424548 -3.25 10.375 C-4.31345052 8.39470318 -4.31345052 8.39470318 -6.25 7.375 C-9.5725955 6.77863671 -10.82455503 7.08390607 -13.625 9 Z M31 78.4375 C28.62994924 80.21356609 28.62994924 80.21356609 27.625 82.75 C27.51800084 85.61794775 27.51800084 85.61794775 29.875 88.25 C32.50705225 90.60699916 32.50705225 90.60699916 35.375 90.5 C38.56026086 88.99119222 39.48548805 87.64785445 40.75 84.375 C40.41390749 81.61808557 40.41390749 81.61808557 38.75 79.375 C35.63177271 77.35236608 34.49570349 77.08688729 31 78.4375 Z " fill="#5A5A5A" transform="translate(298.25,158.625)"/>
<path d="M0 0 C2.02836986 5.06251253 2.2880712 9.37581228 2.26742554 14.73381042 C2.27195665 15.6009724 2.27648776 16.46813438 2.28115618 17.36157399 C2.29379391 20.26087923 2.2921802 23.15999647 2.29052734 26.05932617 C2.29651307 28.14086142 2.30331872 30.22239445 2.31088257 32.30392456 C2.32854743 37.95496595 2.33323822 43.60594676 2.33451414 49.25701308 C2.33593627 52.78991751 2.3402071 56.32280656 2.34550858 59.85570717 C2.364012 72.18775026 2.37217898 84.51975013 2.37060547 96.85180664 C2.3694047 108.33523222 2.39049374 119.81846965 2.4220928 131.30184764 C2.44827543 141.16958377 2.45897189 151.03725853 2.45769465 160.90502912 C2.45718551 166.79462981 2.4628421 172.68406337 2.48405075 178.57362938 C2.5034659 184.11654711 2.503535 189.65913886 2.48901749 195.20206833 C2.48693222 197.23089259 2.49161335 199.25973743 2.5037384 201.28852654 C2.57636666 214.2879643 2.2161753 225.21626991 -6 236 C-6.639375 236.94875 -7.27875 237.8975 -7.9375 238.875 C-10 241 -10 241 -12.75 241.3125 C-13.86375 241.1578125 -13.86375 241.1578125 -15 241 C-16.203125 238.3671875 -16.203125 238.3671875 -17 235 C-15.734375 232.0703125 -15.734375 232.0703125 -13.75 229.125 C-8.83108429 221.74662643 -7.69478924 214.97331121 -7.75276184 206.32266235 C-7.75034743 205.48575438 -7.74793301 204.6488464 -7.74544543 203.78657758 C-7.73984102 201.00168027 -7.74844689 198.21701567 -7.75708008 195.43212891 C-7.75600637 193.42749469 -7.75406636 191.42286078 -7.75132751 189.41822815 C-7.74648964 183.9863547 -7.75412234 178.5545637 -7.76428056 173.12270021 C-7.77308208 167.42989481 -7.77130318 161.73709183 -7.7709198 156.04428101 C-7.77185573 146.48295721 -7.780529 136.9216652 -7.79418945 127.36035156 C-7.80990518 116.32000383 -7.8151878 105.27969091 -7.8144539 94.2393328 C-7.81377725 82.46908395 -7.82072617 70.69884846 -7.8299005 58.92860365 C-7.83202749 55.54504947 -7.8327411 52.16149745 -7.83313942 48.77794266 C-7.8341475 43.45095748 -7.84028207 38.12400128 -7.85030556 32.79702568 C-7.85321463 30.84680166 -7.85445917 28.8965743 -7.85387802 26.94634819 C-7.83979604 13.44361455 -7.83979604 13.44361455 -9 0 C-5.61682513 -0.97591583 -3.4342662 -0.85856655 0 0 Z " fill="#505050" transform="translate(244,134)"/>
<path d="M0 0 C2.9375 0.375 2.9375 0.375 6 1 C7.41654037 3.83308075 7.10957717 6.23409244 7.10546875 9.3984375 C7.12029297 10.68234375 7.13511719 11.96625 7.15039062 13.2890625 C7.17322182 15.33257681 7.187504 17.37434358 7.17504883 19.41796875 C7.16622499 21.39069176 7.19785772 23.36346432 7.23046875 25.3359375 C7.23457764 26.51720215 7.23868652 27.6984668 7.24291992 28.91552734 C7.73230715 32.28149663 7.73230715 32.28149663 10.95678711 34.31396484 C11.96104736 34.87035645 12.96530762 35.42674805 14 36 C16.88954497 39.24494354 18.24704759 42.73177781 18.4375 47.0625 C17.81099081 52.70108275 16.2367957 55.64254131 12.4375 59.8125 C8.4211123 62.9074222 3.94780959 63.258709 -1 63 C-6.4181165 61.33288723 -9.99557006 57.71149241 -13 53 C-14.51905897 48.08539745 -14.03584447 44.4988229 -12.09375 39.859375 C-10.27113906 36.76093641 -7.90043596 35.09818772 -5 33 C-2.7198523 31.15823044 -2.7198523 31.15823044 -2.82055664 28.35791016 C-2.85012451 27.26269043 -2.87969238 26.1674707 -2.91015625 25.0390625 C-2.93013672 23.84539062 -2.95011719 22.65171875 -2.97070312 21.421875 C-3.03171463 18.89833523 -3.0967939 16.37489041 -3.16601562 13.8515625 C-3.19405273 12.0571875 -3.19405273 12.0571875 -3.22265625 10.2265625 C-3.26531616 8.58034912 -3.26531616 8.58034912 -3.30883789 6.90087891 C-2.96516718 3.67281933 -2.17228215 2.35464393 0 0 Z M-2.375 42.625 C-4.31351084 44.95095516 -4.31351084 44.95095516 -3.875 48.125 C-3.21691176 51.09681373 -3.21691176 51.09681373 -1 53 C2.10347254 53.33015665 4.15781176 53.50531294 6.875 51.875 C8.52854531 49.11909116 8.39365568 47.14924548 8 44 C6.93654948 42.01970318 6.93654948 42.01970318 5 41 C1.6774045 40.40363671 0.42544497 40.70890607 -2.375 42.625 Z " fill="#6B6B6B" transform="translate(287,275)"/>
<path d="M0 0 C1 1 1 1 1.1875 3.9375 C1 7 1 7 -1 9 C-2.86287239 9.36111065 -4.74188431 9.64139831 -6.625 9.875 C-14.67054536 11.10832911 -22.33665886 14.03745067 -27.34375 20.8203125 C-31.35598373 26.95529779 -33.1741733 32.51149721 -33.625 39.875 C-33.69976562 41.02742188 -33.77453125 42.17984375 -33.8515625 43.3671875 C-33.90054688 44.23601562 -33.94953125 45.10484375 -34 46 C-34.33 46 -34.66 46 -35 46 C-35.495 38.575 -35.495 38.575 -36 31 C-38.31 31.66 -40.62 32.32 -43 33 C-42.57790186 23.50279191 -37.17005583 15.14397365 -30.328125 8.78515625 C-22.03930848 2.42946975 -10.56539061 -2.97998197 0 0 Z " fill="#686868" transform="translate(209,305)"/>
<path d="M0 0 C1.08515515 1.62773273 2.16646587 3.25818114 3.2265625 4.90234375 C8.12711797 12.03415771 13.12836572 14.52364604 21.5 16.25 C22.99800315 16.51169935 24.49742213 16.76599197 26 17 C26.625 20.375 26.625 20.375 27 24 C25 26 25 26 21.5625 26.375 C11.89276917 26.04276693 4.89289922 21.65689107 -2.19921875 15.4140625 C-4.46005488 12.38326699 -4.5189641 10.69954604 -4 7 C-2 5.375 -2 5.375 0 4 C0 2.68 0 1.36 0 0 Z " fill="#5F5F5F" transform="translate(191,154)"/>
<path d="M0 0 C3 1 3 1 4 3 C4.03092141 5.99054216 3.93267259 8.96794247 3.83984375 11.95703125 C4.00573912 15.10904332 4.54485431 17.21055118 6 20 C8.04105639 20.88693303 8.04105639 20.88693303 10 21 C9.34 21.66 8.68 22.32 8 23 C7.01 23 6.02 23 5 23 C5 23.99 5 24.98 5 26 C0.84915365 25.80693738 -0.724977 25.25668813 -3.8125 22.375 C-6.29268593 19.0038735 -7 16.23370672 -7 12 C-5.84122571 6.97864472 -4.03453708 3.33892724 0 0 Z " fill="#555555" transform="translate(280,309)"/>
<path d="M0 0 C2.97 0.495 2.97 0.495 6 1 C6 11.56 6 22.12 6 33 C4.515 33.495 4.515 33.495 3 34 C2.505 32.515 2.505 32.515 2 31 C1.34 31 0.68 31 0 31 C-0.33 31.66 -0.66 32.32 -1 33 C-1.02465392 28.46102295 -1.04283789 23.92208457 -1.05493164 19.38305664 C-1.0599714 17.83780234 -1.0668032 16.29255284 -1.07543945 14.74731445 C-1.08752076 12.53074971 -1.09323173 10.31424782 -1.09765625 8.09765625 C-1.10281754 7.4028566 -1.10797882 6.70805695 -1.11329651 5.99220276 C-1.11349277 4.3277067 -1.06189129 2.66334501 -1 1 C-0.67 0.67 -0.34 0.34 0 0 Z " fill="#434343" transform="translate(287,275)"/>
<path d="M0 0 C7.38804781 -0.36334661 7.38804781 -0.36334661 10 1.1875 C11.34419875 3.62386024 11.35131571 5.25973747 11 8 C9 10 9 10 5.3125 10.25 C1.25257007 10.1609339 -2.15911265 9.28029578 -6 8 C-5.34 7.67 -4.68 7.34 -4 7 C-2.86649466 4.98330173 -2.86649466 4.98330173 -2 3 C-0.68 3.33 0.64 3.66 2 4 C2.66 3.01 3.32 2.02 4 1 C2.68 0.67 1.36 0.34 0 0 Z " fill="#696969" transform="translate(207,170)"/>
<path d="M0 0 C0.80308594 0.01417969 1.60617188 0.02835937 2.43359375 0.04296875 C3.64208984 0.05263672 3.64208984 0.05263672 4.875 0.0625 C6.87109375 0.23046875 6.87109375 0.23046875 7.87109375 1.23046875 C7.99609375 4.23046875 7.99609375 4.23046875 7.87109375 7.23046875 C6.87109375 8.23046875 6.87109375 8.23046875 4.65625 8.36328125 C3.75777344 8.36070312 2.85929688 8.358125 1.93359375 8.35546875 C1.03769531 8.35804688 0.14179688 8.360625 -0.78125 8.36328125 C-3.12890625 8.23046875 -3.12890625 8.23046875 -5.12890625 7.23046875 C-4.05659342 0.43915415 -4.05659342 0.43915415 0 0 Z " fill="#4A4A4A" transform="translate(201.12890625,305.76953125)"/>
<path d="M0 0 C4.6770579 2.27171384 7.57390685 5.45752773 10 10 C10 10.99 10 11.98 10 13 C8.68 12.34 7.36 11.68 6 11 C6 10.34 6 9.68 6 9 C5.34 9 4.68 9 4 9 C4 8.34 4 7.68 4 7 C3.01 7 2.02 7 1 7 C1.185625 7.94875 1.37125 8.8975 1.5625 9.875 C2 13 2 13 1 15 C-1.31 12.36 -3.62 9.72 -6 7 C-3 5 -3 5 -1 5 C-0.67 3.35 -0.34 1.7 0 0 Z " fill="#656565" transform="translate(349,149)"/>
<path d="M0 0 C0 0.33 0 0.66 0 1 C-1.10859375 1.04898438 -2.2171875 1.09796875 -3.359375 1.1484375 C-4.82294065 1.22349215 -6.28648112 1.29903881 -7.75 1.375 C-8.47960937 1.4059375 -9.20921875 1.436875 -9.9609375 1.46875 C-13.73942656 1.6748494 -16.77946668 1.91512843 -20 4 C-19.42547254 7.93075644 -19.42547254 7.93075644 -17 11 C-21.75 14 -21.75 14 -24 14 C-24.66 11.03 -25.32 8.06 -26 5 C-18.60624045 -1.06798197 -9.14234978 -2.21632722 0 0 Z " fill="#7A7A7A" transform="translate(295,115)"/>
<path d="M0 0 C-0.32484375 0.92232422 -0.32484375 0.92232422 -0.65625 1.86328125 C-0.9346875 2.67152344 -1.213125 3.47976563 -1.5 4.3125 C-1.7784375 5.11300781 -2.056875 5.91351563 -2.34375 6.73828125 C-3.13933107 9.08769422 -3.13933107 9.08769422 -3 12 C-4.98 12.99 -4.98 12.99 -7 14 C-7 13.34 -7 12.68 -7 12 C-7.66 11.67 -8.32 11.34 -9 11 C-9.875 8.75 -9.875 8.75 -10 6 C-6.97179375 1.40548017 -5.562459 0 0 0 Z " fill="#505050" transform="translate(190,309)"/>
<path d="M0 0 C0.99 0.33 1.98 0.66 3 1 C3 1.99 3 2.98 3 4 C3.33 3.34 3.66 2.68 4 2 C6.31 2.33 8.62 2.66 11 3 C10.34 4.32 9.68 5.64 9 7 C7.68 6.67 6.36 6.34 5 6 C4.01 7.485 4.01 7.485 3 9 C0.125 8.75 0.125 8.75 -3 8 C-4.375 5.9375 -4.375 5.9375 -5 4 C-3.36587557 2.29159719 -2.13093906 1.06546953 0 0 Z " fill="#5E5E5E" transform="translate(200,168)"/>
<path d="M0 0 C3.465 1.98 3.465 1.98 7 4 C7 4.33 7 4.66 7 5 C5.35 5.33 3.7 5.66 2 6 C1.67 7.65 1.34 9.3 1 11 C0.29875 10.71125 -0.4025 10.4225 -1.125 10.125 C-2.07375 9.75375 -3.0225 9.3825 -4 9 C-4.845625 8.62875 -5.69125 8.2575 -6.5625 7.875 C-11.68713808 6.57054667 -16.7401428 6.84680028 -22 7 C-19.51942372 4.51942372 -18.63807536 4.70980995 -15.2109375 4.5859375 C-14.26992188 4.54726562 -13.32890625 4.50859375 -12.359375 4.46875 C-11.37453125 4.4378125 -10.3896875 4.406875 -9.375 4.375 C-8.38242187 4.33632812 -7.38984375 4.29765625 -6.3671875 4.2578125 C-3.91164615 4.1633686 -1.4561159 4.07780125 1 4 C0.67 2.68 0.34 1.36 0 0 Z " fill="#777777" transform="translate(301,118)"/>
<path d="M0 0 C0 1.32 0 2.64 0 4 C0.66 4.33 1.32 4.66 2 5 C2.625 7.0625 2.625 7.0625 3 9 C-1.75 12 -1.75 12 -4 12 C-4.38063221 9.6739143 -4.71269945 7.33944736 -5 5 C-4.67 4.67 -4.34 4.34 -4 4 C-4.66 3.34 -5.32 2.68 -6 2 C-2.25 0 -2.25 0 0 0 Z " fill="#5D5D5D" transform="translate(161,143)"/>
<path d="M0 0 C3.125 -0.1875 3.125 -0.1875 6 0 C6.33 1.32 6.66 2.64 7 4 C6.01 4.33 5.02 4.66 4 5 C4 5.66 4 6.32 4 7 C2.35 6.67 0.7 6.34 -1 6 C-1.33 5.01 -1.66 4.02 -2 3 C-1.34 2.01 -0.68 1.02 0 0 Z " fill="#454545" transform="translate(303,123)"/>
<path d="M0 0 C0.33 3.3 0.66 6.6 1 10 C0.67 9.34 0.34 8.68 0 8 C-1.66321482 7.64984951 -3.33034549 7.31802943 -5 7 C-5.99 6.34 -6.98 5.68 -8 5 C-3.375 0 -3.375 0 0 0 Z " fill="#5B5B5B" transform="translate(270,120)"/>
<path d="M0 0 C0.33 1.32 0.66 2.64 1 4 C-0.59679804 5.3421492 -2.20270197 6.67347115 -3.8125 8 C-5.15248047 9.11375 -5.15248047 9.11375 -6.51953125 10.25 C-9 12 -9 12 -12 12 C-12 11.34 -12 10.68 -12 10 C-9.8299737 8.40773752 -7.55367772 7.04268098 -5.26171875 5.6328125 C-2.95637115 3.96850283 -1.57179951 2.35006916 0 0 Z " fill="#7B7B7B" transform="translate(373,278)"/>
<path d="M0 0 C0 3.80303354 -0.53793105 5.09028215 -3 8 C-7.47702524 9.69074556 -12.22764125 10.30789411 -17 10 C-14.85153741 8.91829146 -12.69707165 7.85499638 -10.52734375 6.81640625 C-9.67269531 6.40261719 -8.81804687 5.98882812 -7.9375 5.5625 C-7.08027344 5.15128906 -6.22304687 4.74007813 -5.33984375 4.31640625 C-3.13995066 3.07873685 -1.66665731 1.87430642 0 0 Z " fill="#999999" transform="translate(228,366)"/>
<path d="M0 0 C0 1.65 0 3.3 0 5 C-1.65 5 -3.3 5 -5 5 C-5.33 3.35 -5.66 1.7 -6 0 C-3.50907189 -1.24546405 -2.58919267 -0.7767578 0 0 Z " fill="#3D3D3D" transform="translate(191,259)"/>
<path d="M0 0 C0.99 0.33 1.98 0.66 3 1 C3 1.99 3 2.98 3 4 C0.5 5.6875 0.5 5.6875 -2 7 C-2.99 6.01 -3.98 5.02 -5 4 C-3.36587557 2.29159719 -2.13093906 1.06546953 0 0 Z " fill="#3C3C3C" transform="translate(200,168)"/>
<path d="M0 0 C0.66 0.33 1.32 0.66 2 1 C-0.52051804 3.52051804 -3.33884545 5.47656091 -6.22265625 7.5625 C-8.11938462 8.89359762 -8.11938462 8.89359762 -9 11 C-9.66 11 -10.32 11 -11 11 C-9.63310446 7.84930578 -8.14342115 5.99108226 -5.5 3.8125 C-4.8915625 3.30332031 -4.283125 2.79414062 -3.65625 2.26953125 C-2 1 -2 1 0 0 Z " fill="#868686" transform="translate(198,118)"/>
<path d="M0 0 C0.33 0 0.66 0 1 0 C1 1.98 1 3.96 1 6 C2.32 5.67 3.64 5.34 5 5 C2.76592111 8.35111834 1.73784176 9.81553956 -2.25 10.8125 C-3.1575 10.874375 -4.065 10.93625 -5 11 C-5 10.34 -5 9.68 -5 9 C-3.35 8.67 -1.7 8.34 0 8 C0 5.36 0 2.72 0 0 Z " fill="#3C3C3C" transform="translate(137,179)"/>
<path d="M0 0 C0 3.66842255 -0.79029126 5.10451959 -3 8 C-5.6875 8.8125 -5.6875 8.8125 -8 9 C-6.4169423 4.7257442 -3.49431596 2.73468206 0 0 Z " fill="#7B7B7B" transform="translate(358,333)"/>
<path d="M0 0 C2.31 0.33 4.62 0.66 7 1 C6.34 2.32 5.68 3.64 5 5 C3.02 4.34 1.04 3.68 -1 3 C-0.67 2.01 -0.34 1.02 0 0 Z " fill="#3D3D3D" transform="translate(204,170)"/>
<path d="M0 0 C0.66 0.33 1.32 0.66 2 1 C1.01 2.485 1.01 2.485 0 4 C1.32 4.66 2.64 5.32 4 6 C1 8 1 8 -1 8 C-1.66 6.02 -2.32 4.04 -3 2 C-2.01 1.34 -1.02 0.68 0 0 Z " fill="#3C3C3C" transform="translate(200,118)"/>
<path d="M0 0 C0 1.98 0 3.96 0 6 C-1.32 6 -2.64 6 -4 6 C-4 4.35 -4 2.7 -4 1 C-2 0 -2 0 0 0 Z " fill="#3D3D3D" transform="translate(349,149)"/>
<path d="M0 0 C1.32 0.33 2.64 0.66 4 1 C2.68 1.33 1.36 1.66 0 2 C0 1.34 0 0.68 0 0 Z M-5 2 C-3.35 2 -1.7 2 0 2 C0 2.99 0 3.98 0 5 C-1.65 4.67 -3.3 4.34 -5 4 C-5 3.34 -5 2.68 -5 2 Z " fill="#3D3D3D" transform="translate(285,330)"/>
<path d="M0 0 C0.33 0.66 0.66 1.32 1 2 C0.22265625 3.7265625 0.22265625 3.7265625 -0.9375 5.625 C-1.618125 6.73875 -2.29875 7.8525 -3 9 C-3.75 7.3125 -3.75 7.3125 -4 5 C-2.0625 2.25 -2.0625 2.25 0 0 Z " fill="#717171" transform="translate(145,154)"/>
<path d="M0 0 C0.99 0.33 1.98 0.66 3 1 C2.01 1.495 2.01 1.495 1 2 C1 2.99 1 3.98 1 5 C0.01 5.33 -0.98 5.66 -2 6 C-2 2 -2 2 0 0 Z " fill="#3F3F3F" transform="translate(155,146)"/>
<path d="M0 0 C2.625 0.375 2.625 0.375 5 1 C0.375 5 0.375 5 -3 5 C-2 2 -2 2 0 0 Z " fill="#878787" transform="translate(200,124)"/>
<path d="M0 0 C0.33 0 0.66 0 1 0 C1 1.65 1 3.3 1 5 C0.67 5 0.34 5 0 5 C0 3.35 0 1.7 0 0 Z " fill="#FFFFFF" transform="translate(264,327)"/>
<path d="" fill="#FFFFFF" transform="translate(0,0)"/>
<path d="" fill="#FFFFFF" transform="translate(0,0)"/>
<path d="M0 0 C2 1 2 1 2 1 Z " fill="#FFFFFF" transform="translate(163,354)"/>
<path d="" fill="#FFFFFF" transform="translate(0,0)"/>
<path d="M0 0 C2 1 2 1 2 1 Z " fill="#FFFFFF" transform="translate(288,317)"/>
<path d="" fill="#FFFFFF" transform="translate(0,0)"/>
<path d="" fill="#FFFFFF" transform="translate(0,0)"/>
<path d="M0 0 C2 1 2 1 2 1 Z " fill="#FFFFFF" transform="translate(330,225)"/>
<path d="M0 0 C2 1 2 1 2 1 Z " fill="#FFFFFF" transform="translate(139,195)"/>
<path d="" fill="#FFFFFF" transform="translate(0,0)"/>
<path d="M0 0 C2 1 2 1 2 1 Z " fill="#FFFFFF" transform="translate(289,176)"/>
<path d="M0 0 C2 1 2 1 2 1 Z " fill="#FFFFFF" transform="translate(286,176)"/>
<path d="" fill="#FFFFFF" transform="translate(0,0)"/>
<path d="" fill="#FFFFFF" transform="translate(0,0)"/>
<path d="" fill="#FFFFFF" transform="translate(0,0)"/>
<path d="" fill="#FFFFFF" transform="translate(0,0)"/>
<path d="" fill="#FFFFFF" transform="translate(0,0)"/>
<path d="" fill="#FFFFFF" transform="translate(0,0)"/>
<path d="" fill="#FFFFFF" transform="translate(0,0)"/>
<path d="" fill="#FFFFFF" transform="translate(0,0)"/>
<path d="" fill="#FFFFFF" transform="translate(0,0)"/>
<path d="" fill="#FFFFFF" transform="translate(0,0)"/>
<path d="" fill="#FFFFFF" transform="translate(0,0)"/>
<path d="" fill="#FFFFFF" transform="translate(0,0)"/>
<path d="" fill="#FFFFFF" transform="translate(0,0)"/>
<path d="" fill="#FFFFFF" transform="translate(0,0)"/>
<path d="" fill="#FFFFFF" transform="translate(0,0)"/>
<path d="" fill="#FFFFFF" transform="translate(0,0)"/>
<path d="" fill="#FFFFFF" transform="translate(0,0)"/>
<path d="" fill="#FFFFFF" transform="translate(0,0)"/>
<path d="" fill="#FFFFFF" transform="translate(0,0)"/>
<path d="" fill="#FFFFFF" transform="translate(0,0)"/>
<path d="" fill="#FFFFFF" transform="translate(0,0)"/>
<path d="" fill="#FFFFFF" transform="translate(0,0)"/>
<path d="" fill="#FFFFFF" transform="translate(0,0)"/>
<path d="" fill="#FFFFFF" transform="translate(0,0)"/>
<path d="" fill="#FFFFFF" transform="translate(0,0)"/>
<path d="" fill="#FFFFFF" transform="translate(0,0)"/>
<path d="" fill="#FFFFFF" transform="translate(0,0)"/>
<path d="" fill="#FFFFFF" transform="translate(0,0)"/>
<path d="" fill="#FFFFFF" transform="translate(0,0)"/>
<path d="" fill="#FFFFFF" transform="translate(0,0)"/>
<path d="" fill="#FFFFFF" transform="translate(0,0)"/>
<path d="" fill="#FFFFFF" transform="translate(0,0)"/>
<path d="" fill="#FFFFFF" transform="translate(0,0)"/>
<path d="" fill="#FFFFFF" transform="translate(0,0)"/>
<path d="" fill="#FFFFFF" transform="translate(0,0)"/>
<path d="" fill="#FFFFFF" transform="translate(0,0)"/>
<path d="" fill="#FFFFFF" transform="translate(0,0)"/>
<path d="" fill="#FFFFFF" transform="translate(0,0)"/>
<path d="" fill="#FFFFFF" transform="translate(0,0)"/>
<path d="" fill="#FFFFFF" transform="translate(0,0)"/>
<path d="" fill="#FFFFFF" transform="translate(0,0)"/>
<path d="" fill="#FFFFFF" transform="translate(0,0)"/>
<path d="" fill="#FFFFFF" transform="translate(0,0)"/>
<path d="" fill="#FFFFFF" transform="translate(0,0)"/>
<path d="" fill="#FFFFFF" transform="translate(0,0)"/>
<path d="" fill="#FFFFFF" transform="translate(0,0)"/>
<path d="" fill="#FFFFFF" transform="translate(0,0)"/>
<path d="" fill="#FFFFFF" transform="translate(0,0)"/>
<path d="" fill="#FFFFFF" transform="translate(0,0)"/>
<path d="" fill="#FFFFFF" transform="translate(0,0)"/>
<path d="" fill="#FFFFFF" transform="translate(0,0)"/>
<path d="" fill="#FFFFFF" transform="translate(0,0)"/>
<path d="" fill="#FFFFFF" transform="translate(0,0)"/>
<path d="" fill="#FFFFFF" transform="translate(0,0)"/>
<path d="" fill="#FFFFFF" transform="translate(0,0)"/>
<path d="" fill="#FFFFFF" transform="translate(0,0)"/>
<path d="" fill="#FFFFFF" transform="translate(0,0)"/>
<path d="" fill="#FFFFFF" transform="translate(0,0)"/>
<path d="" fill="#FFFFFF" transform="translate(0,0)"/>
<path d="" fill="#FFFFFF" transform="translate(0,0)"/>
<path d="" fill="#FFFFFF" transform="translate(0,0)"/>
<path d="" fill="#FFFFFF" transform="translate(0,0)"/>
<path d="" fill="#FFFFFF" transform="translate(0,0)"/>
<path d="" fill="#FFFFFF" transform="translate(0,0)"/>
<path d="" fill="#FFFFFF" transform="translate(0,0)"/>
<path d="" fill="#FFFFFF" transform="translate(0,0)"/>
<path d="" fill="#FFFFFF" transform="translate(0,0)"/>
<path d="" fill="#FFFFFF" transform="translate(0,0)"/>
<path d="" fill="#FFFFFF" transform="translate(0,0)"/>
<path d="" fill="#FFFFFF" transform="translate(0,0)"/>
<path d="" fill="#FFFFFF" transform="translate(0,0)"/>
<path d="" fill="#FFFFFF" transform="translate(0,0)"/>
<path d="" fill="#FFFFFF" transform="translate(0,0)"/>
</svg>
