<?xml version="1.0" encoding="UTF-8"?>
<svg version="1.1" xmlns="http://www.w3.org/2000/svg" width="360" height="360">
<path d="M0 0 C7.18390507 5.89241652 11.21490511 12.32420947 12.8359375 21.4609375 C12.9609375 24.9609375 12.9609375 24.9609375 12.8359375 27.4609375 C13.7640625 27.1309375 14.6921875 26.8009375 15.6484375 26.4609375 C24.75530575 23.93226986 33.48635898 25.15311247 41.8359375 29.4609375 C51.18145205 35.89294411 55.63717873 43.45085653 57.8359375 54.4609375 C57.8978125 55.6984375 57.9596875 56.9359375 58.0234375 58.2109375 C58.95197259 61.92507786 59.62756755 62.36135839 62.5234375 64.6484375 C69.00060483 69.84415087 72.71198246 77.38235758 73.8359375 85.5859375 C74.24942655 95.93970329 71.08682611 104.47826246 64.23828125 112.28125 C55.40293556 120.59441213 44.8713017 121.04703786 33.35546875 120.97851562 C31.81358177 120.98394556 30.27169998 120.99107308 28.72982788 120.99975586 C24.56859324 121.0178888 20.40775822 121.01096355 16.24651718 120.99823952 C11.87632988 120.98805952 7.50617508 120.997519 3.13598633 121.00378418 C-4.2007456 121.0110461 -11.53731607 121.00151123 -18.87402344 120.98242188 C-27.33678344 120.96065589 -35.79915787 120.9677083 -44.26190853 120.9897275 C-51.54886374 121.00792311 -58.83570338 121.01041954 -66.12267399 120.99997282 C-70.46566646 120.9937607 -74.80847814 120.99283903 -79.15145874 121.00611877 C-83.2359851 121.01773751 -87.32001796 121.00954273 -91.40449142 120.98654175 C-92.89674437 120.98128661 -94.38903939 120.98271321 -95.88127518 120.99159241 C-107.23104371 121.05286148 -116.8047089 119.72172479 -125.33984375 111.63671875 C-132.03877297 103.64677533 -134.59630741 94.97119283 -134.0078125 84.74609375 C-132.94192134 76.10995289 -128.66470277 69.42730624 -122.2890625 63.5859375 C-112.99661667 57.26707433 -105.15866426 56.70737491 -94.1640625 57.4609375 C-93.1740625 57.7909375 -92.1840625 58.1209375 -91.1640625 58.4609375 C-91.2259375 57.4915625 -91.2878125 56.5221875 -91.3515625 55.5234375 C-91.30155813 47.25604846 -87.71695008 40.41584409 -82.1640625 34.4609375 C-74.20777862 27.04178671 -66.37754238 25.0936811 -55.66796875 25.2578125 C-53.1640625 25.4609375 -53.1640625 25.4609375 -51.1640625 26.4609375 C-51.14988281 25.85507813 -51.13570313 25.24921875 -51.12109375 24.625 C-50.65235601 16.39041809 -48.12727039 9.96999947 -42.7890625 3.6484375 C-41.9228125 2.9265625 -41.0565625 2.2046875 -40.1640625 1.4609375 C-39.44669922 0.81705078 -39.44669922 0.81705078 -38.71484375 0.16015625 C-27.37259129 -9.14982822 -11.53806706 -8.20577332 0 0 Z " fill="#29A9E2" transform="translate(210.1640625,122.5390625)"/>
<path d="M0 0 C0 3.71928506 -1.34770822 5.69541645 -3 9 C-3.69907414 11.73572585 -3.69907414 11.73572585 -4 14 C-4.66 14 -5.32 14 -6 14 C-5.91249004 16.70979124 -5.80555107 19.41650748 -5.6875 22.125 C-5.66494141 22.88554687 -5.64238281 23.64609375 -5.61914062 24.4296875 C-5.38615399 29.34358734 -4.47055252 32.6417599 -2 37 C-2 37.66 -2 38.32 -2 39 C-1.34 39 -0.68 39 0 39 C0 39.66 0 40.32 0 41 C1.485 40.505 1.485 40.505 3 40 C3.12375 40.78375 3.2475 41.5675 3.375 42.375 C3.79117993 45.14057822 3.79117993 45.14057822 6 47 C2 47 2 47 0.4375 45.78515625 C-6.52660109 37.43958946 -9.44394691 29.15460379 -8.8515625 18.2734375 C-7.9024354 10.78587924 -4.70154429 5.79521903 0 0 Z " fill="#57A9CB" transform="translate(85,189)"/>
<path d="M0 0 C3 3.75 3 3.75 3 6 C2.01 6.495 2.01 6.495 1 7 C0.67 9.64 0.34 12.28 0 15 C-6.6 15 -13.2 15 -20 15 C-20 14.34 -20 13.68 -20 13 C-16.5836981 11.96025594 -13.43573988 11.86625125 -9.875 11.875 C-8.82054687 11.87242187 -7.76609375 11.86984375 -6.6796875 11.8671875 C-4 12 -4 12 -2 13 C-1.93941406 12.31292969 -1.87882812 11.62585938 -1.81640625 10.91796875 C-1.73261719 10.01691406 -1.64882812 9.11585938 -1.5625 8.1875 C-1.48128906 7.29417969 -1.40007812 6.40085938 -1.31640625 5.48046875 C-1 3 -1 3 0 0 Z " fill="#44A3C9" transform="translate(161,136)"/>
<path d="M0 0 C0.33 0 0.66 0 1 0 C1.0515625 0.78503906 1.103125 1.57007813 1.15625 2.37890625 C1.78541386 8.20582155 2.27788824 12.09011414 6.9375 15.9375 C8.00291016 16.73027344 8.00291016 16.73027344 9.08984375 17.5390625 C11.47212238 19.36109156 12.75863689 21.2845182 14 24 C14 24.66 14 25.32 14 26 C12.35 25.67 10.7 25.34 9 25 C9.33 23.35 9.66 21.7 10 20 C8.35 19.67 6.7 19.34 5 19 C5 18.01 5 17.02 5 16 C3.68 15.67 2.36 15.34 1 15 C1 14.34 1 13.68 1 13 C0.34 13 -0.32 13 -1 13 C-0.67 8.71 -0.34 4.42 0 0 Z " fill="#6BB8D5" transform="translate(266,172)"/>
<path d="M0 0 C3.55778921 3.55778921 3.95168196 8.64709495 4.125 13.5 C4.08375 14.325 4.0425 15.15 4 16 C4.928125 15.67 5.85625 15.34 6.8125 15 C11.80904873 13.54010305 16.8433358 13.83215198 22 14 C22.33 14.66 22.66 15.32 23 16 C20.41765641 16.36332974 17.83460218 16.71594867 15.25 17.0625 C14.52039063 17.16626953 13.79078125 17.27003906 13.0390625 17.37695312 C9.3892704 17.85806208 6.52327086 18.04532842 3 17 C2.49255577 15.10614563 1.99435426 13.20981334 1.5 11.3125 C1.2215625 10.25675781 0.943125 9.20101562 0.65625 8.11328125 C0.0608285 5.28857328 -0.12786492 2.87163292 0 0 Z " fill="#65B8D7" transform="translate(219,134)"/>
<path d="M0 0 C3.94085545 3.54676991 5.83365355 6.5347456 6.1953125 11.89453125 C6.16050781 13.33892578 6.16050781 13.33892578 6.125 14.8125 C6.10695313 15.78832031 6.08890625 16.76414063 6.0703125 17.76953125 C6.03550781 18.87361328 6.03550781 18.87361328 6 20 C5.67 19.34 5.34 18.68 5 18 C4.34 18 3.68 18 3 18 C3 17.34 3 16.68 3 16 C2.34 16 1.68 16 1 16 C1.09539062 15.38511719 1.19078125 14.77023438 1.2890625 14.13671875 C1.39992188 13.32847656 1.51078125 12.52023438 1.625 11.6875 C1.79902344 10.48673828 1.79902344 10.48673828 1.9765625 9.26171875 C2.21533407 6.71276785 2.21533407 6.71276785 0 4 C0 2.68 0 1.36 0 0 Z " fill="#3CA9D9" transform="translate(260,160)"/>
<path d="M0 0 C0.66 0 1.32 0 2 0 C5 5.75 5 5.75 5 8 C5.66 8 6.32 8 7 8 C7 8.66 7 9.32 7 10 C7.99 9.67 8.98 9.34 10 9 C10.12375 9.78375 10.2475 10.5675 10.375 11.375 C10.79117993 14.14057822 10.79117993 14.14057822 13 16 C9 16 9 16 7.40234375 14.6796875 C0 5.56 0 5.56 0 0 Z " fill="#52AFD5" transform="translate(78,220)"/>
<path d="M0 0 C0.66 0.99 1.32 1.98 2 3 C1.21069203 5.48935591 0.1651105 7.669779 -1 10 C-1.66 10 -2.32 10 -3 10 C-3.75 7.25 -3.75 7.25 -4 4 C-2.0625 1.625 -2.0625 1.625 0 0 Z " fill="#2EA7D6" transform="translate(166,130)"/>
<path d="M0 0 C-2.41696872 0.05411124 -4.83271787 0.09372278 -7.25 0.125 C-7.93191406 0.14175781 -8.61382812 0.15851563 -9.31640625 0.17578125 C-13.0608235 0.21213482 -15.82352727 0.07944349 -19 -2 C-12.63724852 -3.50696746 -5.5371798 -3.6914532 0 0 Z " fill="#67B2D3" transform="translate(202,119)"/>
<path d="M0 0 C-0.5625 1.8125 -0.5625 1.8125 -2 4 C-5.50990464 5.78686054 -8.04124604 7 -12 7 C-12 6.01 -12 5.02 -12 4 C-10.5459375 3.814375 -10.5459375 3.814375 -9.0625 3.625 C-7.5465625 3.315625 -7.5465625 3.315625 -6 3 C-5.67 2.34 -5.34 1.68 -5 1 C-2 0 -2 0 0 0 Z " fill="#48AAD3" transform="translate(271,235)"/>
<path d="M0 0 C4.35535069 1.16142685 6.64619703 2.07699505 9 6 C6.36 5.67 3.72 5.34 1 5 C0.67 3.35 0.34 1.7 0 0 Z " fill="#4EAFD9" transform="translate(248,151)"/>
<path d="M0 0 C0.33 1.65 0.66 3.3 1 5 C-0.98 5.99 -0.98 5.99 -3 7 C-3.33 6.01 -3.66 5.02 -4 4 C-4.99 4.495 -4.99 4.495 -6 5 C-3.74193548 0 -3.74193548 0 0 0 Z " fill="#41AEE0" transform="translate(170,127)"/>
<path d="M0 0 C5.01113235 1.4317521 6.94469549 3.98445693 10 8 C6.6875 7.9375 6.6875 7.9375 3 7 C1.40959161 4.71858658 0.83493456 2.70125887 0 0 Z " fill="#55B1D8" transform="translate(205,120)"/>
<path d="M0 0 C0 3.71928506 -1.34770822 5.69541645 -3 9 C-3.69907414 11.73572585 -3.69907414 11.73572585 -4 14 C-4.99 13.67 -5.98 13.34 -7 13 C-6.36610765 9.50155614 -4.94822306 7.15913124 -2.9375 4.25 C-2.38964844 3.45078125 -1.84179688 2.6515625 -1.27734375 1.828125 C-0.85582031 1.22484375 -0.43429688 0.6215625 0 0 Z " fill="#6ABBDA" transform="translate(85,189)"/>
<path d="M0 0 C1.07765625 0.00902344 2.1553125 0.01804688 3.265625 0.02734375 C4.08546875 0.03894531 4.9053125 0.05054688 5.75 0.0625 C5.75 0.3925 5.75 0.7225 5.75 1.0625 C1.295 1.5575 1.295 1.5575 -3.25 2.0625 C-3.25 2.3925 -3.25 2.7225 -3.25 3.0625 C-5.56 3.0625 -7.87 3.0625 -10.25 3.0625 C-10.25 2.4025 -10.25 1.7425 -10.25 1.0625 C-6.78777385 -0.00473961 -3.60960734 -0.03923486 0 0 Z " fill="#7EC9E3" transform="translate(151.25,147.9375)"/>
<path d="M0 0 C0.66 1.32 1.32 2.64 2 4 C2.99 3.67 3.98 3.34 5 3 C3.63016497 6.16115776 3.0109362 6.9927092 0 9 C-0.87890625 2.84765625 -0.87890625 2.84765625 -1 1 C-0.67 0.67 -0.34 0.34 0 0 Z " fill="#5AB7DC" transform="translate(272,227)"/>
<path d="M0 0 C4.52261321 0.75376887 7.72319334 1.72319334 11 5 C6.62886504 4.49172849 3.61004338 3.54826592 0 1 C0 0.67 0 0.34 0 0 Z " fill="#60B5D4" transform="translate(90,237)"/>
<path d="M0 0 C2.79872437 2.52788007 4.45773019 4.20411134 5 8 C3.35 7.67 1.7 7.34 0 7 C0 4.69 0 2.38 0 0 Z " fill="#5AB3DA" transform="translate(275,190)"/>
<path d="M0 0 C-0.66 1.32 -1.32 2.64 -2 4 C-4.97 3.505 -4.97 3.505 -8 3 C-5.53387212 -0.1151089 -3.89156016 -0.31553191 0 0 Z " fill="#49A8D7" transform="translate(182,119)"/>
<path d="M0 0 C0.99 0.33 1.98 0.66 3 1 C3.33 1.99 3.66 2.98 4 4 C1.625 4.625 1.625 4.625 -1 5 C-1.66 4.34 -2.32 3.68 -3 3 C-2.01 2.01 -1.02 1.02 0 0 Z " fill="#28A3D5" transform="translate(203,120)"/>
<path d="M0 0 C3 3.75 3 3.75 3 6 C1.68 6.33 0.36 6.66 -1 7 C-0.67 4.69 -0.34 2.38 0 0 Z " fill="#4AAFD6" transform="translate(161,136)"/>
</svg>
