<?xml version="1.0" encoding="UTF-8"?>
<svg version="1.1" xmlns="http://www.w3.org/2000/svg" width="500" height="500">
<path d="M0 0 C145.86 0 291.72 0 442 0 C439.6223745 30.90913151 437.22159327 61.77527622 434.33524895 92.63488388 C433.75428295 98.85760023 433.17955077 105.08088491 432.60536194 111.30422974 C431.59249758 122.27439955 430.57491924 133.24412776 429.55609131 144.21374512 C428.02071289 160.74513158 426.48892794 177.27684988 424.96217734 193.80903542 C424.39499954 199.94864634 423.82519388 206.08800544 423.25326741 212.22717571 C421.47210361 231.36439284 419.76415763 250.50173111 418.28730226 269.6649847 C416.91516717 287.44874551 415.30555583 305.20842439 413.6668818 322.9693408 C413.25273249 327.4639872 412.84140803 331.95889227 412.42973328 336.45376587 C411.65613669 344.8958434 410.88014513 353.33769883 410.10320395 361.77946913 C409.2160909 371.41965115 408.33178342 381.06008995 407.44766486 390.70054698 C405.63480994 410.46731043 403.81858362 430.23376283 402 450 C381.66752086 456.48615452 381.66752086 456.48615452 372.26953125 459.04296875 C371.36202621 459.29308716 370.45452118 459.54320557 369.51951599 459.80090332 C366.61807441 460.5997425 363.71530667 461.39363735 360.8125 462.1875 C358.74762598 462.75526847 356.68284905 463.32339017 354.61816406 463.8918457 C348.41334858 465.59909531 342.2068763 467.30026022 336 469 C329.90602833 470.66923967 323.81211245 472.33868018 317.71878052 474.01025391 C316.07224567 474.46193816 314.4256595 474.91343541 312.77902222 475.36474609 C300.39883131 478.75975321 288.05055527 482.25676643 275.71484375 485.80966187 C261.79324112 489.81598001 247.81554759 493.58659808 233.79882812 497.24609375 C231.54656198 497.85277535 229.33202223 498.51478864 227.109375 499.21875 C221.23123759 500.69566895 216.21762685 500.02587541 210.484375 498.27734375 C209.24896973 497.90778564 208.01356445 497.53822754 206.74072266 497.1574707 C206.09194153 496.95900543 205.4431604 496.76054016 204.77471924 496.55606079 C201.27553876 495.48704549 197.7665135 494.45132045 194.2578125 493.4140625 C193.54825409 493.20370865 192.83869568 492.9933548 192.1076355 492.77662659 C185.98328995 490.9712851 179.81841794 489.36383783 173.625 487.8125 C158.33952628 483.95550663 143.21377495 479.53328476 128.07275391 475.1496582 C118.23513716 472.30821725 108.38987315 469.54348582 98.47265625 466.9921875 C87.64021305 464.20531538 76.88870629 461.17072634 66.14868164 458.0480957 C63.1165041 457.16686676 60.08276247 456.29117505 57.04882812 455.41601562 C55.10928364 454.85448213 53.16982686 454.29264558 51.23046875 453.73046875 C50.3286235 453.47009323 49.42677826 453.20971771 48.49760437 452.94145203 C47.6710585 452.70062393 46.84451263 452.45979584 45.99291992 452.21166992 C44.90451057 451.89573128 44.90451057 451.89573128 43.79411316 451.57341003 C42 451 42 451 40 450 C39.59819714 447.66706099 39.3316451 445.42748165 39.1342926 443.07417297 C39.06528006 442.34058931 38.99626752 441.60700565 38.92516369 440.85119218 C38.69441205 438.37329775 38.47729235 435.89439241 38.26000977 433.4152832 C38.09790312 431.64422838 37.93497049 429.87324899 37.77127075 428.1023407 C37.32666128 423.26604333 36.89388391 418.42875019 36.46321225 413.59119439 C36.00801998 408.49942838 35.54245165 403.40861098 35.07810974 398.31767273 C34.29605148 389.72706943 33.52100315 381.13585734 32.75073242 372.54418945 C31.77280157 361.63649016 30.78449921 350.72975978 29.79234409 339.82334614 C28.93045358 330.34881312 28.07268796 320.87390723 27.21595645 311.39890647 C27.03446533 309.39220958 26.85285304 307.38552365 26.67111325 305.37884927 C24.85180717 285.28955133 23.06435126 265.20087208 21.51367188 245.08886719 C19.92362419 224.48097587 18.03152629 203.90286782 16.12695765 183.32201457 C15.63458233 177.99348742 15.14561032 172.66464802 14.65638733 167.33583069 C13.21018138 151.58955089 11.75916625 135.84371484 10.30657959 120.09802246 C9.17145656 107.79310718 8.03786315 95.48805501 6.90875918 83.18258578 C6.33257171 76.90481754 5.75341215 70.62733376 5.17177761 64.35006797 C4.80792359 60.41559144 4.44689902 56.48085862 4.0865612 52.54605865 C3.92246517 50.76009928 3.75729352 48.97423823 3.59079361 47.18850136 C2.12632095 31.47007676 1.08678467 15.75837775 0 0 Z M221 93 C221 110.82 221 128.64 221 147 C246.74 147 272.48 147 299 147 C298.34 151.95 297.68 156.9 297 162 C296.69489987 164.78681839 296.40641553 167.57561265 296.1484375 170.3671875 C296.08467926 171.05708771 296.02092102 171.74698792 295.95523071 172.45779419 C295.82438489 173.8838296 295.69508368 175.31000764 295.56738281 176.73632812 C295.3731957 178.89505794 295.17121157 181.05296971 294.96875 183.2109375 C294.84068019 184.61714517 294.71305974 186.02339385 294.5859375 187.4296875 C294.4729834 188.66960449 294.3600293 189.90952148 294.24365234 191.18701172 C293.97123928 195.45008514 294 199.72823176 294 204 C269.91 204 245.82 204 221 204 C220.979375 212.889375 220.95875 221.77875 220.9375 230.9375 C220.928396 233.74757568 220.91929199 236.55765137 220.90991211 239.45288086 C220.90699317 241.66520134 220.90444456 243.87752235 220.90234375 246.08984375 C220.89722778 247.25068481 220.89211182 248.41152588 220.88684082 249.60754395 C220.88671997 250.70377075 220.88659912 251.79999756 220.88647461 252.92944336 C220.884254 253.88652695 220.88203339 254.84361053 220.87974548 255.82969666 C220.75687501 257.97917624 220.75687501 257.97917624 222 259 C224.08619022 259.09417773 226.17560477 259.11742878 228.26391602 259.11352539 C228.91755127 259.11367142 229.57118652 259.11381744 230.24462891 259.1139679 C232.41442128 259.11326883 234.58412879 259.10547678 236.75390625 259.09765625 C238.25463311 259.09579205 239.75536057 259.09436816 241.25608826 259.09336853 C245.21318226 259.08954352 249.17023978 259.0797134 253.12731934 259.06866455 C257.16234849 259.05845006 261.19738353 259.05387083 265.23242188 259.04882812 C273.15496469 259.03809111 281.07747781 259.0210149 289 259 C288.88724731 260.15392494 288.88724731 260.15392494 288.7722168 261.3311615 C288.06152406 268.61243825 287.35501303 275.89410333 286.65309143 283.17623043 C286.29215947 286.91922594 285.92966285 290.6620556 285.56347656 294.40454102 C285.20956258 298.02221458 284.85990746 301.64027765 284.51309204 305.25863838 C284.38063377 306.63293446 284.24669074 308.00708834 284.11117554 309.38108635 C283.39839859 316.61807767 282.83350708 323.72634075 283 331 C281.72511719 331.22945312 280.45023437 331.45890625 279.13671875 331.6953125 C270.92619407 333.33886168 262.88354669 335.66232146 254.8125 337.875 C253.20256029 338.31411872 251.5925347 338.75292272 249.98242188 339.19140625 C247.60873776 339.83786025 245.23511301 340.48452017 242.86184692 341.13250732 C235.58265843 343.11895236 228.29322047 345.0657436 221 347 C220.97463419 354.17162317 220.95712643 361.34323476 220.94506836 368.51489258 C220.94004122 370.9543501 220.9332186 373.39380461 220.92456055 375.83325195 C220.91242417 379.34066511 220.90675545 382.84803841 220.90234375 386.35546875 C220.89718246 387.44522507 220.89202118 388.53498138 220.88670349 389.65776062 C220.88662796 390.67844131 220.88655243 391.69912201 220.88647461 392.75073242 C220.884254 393.64563889 220.88203339 394.54054535 220.87974548 395.46257019 C221.00305814 398.06452827 221.42421976 400.4628987 222 403 C229.52021954 402.42517152 236.34476384 400.6696809 243.56640625 398.54296875 C245.35485207 398.02661613 245.35485207 398.02661613 247.1794281 397.49983215 C250.97582976 396.40263501 254.76928387 395.29565496 258.5625 394.1875 C263.54183364 392.73955419 268.52240142 391.29592639 273.50390625 389.85546875 C275.3013176 389.33510544 275.3013176 389.33510544 277.13504028 388.80422974 C284.52384831 386.67702676 291.92590893 384.70936568 299.39819336 382.90161133 C306.15311104 381.21070704 312.82085872 379.21592771 319.5 377.25 C322.00957533 376.51406881 324.51920985 375.77834235 327.02893066 375.04290771 C327.70037739 374.84612867 328.37182411 374.64934963 329.06361771 374.44660759 C330.70907183 373.9643824 332.354535 373.48218809 334 373 C334.06794738 372.19094963 334.13589476 371.38189926 334.20590115 370.54833221 C336.28335819 345.88977176 338.50894227 321.24585102 340.77478218 296.60395813 C341.39445022 289.86447637 342.01218353 283.12481804 342.62962341 276.38513184 C344.38287154 257.25035929 346.13829308 238.11578673 347.89624023 218.98144531 C348.87330839 208.34638395 349.84865695 197.71116623 350.82220787 187.0757823 C351.33400521 181.48562719 351.84665929 175.89555383 352.36151314 170.30567932 C354.96384151 142.26242149 354.96384151 142.26242149 357.26538086 114.19335938 C357.34460816 113.168386 357.42383547 112.14341263 357.5054636 111.08737946 C357.57354693 110.14568657 357.64163027 109.20399368 357.71177673 108.23376465 C357.76854049 107.45352684 357.82530424 106.67328903 357.88378811 105.86940765 C358.05739119 101.58294425 358 97.28997745 358 93 C312.79 93 267.58 93 221 93 Z " fill="#264EE3" transform="translate(29,0)"/>
<path d="M0 0 C-0.42903929 12.3089893 -1.37187547 24.52565129 -2.57443237 36.78271484 C-3.60825428 47.3559996 -4.45439249 57.93118933 -5.20053101 68.52844238 C-6.48200136 86.68197059 -8.22889563 104.76398038 -10.19873047 122.85546875 C-11.57562407 135.54366092 -12.74178208 148.23581787 -13.75704956 160.95800781 C-14.40887116 169.1194922 -15.08088374 177.27937129 -15.75 185.43945312 C-15.9178289 187.49404602 -16.08447963 189.54873546 -16.25 191.60351562 C-17.81462409 211.00240959 -17.81462409 211.00240959 -18.984375 219.65625 C-20.43551424 230.69507184 -21.12204554 241.80577778 -21.94515991 252.90551758 C-23.96445295 280.09470239 -26.334217 307.24048203 -28.94433594 334.37890625 C-29.06513519 335.63558105 -29.18593445 336.89225586 -29.31039429 338.18701172 C-29.54565172 340.63399417 -29.7813373 343.08093549 -30.01748657 345.52783203 C-30.87557926 354.4927907 -31.64668496 363.46312968 -32.34428406 372.4420166 C-32.70758447 377.01008789 -33.14398475 381.49099492 -34 386 C-37.58305376 386.93857064 -41.16646636 387.87576332 -44.75 388.8125 C-45.80590332 389.08876221 -46.86180664 389.36502441 -47.94970703 389.6496582 C-54.05496904 391.24350146 -60.16366007 392.81038269 -66.3046875 394.26171875 C-68.62616944 394.89760293 -70.87418977 395.6179899 -73.15234375 396.390625 C-78.2828826 398.12438963 -83.47390463 399.60119836 -88.6875 401.0625 C-95.56434887 402.98467174 -95.56434887 402.98467174 -102.375 405.125 C-105.34589222 406.11529741 -108.29588167 406.73804917 -111.36328125 407.33984375 C-113.70627734 407.92646055 -115.91786186 408.6397424 -118.19921875 409.42578125 C-122.90793571 411.02116094 -127.65319787 412.16135544 -132.5 413.25 C-140.89303641 415.19161558 -149.2043019 417.36538252 -157.5 419.6875 C-158.56798828 419.98495117 -159.63597656 420.28240234 -160.73632812 420.58886719 C-166.18531117 422.08269177 -166.18531117 422.08269177 -171.45117188 424.09692383 C-174 425 -174 425 -180 425 C-180 406.52 -180 388.04 -180 369 C-185.28 367.68 -190.56 366.36 -196 365 C-199.79768374 363.95231435 -203.58476868 362.89164866 -207.3671875 361.79296875 C-208.36228836 361.50666092 -209.35738922 361.22035309 -210.38264465 360.92536926 C-212.47679016 360.32281985 -214.57062455 359.71918817 -216.66415405 359.11450195 C-233.80263777 354.16645769 -250.95329025 349.29874734 -268.20019531 344.74121094 C-273.32511007 343.38445813 -278.44449406 342.00755205 -283.5625 340.625 C-284.50504639 340.37363281 -285.44759277 340.12226563 -286.41870117 339.86328125 C-287.27181885 339.63253906 -288.12493652 339.40179688 -289.00390625 339.1640625 C-289.75486572 338.96248535 -290.5058252 338.7609082 -291.27954102 338.55322266 C-293 338 -293 338 -294 337 C-294.19474759 335.57156006 -294.32701547 334.13452287 -294.43310547 332.69677734 C-294.50353058 331.77483582 -294.57395569 330.85289429 -294.64651489 329.90301514 C-294.75574783 328.38481171 -294.75574783 328.38481171 -294.8671875 326.8359375 C-294.94653534 325.7880304 -295.02588318 324.74012329 -295.1076355 323.66046143 C-295.27829469 321.40490221 -295.44705516 319.14919871 -295.61413574 316.89337158 C-296.04753826 311.04791349 -296.49503404 305.20355467 -296.9453125 299.359375 C-297.03417725 298.2052713 -297.12304199 297.0511676 -297.21459961 295.86209106 C-298.04609758 285.18489263 -299.03860435 274.52940504 -300.13623047 263.87646484 C-300.25111816 262.75449707 -300.36600586 261.6325293 -300.484375 260.4765625 C-300.58459961 259.52861816 -300.68482422 258.58067383 -300.78808594 257.60400391 C-300.99375759 255.07670681 -301 252.53565207 -301 250 C-282.52 250 -264.04 250 -245 250 C-244.505 255.754375 -244.01 261.50875 -243.5 267.4375 C-243.34337891 269.23501709 -243.18675781 271.03253418 -243.02539062 272.88452148 C-242.90204381 274.33835349 -242.77897886 275.79220945 -242.65625 277.24609375 C-242.59147461 277.97735474 -242.52669922 278.70861572 -242.45996094 279.46203613 C-242.0263632 284.65746617 -241.94590185 289.7862904 -242 295 C-240.49953125 295.11408203 -240.49953125 295.11408203 -238.96875 295.23046875 C-231.9763179 296.10759501 -225.24915756 298.35026234 -218.5 300.3125 C-198.03503845 306.61006202 -198.03503845 306.61006202 -177 310 C-177.99 310.33 -178.98 310.66 -180 311 C-179.67 329.48 -179.34 347.96 -179 367 C-164.12382916 363.11925978 -149.32054299 359.15716894 -134.5625 354.875 C-123.67082181 351.71536939 -112.78789586 348.64748252 -101.77172852 345.95166016 C-94.26855962 344.05850511 -86.85942698 341.82806706 -79.43554688 339.6484375 C-77.6634082 339.13410156 -77.6634082 339.13410156 -75.85546875 338.609375 C-74.79996826 338.29967773 -73.74446777 337.98998047 -72.65698242 337.67089844 C-70 337 -70 337 -67 337 C-66.9796667 336.38944061 -66.9593334 335.77888122 -66.93838394 335.14982003 C-66.42628736 320.29886065 -65.48783608 305.55180668 -64.09814453 290.7590332 C-63.90530569 288.65796569 -63.71300098 286.55684909 -63.5211792 284.45568848 C-63.11161797 279.98195874 -62.69836461 275.50859226 -62.28204727 271.03548622 C-61.61987138 263.92070274 -60.96619494 256.80515254 -60.31344604 249.6894989 C-59.27688546 238.40083958 -58.23462596 227.11271488 -57.18995464 215.82480353 C-55.32685614 195.69166713 -53.4734945 175.55763328 -51.62225425 155.42340344 C-50.97567183 148.39357609 -50.32664735 141.36398024 -49.67536569 134.33458674 C-49.26537184 129.90579026 -48.85705818 125.47683978 -48.44905853 121.04785919 C-48.26399066 119.04277858 -48.07825239 117.03775966 -47.89166641 115.03281975 C-46.09313378 95.70031386 -44.56934718 76.35528183 -43 57 C-88.21 57 -133.42 57 -180 57 C-180 74.82 -180 92.64 -180 111 C-224.22 111 -268.44 111 -314 111 C-318 62 -318 62 -318 56 C-249.69 55.505 -249.69 55.505 -180 55 C-180 37.18 -180 19.36 -180 1 C-156.82622371 0.86955687 -133.65244715 0.73916003 -110.47867012 0.60884857 C-99.71934111 0.5483449 -88.96001221 0.48782012 -78.20068359 0.42724609 C-68.82580363 0.37446644 -59.45092346 0.32172593 -50.07604301 0.26903296 C-45.1094733 0.2411162 -40.14290371 0.21317947 -35.17633438 0.18519592 C-30.50611396 0.15888273 -25.83589325 0.13262169 -21.1656723 0.10640144 C-19.44752618 0.09674583 -17.72938018 0.08707082 -16.01123428 0.07737541 C-13.67351561 0.06418662 -11.33579655 0.05106632 -8.99807739 0.03796387 C-7.68728777 0.03058952 -6.37649815 0.02321518 -5.02598763 0.01561737 C-3.35067264 0.00697093 -1.6753373 0 0 0 Z " fill="#2A65F0" transform="translate(430,36)"/>
<path d="M0 0 C18.48 0 36.96 0 56 0 C56.495 5.754375 56.99 11.50875 57.5 17.4375 C57.65662109 19.23501709 57.81324219 21.03253418 57.97460938 22.88452148 C58.09795619 24.33835349 58.22102114 25.79220945 58.34375 27.24609375 C58.40852539 27.97735474 58.47330078 28.70861572 58.54003906 29.46203613 C58.9736368 34.65746617 59.05409815 39.7862904 59 45 C60.0003125 45.07605469 61.000625 45.15210938 62.03125 45.23046875 C69.0236821 46.10759501 75.75084244 48.35026234 82.5 50.3125 C102.96496155 56.61006202 102.96496155 56.61006202 124 60 C122.515 60.495 122.515 60.495 121 61 C121.33 79.48 121.66 97.96 122 117 C123.485 117.495 123.485 117.495 125 118 C118.94807432 119.75562192 114.15289376 117.94022674 108.33984375 116.16796875 C107.29394577 115.86054749 106.24804779 115.55312622 105.17045593 115.23638916 C102.924067 114.57486493 100.67932317 113.90773348 98.43609619 113.23556519 C92.54419771 111.47054478 86.64038645 109.74614119 80.73828125 108.015625 C78.97287994 107.49608498 78.97287994 107.49608498 77.17181396 106.96604919 C67.02522162 103.98644178 56.84167846 101.16581521 46.625 98.4375 C45.13175301 98.03744069 43.63850753 97.63737569 42.14526367 97.23730469 C39.37439114 96.49604296 36.60298122 95.75684139 33.83105469 95.01953125 C28.13429499 93.50349324 22.44094701 91.97519823 16.75 90.4375 C15.84975098 90.19765381 14.94950195 89.95780762 14.02197266 89.71069336 C8.11376824 88.11376824 8.11376824 88.11376824 7 87 C6.80525241 85.57156006 6.67298453 84.13452287 6.56689453 82.69677734 C6.46125687 81.31386505 6.46125687 81.31386505 6.35348511 79.90301514 C6.28066315 78.89087952 6.20784119 77.8787439 6.1328125 76.8359375 C6.05346466 75.7880304 5.97411682 74.74012329 5.8923645 73.66046143 C5.72170531 71.40490221 5.55294484 69.14919871 5.38586426 66.89337158 C4.95246174 61.04791349 4.50496596 55.20355467 4.0546875 49.359375 C3.96582275 48.2052713 3.87695801 47.0511676 3.78540039 45.86209106 C2.95390242 35.18489263 1.96139565 24.52940504 0.86376953 13.87646484 C0.74888184 12.75449707 0.63399414 11.6325293 0.515625 10.4765625 C0.41540039 9.52861816 0.31517578 8.58067383 0.21191406 7.60400391 C0.00624241 5.07670681 0 2.53565207 0 0 Z " fill="#EAEAEB" transform="translate(129,286)"/>
<path d="M0 0 C91.08 0 182.16 0 276 0 C276 1.65 276 3.3 276 5 C275.67 3.68 275.34 2.36 275 1 C229.79 1 184.58 1 138 1 C138 18.82 138 36.64 138 55 C93.78 55 49.56 55 4 55 C0 6 0 6 0 0 Z " fill="#E9EAEC" transform="translate(112,92)"/>
<path d="M0 0 C42.24 0 84.48 0 128 0 C128.33 18.15 128.66 36.3 129 55 C87.75 55 46.5 55 4 55 C0 14 0 14 0 0 Z " fill="#EAEAEB" transform="translate(122,204)"/>
<path d="M0 0 C63.36 0 126.72 0 192 0 C192 5.45585611 191.96880445 10.44670414 191.44921875 15.80493164 C191.26903198 17.69587303 191.26903198 17.69587303 191.08520508 19.62501526 C190.95272945 20.97007139 190.82015893 22.31511818 190.6875 23.66015625 C190.55260514 25.05973274 190.41809005 26.45934588 190.28393555 27.85899353 C189.93260842 31.51383157 189.57617916 35.16815402 189.21862793 38.8223877 C188.85356269 42.56293055 188.49340386 46.30394556 188.1328125 50.04492188 C187.42663353 57.36374786 186.71505532 64.68203532 186 72 C180.09646467 73.65619717 174.1923092 75.31015942 168.28759766 76.9621582 C166.28384986 77.52308519 164.28026536 78.08459585 162.27685547 78.64672852 C136.49998074 85.87839537 120.24282383 88.23851456 94 81 C94 80.67 94 80.34 94 80 C98.36999066 79.8439289 102.08768125 79.8946002 106.3125 81.0625 C109.90920373 82.33039454 109.90920373 82.33039454 113 81 C113 81.99 113 82.98 113 84 C114.0725 84.144375 115.145 84.28875 116.25 84.4375 C120 85 120 85 124 86 C124 57.95 124 29.9 124 1 C83.08 1 42.16 1 0 1 C0 0.67 0 0.34 0 0 Z " fill="#2D66EE" transform="translate(126,259)"/>
<path d="M0 0 C0.33 0 0.66 0 1 0 C1 3.63 1 7.26 1 11 C70.96 11 140.92 11 213 11 C211.45860222 30.0105726 209.89783039 49.02169613 208 68 C141.67 68 75.34 68 7 68 C7 67.67 7 67.34 7 67 C49.24 67 91.48 67 135 67 C135 48.85 135 30.7 135 12 C90.45 12 45.9 12 0 12 C0 8.04 0 4.08 0 0 Z " fill="#3068EE" transform="translate(115,136)"/>
<path d="M0 0 C18.48 0 36.96 0 56 0 C56.495 5.775 56.99 11.55 57.5 17.5 C57.65662109 19.30662109 57.81324219 21.11324219 57.97460938 22.97460938 C58.09792234 24.43096708 58.2209854 25.88734597 58.34375 27.34375 C58.40852539 28.08012695 58.47330078 28.81650391 58.54003906 29.57519531 C58.94274113 34.40122803 59.0574274 39.15695556 59 44 C58.67 44 58.34 44 58 44 C55.95595455 35.2215548 55.78232358 26.96101244 56 18 C55.34 18 54.68 18 54 18 C53.505 10.575 53.505 10.575 53 3 C36.17 2.67 19.34 2.34 2 2 C2.66 5.96 3.32 9.92 4 14 C4.12739433 17.61799903 4.19586021 21.14157989 4.125 24.75 C4.11597656 25.64976562 4.10695312 26.54953125 4.09765625 27.4765625 C4.07452221 29.65116226 4.03867472 31.82562111 4 34 C4.66 34 5.32 34 6 34 C6.02505615 34.78238037 6.0501123 35.56476074 6.07592773 36.37084961 C6.19149788 39.89324949 6.31439949 43.4153556 6.4375 46.9375 C6.47681641 48.16919922 6.51613281 49.40089844 6.55664062 50.66992188 C6.59853516 51.83974609 6.64042969 53.00957031 6.68359375 54.21484375 C6.72025146 55.29886475 6.75690918 56.38288574 6.79467773 57.49975586 C6.72364265 59.939263 6.72364265 59.939263 8 61 C7.90982004 63.19050021 7.75333792 65.378466 7.5625 67.5625 C7.46066406 68.76003906 7.35882813 69.95757812 7.25390625 71.19140625 C7.17011719 72.11824219 7.08632812 73.04507813 7 74 C6.67 74 6.34 74 6 74 C5.92483154 73.0112085 5.84966309 72.02241699 5.7722168 71.00366211 C5.41452505 66.31463944 5.05207271 61.62599241 4.6875 56.9375 C4.62130463 56.08608429 4.55510925 55.23466858 4.48690796 54.35745239 C3.44839065 41.06752247 2.26693918 27.79850353 0.91479492 14.53686523 C0.79467041 13.34778564 0.6745459 12.15870605 0.55078125 10.93359375 C0.44419189 9.90290771 0.33760254 8.87222168 0.2277832 7.81030273 C0.01736761 5.21427497 0 2.6045412 0 0 Z " fill="#CBD7F8" transform="translate(129,286)"/>
<path d="M0 0 C3 4 3 4 4 28 C44.26 28 84.52 28 126 28 C126.495 29.485 126.495 29.485 127 31 C85.75 31 44.5 31 2 31 C0 10 0 10 0 0 Z " fill="#DFEAFD" transform="translate(124,228)"/>
<path d="M0 0 C0.66 0 1.32 0 2 0 C2.1693314 9.4840009 1.66052893 18.81060596 0.828125 28.25390625 C0.7039246 29.70885434 0.58018764 31.16384206 0.45687866 32.61886597 C0.12869978 36.47437331 -0.20633986 40.3292542 -0.54296112 44.18403244 C-0.82032527 47.37039842 -1.09355492 50.55711326 -1.36673546 53.74384022 C-3.48959568 78.50373935 -5.68934336 103.25689134 -8 128 C-8.33 128 -8.66 128 -9 128 C-9.22858902 111.69398299 -8.78600846 95.39897132 -6.5390625 79.234375 C-5.69514399 72.96789649 -5.22054438 66.65920185 -4.69750977 60.359375 C-4.62072998 59.4621875 -4.5439502 58.565 -4.46484375 57.640625 C-4.399021 56.84172852 -4.33319824 56.04283203 -4.26538086 55.21972656 C-4 53 -4 53 -3.48852539 51.18115234 C-2.76815187 47.964852 -2.7828519 44.74226047 -2.71875 41.4609375 C-2.70034058 40.73887115 -2.68193115 40.01680481 -2.66296387 39.27285767 C-2.58449341 36.19214261 -2.51640475 33.11122061 -2.44775391 30.03027344 C-2.39606749 27.77788377 -2.33882464 25.52568309 -2.28125 23.2734375 C-2.26767456 22.57447357 -2.25409912 21.87550964 -2.2401123 21.15536499 C-2.11286005 16.22572011 -2.11286005 16.22572011 -1 14 C-0.76970044 11.62876754 -0.58880058 9.25258057 -0.4375 6.875 C-0.35371094 5.59367188 -0.26992188 4.31234375 -0.18359375 2.9921875 C-0.12300781 2.00476563 -0.06242187 1.01734375 0 0 Z " fill="#6981D9" transform="translate(449,213)"/>
<path d="M0 0 C0.66 0 1.32 0 2 0 C2.33 5.28 2.66 10.56 3 16 C6.40441677 16.85110419 8.85369286 17.13436349 12.3024292 17.15821838 C13.37652542 17.1680072 14.45062164 17.17779602 15.55726624 17.18788147 C16.73042892 17.19363693 17.90359161 17.1993924 19.11230469 17.20532227 C20.97123604 17.22017166 20.97123604 17.22017166 22.86772156 17.23532104 C26.26199938 17.26148869 29.65625393 17.28335901 33.05057049 17.30332303 C36.59935202 17.32521026 40.14809111 17.35258555 43.69683838 17.37937927 C50.41509092 17.42926917 57.13336708 17.47422171 63.85166574 17.51740164 C71.50097589 17.56680568 79.15024345 17.62171206 86.79951239 17.67708123 C102.53296888 17.79084442 118.26646457 17.89769576 134 18 C134 18.33 134 18.66 134 19 C90.11 19 46.22 19 1 19 C0.67 12.73 0.34 6.46 0 0 Z " fill="#DAE9FE" transform="translate(115,128)"/>
<path d="M0 0 C0.33 0 0.66 0 1 0 C1.18178317 10.44243313 0.54249376 19.83002496 -2 30 C-25.76 30 -49.52 30 -74 30 C-74 29.67 -74 29.34 -74 29 C-50.57 29 -27.14 29 -3 29 C-3 24.05 -3 19.1 -3 14 C-2.67 13.67 -2.34 13.34 -2 13 C-1.79103683 11.19188816 -1.63219639 9.37783968 -1.5 7.5625 C-1.10992366 2.21984733 -1.10992366 2.21984733 0 0 Z " fill="#4270DC" transform="translate(324,173)"/>
<path d="M0 0 C0.33 0 0.66 0 1 0 C1.05534912 0.65597168 1.11069824 1.31194336 1.16772461 1.98779297 C1.42009399 4.95057273 1.67871815 7.91277374 1.9375 10.875 C2.02451172 11.90753906 2.11152344 12.94007813 2.20117188 14.00390625 C2.28818359 14.99003906 2.37519531 15.97617187 2.46484375 16.9921875 C2.543396 17.90339355 2.62194824 18.81459961 2.70288086 19.75341797 C2.87995419 22.031644 2.87995419 22.031644 4 24 C4.08400529 25.59447464 4.10727467 27.19240545 4.09765625 28.7890625 C4.09282227 30.20058594 4.09282227 30.20058594 4.08789062 31.640625 C4.07951172 32.62546875 4.07113281 33.6103125 4.0625 34.625 C4.05798828 35.61757813 4.05347656 36.61015625 4.04882812 37.6328125 C4.03702145 40.0886016 4.020554 42.54427104 4 45 C1.25510865 42.25510865 1.44604562 39.56135464 1.1484375 35.8671875 C1.08467926 35.1565213 1.02092102 34.4458551 0.95523071 33.71365356 C0.82171352 32.20595576 0.69254908 30.69786717 0.56738281 29.18945312 C0.37741084 26.90400352 0.17432826 24.62003057 -0.03125 22.3359375 C-0.15963709 20.86725573 -0.2872646 19.39850732 -0.4140625 17.9296875 C-0.47340973 17.25541718 -0.53275696 16.58114685 -0.59390259 15.88644409 C-1.62953317 3.25906634 -1.62953317 3.25906634 0 0 Z " fill="#5471D7" transform="translate(59,320)"/>
<path d="M0 0 C0.66 0 1.32 0 2 0 C2.21307427 9.38611891 1.58715801 18.49330315 0.5 27.8125 C0.35691406 29.08931641 0.21382813 30.36613281 0.06640625 31.68164062 C-0.28268388 34.78854278 -0.63823764 37.8945524 -1 41 C-1.33 41 -1.66 41 -2 41 C-2.02892385 36.87501462 -2.04677267 32.75005515 -2.0625 28.625 C-2.07087891 27.449375 -2.07925781 26.27375 -2.08789062 25.0625 C-2.09111328 23.94101563 -2.09433594 22.81953125 -2.09765625 21.6640625 C-2.10289307 20.62717285 -2.10812988 19.5902832 -2.11352539 18.52197266 C-2 16 -2 16 -1 14 C-0.76970044 11.62876754 -0.58880058 9.25258057 -0.4375 6.875 C-0.35371094 5.59367188 -0.26992188 4.31234375 -0.18359375 2.9921875 C-0.09271484 1.51105469 -0.09271484 1.51105469 0 0 Z " fill="#5570D4" transform="translate(449,213)"/>
<path d="M0 0 C0.33 0 0.66 0 1 0 C2.06307945 5.97982191 2.35707262 11.92976549 2 18 C1.67 18.33 1.34 18.66 1 19 C0.79016721 21.14204311 0.63176615 23.28924113 0.5 25.4375 C0.11013767 31.77972466 0.11013767 31.77972466 -1 34 C-1.27632858 37.04838667 -1.44658298 40.09654869 -1.62109375 43.15234375 C-2 46 -2 46 -4 49 C-2.83397792 32.64944605 -1.55102118 16.31872285 0 0 Z " fill="#7095E4" transform="translate(373,250)"/>
<path d="M0 0 C2.45297843 1.85355547 2.97959268 2.90179738 3.6159668 5.96411133 C3.72593994 7.1580249 3.83591309 8.35193848 3.94921875 9.58203125 C4.01156204 10.23266037 4.07390533 10.88328949 4.13813782 11.55363464 C4.26780463 12.93580925 4.39094803 14.31860907 4.50805664 15.7019043 C4.68375487 17.76845016 4.87997037 19.83217577 5.08007812 21.89648438 C5.89216908 30.62361374 6.1622936 39.23013485 6 48 C5.34 48 4.68 48 4 48 C3.94465088 47.24493164 3.88930176 46.48986328 3.83227539 45.71191406 C3.57629136 42.22456446 3.3194001 38.73728223 3.0625 35.25 C2.97548828 34.06277344 2.88847656 32.87554687 2.79882812 31.65234375 C2.53686041 28.10122588 2.26890995 24.5505982 2 21 C1.9160498 19.84564453 1.83209961 18.69128906 1.74560547 17.50195312 C1.6632666 16.42365234 1.58092773 15.34535156 1.49609375 14.234375 C1.42447021 13.27241211 1.35284668 12.31044922 1.27905273 11.31933594 C1.12960186 8.97823018 1.12960186 8.97823018 0 7 C-0.04022391 4.6670134 -0.04320247 2.33293334 0 0 Z " fill="#3A58C9" transform="translate(127,288)"/>
<path d="M0 0 C0.33 0 0.66 0 1 0 C2.58146808 5.58785388 3.35845205 10.88507288 3.75390625 16.6796875 C3.86539011 19.02276765 3.86539011 19.02276765 5 21 C5.09778166 23.26910971 5.12975646 25.54128942 5.125 27.8125 C5.12757812 29.03582031 5.13015625 30.25914062 5.1328125 31.51953125 C5.01945473 34.49017156 4.69145246 37.1189481 4 40 C3.67 40 3.34 40 3 40 C2.56862177 35.42884403 2.14152493 30.85731492 1.71826172 26.28540039 C1.57390892 24.73255821 1.42841965 23.17982122 1.28173828 21.62719727 C1.07019555 19.38585168 0.86284421 17.14415024 0.65625 14.90234375 C0.55781799 13.87378517 0.55781799 13.87378517 0.45739746 12.82444763 C0.06719123 8.535614 -0.05874274 4.30535339 0 0 Z " fill="#5E79D8" transform="translate(44,164)"/>
<path d="M0 0 C0.33 0 0.66 0 1 0 C0.39838932 13.71039082 -0.66660054 27.34187478 -2 41 C-2.33 41 -2.66 41 -3 41 C-3.09232923 30.59757307 -3.12914012 20.20570724 -2.625 9.8125 C-2.59414307 9.05340332 -2.56328613 8.29430664 -2.53149414 7.51220703 C-2.23908319 2.23908319 -2.23908319 2.23908319 0 0 Z " fill="#667ED8" transform="translate(463,76)"/>
<path d="M0 0 C0.66 0.33 1.32 0.66 2 1 C1.67 6.61 1.34 12.22 1 18 C-2.3 18.66 -5.6 19.32 -9 20 C-9.33 19.34 -9.66 18.68 -10 18 C-8.02 17.67 -6.04 17.34 -4 17 C-4.33 14.36 -4.66 11.72 -5 9 C-3.68 9 -2.36 9 -1 9 C-0.67 6.03 -0.34 3.06 0 0 Z " fill="#4E7CE5" transform="translate(311,313)"/>
<path d="M0 0 C5.67355671 0.61726196 11.33861055 1.27945952 17 2 C17 2.66 17 3.32 17 4 C17.66 4.12375 18.32 4.2475 19 4.375 C26.41459052 5.91970636 33.70173539 7.98761086 41 10 C41 10.66 41 11.32 41 12 C32.09707628 10.48980233 23.51792807 7.93175043 14.875 5.375 C13.42719803 4.9501298 11.9792821 4.52564771 10.53125 4.1015625 C7.01950953 3.0721752 3.50933588 2.03755942 0 1 C0 0.67 0 0.34 0 0 Z " fill="#CAD8F9" transform="translate(203,391)"/>
<path d="M0 0 C0.66 0 1.32 0 2 0 C1.89037184 3.1257396 1.75968759 6.25024781 1.625 9.375 C1.5940625 10.26445312 1.563125 11.15390625 1.53125 12.0703125 C1.47324219 13.34648437 1.47324219 13.34648437 1.4140625 14.6484375 C1.36693115 15.82672119 1.36693115 15.82672119 1.31884766 17.02880859 C1 19 1 19 -1 21 C-1.66 19.02 -2.32 17.04 -3 15 C-3.33 15 -3.66 15 -4 15 C-4 13.02 -4 11.04 -4 9 C-3.01 8.67 -2.02 8.34 -1 8 C-1.020625 6.865625 -1.04125 5.73125 -1.0625 4.5625 C-1 1 -1 1 0 0 Z " fill="#4968DA" transform="translate(438,344)"/>
<path d="M0 0 C0 0.66 0 1.32 0 2 C0.804375 1.979375 1.60875 1.95875 2.4375 1.9375 C5 2 5 2 6 3 C8.32817964 3.36760731 10.6618385 3.70241581 13 4 C13 4.66 13 5.32 13 6 C15.31 6 17.62 6 20 6 C20 6.66 20 7.32 20 8 C20.99 8 21.98 8 23 8 C23 8.66 23 9.32 23 10 C12.93273677 7.54201885 2.94465276 4.92124175 -7 2 C-4.35261084 0.5393715 -3.10551666 0 0 0 Z " fill="#6075DC" transform="translate(92,453)"/>
<path d="M0 0 C4.36999066 -0.1560711 8.08768125 -0.1053998 12.3125 1.0625 C15.90920373 2.33039454 15.90920373 2.33039454 19 1 C19 1.99 19 2.98 19 4 C21.18725251 4.16988369 23.37481701 4.33575269 25.5625 4.5 C27.38974609 4.63921875 27.38974609 4.63921875 29.25390625 4.78125 C32.84634216 4.99102728 36.40247543 5.03704015 40 5 C35.06333943 8.29110705 29.7445527 7.76878772 24 7 C15.91498398 5.36644774 7.9486501 3.19246297 0 1 C0 0.67 0 0.34 0 0 Z " fill="#4765D3" transform="translate(220,339)"/>
<path d="M0 0 C5.13074372 0.45131542 9.96686552 1.18056448 14.9375 2.5234375 C18.57803779 3.36462237 22.28321284 3.67306039 26 4 C26 4.66 26 5.32 26 6 C27.36125 6.2165625 27.36125 6.2165625 28.75 6.4375 C31.21476956 6.86409473 33.58847107 7.35074221 36 8 C36 8.66 36 9.32 36 10 C28.00376013 8.54883901 20.20909437 6.52348073 12.375 4.375 C11.18003906 4.05015625 9.98507813 3.7253125 8.75390625 3.390625 C5.83511547 2.59671391 2.91718675 1.79978098 0 1 C0 0.67 0 0.34 0 0 Z " fill="#CCD7F8" transform="translate(166,381)"/>
<path d="M0 0 C0.33 0 0.66 0 1 0 C1.23875713 8.74447992 0.33046935 17.37043992 -0.5 26.0625 C-0.64491059 27.61129268 -0.78944499 29.16012061 -0.93359375 30.70898438 C-1.28472494 34.47307679 -1.64094958 38.23665508 -2 42 C-2.33 42 -2.66 42 -3 42 C-3.02887236 38.18751574 -3.04675492 34.3750593 -3.0625 30.5625 C-3.07087891 29.47388672 -3.07925781 28.38527344 -3.08789062 27.26367188 C-3.09111328 26.22919922 -3.09433594 25.19472656 -3.09765625 24.12890625 C-3.10289307 23.17056885 -3.10812988 22.21223145 -3.11352539 21.22485352 C-3 19 -3 19 -2 18 C-1.78841034 15.53733145 -1.62382216 13.09227116 -1.5 10.625 C-1.13331486 3.39994457 -1.13331486 3.39994457 0 0 Z " fill="#738BDC" transform="translate(436,376)"/>
<path d="M0 0 C-0.33 0.99 -0.66 1.98 -1 3 C-2.03125 3.103125 -3.0625 3.20625 -4.125 3.3125 C-7.96066744 3.78205944 -7.96066744 3.78205944 -10.875 5.5625 C-15.00875448 7.46402706 -18.52581424 7.26845115 -23 7 C-19.52778475 4.68518983 -16.0076566 3.58998108 -12.0625 2.375 C-11.34642578 2.14554687 -10.63035156 1.91609375 -9.89257812 1.6796875 C-6.40903032 0.59491265 -3.68101033 0 0 0 Z " fill="#4774DB" transform="translate(274,398)"/>
<path d="M0 0 C-9.40981006 4.20438322 -17.62343814 6.49082861 -28 7 C-23.81268429 4.2084562 -19.37219401 3.18716036 -14.5625 1.8125 C-13.60794922 1.52697266 -12.65339844 1.24144531 -11.66992188 0.94726562 C-10.74888672 0.68236328 -9.82785156 0.41746094 -8.87890625 0.14453125 C-7.61929077 -0.22128052 -7.61929077 -0.22128052 -6.33422852 -0.59448242 C-3.85728536 -1.02479333 -2.36054075 -0.79591328 0 0 Z " fill="#658BE3" transform="translate(309,389)"/>
<path d="M0 0 C3.13217778 3.39590209 3.35738037 5.74512078 3.29296875 10.296875 C3.28330078 11.50214844 3.27363281 12.70742187 3.26367188 13.94921875 C3.23853516 15.20347656 3.21339844 16.45773438 3.1875 17.75 C3.17396484 19.01972656 3.16042969 20.28945312 3.14648438 21.59765625 C3.1111324 24.73219844 3.06178248 27.86588545 3 31 C2.67 31 2.34 31 2 31 C1.65846908 27.70913156 1.32833354 24.41720923 1 21.125 C0.90460938 20.2071875 0.80921875 19.289375 0.7109375 18.34375 C0.10589688 12.20690947 -0.12065893 6.16533625 0 0 Z " fill="#D4DDFA" transform="translate(124,228)"/>
<path d="M0 0 C-3.80773693 2.53849129 -7.56055664 3.47302797 -11.9375 4.6875 C-12.74896484 4.92533203 -13.56042969 5.16316406 -14.39648438 5.40820312 C-15.18216797 5.62798828 -15.96785156 5.84777344 -16.77734375 6.07421875 C-17.49140381 6.27619873 -18.20546387 6.47817871 -18.94116211 6.6862793 C-21.25122486 7.03828103 -22.79230597 6.70940527 -25 6 C-21.96474514 3.97649676 -20.80573798 3.67875982 -17.3125 3.375 C-16.50425781 3.30023438 -15.69601562 3.22546875 -14.86328125 3.1484375 C-14.24839844 3.09945313 -13.63351562 3.05046875 -13 3 C-13 2.34 -13 1.68 -13 1 C-8.62426048 0.40667939 -4.42471556 -0.13827236 0 0 Z " fill="#647BD9" transform="translate(415,454)"/>
<path d="M0 0 C2.64 0.33 5.28 0.66 8 1 C5.05585347 2.96276436 2.94101364 3.71733962 -0.4375 4.625 C-1.38496094 4.88539063 -2.33242188 5.14578125 -3.30859375 5.4140625 C-6 6 -6 6 -10 6 C-10 4 -10 4 -8.9375 2.375 C-6.03661182 0.31630516 -3.45519943 0.80442267 0 1 C0 0.67 0 0.34 0 0 Z " fill="#5570DA" transform="translate(277,489)"/>
<path d="M0 0 C0.11044961 6.73742646 -0.29867087 13.29980211 -1 20 C-1.66 20 -2.32 20 -3 20 C-3 13.73 -3 7.46 -3 1 C-1 0 -1 0 0 0 Z " fill="#5670D7" transform="translate(432,430)"/>
<path d="M0 0 C1.5625 1.125 1.5625 1.125 3 3 C2.72265625 5.6015625 2.72265625 5.6015625 2 9 C1.72978983 12.12040105 1.5896674 15.2468374 1.4375 18.375 C1.39431641 19.20644531 1.35113281 20.03789062 1.30664062 20.89453125 C1.20138195 22.92953228 1.10026928 24.96474703 1 27 C0.67 27 0.34 27 0 27 C-0.74440282 17.87247617 -1.25610227 9.12123495 0 0 Z " fill="#5380DE" transform="translate(368,305)"/>
<path d="M0 0 C0.99 0 1.98 0 3 0 C3.39228903 4.29027206 3.76090295 8.58225081 4.125 12.875 C4.23714844 14.09832031 4.34929687 15.32164062 4.46484375 16.58203125 C4.56152344 17.74863281 4.65820312 18.91523438 4.7578125 20.1171875 C4.8520752 21.19597168 4.94633789 22.27475586 5.04345703 23.38623047 C5 26 5 26 3 28 C2.94465088 27.29391602 2.88930176 26.58783203 2.83227539 25.86035156 C2.57916858 22.65661463 2.32089096 19.45331489 2.0625 16.25 C1.97548828 15.13882813 1.88847656 14.02765625 1.79882812 12.8828125 C1.71181641 11.81289062 1.62480469 10.74296875 1.53515625 9.640625 C1.456604 8.65610352 1.37805176 7.67158203 1.29711914 6.65722656 C1.03876091 4.3466506 0.6322672 2.23262117 0 0 Z " fill="#3A58CD" transform="translate(119,204)"/>
<path d="M0 0 C-1.43671568 0.64757625 -2.87440416 1.29299453 -4.3125 1.9375 C-5.11300781 2.29714844 -5.91351563 2.65679687 -6.73828125 3.02734375 C-11.03566978 4.87544348 -13.43276314 4.91344737 -18 4 C-18 4.66 -18 5.32 -18 6 C-19.65 5.67 -21.3 5.34 -23 5 C-19.36377208 2.94998375 -15.50428596 1.88938079 -11.5 0.8125 C-10.83613281 0.62236328 -10.17226563 0.43222656 -9.48828125 0.23632812 C-6.02469674 -0.70042976 -3.40419264 -1.36341389 0 0 Z " fill="#638AE0" transform="translate(332,383)"/>
<path d="M0 0 C16.76162791 1.62209302 16.76162791 1.62209302 24 5 C23.67 5.66 23.34 6.32 23 7 C20.29081668 6.37851697 17.58268873 5.75293439 14.875 5.125 C14.11445313 4.95097656 13.35390625 4.77695312 12.5703125 4.59765625 C8.29274576 3.60201572 4.14594191 2.47028611 0 1 C0 0.67 0 0.34 0 0 Z " fill="#4760CD" transform="translate(196,332)"/>
<path d="M0 0 C0.33 0 0.66 0 1 0 C1.12117188 1.14339844 1.24234375 2.28679687 1.3671875 3.46484375 C1.53597321 4.95578417 1.70527047 6.44666673 1.875 7.9375 C1.95363281 8.69224609 2.03226562 9.44699219 2.11328125 10.22460938 C2.33883808 12.15919299 2.66258974 14.08176019 3 16 C3.66 16.33 4.32 16.66 5 17 C5 17.66 5 18.32 5 19 C3.35 18.67 1.7 18.34 0 18 C0 12.06 0 6.12 0 0 Z " fill="#4C67CE" transform="translate(69,432)"/>
<path d="M0 0 C2.19326037 3.28989056 2.32328885 4.76708395 2.5625 8.625 C2.50275129 12.1250531 2.50275129 12.1250531 4 15 C3.90982004 17.19050021 3.75333792 19.378466 3.5625 21.5625 C3.40974609 23.35880859 3.40974609 23.35880859 3.25390625 25.19140625 C3.17011719 26.11824219 3.08632812 27.04507812 3 28 C2.67 28 2.34 28 2 28 C1.34 18.76 0.68 9.52 0 0 Z " fill="#C2D1F9" transform="translate(133,332)"/>
<path d="M0 0 C0.33 0 0.66 0 1 0 C2.0712828 6.02596573 2.09945415 11.88909517 2 18 C1.01 18.33 0.02 18.66 -1 19 C-0.67 12.73 -0.34 6.46 0 0 Z " fill="#638BE4" transform="translate(373,250)"/>
<path d="M0 0 C0.66 0 1.32 0 2 0 C1.67 6.6 1.34 13.2 1 20 C0.67 20 0.34 20 0 20 C-0.19594676 16.85463232 -0.3803401 13.70869386 -0.5625 10.5625 C-0.61857422 9.66466797 -0.67464844 8.76683594 -0.73242188 7.84179688 C-0.78076172 6.98779297 -0.82910156 6.13378906 -0.87890625 5.25390625 C-0.9260376 4.46314697 -0.97316895 3.6723877 -1.02172852 2.85766602 C-1 1 -1 1 0 0 Z " fill="#6680DA" transform="translate(57,299)"/>
<path d="M0 0 C0.11044961 6.73742646 -0.29867087 13.29980211 -1 20 C-1.33 20 -1.66 20 -2 20 C-2.33 13.73 -2.66 7.46 -3 1 C-1 0 -1 0 0 0 Z " fill="#6C83DD" transform="translate(454,184)"/>
<path d="M0 0 C0.90105469 0.11988281 1.80210937 0.23976563 2.73046875 0.36328125 C3.41753906 0.47027344 4.10460937 0.57726562 4.8125 0.6875 C1.80809979 2.69043347 0.10256055 3.18021626 -3.375 3.8125 C-4.27605469 3.98007812 -5.17710937 4.14765625 -6.10546875 4.3203125 C-6.79253906 4.44148438 -7.47960937 4.56265625 -8.1875 4.6875 C-8.1875 2.6875 -8.1875 2.6875 -7.01171875 1.04296875 C-4.49129122 -0.82981145 -3.0587131 -0.43695901 0 0 Z " fill="#5B75D9" transform="translate(385.1875,460.3125)"/>
<path d="M0 0 C4.29 0.33 8.58 0.66 13 1 C13 1.33 13 1.66 13 2 C10.69 2.33 8.38 2.66 6 3 C6.99 3.99 7.98 4.98 9 6 C6.36 5.34 3.72 4.68 1 4 C0.67 2.68 0.34 1.36 0 0 Z " fill="#D3DAEC" transform="translate(240,345)"/>
<path d="M0 0 C0.99 0.33 1.98 0.66 3 1 C2.67 7.6 2.34 14.2 2 21 C1.67 21 1.34 21 1 21 C0.67 14.07 0.34 7.14 0 0 Z " fill="#2C4ECD" transform="translate(53,256)"/>
<path d="M0 0 C0.99 0 1.98 0 3 0 C3 0.66 3 1.32 3 2 C5.31 2 7.62 2 10 2 C10 2.66 10 3.32 10 4 C10.99 4 11.98 4 13 4 C13 4.66 13 5.32 13 6 C3.40546697 4.44191344 3.40546697 4.44191344 0 0 Z " fill="#536FD7" transform="translate(102,457)"/>
<path d="M0 0 C-0.33 0.99 -0.66 1.98 -1 3 C-7.435 3.495 -7.435 3.495 -14 4 C-9.52281208 1.01520806 -5.36175907 0 0 0 Z " fill="#6288E4" transform="translate(274,398)"/>
<path d="M0 0 C-3.0469629 1.69433918 -5.82821466 2.49467112 -9.25 3.125 C-10.58804687 3.37636719 -10.58804687 3.37636719 -11.953125 3.6328125 C-12.62859375 3.75398438 -13.3040625 3.87515625 -14 4 C-14 3.34 -14 2.68 -14 2 C-9.126739 0.4087311 -5.19209404 -0.21192221 0 0 Z " fill="#617CD8" transform="translate(336,476)"/>
<path d="M0 0 C1.98 0 3.96 0 6 0 C6 0.66 6 1.32 6 2 C7.65 2 9.3 2 11 2 C10.67 2.66 10.34 3.32 10 4 C6.7 3.34 3.4 2.68 0 2 C0 1.34 0 0.68 0 0 Z " fill="#5773D7" transform="translate(120,463)"/>
<path d="M0 0 C0.33 0 0.66 0 1 0 C1.22786458 1.98567708 1.45572917 3.97135417 1.68359375 5.95703125 C1.97170735 8.19396393 1.97170735 8.19396393 3 11 C3.66 11.33 4.32 11.66 5 12 C3.35 11.67 1.7 11.34 0 11 C0 7.37 0 3.74 0 0 Z " fill="#CCD9FA" transform="translate(136,362)"/>
<path d="M0 0 C1.45742463 -0.08096803 2.91612807 -0.13917774 4.375 -0.1875 C5.18710938 -0.22230469 5.99921875 -0.25710938 6.8359375 -0.29296875 C7.55007812 -0.19628906 8.26421875 -0.09960938 9 0 C9.66 0.99 10.32 1.98 11 3 C6.88425629 2.5251065 3.63616656 1.9789756 0 0 Z " fill="#657CDA" transform="translate(218,491)"/>
<path d="M0 0 C0.33 0.99 0.66 1.98 1 3 C-1 5 -1 5 -4.125 5.125 C-5.548125 5.063125 -5.548125 5.063125 -7 5 C-5.68 4.67 -4.36 4.34 -3 4 C-3.33 3.01 -3.66 2.02 -4 1 C-2 0 -2 0 0 0 Z " fill="#2950D6" transform="translate(352,467)"/>
<path d="M0 0 C0.66 0.33 1.32 0.66 2 1 C1.67 1.66 1.34 2.32 1 3 C1.66 3.33 2.32 3.66 3 4 C1.02 4.33 -0.96 4.66 -3 5 C-3.33 4.34 -3.66 3.68 -4 3 C-2.68 2.01 -1.36 1.02 0 0 Z " fill="#5271E0" transform="translate(294,484)"/>
<path d="M0 0 C2.25 -0.25 2.25 -0.25 5 0 C7.3125 2 7.3125 2 9 4 C4.545 3.01 4.545 3.01 0 2 C0 1.34 0 0.68 0 0 Z " fill="#5C76D8" transform="translate(171,477)"/>
<path d="M0 0 C0.99 0.99 1.98 1.98 3 3 C2.6875 6.1875 2.6875 6.1875 2 9 C1.34 9 0.68 9 0 9 C0 6.03 0 3.06 0 0 Z " fill="#628EEC" transform="translate(368,305)"/>
<path d="M0 0 C1.5 1.1875 1.5 1.1875 3 3 C3.1875 5.6875 3.1875 5.6875 3 8 C2.01 8.495 2.01 8.495 1 9 C-0.4783226 6.04335481 -0.06032783 3.25770263 0 0 Z " fill="#3B5CD8" transform="translate(127,288)"/>
</svg>
