<?xml version="1.0" encoding="UTF-8"?>
<svg version="1.1" xmlns="http://www.w3.org/2000/svg" width="200" height="200">
<path d="M0 0 C66 0 132 0 200 0 C200 66 200 132 200 200 C134 200 68 200 0 200 C0 134 0 68 0 0 Z " fill="#101417" transform="translate(0,0)"/>
<path d="M0 0 C7.10198283 4.97005553 11.4102955 11.2478199 13.70703125 19.64453125 C14.08366669 22.82009592 14.08264788 25.94603822 14.03515625 29.140625 C14.03328308 30.01477554 14.03140991 30.88892609 14.02947998 31.78956604 C14.02280192 33.62073634 14.00897308 35.45189342 13.98828125 37.28295898 C13.95684987 40.09827795 13.94727744 42.91303778 13.94140625 45.72851562 C13.93224625 47.51172565 13.9218737 49.29492995 13.91015625 51.078125 C13.90590637 51.92281845 13.90165649 52.7675119 13.89727783 53.63780212 C13.82426039 59.52730211 13.82426039 59.52730211 12.70703125 60.64453125 C10.084943 60.78301846 7.49118507 60.85773053 4.8671875 60.8828125 C4.07106552 60.89088425 3.27494354 60.89895599 2.45469666 60.90727234 C0.76075429 60.92113906 -0.93321632 60.93184957 -2.62719727 60.93969727 C-5.18887798 60.95675432 -7.74921466 61.00059446 -10.31054688 61.04492188 C-23.5095865 61.17299415 -32.22787942 59.48662109 -42.08984375 50.08984375 C-49.55195521 41.80742926 -50.84975421 33.50103351 -50.640625 22.70703125 C-50.33736304 17.22547621 -48.3845644 13.12734494 -45.29296875 8.64453125 C-44.57109375 7.57203125 -43.84921875 6.49953125 -43.10546875 5.39453125 C-30.71297092 -6.72257774 -14.93307834 -8.82756079 0 0 Z " fill="#DCD3B9" transform="translate(154.29296875,72.35546875)"/>
<path d="M0 0 C0.74698654 -0.00807175 1.49397308 -0.01614349 2.26359558 -0.02445984 C3.85498725 -0.03832987 5.44640903 -0.04903889 7.0378418 -0.05688477 C9.43274119 -0.07388005 11.82617919 -0.11770662 14.22070312 -0.16210938 C27.51039371 -0.29981559 37.75780128 1.35749227 47.60546875 11 C54.76917755 18.77425216 56.09398175 26.09945919 55.91015625 36.546875 C55.32806982 45.41899881 51.98598037 51.95569773 45.66796875 58.23828125 C37.19500947 64.6032009 28.27136228 67.60197228 17.66796875 66.23828125 C7.73237167 63.2698683 -0.24423489 58.48421018 -5.33203125 49.23828125 C-7.99677159 43.16396355 -8.7581955 38.33692641 -8.66015625 31.7421875 C-8.65828308 30.86803696 -8.65640991 29.99388641 -8.65447998 29.09324646 C-8.64780192 27.26207616 -8.63397308 25.43091908 -8.61328125 23.59985352 C-8.58184987 20.78453455 -8.57227744 17.96977472 -8.56640625 15.15429688 C-8.55724625 13.37108685 -8.5468737 11.58788255 -8.53515625 9.8046875 C-8.53090637 8.95999405 -8.52665649 8.1153006 -8.52227783 7.24501038 C-8.42715635 -0.42737434 -7.08063789 0.07236567 0 0 Z " fill="#DCD3B9" transform="translate(40.33203125,66.76171875)"/>
</svg>
