<?xml version="1.0" encoding="UTF-8"?>
<svg version="1.1" xmlns="http://www.w3.org/2000/svg" width="360" height="360">
<path d="M0 0 C0.77601563 0.63164063 1.55203125 1.26328125 2.3515625 1.9140625 C15.96926591 13.4566873 25.5128509 28.88456479 35.1875 43.6875 C42.18135945 54.353161 49.1391305 64.94502221 57 75 C57.51570557 75.66684814 58.03141113 76.33369629 58.56274414 77.02075195 C64.27332392 84.30568213 69.87479309 90.36463606 78 95 C78.70382813 95.40734375 79.40765625 95.8146875 80.1328125 96.234375 C91.58631322 102.06678496 103.96730396 101.77755331 116 98 C122.22665301 95.35197017 127.62687777 92.24774667 132 87 C132.48984375 86.41476563 132.9796875 85.82953125 133.484375 85.2265625 C142.91556178 73.4142345 144.33069959 60.69250694 143 46 C140.6875336 35.06936616 134.36897324 26.43726285 125.1875 20.125 C113.69397926 13.79229543 101.37760616 12.00725869 88.5625 14.73046875 C75.71608711 18.74497278 64.30107048 26.50376471 54.69140625 35.8125 C54.13324219 36.204375 53.57507813 36.59625 53 37 C49.22732268 35.74244089 48.83324743 34.54261272 46.8125 31.1875 C43.55250514 25.84027074 40.04393787 20.72574131 36.40625 15.62890625 C35 13 35 13 34.93359375 10.9453125 C36.53769454 8.01915062 38.93216501 6.2654062 41.5625 4.3125 C42.13822754 3.87969727 42.71395508 3.44689453 43.30712891 3.00097656 C56.38347244 -6.58206036 72.69564839 -15.87910873 89 -18 C90.07121094 -18.144375 91.14242187 -18.28875 92.24609375 -18.4375 C106.84874341 -19.92094377 120.84074943 -17.58906521 134 -11 C134.90878906 -10.58105469 135.81757813 -10.16210938 136.75390625 -9.73046875 C152.84788354 -1.78649987 165.57314195 13.17393513 171.75 29.875 C178.65364278 50.91945074 176.81230036 73.12315665 166.8996582 92.81323242 C163.91361943 98.46590205 160.27123793 103.2693062 156 108 C155.43539063 108.63421875 154.87078125 109.2684375 154.2890625 109.921875 C146.42240677 118.26865525 136.66198093 123.91764264 126 128 C125.01 128 124.02 128 123 128 C122.67 128.66 122.34 129.32 122 130 C105.45259034 135.86054092 84.45092053 133.64817842 68.75390625 126.4296875 C54.36693255 118.96070541 42.75929902 108.8773422 33 96 C32.22398437 95.02675781 31.44796875 94.05351562 30.6484375 93.05078125 C25.5978326 86.66136521 20.91472588 80.07472302 16.375 73.3125 C15.84156982 72.52157959 15.30813965 71.73065918 14.75854492 70.91577148 C14.26845947 70.17657471 13.77837402 69.43737793 13.2734375 68.67578125 C12.83435059 68.01489502 12.39526367 67.35400879 11.94287109 66.6730957 C11 65 11 65 11 63 C10.34 63 9.68 63 9 63 C8.75507813 62.51273437 8.51015625 62.02546875 8.2578125 61.5234375 C-2.0027351 42.06377827 -16.1826164 23.34036958 -37 15 C-48.68403351 11.42556169 -61.16843537 13.21170902 -72 18.6875 C-82.08548664 24.85673321 -88.71432918 33.42036998 -92.13671875 44.76953125 C-94.91070399 56.74964468 -94.26287945 70.29484559 -88 81 C-79.78320708 92.35667007 -69.97645649 97.47884515 -56.5 100.57421875 C-41.86742275 102.81242547 -27.22197704 95.7655757 -15.4609375 87.6171875 C-11.00228784 84.33015381 -6.84765254 80.99149002 -3 77 C2.40347502 78.80115834 4.74875823 84.68813768 7.75 89.3125 C8.81541016 90.90094727 8.81541016 90.90094727 9.90234375 92.52148438 C10.56878906 93.54177734 11.23523438 94.56207031 11.921875 95.61328125 C12.84371582 97.01767456 12.84371582 97.01767456 13.78417969 98.45043945 C15 101 15 101 14.84326172 103.1953125 C13.46224853 106.15085666 10.9375841 107.79845618 8.375 109.6875 C7.79596924 110.12030273 7.21693848 110.55310547 6.62036133 110.99902344 C-13.87499855 126.03716859 -36.8581361 135.77899193 -62.6875 131.875 C-70.31433521 130.60829074 -77.03909431 128.40729017 -84 125 C-85.74763874 124.22382807 -87.49745992 123.45254072 -89.25 122.6875 C-90.50066299 122.12647564 -91.75094605 121.56459762 -93 121 C-93 120.34 -93 119.68 -93 119 C-93.68191406 118.80277344 -94.36382812 118.60554687 -95.06640625 118.40234375 C-99.09734114 116.47543879 -101.81562812 113.7161339 -104.9375 110.5625 C-105.55995605 109.93649902 -106.18241211 109.31049805 -106.82373047 108.66552734 C-111.72252757 103.58849823 -115.09205515 98.43680319 -118 92 C-118.55880859 91.04480469 -118.55880859 91.04480469 -119.12890625 90.0703125 C-127.35506517 75.92496173 -127.92640751 53.99187837 -123.97558594 38.43505859 C-120.63305102 26.26187006 -114.5345213 15.29161593 -106 6 C-105.401875 5.34515625 -104.80375 4.6903125 -104.1875 4.015625 C-100.4485907 0.10980011 -96.45210352 -2.94463484 -92 -6 C-91.34 -6.66 -90.68 -7.32 -90 -8 C-60.29118644 -24.17120489 -25.91946362 -22.17658079 0 0 Z " fill="#000000" transform="translate(155,123)"/>
<path d="" fill="#FFFFFF" transform="translate(0,0)"/>
<path d="" fill="#FFFFFF" transform="translate(0,0)"/>
<path d="" fill="#808080" transform="translate(0,0)"/>
</svg>
