<?xml version="1.0" encoding="UTF-8"?>
<svg version="1.1" xmlns="http://www.w3.org/2000/svg" width="200" height="200">
<path d="M0 0 C7.5314551 4.17552731 12.06415702 9.63384588 15.65625 17.47265625 C17.94294716 25.99140834 17.94181149 34.75873481 17.86206055 43.51269531 C17.84346879 45.62967641 17.84155387 47.74622593 17.84179688 49.86328125 C17.80436912 60.176418 17.80436912 60.176418 16.65625 62.47265625 C1.59448351 65.11182739 -21.21399099 66.27749344 -34.16015625 57.3046875 C-42.19717296 50.56164485 -46.61966806 44.05899006 -48.21875 33.72265625 C-48.93194965 23.84408239 -45.67921898 14.97361245 -39.34375 7.47265625 C-28.39211747 -4.28424338 -14.53268771 -6.86478275 0 0 Z " fill="#252E48" transform="translate(151.34375,70.52734375)"/>
<path d="M0 0 C0.77251099 -0.00807175 1.54502197 -0.01614349 2.34094238 -0.02445984 C3.98182938 -0.03830738 5.62274526 -0.04902654 7.26367188 -0.05688477 C8.92782129 -0.06834274 10.59193578 -0.08869528 12.25585938 -0.1184082 C25.96518166 -0.36321753 35.64470773 0.74917103 46.01171875 10.59375 C52.4107962 18.0501621 55.69814918 26.71207686 55.5546875 36.453125 C54.68849179 45.27594703 50.83057861 52.36956914 44.28125 58.23828125 C36.32543307 64.46155965 29.2475634 66.90342115 19.08984375 66.7421875 C10.79045138 65.64411405 3.03295288 61.52772639 -2.84375 55.55078125 C-10.77845287 44.58467458 -10.22445342 32.3795931 -9.96875 19.48828125 C-9.94864165 17.71225987 -9.93039859 15.93621634 -9.9140625 14.16015625 C-9.87043898 9.85230783 -9.80165559 5.54554538 -9.71875 1.23828125 C-6.6375325 -0.3023275 -3.38364011 0.03351564 0 0 Z " fill="#232D46" transform="translate(41.71875,66.76171875)"/>
<path d="M0 0 C-0.3125 1.875 -0.3125 1.875 -1 4 C-1.99 4.66 -2.98 5.32 -4 6 C-4.66 5.34 -5.32 4.68 -6 4 C-2.25 0 -2.25 0 0 0 Z " fill="#383E50" transform="translate(89,119)"/>
</svg>
