<?xml version="1.0" encoding="UTF-8"?>
<svg version="1.1" xmlns="http://www.w3.org/2000/svg" width="391" height="251">
<path d="M0 0 C0.72316406 0.64453125 1.44632813 1.2890625 2.19140625 1.953125 C4.95305227 6.60557401 4.42627076 11.0142078 4.25 16.3125 C4.23195312 17.33923828 4.21390625 18.36597656 4.1953125 19.42382812 C4.14831063 21.95017885 4.08262272 24.47460469 4 27 C23.89562469 28.74646152 23.89562469 28.74646152 41.37524414 21.12109375 C46.68666045 15.46591212 50.32359823 10.27548398 50.7734375 2.30859375 C51.16804687 -1.71233967 53.05939242 -3.32672038 56 -6 C60.84831406 -9.30566868 65.30539293 -9.72849928 71 -9 C76.35658685 -7.21447105 80.19528831 -3.87182062 83 1 C84.41142759 5.88510772 84.30561414 9.85394699 83 14.75 C80.0322648 19.57256971 76.42815626 23.19061458 71 25 C64.47906791 25.77088538 60.30268469 24.89584998 55 21 C53.80859375 18.859375 53.80859375 18.859375 53 17 C47.99202591 21.26210561 43.2413756 25.67523394 38.6640625 30.3984375 C35.33459359 33.60285593 32.52078075 33.11593813 28.0234375 33.09765625 C26.99556625 33.09553383 26.99556625 33.09553383 25.94692993 33.09336853 C23.75624239 33.08776675 21.5656567 33.07521406 19.375 33.0625 C17.89062648 33.05748522 16.40625135 33.05292228 14.921875 33.04882812 C11.2811791 33.03864721 7.64070369 33.01907237 4 33 C4 39.93 4 46.86 4 54 C26.275 53.505 26.275 53.505 49 53 C49 49.7 49 46.4 49 43 C49.66 42.01 50.32 41.02 51 40 C53.48340903 39.73272986 55.71472068 39.65133666 58.1953125 39.70703125 C59.25647781 39.71339851 59.25647781 39.71339851 60.33908081 39.71989441 C62.60143905 39.73670453 64.86291048 39.77435872 67.125 39.8125 C68.65753923 39.82754393 70.1900924 39.84123284 71.72265625 39.85351562 C75.48211318 39.88661538 79.24090618 39.93841175 83 40 C84.45112776 42.90225551 84.12985159 45.44911234 84.1328125 48.6875 C84.13424759 49.67496216 84.13424759 49.67496216 84.13571167 50.68237305 C84.13639225 52.07438248 84.13454646 53.4663951 84.13037109 54.85839844 C84.12502104 56.99160883 84.13032012 59.12460867 84.13671875 61.2578125 C84.13605795 62.60937547 84.13477674 63.9609383 84.1328125 65.3125 C84.13168457 66.54613281 84.13055664 67.77976562 84.12939453 69.05078125 C84 72 84 72 83 74 C72.44 74 61.88 74 51 74 C49.17784811 69.44462027 49 67.61852433 49 63 C46.61556332 60.61556332 46.07540218 60.73816495 42.82568359 60.68115234 C41.96494232 60.66128265 41.10420105 60.64141296 40.21737671 60.62094116 C39.28712677 60.60938995 38.35687683 60.59783875 37.3984375 60.5859375 C36.44683746 60.56657135 35.49523743 60.5472052 34.51480103 60.5272522 C31.46829253 60.46735868 28.42174646 60.42103205 25.375 60.375 C23.3124833 60.33682921 21.2499827 60.29777802 19.1875 60.2578125 C14.12508261 60.15998801 9.06284157 60.08049706 4 60 C4.33 66.27 4.66 72.54 5 79 C7.2171875 78.91878906 9.434375 78.83757812 11.71875 78.75390625 C13.88990281 78.69916052 16.0609759 78.65674731 18.23242188 78.61547852 C19.73017338 78.58048583 21.2276894 78.53287173 22.72460938 78.47192383 C36.75909498 77.91522257 36.75909498 77.91522257 41.8125 82.3125 C42.90782598 83.51250748 43.97245957 84.74146211 45 86 C46.15755719 87.15503528 47.32369096 88.3015677 48.5 89.4375 C49.325 90.283125 50.15 91.12875 51 92 C53.55475962 90.77371538 55.76554217 89.47943133 58.125 87.875 C62.60214608 85.31387987 66.97117768 85.18406525 72 86 C76.55178579 88.23295152 80.57425931 91.4674407 83 96 C84.31452737 100.879074 84.30048483 104.8731819 83 109.75 C80.0322648 114.57256971 76.42815626 118.19061458 71 120 C65.01544337 120.82627015 60.67815004 120.06431686 55.7265625 116.54296875 C52.42137136 113.58923458 50.24027245 110.40188147 49.79125977 105.91333008 C49.74183228 104.82121216 49.74183228 104.82121216 49.69140625 103.70703125 C48.99734188 97.05461804 45.8766658 92.92324098 40.91796875 88.578125 C31.45202734 82.32237241 15.79273223 85.15642783 5 86 C4.96261719 87.09699219 4.92523438 88.19398438 4.88671875 89.32421875 C4.82103347 90.77867857 4.75458701 92.23310416 4.6875 93.6875 C4.66494141 94.40873047 4.64238281 95.12996094 4.61914062 95.87304688 C4.35585542 101.11481598 3.45819936 104.76582374 -0.5859375 108.44140625 C-22.31090311 122.05508557 -55.89868744 120.8108968 -80.09619141 115.46191406 C-87.63986328 113.63162076 -94.11745476 111.13158202 -100 106 C-102.17130069 101.87971609 -102.41504363 97.75842515 -102.625 93.1875 C-102.66367188 92.49462891 -102.70234375 91.80175781 -102.7421875 91.08789062 C-102.83573568 89.39232985 -102.91892364 87.69620288 -103 86 C-121.60800085 83.7505003 -121.60800085 83.7505003 -138.91796875 88.54296875 C-143.85868153 92.78822602 -147.44415649 97.79790988 -148.0625 104.4375 C-148.041875 105.23414063 -148.02125 106.03078125 -148 106.8515625 C-148 110.51830066 -149.60376468 112.35799695 -152 115 C-156.59265884 118.91726784 -160.74214709 120.79962535 -166.828125 120.421875 C-171.6530412 119.48466106 -174.92783798 117.13011672 -178.3125 113.5625 C-181.62243719 108.53629908 -182.38617343 105.14071398 -181.5390625 99.2109375 C-180.17732055 93.62582196 -176.54320599 90.22806742 -172 87 C-168.31008358 85.15504179 -164.03588895 85.64662723 -160 86 C-156.27636062 87.42175322 -153.59854384 88.96836552 -151 92 C-147.12678907 90.42369323 -144.75264837 87.92252331 -141.875 84.9375 C-136.17297268 79.04089311 -136.17297268 79.04089311 -131.74365234 78.88647461 C-130.35773731 78.88663309 -128.97181608 78.89229063 -127.5859375 78.90234375 C-126.85629791 78.9037587 -126.12665833 78.90517365 -125.37490845 78.90663147 C-123.04156415 78.91223469 -120.70831536 78.92478765 -118.375 78.9375 C-116.79427222 78.94251459 -115.21354293 78.94707757 -113.6328125 78.95117188 C-109.75514182 78.96135483 -105.87767798 78.98092945 -102 79 C-102 73.06 -102 67.12 -102 61 C-116.85 61 -131.7 61 -147 61 C-147 64.3 -147 67.6 -147 71 C-147.66 71.99 -148.32 72.98 -149 74 C-152.04101562 74.37231445 -152.04101562 74.37231445 -155.90625 74.36328125 C-156.92700623 74.36402901 -156.92700623 74.36402901 -157.96838379 74.36479187 C-159.4075004 74.36245082 -160.84662105 74.35272029 -162.28564453 74.33618164 C-164.49158237 74.31259002 -166.69631186 74.31561947 -168.90234375 74.32226562 C-179.7209175 74.2790825 -179.7209175 74.2790825 -182 72 C-182.24291992 69.05078125 -182.24291992 69.05078125 -182.23046875 65.3125 C-182.23001053 64.65419189 -182.22955231 63.99588379 -182.2290802 63.31762695 C-182.22605881 61.92560016 -182.21817581 60.53357672 -182.20581055 59.14160156 C-182.18757132 57.00834197 -182.18530076 54.87551687 -182.18554688 52.7421875 C-182.14754817 42.29509633 -182.14754817 42.29509633 -181 40 C-176.4793661 39.92593483 -171.959084 39.87143955 -167.43798828 39.83520508 C-165.89951426 39.82010289 -164.36108339 39.79961954 -162.82275391 39.77368164 C-160.61349859 39.73735926 -158.40481152 39.72028881 -156.1953125 39.70703125 C-155.16085495 39.68380547 -155.16085495 39.68380547 -154.10549927 39.66011047 C-152.16455078 39.65942383 -152.16455078 39.65942383 -149 40 C-147 43 -147 43 -147 53 C-132.48 53 -117.96 53 -103 53 C-102.67 46.4 -102.34 39.8 -102 33 C-105.18269531 33.15662109 -105.18269531 33.15662109 -108.4296875 33.31640625 C-110.5181064 33.38688513 -112.60638581 33.44136034 -114.6953125 33.49438477 C-116.13115099 33.53925472 -117.56658752 33.60038324 -119.00097656 33.67895508 C-130.88235286 34.31279419 -130.88235286 34.31279419 -136.09423828 31.08178711 C-138.58293833 28.83811352 -140.78711018 26.51192898 -143 24 C-144.35408709 22.78870755 -145.72702963 21.59787067 -147.125 20.4375 C-148.07375 19.633125 -149.0225 18.82875 -150 18 C-150.47050781 18.42152344 -150.94101563 18.84304687 -151.42578125 19.27734375 C-152.04839844 19.82519531 -152.67101562 20.37304688 -153.3125 20.9375 C-153.92738281 21.48277344 -154.54226562 22.02804688 -155.17578125 22.58984375 C-159.27171646 25.75608061 -164.06746248 25.45687311 -169 25 C-174.98290437 22.92899464 -178.19062737 19.04303578 -181.375 13.6875 C-182.61731308 8.34555376 -181.79534557 3.65431878 -179.4375 -1.25 C-175.27141692 -5.95019629 -170.93507795 -9.22489153 -164.5 -9.625 C-158.06492205 -9.22489153 -153.72858308 -5.95019629 -149.5625 -1.25 C-148.06147038 1.87214162 -147.89022166 2.95561161 -147.8359375 6.234375 C-147.27010184 12.01847285 -144.22620195 14.73657465 -140.0625 18.5 C-139.41603516 19.11875 -138.76957031 19.7375 -138.10351562 20.375 C-133.3585384 24.8686856 -131.15617049 26.11263829 -124.4609375 26.31640625 C-123.15898438 26.35830078 -121.85703125 26.40019531 -120.515625 26.44335938 C-119.13541955 26.48317299 -117.75521117 26.52288522 -116.375 26.5625 C-114.98696585 26.60569407 -113.59894472 26.64930865 -112.2109375 26.69335938 C-108.80739744 26.79972 -105.40378222 26.90174714 -102 27 C-102.01571045 26.39003174 -102.0314209 25.78006348 -102.04760742 25.15161133 C-102.11019813 22.3720029 -102.14906622 19.59254308 -102.1875 16.8125 C-102.21263672 15.85279297 -102.23777344 14.89308594 -102.26367188 13.90429688 C-102.35555794 5.0526062 -102.35555794 5.0526062 -99 1 C-80.92799351 -17.07200649 -19.81051243 -17.69994937 0 0 Z M-94.83203125 4.65625 C-95.21746094 5.0996875 -95.60289062 5.543125 -96 6 C-94.33733741 9.9426504 -92.35999641 11.2696253 -88.4453125 13.05859375 C-65.28689932 21.97421288 -32.79226639 22.25524909 -9.62890625 13.05859375 C-5.62739162 11.23972346 -3.74979181 10.16990187 -2 6 C-14.23306539 -5.81123555 -37.06707913 -5.45910653 -52.96875 -5.21484375 C-75.27568046 -4.60833937 -75.27568046 -4.60833937 -94.83203125 4.65625 Z M-173 0 C-175.34483893 3.4390971 -176.01080781 5.3839551 -175.9375 9.5625 C-174.91869576 13.29811554 -173.67878703 15.2400376 -171 18 C-167.53472176 19.73263912 -163.78892972 19.4719774 -160 19 C-156.87931144 17.20726402 -155.45034948 15.75740595 -153.625 12.6875 C-152.78780496 9.08756135 -153.10460399 6.58158403 -154 3 C-156.18616191 -0.35211493 -157.18059812 -1.72686604 -161 -3 C-165.96736392 -3.36795288 -169.10647112 -3.2446074 -173 0 Z M58 0 C55.17631429 4.23552856 55.33346243 8.02477314 56 13 C57.79646854 15.93423195 58.9441071 17.47205355 62 19 C66.51910283 19.6326744 70.66253178 19.77294479 74.5 17.0625 C77.31821658 13.61018468 78.02371308 11.58823849 78.2421875 7.21875 C77.85639279 3.68437266 76.30350467 1.62343588 74 -1 C68.62472355 -4.58351764 62.96422034 -3.94217497 58 0 Z M-96 16 C-96.13536629 18.41854446 -96.23420279 20.82949783 -96.3125 23.25 C-96.35439453 23.93191406 -96.39628906 24.61382812 -96.43945312 25.31640625 C-96.52879104 28.99712847 -96.35319527 30.62166627 -93.8046875 33.3515625 C-71.97947034 46.1791971 -40.27227537 43.91087137 -16.5 38.6875 C-11.12008207 37.25628036 -5.99515347 34.99515347 -2 31 C-1.92686433 28.46950598 -1.90752473 25.96695163 -1.9375 23.4375 C-1.94201172 22.72658203 -1.94652344 22.01566406 -1.95117188 21.28320312 C-1.96299136 19.52209987 -1.98092737 17.76103964 -2 16 C-3.11375 16.4125 -4.2275 16.825 -5.375 17.25 C-17.5910777 21.2899627 -30.13937474 23.63927515 -43 24 C-44.39992188 24.05994141 -44.39992188 24.05994141 -45.828125 24.12109375 C-63.21982677 24.53402522 -79.59063844 21.55241237 -96 16 Z M-96 39 C-96.10826289 41.4178712 -96.18739789 43.83087556 -96.25 46.25 C-96.28351563 46.93191406 -96.31703125 47.61382812 -96.3515625 48.31640625 C-96.41641587 51.65635458 -96.28242234 53.60734815 -94.30859375 56.3515625 C-81.74576054 65.32197809 -63.52258906 65.17988214 -48.8125 65.1875 C-46.97461914 65.20586914 -46.97461914 65.20586914 -45.09960938 65.22460938 C-30.83957422 65.24716083 -15.18491893 64.20179956 -3 56 C-1.46733418 52.93466836 -1.89723529 49.73245728 -1.9375 46.375 C-1.94201172 45.66859375 -1.94652344 44.9621875 -1.95117188 44.234375 C-1.96296125 42.48954725 -1.98089676 40.744763 -2 39 C-2.86109375 39.28875 -3.7221875 39.5775 -4.609375 39.875 C-35.06865547 49.98130504 -65.69824851 49.16106637 -96 39 Z M-176 46 C-176 53.26 -176 60.52 -176 68 C-168.41 68 -160.82 68 -153 68 C-153 60.74 -153 53.48 -153 46 C-160.59 46 -168.18 46 -176 46 Z M55 46 C55 53.26 55 60.52 55 68 C62.59 68 70.18 68 78 68 C78 60.74 78 53.48 78 46 C70.41 46 62.82 46 55 46 Z M-96 62 C-96.13526616 64.5850867 -96.23417653 67.16308752 -96.3125 69.75 C-96.35439453 70.47960937 -96.39628906 71.20921875 -96.43945312 71.9609375 C-96.52562396 75.75245442 -96.41373503 77.55252063 -93.796875 80.3828125 C-73.00064176 92.40745015 -41.83615964 91.43476434 -18.95703125 86.1171875 C-12.6704735 84.43458933 -6.75052874 82.75052874 -2 78 C-1.92680379 75.30345146 -1.90757463 72.63308542 -1.9375 69.9375 C-1.94201172 69.17888672 -1.94652344 68.42027344 -1.95117188 67.63867188 C-1.9629932 65.75908129 -1.98092922 63.87953101 -2 62 C-2.72960937 62.32613281 -3.45921875 62.65226562 -4.2109375 62.98828125 C-29.7287607 73.66796281 -64.72966464 74.04052353 -90.625 64.3125 C-92.42422981 63.559489 -94.21934724 62.79594549 -96 62 Z M-96 86 C-96.10826289 88.4178712 -96.18739789 90.83087556 -96.25 93.25 C-96.28351563 93.93191406 -96.31703125 94.61382812 -96.3515625 95.31640625 C-96.41685158 98.67879399 -96.28709126 100.60744665 -94.27734375 103.35546875 C-77.05239168 115.7940705 -46.1882914 114.05893691 -26.40307617 111.1237793 C-12.71818092 108.89155475 -12.71818092 108.89155475 -2 101 C-1.7088479 98.26317029 -1.61677582 95.96059961 -1.75 93.25 C-1.76804687 92.55261719 -1.78609375 91.85523438 -1.8046875 91.13671875 C-1.85161446 89.42388461 -1.92335395 87.71176176 -2 86 C-2.85207031 86.28875 -3.70414062 86.5775 -4.58203125 86.875 C-34.7282159 96.79740135 -66.01721311 96.14523303 -96 86 Z M-175.375 97.75 C-176.3587172 101.29138192 -176.08489567 104.53932013 -175 108 C-171.80373784 111.85190568 -169.75114847 113.83162034 -164.75 114.3125 C-160.29644235 113.9413702 -158.3666179 112.89685726 -155 110 C-153.07306294 106.90014474 -152.99399095 105.16825346 -153.125 101.5 C-154.07919094 97.68323625 -155.28165635 95.8007177 -158 93 C-164.76846535 89.61576732 -170.96927927 92.14271908 -175.375 97.75 Z M57 96 C55.14273384 99.71453232 55.41498911 103.95579425 56 108 C58.19022918 110.82424288 59.83017207 112.41508603 63 114 C67.98109259 114.37593152 71.05673864 114.1765161 75 111 C77.73452784 107.90086845 78.24280806 105.52020189 78.0625 101.5 C77.49195056 97.90253561 76.92241516 96.90495857 74.5 93.9375 C71.18357365 91.63598003 68.09049499 91.34551208 64.12109375 91.56640625 C60.95589587 92.21343565 59.18255512 93.68103518 57 96 Z " fill="#1E303B" transform="translate(231,64)"/>
<path d="M0 0 C4.41062169 -0.1743253 8.81936984 -0.30065049 13.23242188 -0.38452148 C14.73017338 -0.41951417 16.2276894 -0.46712827 17.72460938 -0.52807617 C31.75909498 -1.08477743 31.75909498 -1.08477743 36.8125 3.3125 C37.90782598 4.51250748 38.97245957 5.74146211 40 7 C41.15755719 8.15503528 42.32369096 9.3015677 43.5 10.4375 C44.325 11.283125 45.15 12.12875 46 13 C48.55475962 11.77371538 50.76554217 10.47943133 53.125 8.875 C57.60214608 6.31387987 61.97117768 6.18406525 67 7 C71.55178579 9.23295152 75.57425931 12.4674407 78 17 C79.31452737 21.879074 79.30048483 25.8731819 78 30.75 C75.0322648 35.57256971 71.42815626 39.19061458 66 41 C60.01544337 41.82627015 55.67815004 41.06431686 50.7265625 37.54296875 C47.42137136 34.58923458 45.24027245 31.40188147 44.79125977 26.91333008 C44.75830811 26.18525146 44.72535645 25.45717285 44.69140625 24.70703125 C43.99734188 18.05461804 40.8766658 13.92324098 35.91796875 9.578125 C26.45202734 3.32237241 10.79273223 6.15642783 0 7 C0 6.34 0 5.68 0 5 C-0.66 4.34 -1.32 3.68 -2 3 C-1.01 2.67 -0.02 2.34 1 2 C0.67 1.34 0.34 0.68 0 0 Z M52 17 C50.14273384 20.71453232 50.41498911 24.95579425 51 29 C53.19022918 31.82424288 54.83017207 33.41508603 58 35 C62.98109259 35.37593152 66.05673864 35.1765161 70 32 C72.73452784 28.90086845 73.24280806 26.52020189 73.0625 22.5 C72.49195056 18.90253561 71.92241516 17.90495857 69.5 14.9375 C66.18357365 12.63598003 63.09049499 12.34551208 59.12109375 12.56640625 C55.95589587 13.21343565 54.18255512 14.68103518 52 17 Z " fill="#1E303B" transform="translate(236,143)"/>
<path d="M0 0 C0.33 0 0.66 0 1 0 C1.495 7.92 1.495 7.92 2 16 C2.33 12.7 2.66 9.4 3 6 C3.33 6 3.66 6 4 6 C4.02505615 6.55985596 4.0501123 7.11971191 4.07592773 7.6965332 C4.19203745 10.23541305 4.3146958 12.77393553 4.4375 15.3125 C4.47681641 16.19357422 4.51613281 17.07464844 4.55664062 17.98242188 C4.59853516 18.82998047 4.64042969 19.67753906 4.68359375 20.55078125 C4.73858032 21.72120972 4.73858032 21.72120972 4.79467773 22.9152832 C4.94125263 25.19329101 4.94125263 25.19329101 6 28 C5.01 28 4.02 28 3 28 C1.70260924 31.79606925 2.11849235 35.39155577 2.4375 39.3125 C2.95376708 46.6697156 3.11631226 54.00026908 3.125 61.375 C3.13164673 62.88187378 3.13164673 62.88187378 3.13842773 64.41918945 C3.13657471 65.36109131 3.13472168 66.30299316 3.1328125 67.2734375 C3.13168457 68.11310059 3.13055664 68.95276367 3.12939453 69.81787109 C3 72 3 72 2 75 C-16.81 75.495 -16.81 75.495 -36 76 C-33 73 -33 73 -29.63012695 72.65942383 C-28.2494206 72.65989753 -26.86865607 72.67677217 -25.48828125 72.70703125 C-24.39594429 72.71339851 -24.39594429 72.71339851 -23.28153992 72.71989441 C-20.95814873 72.73667267 -18.6356285 72.77432145 -16.3125 72.8125 C-14.73634066 72.82754803 -13.16016771 72.84123623 -11.58398438 72.85351562 C-7.72205167 72.88402062 -3.86199937 72.94273807 0 73 C0 67.06 0 61.12 0 55 C-5.57788716 54.16824976 -5.57788716 54.16824976 -11.09936523 53.79467773 C-12.17969276 53.7647599 -12.17969276 53.7647599 -13.28184509 53.73423767 C-14.03317215 53.71752518 -14.78449921 53.70081268 -15.55859375 53.68359375 C-16.74232323 53.6524221 -16.74232323 53.6524221 -17.94996643 53.62062073 C-20.44573109 53.55576695 -22.94159178 53.49654195 -25.4375 53.4375 C-27.13998348 53.39425358 -28.84245762 53.35063744 -30.54492188 53.30664062 C-34.69651873 53.20015237 -38.84821118 53.09870853 -43 53 C-43 52.67 -43 52.34 -43 52 C-37.06 51.505 -37.06 51.505 -31 51 C-31 50.67 -31 50.34 -31 50 C-27.18751574 49.97112764 -23.3750593 49.95324508 -19.5625 49.9375 C-18.47388672 49.92912109 -17.38527344 49.92074219 -16.26367188 49.91210938 C-15.22919922 49.90888672 -14.19472656 49.90566406 -13.12890625 49.90234375 C-12.17056885 49.89710693 -11.21223145 49.89187012 -10.22485352 49.88647461 C-8 50 -8 50 -7 51 C-6.34 50.01 -5.68 49.02 -5 48 C-3.68 47.34 -2.36 46.68 -1 46 C-0.67 39.73 -0.34 33.46 0 27 C-3.30451172 27.05220703 -3.30451172 27.05220703 -6.67578125 27.10546875 C-8.81045231 27.12886783 -10.94510907 27.1470823 -13.07983398 27.16479492 C-14.56297199 27.17987768 -16.04606544 27.20034689 -17.52905273 27.22631836 C-19.66140745 27.26272616 -21.79317235 27.27973073 -23.92578125 27.29296875 C-25.20880127 27.3086792 -26.49182129 27.32438965 -27.8137207 27.34057617 C-31 27 -31 27 -32.94213867 25.48168945 C-33.29123291 24.99273193 -33.64032715 24.50377441 -34 24 C-33.67 23.34 -33.34 22.68 -33 22 C-28.8744331 22.10948106 -24.74981122 22.24020225 -20.625 22.375 C-19.449375 22.4059375 -18.27375 22.436875 -17.0625 22.46875 C-15.94101563 22.50742188 -14.81953125 22.54609375 -13.6640625 22.5859375 C-12.62717285 22.6173584 -11.5902832 22.6487793 -10.52197266 22.68115234 C-8 23 -8 23 -6 25 C-4.68 25 -3.36 25 -2 25 C-3.65 24.67 -5.3 24.34 -7 24 C-5.75 22.5 -5.75 22.5 -4 21 C-2.68 21 -1.36 21 0 21 C0 14.07 0 7.14 0 0 Z M3 44 C3.33 44 3.66 44 4 44 C4 45.65 4 47.3 4 49 C3.67 49 3.34 49 3 49 C3 47.35 3 45.7 3 44 Z " fill="#233543" transform="translate(129,70)"/>
<path d="M0 0 C4.41062169 -0.1743253 8.81936984 -0.30065049 13.23242188 -0.38452148 C14.73017338 -0.41951417 16.2276894 -0.46712827 17.72460938 -0.52807617 C31.75890052 -1.08476972 31.75890052 -1.08476972 36.78125 3.28125 C37.88841869 4.49033829 38.96683639 5.72709389 40 7 C40.763125 7.73089844 41.52625 8.46179688 42.3125 9.21484375 C42.869375 9.78332031 43.42625 10.35179687 44 10.9375 C44.5775 11.52402344 45.155 12.11054688 45.75 12.71484375 C46.36875 13.35099609 46.36875 13.35099609 47 14 C46.34 14.66 45.68 15.32 45 16 C44.34 15.34 43.68 14.68 43 14 C43.58007812 14.60134766 43.58007812 14.60134766 44.171875 15.21484375 C47.82420423 19.20166848 50.10952023 22.93445465 52.04296875 27.984375 C53.08132751 30.17128569 54.21089909 31.39119608 56 33 C56.66 33.66 57.32 34.32 58 35 C57.67 35.33 57.34 35.66 57 36 C57.66 36.66 58.32 37.32 59 38 C56.3125 38.75 56.3125 38.75 53 39 C48.69820725 36.49895771 46.7392563 33.60902919 45 29 C44.8762044 27.58025098 44.78194937 26.15774071 44.7109375 24.734375 C43.99564582 18.07254389 40.88732282 13.93257931 35.91796875 9.578125 C26.45202734 3.32237241 10.79273223 6.15642783 0 7 C0 6.34 0 5.68 0 5 C-0.66 4.34 -1.32 3.68 -2 3 C-1.01 2.67 -0.02 2.34 1 2 C0.67 1.34 0.34 0.68 0 0 Z " fill="#2B3B44" transform="translate(236,143)"/>
<path d="M0 0 C5.54166651 2.3147492 9.28813955 5.5762791 12 11 C12.875 14.75 12.875 14.75 13 18 C12.34 18.66 11.68 19.32 11 20 C10.505 16.04 10.505 16.04 10 12 C10 14.31400101 10.10337454 16.62814908 10.25 18.9375 C10.27425411 22.22999485 10.16825646 22.78967942 8 25.5 C7.34 25.995 6.68 26.49 6 27 C6.50603992 24.83125748 6.99983813 23.00032373 8 21 C7.34 21 6.68 21 6 21 C5.96261719 20.39671875 5.92523438 19.7934375 5.88671875 19.171875 C5.48699966 12.95694557 5.48699966 12.95694557 2 8 C-2.53625191 6.48791603 -6.36615162 6.31015291 -10.8125 8.1875 C-13.49027247 10.40622576 -14.24465247 11.60093609 -15 15 C-14.85779526 17.7323625 -14.4589219 20.2923608 -14 23 C-14.66 23 -15.32 23 -16 23 C-16.33 22.34 -16.66 21.68 -17 21 C-17.66 21.33 -18.32 21.66 -19 22 C-19.33 20.68 -19.66 19.36 -20 18 C-20.33 19.32 -20.66 20.64 -21 22 C-22.75577368 18.48845264 -21.79604866 14.74016511 -21 11 C-17.02503688 2.73207671 -9.12480332 -1.97465203 0 0 Z " fill="#22333E" transform="translate(71,55)"/>
<path d="M0 0 C0.33 0 0.66 0 1 0 C1.73081957 10.68823617 2.12377074 21.28903359 1.875 32.00463867 C1.81330235 36.47300555 1.86451837 39.93839769 4 44 C2.68 43.01 1.36 42.02 0 41 C1.29299694 43.88437779 2.65941363 45.87219421 5 48 C2 48 2 48 -0.625 45.8125 C-3.18056334 42.78617499 -3.60122577 41.82823264 -4 38 C-3.76174418 35.35727745 -3.4654214 32.80273517 -3.0625 30.1875 C-2.96259766 29.49462891 -2.86269531 28.80175781 -2.75976562 28.08789062 C-2.51398412 26.39082787 -2.25801848 24.69524541 -2 23 C-3.52923096 23.02356567 -3.52923096 23.02356567 -5.08935547 23.04760742 C-8.86499152 23.10183027 -12.64059304 23.13632184 -16.41650391 23.16479492 C-18.05197941 23.17989911 -19.68741429 23.20038389 -21.32275391 23.22631836 C-23.67100024 23.26263145 -26.01871205 23.27970932 -28.3671875 23.29296875 C-29.46726639 23.31619453 -29.46726639 23.31619453 -30.58956909 23.33988953 C-32.65185547 23.34057617 -32.65185547 23.34057617 -36 23 C-36.66 22.01 -37.32 21.02 -38 20 C-26.12 20 -14.24 20 -2 20 C-2 19.01 -2 18.02 -2 17 C-1.34 17 -0.68 17 0 17 C0 11.39 0 5.78 0 0 Z " fill="#122732" transform="translate(133,125)"/>
<path d="M0 0 C0 0.99 0 1.98 0 3 C0.66 2.01 1.32 1.02 2 0 C2.66 0 3.32 0 4 0 C4.33 0.99 4.66 1.98 5 3 C4.67 3.66 4.34 4.32 4 5 C3.34 5 2.68 5 2 5 C2.14183696 6.75032844 2.28863429 8.50025534 2.4375 10.25 C2.51871094 11.22453125 2.59992188 12.1990625 2.68359375 13.203125 C2.95074584 15.56461753 3.35371968 17.71901065 4 20 C2.68 20.33 1.36 20.66 0 21 C0 16.05 0 11.1 0 6 C-1.98 6.99 -3.96 7.98 -6 9 C-8.95703125 9.546875 -8.95703125 9.546875 -11.8125 9.75 C-12.76769531 9.82734375 -13.72289062 9.9046875 -14.70703125 9.984375 C-15.46371094 9.98953125 -16.22039062 9.9946875 -17 10 C-17.33 9.67 -17.66 9.34 -18 9 C-19.99958364 8.95919217 -22.00045254 8.95745644 -24 9 C-24 8.67 -24 8.34 -24 8 C-22.35 8 -20.7 8 -19 8 C-19 7.34 -19 6.68 -19 6 C-17.77023438 5.60167969 -17.77023438 5.60167969 -16.515625 5.1953125 C-15.43796875 4.84210938 -14.3603125 4.48890625 -13.25 4.125 C-12.18265625 3.77695313 -11.1153125 3.42890625 -10.015625 3.0703125 C-7.08519352 2.1057745 -7.08519352 2.1057745 -4.796875 0.8671875 C-3 0 -3 0 0 0 Z " fill="#192C35" transform="translate(229,97)"/>
<path d="M0 0 C0 0.33 0 0.66 0 1 C-1.32 1.33 -2.64 1.66 -4 2 C-1.69 2 0.62 2 3 2 C2.67 2.66 2.34 3.32 2 4 C-6.00282351 5.84417839 -14.31359316 6.19389961 -22.5 6.25 C-23.24048584 6.25918457 -23.98097168 6.26836914 -24.74389648 6.27783203 C-29.51636517 6.25089024 -33.46798137 5.50272197 -38 4 C-38 3.67 -38 3.34 -38 3 C-36.35 2.67 -34.7 2.34 -33 2 C-33 1.67 -33 1.34 -33 1 C-29.37516606 0.8295902 -25.75011226 0.66437396 -22.125 0.5 C-21.11179688 0.45230469 -20.09859375 0.40460938 -19.0546875 0.35546875 C-12.69773104 0.0702207 -6.36317946 -0.06350831 0 0 Z " fill="#102732" transform="translate(204,106)"/>
<path d="M0 0 C1.11217896 0.11758667 1.11217896 0.11758667 2.24682617 0.23754883 C6.84488263 0.7797504 11.08101117 1.74115876 15.5 3.125 C12.17395049 4.23368317 8.96941546 4.66677532 5.5 5.125 C5.5 4.135 5.5 3.145 5.5 2.125 C-4.92811284 1.41597559 -15.08835953 0.77418836 -25.5 2.125 C-25.5 2.455 -25.5 2.785 -25.5 3.125 C-26.5725 3.41375 -27.645 3.7025 -28.75 4 C-32.27213732 4.92110018 -32.27213732 4.92110018 -34.41796875 6.15234375 C-36.85315694 7.28998326 -38.89157483 7.56675877 -41.5625 7.8125 C-42.84833984 7.94205078 -42.84833984 7.94205078 -44.16015625 8.07421875 C-47.22388664 8.14071039 -49.60650197 7.08949934 -52.5 6.125 C-48.84920174 4.51435371 -45.4492568 3.67605909 -41.5 3.125 C-41.5 2.465 -41.5 1.805 -41.5 1.125 C-28.45191258 -2.58078139 -13.36692569 -1.4342784 0 0 Z " fill="#1F333E" transform="translate(199.5,53.875)"/>
<path d="M0 0 C1.66611905 -0.042721 3.33382885 -0.04063832 5 0 C6.87903248 1.87903248 6.13053475 5.0880606 6.1328125 7.58984375 C6.13376923 8.2495668 6.13472595 8.90928986 6.13571167 9.58900452 C6.13639336 10.98699031 6.13453986 12.38497924 6.13037109 13.78295898 C6.12503106 15.92503982 6.13031199 18.06691017 6.13671875 20.20898438 C6.1360578 21.56510463 6.13477629 22.92122476 6.1328125 24.27734375 C6.13168457 25.51734131 6.13055664 26.75733887 6.12939453 28.03491211 C6 31 6 31 5 33 C-5.56 33 -16.12 33 -27 33 C-27 31.35 -27 29.7 -27 28 C-26.67 28.99 -26.34 29.98 -26 31 C-11.15 30.505 -11.15 30.505 4 30 C4.020625 26.1225 4.04125 22.245 4.0625 18.25 C4.071604 17.03344727 4.08070801 15.81689453 4.09008789 14.56347656 C4.09258545 13.59893555 4.09508301 12.63439453 4.09765625 11.640625 C4.10289307 10.65610352 4.10812988 9.67158203 4.11352539 8.65722656 C4.00929798 6.21763265 3.87501617 4.27610798 3 2 C2.01 1.34 1.02 0.68 0 0 Z " fill="#1B2A35" transform="translate(309,105)"/>
<path d="M0 0 C1.32 0 2.64 0 4 0 C4.12375 0.78375 4.2475 1.5675 4.375 2.375 C4.79117993 5.14057822 4.79117993 5.14057822 7 7 C9.52377655 7.27808217 9.52377655 7.27808217 12.4453125 7.1953125 C13.52167969 7.18886719 14.59804688 7.18242187 15.70703125 7.17578125 C16.83496094 7.15902344 17.96289062 7.14226562 19.125 7.125 C20.26066406 7.11597656 21.39632813 7.10695312 22.56640625 7.09765625 C25.37781299 7.07403098 28.18880298 7.04109013 31 7 C31.33 7.99 31.66 8.98 32 10 C32.99 9.67 33.98 9.34 35 9 C35 9.66 35 10.32 35 11 C33.65252686 10.99214478 33.65252686 10.99214478 32.27783203 10.98413086 C28.94937501 10.96710275 25.62096419 10.95455663 22.29248047 10.94506836 C20.8510668 10.94003526 19.40965824 10.93320827 17.96826172 10.92456055 C15.89809915 10.91245017 13.82800399 10.90676153 11.7578125 10.90234375 C9.88826904 10.89448853 9.88826904 10.89448853 7.98095703 10.88647461 C5.07228894 10.79183413 5.07228894 10.79183413 3 12 C2.37542727 8.56484998 2 5.50935186 2 2 C1.34 1.34 0.68 0.68 0 0 Z " fill="#20343F" transform="translate(278,125)"/>
<path d="M0 0 C0.66 0.66 1.32 1.32 2 2 C-3.0963789 7.0963789 -14.40211849 7.15568132 -21.4152832 7.20654297 C-24.27873522 7.17957819 -27.13857039 7.10958667 -30 7 C-30.66 5.68 -31.32 4.36 -32 3 C-30.71222656 2.93941406 -29.42445313 2.87882813 -28.09765625 2.81640625 C-26.41925841 2.73201753 -24.74087364 2.6473687 -23.0625 2.5625 C-21.78729492 2.50352539 -21.78729492 2.50352539 -20.48632812 2.44335938 C-19.67744141 2.40146484 -18.86855469 2.35957031 -18.03515625 2.31640625 C-17.2862915 2.27974854 -16.53742676 2.24309082 -15.76586914 2.20532227 C-13.97538674 2.18228937 -13.97538674 2.18228937 -13 1 C-11.38660441 0.57785707 -9.75847585 0.2111646 -8.125 -0.125 C-7.24070313 -0.31320313 -6.35640625 -0.50140625 -5.4453125 -0.6953125 C-3 -1 -3 -1 0 0 Z " fill="#182B36" transform="translate(217,151)"/>
<path d="M0 0 C1.76150391 0.2165625 1.76150391 0.2165625 3.55859375 0.4375 C18.86875912 2.23634031 33.6264775 2.49724741 49 1 C49 1.66 49 2.32 49 3 C46.69 3.33 44.38 3.66 42 4 C42 4.66 42 5.32 42 6 C32.43 6 22.86 6 13 6 C13.33 5.34 13.66 4.68 14 4 C13.07316406 3.87882812 12.14632812 3.75765625 11.19140625 3.6328125 C9.39509766 3.38144531 9.39509766 3.38144531 7.5625 3.125 C6.36753906 2.96257812 5.17257813 2.80015625 3.94140625 2.6328125 C2.97074219 2.42398438 2.00007812 2.21515625 1 2 C0.67 1.34 0.34 0.68 0 0 Z " fill="#283A43" transform="translate(154,80)"/>
<path d="M0 0 C6.34886348 0.25913728 9.6688614 2.38745974 14 7 C15.53266582 10.06533164 15.10276471 13.26754272 15.0625 16.625 C15.05798828 17.33140625 15.05347656 18.0378125 15.04882812 18.765625 C15.03703875 20.51045275 15.01910324 22.255237 15 24 C14.67 24 14.34 24 14 24 C13.67 25.98 13.34 27.96 13 30 C12.67 30 12.34 30 12 30 C11.67 31.98 11.34 33.96 11 36 C10.67 36 10.34 36 10 36 C10 30.39 10 24.78 10 19 C10.33 19 10.66 19 11 19 C11.33 15.37 11.66 11.74 12 8 C11.34 7.67 10.68 7.34 10 7 C9.34 6.34 8.68 5.68 8 5 C8.33 5.33 8.66 5.66 9 6 C8.67 6.66 8.34 7.32 8 8 C7.01 7.67 6.02 7.34 5 7 C5 6.34 5 5.68 5 5 C3.68 4.34 2.36 3.68 1 3 C1.33 2.34 1.66 1.68 2 1 C1.34 0.67 0.68 0.34 0 0 Z " fill="#182932" transform="translate(220,60)"/>
<path d="M0 0 C0 0.66 0 1.32 0 2 C0.99 2.33 1.98 2.66 3 3 C3 3.99 3 4.98 3 6 C0 5 0 5 -1.9375 3.8125 C-4.03001796 2.71861584 -4.03001796 2.71861584 -6.25 3.875 C-7.11625 4.431875 -7.11625 4.431875 -8 5 C-8 5.33 -8 5.66 -8 6 C-11.3 6.33 -14.6 6.66 -18 7 C-18 6.67 -18 6.34 -18 6 C-19.65 6 -21.3 6 -23 6 C-23.33 6.66 -23.66 7.32 -24 8 C-26.32156597 8.40729228 -28.6568787 8.74438677 -31 9 C-30.34 9.66 -29.68 10.32 -29 11 C-33.29 11 -37.58 11 -42 11 C-42 10.67 -42 10.34 -42 10 C-39.36 9.67 -36.72 9.34 -34 9 C-34 8.01 -34 7.02 -34 6 C-36.97 6 -39.94 6 -43 6 C-43 5.67 -43 5.34 -43 5 C-42.29093506 4.95512451 -41.58187012 4.91024902 -40.85131836 4.86401367 C-22.57517377 3.70106202 -22.57517377 3.70106202 -4.5625 0.5859375 C-2 0 -2 0 0 0 Z " fill="#2E3F48" transform="translate(218,148)"/>
<path d="M0 0 C5.92651057 -0.02469854 11.85299125 -0.04285931 17.77954102 -0.05493164 C19.79614789 -0.05996382 21.8127511 -0.06679014 23.8293457 -0.07543945 C26.72608339 -0.08755373 29.62277288 -0.09323943 32.51953125 -0.09765625 C33.42274612 -0.10281754 34.325961 -0.10797882 35.25654602 -0.11329651 C36.5175135 -0.11340981 36.5175135 -0.11340981 37.80395508 -0.11352539 C38.54341873 -0.115746 39.28288239 -0.11796661 40.04475403 -0.12025452 C42 0 42 0 45 1 C46.99961564 1.03920815 49.00049364 1.04443347 51 1 C47.93882432 3.62386487 47.26826873 4 43 4 C43 4.66 43 5.32 43 6 C42.01 6 41.02 6 40 6 C40 5.34 40 4.68 40 4 C37.03 4 34.06 4 31 4 C31 3.67 31 3.34 31 3 C29.25976562 3.01740234 29.25976562 3.01740234 27.484375 3.03515625 C6.95756588 3.18037754 6.95756588 3.18037754 1 2 C0.67 1.34 0.34 0.68 0 0 Z " fill="#273742" transform="translate(163,128)"/>
<path d="M0 0 C0.33 0 0.66 0 1 0 C1.495 8.91 1.495 8.91 2 18 C-16.81 18.495 -16.81 18.495 -36 19 C-33 16 -33 16 -29.63012695 15.65942383 C-28.2494206 15.65989753 -26.86865607 15.67677217 -25.48828125 15.70703125 C-24.76005661 15.71127609 -24.03183197 15.71552094 -23.28153992 15.71989441 C-20.95814873 15.73667267 -18.6356285 15.77432145 -16.3125 15.8125 C-14.73634066 15.82754803 -13.16016771 15.84123623 -11.58398438 15.85351562 C-7.72205167 15.88402062 -3.86199937 15.94273807 0 16 C0 10.72 0 5.44 0 0 Z " fill="#414F55" transform="translate(129,127)"/>
<path d="M0 0 C0.99 0 1.98 0 3 0 C3 0.66 3 1.32 3 2 C3.66 2 4.32 2 5 2 C5.22523024 5.62415933 5.42731308 9.24924219 5.625 12.875 C5.68945312 13.90753906 5.75390625 14.94007812 5.8203125 16.00390625 C5.871875 16.99003906 5.9234375 17.97617188 5.9765625 18.9921875 C6.02893066 19.90339355 6.08129883 20.81459961 6.13525391 21.75341797 C6 24 6 24 4 26 C1.56295452 23.7596452 0.13113944 21.94610509 -0.33007812 18.61865234 C-0.39328618 15.79926726 -0.34842399 13.00583306 -0.25 10.1875 C-0.23195312 9.20845703 -0.21390625 8.22941406 -0.1953125 7.22070312 C-0.14832887 4.81279229 -0.08265694 2.40690665 0 0 Z " fill="#182C32" transform="translate(49,108)"/>
<path d="M0 0 C2.97 0 5.94 0 9 0 C6.4345406 2.5654594 4.52313332 2.54046087 1 3 C1.495 3.99 1.495 3.99 2 5 C-2.21585206 5.99307417 -6.36764647 6.24429442 -10.6796875 6.38671875 C-11.41067657 6.41224319 -12.14166565 6.43776764 -12.89480591 6.46406555 C-14.43614182 6.51588596 -15.9775591 6.56533424 -17.51904297 6.61254883 C-19.86088064 6.68705081 -22.20173369 6.77784378 -24.54296875 6.86914062 C-26.04684284 6.9176737 -27.55074878 6.96523149 -29.0546875 7.01171875 C-29.74658173 7.04077805 -30.43847595 7.06983734 -31.15133667 7.09977722 C-35.88304568 7.2205152 -39.5654543 6.47541827 -44 5 C-44 4.67 -44 4.34 -44 4 C-42.95021973 4.01047363 -41.90043945 4.02094727 -40.81884766 4.03173828 C-36.93134967 4.06788453 -33.04386659 4.09088078 -29.15625 4.10986328 C-27.47230534 4.11993317 -25.78837821 4.13358988 -24.10449219 4.15087891 C-21.68680499 4.17508426 -19.26934857 4.18647296 -16.8515625 4.1953125 C-15.71867294 4.21079636 -15.71867294 4.21079636 -14.56289673 4.22659302 C-12.7070602 4.22699318 -10.8518072 4.12222716 -9 4 C-8.34 3.34 -7.68 2.68 -7 2 C-3.375 1.875 -3.375 1.875 0 2 C0 1.34 0 0.68 0 0 Z " fill="#152934" transform="translate(203,81)"/>
<path d="M0 0 C3.63 0 7.26 0 11 0 C5.29497772 2.85251114 0.16709544 3.12748005 -6.1484375 3.31640625 C-6.80582916 3.33718735 -7.46322083 3.35796844 -8.14053345 3.37937927 C-10.21859362 3.44420753 -12.29676856 3.50344564 -14.375 3.5625 C-15.79298011 3.60574888 -17.21094907 3.64936509 -18.62890625 3.69335938 C-22.0858188 3.79981918 -25.54285706 3.90126984 -29 4 C-29 4.33 -29 4.66 -29 5 C-34.28 5 -39.56 5 -45 5 C-45 4.34 -45 3.68 -45 3 C-41.87723527 0.91815684 -41.31968122 0.75916873 -37.80395508 0.86474609 C-36.54298759 0.89500381 -36.54298759 0.89500381 -35.25654602 0.9258728 C-34.35333115 0.95806915 -33.45011627 0.9902655 -32.51953125 1.0234375 C-31.59154221 1.04846344 -30.66355316 1.07348938 -29.70744324 1.09927368 C-26.74209076 1.1814769 -23.77740396 1.27806537 -20.8125 1.375 C-18.80276161 1.43323922 -16.79299586 1.49054251 -14.78320312 1.546875 C-9.85508555 1.6870563 -4.92751693 1.84014082 0 2 C0 1.34 0 0.68 0 0 Z " fill="#142833" transform="translate(200,175)"/>
<path d="M0 0 C0.61875 0.33 1.2375 0.66 1.875 1 C0.885 2.485 0.885 2.485 -0.125 4 C-1.70857459 3.68872484 -3.29184993 3.37592711 -4.875 3.0625 C-5.75671875 2.88847656 -6.6384375 2.71445313 -7.546875 2.53515625 C-9.75735053 2.07631512 -11.94012068 1.56663926 -14.125 1 C-14.455 1.99 -14.785 2.98 -15.125 4 C-15.764375 4.391875 -16.40375 4.78375 -17.0625 5.1875 C-20.21960439 7.96192507 -20.32433961 10.92997637 -21.125 15 C-21.785 15 -22.445 15 -23.125 15 C-23.785 16.32 -24.445 17.64 -25.125 19 C-24.85480587 12.92063217 -24.16223846 8.82225704 -20.125 4 C-13.93564072 -1.45253079 -7.97656967 -2.5525023 0 0 Z " fill="#1F2F3B" transform="translate(74.125,151)"/>
<path d="M0 0 C0.66 1.32 1.32 2.64 2 4 C1.030625 4.28875 0.06125 4.5775 -0.9375 4.875 C-4.10664203 5.64214682 -4.10664203 5.64214682 -5 8 C-6.7590332 8.41064453 -6.7590332 8.41064453 -9.05078125 8.6328125 C-9.88963867 8.7167627 -10.72849609 8.80071289 -11.59277344 8.88720703 C-12.93903809 9.00491455 -12.93903809 9.00491455 -14.3125 9.125 C-15.21645508 9.20991699 -16.12041016 9.29483398 -17.05175781 9.38232422 C-23.71049483 9.97349826 -30.31470383 10.24458401 -37 10 C-37 9.34 -37 8.68 -37 8 C-29.08 7.67 -21.16 7.34 -13 7 C-13 6.34 -13 5.68 -13 5 C-9.7 4.34 -6.4 3.68 -3 3 C-3.66 2.34 -4.32 1.68 -5 1 C-3.35 0.67 -1.7 0.34 0 0 Z " fill="#2D3E48" transform="translate(213,79)"/>
<path d="M0 0 C0.82741699 0.01047363 1.65483398 0.02094727 2.50732422 0.03173828 C3.40322266 0.03818359 4.29912109 0.04462891 5.22216797 0.05126953 C6.62789062 0.07640625 6.62789062 0.07640625 8.06201172 0.10205078 C9.00689453 0.11107422 9.95177734 0.12009766 10.92529297 0.12939453 C13.26278464 0.15300556 15.59977295 0.18593562 17.93701172 0.22705078 C17.93701172 0.55705078 17.93701172 0.88705078 17.93701172 1.22705078 C21.23701172 1.22705078 24.53701172 1.22705078 27.93701172 1.22705078 C19.69342371 6.72277612 5.58992174 4.32262415 -4.06298828 4.22705078 C-4.06298828 1.23437984 -2.90665666 0.31990422 0 0 Z " fill="#263843" transform="translate(177.06298828125,107.77294921875)"/>
<path d="M0 0 C0.33 0.66 0.66 1.32 1 2 C4.3677519 2.93548664 7.5184446 3.09947301 11 3 C7.79989612 4.8133922 4.86716157 5.52213974 1.25 6.125 C0.26515625 6.29257813 -0.7196875 6.46015625 -1.734375 6.6328125 C-2.48203125 6.75398438 -3.2296875 6.87515625 -4 7 C-4 6.67 -4 6.34 -4 6 C-7.3 6 -10.6 6 -14 6 C-13.67 5.34 -13.34 4.68 -13 4 C-15.31 4 -17.62 4 -20 4 C-17.11689381 1.11689381 -13.88379345 1.28918077 -10 0.875 C-9.26265625 0.78863281 -8.5253125 0.70226562 -7.765625 0.61328125 C-2.43105159 0 -2.43105159 0 0 0 Z " fill="#273843" transform="translate(210,103)"/>
<path d="M0 0 C1.80791016 0.00966797 1.80791016 0.00966797 3.65234375 0.01953125 C5.53373047 0.04466797 5.53373047 0.04466797 7.453125 0.0703125 C8.72285156 0.07933594 9.99257812 0.08835937 11.30078125 0.09765625 C14.43508593 0.12122245 17.56901041 0.15412418 20.703125 0.1953125 C20.703125 0.8553125 20.703125 1.5153125 20.703125 2.1953125 C16.91149473 4.72306601 13.89438469 4.41974285 9.515625 4.3203125 C8.76603516 4.31128906 8.01644531 4.30226563 7.24414062 4.29296875 C5.39699846 4.26943828 3.55002088 4.23356811 1.703125 4.1953125 C1.703125 3.8653125 1.703125 3.5353125 1.703125 3.1953125 C-2.256875 2.8653125 -6.216875 2.5353125 -10.296875 2.1953125 C-6.17173291 0.13274146 -4.47887362 -0.04225352 0 0 Z " fill="#172933" transform="translate(61.296875,103.8046875)"/>
<path d="M0 0 C0.928125 0.2784375 0.928125 0.2784375 1.875 0.5625 C4.04160178 1.23686176 4.04160178 1.23686176 6 0 C8.24658203 0.34545898 8.24658203 0.34545898 11.0078125 0.99609375 C11.99394531 1.22490234 12.98007813 1.45371094 13.99609375 1.68945312 C15.54490234 2.05973633 15.54490234 2.05973633 17.125 2.4375 C18.16527344 2.68048828 19.20554688 2.92347656 20.27734375 3.17382812 C22.8530734 3.77640708 25.42712212 4.38537859 28 5 C28 5.33 28 5.66 28 6 C23.71 5.67 19.42 5.34 15 5 C15 5.99 15 6.98 15 8 C15.33 7.34 15.66 6.68 16 6 C17.65 6 19.3 6 21 6 C21.33 6.66 21.66 7.32 22 8 C18.21812119 9.83691257 16.05431692 10.15837626 12 9 C12.33 8.34 12.66 7.68 13 7 C12.195625 6.690625 11.39125 6.38125 10.5625 6.0625 C8 5 8 5 7 4 C5.00577205 3.63371323 3.00546689 3.29868656 1 3 C0.67 2.01 0.34 1.02 0 0 Z " fill="#263742" transform="translate(138,100)"/>
<path d="M0 0 C0.33 0.99 0.66 1.98 1 3 C0 4 0 4 -1.76586914 4.11352539 C-2.51473389 4.10828857 -3.26359863 4.10305176 -4.03515625 4.09765625 C-4.84404297 4.09443359 -5.65292969 4.09121094 -6.48632812 4.08789062 C-7.33646484 4.07951172 -8.18660156 4.07113281 -9.0625 4.0625 C-9.91650391 4.05798828 -10.77050781 4.05347656 -11.65039062 4.04882812 C-13.76695663 4.03700373 -15.88348685 4.01906769 -18 4 C-18 3.34 -18 2.68 -18 2 C-20.64 2 -23.28 2 -26 2 C-26 1.67 -26 1.34 -26 1 C-22.7 1 -19.4 1 -16 1 C-16 0.67 -16 0.34 -16 0 C-10.49983036 -1.30267176 -5.52967941 -0.71033431 0 0 Z " fill="#152B37" transform="translate(184,154)"/>
<path d="M0 0 C9.57 0 19.14 0 29 0 C29.33 0.99 29.66 1.98 30 3 C25.77123165 3.19732164 21.54198062 3.38114059 17.3125 3.5625 C15.51522461 3.64661133 15.51522461 3.64661133 13.68164062 3.73242188 C12.52470703 3.78076172 11.36777344 3.82910156 10.17578125 3.87890625 C9.11270752 3.9260376 8.04963379 3.97316895 6.9543457 4.02172852 C4.15199618 4.0011179 1.7178227 3.6525411 -1 3 C-0.67 2.01 -0.34 1.02 0 0 Z " fill="#112531" transform="translate(235,92)"/>
<path d="M0 0 C-0.66 1.32 -1.32 2.64 -2 4 C-4.31 4 -6.62 4 -9 4 C-9 4.66 -9 5.32 -9 6 C-19.55808656 5.03644647 -19.55808656 5.03644647 -24 4 C-18.3015453 -1.6984547 -7.42886073 -0.20667619 0 0 Z " fill="#273944" transform="translate(175,152)"/>
<path d="M0 0 C0.33 0.99 0.66 1.98 1 3 C10.57 3 20.14 3 30 3 C30.33 2.01 30.66 1.02 31 0 C31 1.65 31 3.3 31 5 C20.77 5 10.54 5 0 5 C-0.33 4.01 -0.66 3.02 -1 2 C-0.67 1.34 -0.34 0.68 0 0 Z " fill="#182A34" transform="translate(51,133)"/>
<path d="M0 0 C0.99 0 1.98 0 3 0 C3 0.99 3 1.98 3 3 C3.66 2.01 4.32 1.02 5 0 C5.66 0 6.32 0 7 0 C7.33 0.99 7.66 1.98 8 3 C7.67 3.66 7.34 4.32 7 5 C6.34 5 5.68 5 5 5 C5.14183696 6.75032844 5.28863429 8.50025534 5.4375 10.25 C5.51871094 11.22453125 5.59992188 12.1990625 5.68359375 13.203125 C5.95074584 15.56461753 6.35371968 17.71901065 7 20 C5.68 20.33 4.36 20.66 3 21 C3 15.72 3 10.44 3 5 C0.03 4.505 0.03 4.505 -3 4 C-2.34 3.67 -1.68 3.34 -1 3 C-0.67 2.01 -0.34 1.02 0 0 Z " fill="#182B36" transform="translate(226,97)"/>
<path d="M0 0 C0.99 0.33 1.98 0.66 3 1 C2.649375 1.928125 2.29875 2.85625 1.9375 3.8125 C0.67617372 6.9802953 0.67617372 6.9802953 2 10 C2.41192535 12.65971553 2.69305551 15.32519801 3 18 C2.34 18 1.68 18 1 18 C0.67 17.34 0.34 16.68 0 16 C-0.66 16.33 -1.32 16.66 -2 17 C-2.33 15.68 -2.66 14.36 -3 13 C-3.33 14.32 -3.66 15.64 -4 17 C-5.74610665 13.5077867 -4.83414168 9.71628791 -4 6 C-2.86118515 3.71774096 -1.59921695 2.0119181 0 0 Z " fill="#263841" transform="translate(54,60)"/>
<path d="M0 0 C0 0.33 0 0.66 0 1 C2.475 1.495 2.475 1.495 5 2 C5 2.33 5 2.66 5 3 C-2.06006885 3.93496219 -8.94612235 4.12086777 -16.0625 4.0625 C-17.11888672 4.05798828 -18.17527344 4.05347656 -19.26367188 4.04882812 C-21.84250908 4.03715918 -24.42122294 4.02078885 -27 4 C-27 3.67 -27 3.34 -27 3 C-25.35 2.67 -23.7 2.34 -22 2 C-22 1.67 -22 1.34 -22 1 C-14.64424835 0.29223008 -7.3905476 -0.14715692 0 0 Z " fill="#122730" transform="translate(198,130)"/>
<path d="M0 0 C0.66 0.33 1.32 0.66 2 1 C1.67 4.96 1.34 8.92 1 13 C0.34 12.34 -0.32 11.68 -1 11 C-0.42647107 14.87132028 1.48704352 17.08172796 4 20 C2.68 20 1.36 20 0 20 C-2.92692128 16.74786524 -4.2629968 14.14062364 -4.375 9.8125 C-4 6 -4 6 -2 3 C-1.67 3.33 -1.34 3.66 -1 4 C-0.67 2.68 -0.34 1.36 0 0 Z " fill="#172832" transform="translate(54,159)"/>
<path d="M0 0 C0.66 0.33 1.32 0.66 2 1 C2 2.32 2 3.64 2 5 C3.91666921 7.25065102 3.91666921 7.25065102 6 9 C3.83125748 8.49396008 2.00032373 8.00016187 0 7 C-1.87056791 6.7724985 -3.74685958 6.59037189 -5.625 6.4375 C-7.12933594 6.31181641 -7.12933594 6.31181641 -8.6640625 6.18359375 C-9.43492187 6.12300781 -10.20578125 6.06242187 -11 6 C-8.64046906 3.64046906 -7.22104383 3.50858587 -4 3 C-5.98 3 -7.96 3 -10 3 C-7.29533098 -0.81835627 -4.38726992 -0.31907418 0 0 Z " fill="#192C35" transform="translate(302,55)"/>
<path d="M0 0 C2.96659507 2.36614196 3.92255425 3.59352717 4.64453125 7.3828125 C4.69996094 8.61773437 4.75539062 9.85265625 4.8125 11.125 C4.88082031 12.36507812 4.94914063 13.60515625 5.01953125 14.8828125 C5 18 5 18 4 20 C3.34 20 2.68 20 2 20 C-1.00981519 16.99018481 -0.50578017 13.48489624 -0.6875 9.4375 C-0.73455078 8.64408203 -0.78160156 7.85066406 -0.83007812 7.03320312 C-0.93473876 5.0240621 -0.97273009 3.01168035 -1 1 C-0.67 0.67 -0.34 0.34 0 0 Z " fill="#162732" transform="translate(230,148)"/>
<path d="M0 0 C1.64574566 -0.02688151 3.29161413 -0.04634123 4.9375 -0.0625 C5.85402344 -0.07410156 6.77054688 -0.08570312 7.71484375 -0.09765625 C10 0 10 0 11 1 C13.01594582 1.23427778 15.038474 1.41336124 17.0625 1.5625 C18.16722656 1.64628906 19.27195313 1.73007813 20.41015625 1.81640625 C21.26480469 1.87699219 22.11945313 1.93757812 23 2 C23 2.33 23 2.66 23 3 C21.72125 3.12375 20.4425 3.2475 19.125 3.375 C15.65209064 3.69042399 15.65209064 3.69042399 13 6 C10.375 6.125 10.375 6.125 8 6 C8 5.34 8 4.68 8 4 C6.35 4 4.7 4 3 4 C3 3.34 3 2.68 3 2 C2.01 1.34 1.02 0.68 0 0 Z " fill="#142A34" transform="translate(153,128)"/>
<path d="M0 0 C8.24204707 -0.21881541 16.30236397 -0.02297426 24.5 0.875 C25.61060791 0.99270752 25.61060791 0.99270752 26.74365234 1.11279297 C31.3430261 1.65383468 35.57995625 2.6158284 40 4 C36.67395049 5.10868317 33.46941546 5.54177532 30 6 C30 5.01 30 4.02 30 3 C20.1 2.34 10.2 1.68 0 1 C0 0.67 0 0.34 0 0 Z " fill="#354A51" transform="translate(175,53)"/>
<path d="M0 0 C4 3 4 3 4.45410156 5.17651367 C4.4331543 5.99869385 4.41220703 6.82087402 4.390625 7.66796875 C4.37773437 8.56064453 4.36484375 9.45332031 4.3515625 10.37304688 C4.31804687 11.30181641 4.28453125 12.23058594 4.25 13.1875 C4.23195313 14.12787109 4.21390625 15.06824219 4.1953125 16.03710938 C4.1481655 18.35909889 4.08238231 20.6790369 4 23 C3.34 23 2.68 23 2 23 C1.67 19.04 1.34 15.08 1 11 C0.67 11 0.34 11 0 11 C0 7.37 0 3.74 0 0 Z " fill="#2C3F4B" transform="translate(283,108)"/>
<path d="M0 0 C4.12486838 -0.08676908 8.24950384 -0.14031295 12.375 -0.1875 C13.550625 -0.21263672 14.72625 -0.23777344 15.9375 -0.26367188 C17.61972656 -0.27817383 17.61972656 -0.27817383 19.3359375 -0.29296875 C20.37282715 -0.3086792 21.4097168 -0.32438965 22.47802734 -0.34057617 C23.31027832 -0.22818604 24.1425293 -0.1157959 25 0 C25.66 0.99 26.32 1.98 27 3 C18.43225109 5.68283047 7.97994422 4.90854411 0 1 C0 0.67 0 0.34 0 0 Z " fill="#122734" transform="translate(283,105)"/>
<path d="M0 0 C2.97 0 5.94 0 9 0 C8.67 0.66 8.34 1.32 8 2 C13.94 2 19.88 2 26 2 C26 2.66 26 3.32 26 4 C18.41 4 10.82 4 3 4 C2.67 3.01 2.34 2.02 2 1 C1.34 0.67 0.68 0.34 0 0 Z " fill="#263946" transform="translate(283,106)"/>
<path d="M0 0 C-0.66 0.66 -1.32 1.32 -2 2 C-1.67 2.66 -1.34 3.32 -1 4 C-2.65 4.33 -4.3 4.66 -6 5 C-6 5.66 -6 6.32 -6 7 C-12.0546875 7.9765625 -12.0546875 7.9765625 -14 8 C-14.66 7.34 -15.32 6.68 -16 6 C-14.5459375 5.5978125 -14.5459375 5.5978125 -13.0625 5.1875 C-11.5465625 4.5996875 -11.5465625 4.5996875 -10 4 C-9.67 3.01 -9.34 2.02 -9 1 C-5.8035914 -0.06546953 -3.34252724 -0.07427838 0 0 Z " fill="#182B34" transform="translate(223,78)"/>
<path d="M0 0 C2.31 0.66 4.62 1.32 7 2 C6.67 3.32 6.34 4.64 6 6 C6.99 6.66 7.98 7.32 9 8 C8.67 8.66 8.34 9.32 8 10 C7.27554688 9.73445313 6.55109375 9.46890625 5.8046875 9.1953125 C0.88942809 7.3996044 -4.02146805 5.61465901 -9 4 C-5.93109813 2.46554906 -3.29905734 3.45015711 0 4 C0 2.68 0 1.36 0 0 Z " fill="#2A3943" transform="translate(216,57)"/>
<path d="M0 0 C0.66 0.33 1.32 0.66 2 1 C2 1.33 2 1.66 2 2 C3.32 2.33 4.64 2.66 6 3 C4.02 3.66 2.04 4.32 0 5 C0.33 5.66 0.66 6.32 1 7 C0.38125 7.28875 -0.2375 7.5775 -0.875 7.875 C-3.13325765 8.93720042 -3.13325765 8.93720042 -5 11 C-5.99 10.67 -6.98 10.34 -8 10 C-7.33333333 8.66666667 -6.66666667 7.33333333 -6 6 C-5.71125 5.29875 -5.4225 4.5975 -5.125 3.875 C-3.72822474 1.54704124 -2.54497983 0.87483682 0 0 Z " fill="#2A3B45" transform="translate(293,55)"/>
<path d="M0 0 C0.99 0.33 1.98 0.66 3 1 C2.21625 1.391875 1.4325 1.78375 0.625 2.1875 C-2.47082852 4.32509588 -3.09701103 5.38804412 -4 9 C-4.07646165 11.3320802 -4.09143299 13.66845878 -4 16 C-4.226875 15.443125 -4.45375 14.88625 -4.6875 14.3125 C-6.3592504 11.36703501 -8.58281215 9.35675815 -11 7 C-11.66 6.01 -12.32 5.02 -13 4 C-12.01 4 -11.02 4 -10 4 C-9.67 4.66 -9.34 5.32 -9 6 C-6.55519921 5.81171228 -6.55519921 5.81171228 -4 5 C-2.77472052 3.04978917 -2.77472052 3.04978917 -2 1 C-1.34 0.67 -0.68 0.34 0 0 Z " fill="#213641" transform="translate(291,153)"/>
<path d="M0 0 C1.32 0.66 2.64 1.32 4 2 C2.625 4 2.625 4 1 6 C0.34 6 -0.32 6 -1 6 C-1.598125 6.66 -2.19625 7.32 -2.8125 8 C-5 10 -5 10 -7.75 10.25 C-8.4925 10.1675 -9.235 10.085 -10 10 C-9.6875 8.0625 -9.6875 8.0625 -9 6 C-8.01 5.67 -7.02 5.34 -6 5 C-5.67 5.33 -5.34 5.66 -5 6 C-3.35 4.02 -1.7 2.04 0 0 Z " fill="#22333D" transform="translate(79,171)"/>
<path d="M0 0 C2.9375 1.3125 2.9375 1.3125 6 3 C6.33 3.99 6.66 4.98 7 6 C4.69 5.67 2.38 5.34 0 5 C0 5.66 0 6.32 0 7 C-0.66 7 -1.32 7 -2 7 C-2.33 10.3 -2.66 13.6 -3 17 C-3.33 17 -3.66 17 -4 17 C-4.10807131 15.06372231 -4.1856225 13.12572244 -4.25 11.1875 C-4.29640625 10.10855469 -4.3428125 9.02960938 -4.390625 7.91796875 C-4 5 -4 5 -1.984375 3.23828125 C-1.32953125 2.82964844 -0.6746875 2.42101562 0 2 C0 1.34 0 0.68 0 0 Z " fill="#1D323D" transform="translate(136,96)"/>
<path d="M0 0 C5.03949613 1.53375969 7.04185809 2.56278713 10 7 C8.35 7.66 6.7 8.32 5 9 C2.5 7.3125 2.5 7.3125 0 5 C-0.3125 2.25 -0.3125 2.25 0 0 Z " fill="#20313D" transform="translate(285,79)"/>
<path d="M0 0 C0.99 1.485 0.99 1.485 2 3 C2.66 2.67 3.32 2.34 4 2 C4.45375 2.969375 4.9075 3.93875 5.375 4.9375 C6.65786221 8.07079582 6.65786221 8.07079582 9 9 C9 9.66 9 10.32 9 11 C8.01 11.33 7.02 11.66 6 12 C0 6 0 6 -0.0625 2.9375 C-0.041875 1.968125 -0.02125 0.99875 0 0 Z " fill="#243843" transform="translate(52,167)"/>
<path d="M0 0 C3.125 1 3.125 1 5 2 C4.01 3.485 4.01 3.485 3 5 C1.35328588 4.69217504 -0.29235576 4.37860766 -1.9375 4.0625 C-2.85402344 3.88847656 -3.77054688 3.71445313 -4.71484375 3.53515625 C-7 3 -7 3 -8 2 C-10.00720923 2.28674418 -12.0085944 2.61866701 -14 3 C-9.56941621 -0.87803986 -5.64639285 -0.55642967 0 0 Z " fill="#303F47" transform="translate(71,150)"/>
<path d="M0 0 C1.21236328 0.02707031 1.21236328 0.02707031 2.44921875 0.0546875 C3.37154297 0.08949219 3.37154297 0.08949219 4.3125 0.125 C4.3125 0.785 4.3125 1.445 4.3125 2.125 C5.3025 2.455 6.2925 2.785 7.3125 3.125 C5.3125 5.125 5.3125 5.125 2.52734375 5.171875 C1.44582031 5.07390625 0.36429688 4.9759375 -0.75 4.875 C-1.83410156 4.78734375 -2.91820312 4.6996875 -4.03515625 4.609375 C-4.91042969 4.44953125 -5.78570312 4.2896875 -6.6875 4.125 C-7.0175 3.465 -7.3475 2.805 -7.6875 2.125 C-4.48369983 -0.01086678 -3.66810033 -0.10632175 0 0 Z " fill="#162935" transform="translate(211.6875,56.875)"/>
<path d="M0 0 C-0.495 0.433125 -0.99 0.86625 -1.5 1.3125 C-3.33218192 2.99740483 -3.33218192 2.99740483 -3 6 C-5.5 8.6875 -5.5 8.6875 -8 11 C-8.33 10.34 -8.66 9.68 -9 9 C-8.35561283 7.32459336 -7.68753301 5.65816784 -7 4 C-7 3.01 -7 2.02 -7 1 C-4.53721199 -0.231394 -2.7204945 -0.07159196 0 0 Z " fill="#1A2C38" transform="translate(63,57)"/>
<path d="M0 0 C0.69222656 0.06703125 1.38445312 0.1340625 2.09765625 0.203125 C3.9375 0.75 3.9375 0.75 5.9375 3.75 C2.9675 3.255 2.9675 3.255 -0.0625 2.75 C-0.0625 3.41 -0.0625 4.07 -0.0625 4.75 C-3.0325 4.255 -3.0325 4.255 -6.0625 3.75 C-6.3925 2.76 -6.7225 1.77 -7.0625 0.75 C-4.18049341 -0.21066886 -2.91744009 -0.32718954 0 0 Z " fill="#172C34" transform="translate(142.0625,123.25)"/>
<path d="M0 0 C0.33 0 0.66 0 1 0 C1.08004482 3.5219721 1.04005702 6.61981469 0 10 C-0.66 10 -1.32 10 -2 10 C-2 9.34 -2 8.68 -2 8 C-4.64 7.67 -7.28 7.34 -10 7 C-9.443125 6.731875 -8.88625 6.46375 -8.3125 6.1875 C-3.37424914 3.93288201 -3.37424914 3.93288201 0 0 Z " fill="#273741" transform="translate(307,172)"/>
<path d="M0 0 C1.03159626 3.09478879 0.97482862 4.52631393 0.5625 7.6875 C0.46066406 8.49574219 0.35882813 9.30398437 0.25390625 10.13671875 C0.17011719 10.75160156 0.08632812 11.36648437 0 12 C-1.32 11.67 -2.64 11.34 -4 11 C-4.33 11.66 -4.66 12.32 -5 13 C-4.11034483 4.10344828 -4.11034483 4.10344828 -2 1 C-1.34 0.67 -0.68 0.34 0 0 Z " fill="#172932" transform="translate(83,160)"/>
<path d="M0 0 C0.66 0.33 1.32 0.66 2 1 C2.4140625 3.06640625 2.4140625 3.06640625 2.625 5.5625 C2.69976562 6.38878906 2.77453125 7.21507813 2.8515625 8.06640625 C2.90054687 8.70449219 2.94953125 9.34257813 3 10 C3.33 10 3.66 10 4 10 C4.25 12.25 4.25 12.25 4 15 C2 17.3125 2 17.3125 0 19 C-0.66 18.67 -1.32 18.34 -2 18 C-1.484375 17.443125 -0.96875 16.88625 -0.4375 16.3125 C1.25860894 14.13647303 1.25860894 14.13647303 0.6875 11.8125 C0.460625 10.884375 0.23375 9.95625 0 9 C-0.1010698 5.99822707 -0.05887324 3.00253509 0 0 Z " fill="#172732" transform="translate(309,66)"/>
<path d="M0 0 C0.33 0 0.66 0 1 0 C1.33 2.97 1.66 5.94 2 9 C-0.31 10.65 -2.62 12.3 -5 14 C-5 11 -5 11 -3 9 C-3 8.01 -3 7.02 -3 6 C-2.34 5.67 -1.68 5.34 -1 5 C-0.34444881 2.47266765 -0.34444881 2.47266765 0 0 Z " fill="#1F3340" transform="translate(283,69)"/>
<path d="M0 0 C0 0.66 0 1.32 0 2 C1.32 2.33 2.64 2.66 4 3 C0.25 4.125 0.25 4.125 -2 3 C-4.96404505 5.80804268 -7.44499019 8.18315774 -9 12 C-9 10.02 -9 8.04 -9 6 C-9.66 5.67 -10.32 5.34 -11 5 C-9.54462432 4.16151196 -8.08559627 3.32936066 -6.625 2.5 C-5.81289062 2.0359375 -5.00078125 1.571875 -4.1640625 1.09375 C-2 0 -2 0 0 0 Z " fill="#20343D" transform="translate(141,62)"/>
<path d="M0 0 C1.32 0.66 2.64 1.32 4 2 C4 7.61 4 13.22 4 19 C3.67 19 3.34 19 3 19 C2.08342019 13.61509359 1.88861841 8.45769811 2 3 C1.01 2.67 0.02 2.34 -1 2 C-0.67 1.34 -0.34 0.68 0 0 Z " fill="#132530" transform="translate(227,123)"/>
<path d="M0 0 C4.29 0.33 8.58 0.66 13 1 C9 5 9 5 5.75 5.25 C4.8425 5.1675 3.935 5.085 3 5 C3.66 4.01 4.32 3.02 5 2 C3.35 2.33 1.7 2.66 0 3 C0 2.01 0 1.02 0 0 Z " fill="#152933" transform="translate(153,105)"/>
<path d="M0 0 C1.32 0 2.64 0 4 0 C4.103125 0.7425 4.20625 1.485 4.3125 2.25 C5.04657893 5.1863157 6.14499677 6.66108288 8 9 C8 9.66 8 10.32 8 11 C6.35 11.33 4.7 11.66 3 12 C2.37542727 8.56484998 2 5.50935186 2 2 C1.34 1.34 0.68 0.68 0 0 Z " fill="#475760" transform="translate(278,125)"/>
<path d="M0 0 C0.33 0 0.66 0 1 0 C1.03758423 0.83978394 1.03758423 0.83978394 1.07592773 1.6965332 C1.19203745 4.23541305 1.3146958 6.77393553 1.4375 9.3125 C1.47681641 10.19357422 1.51613281 11.07464844 1.55664062 11.98242188 C1.59853516 12.82998047 1.64042969 13.67753906 1.68359375 14.55078125 C1.73858032 15.72120972 1.73858032 15.72120972 1.79467773 16.9152832 C1.94125263 19.19329101 1.94125263 19.19329101 3 22 C2.01 22 1.02 22 0 22 C-1.33710956 14.57161355 -0.68340908 7.48595793 0 0 Z " fill="#1C3540" transform="translate(132,76)"/>
<path d="M0 0 C0.33 0 0.66 0 1 0 C1.268125 1.2375 1.53625 2.475 1.8125 3.75 C2.64484241 7.13925038 3.72431903 9.31055886 6 12 C6 12.66 6 13.32 6 14 C4.0625 13.1875 4.0625 13.1875 2 12 C1.67 11.01 1.34 10.02 1 9 C0.34 9.66 -0.32 10.32 -1 11 C-1.33 9.02 -1.66 7.04 -2 5 C-1.67 5 -1.34 5 -1 5 C-0.67 3.35 -0.34 1.7 0 0 Z " fill="#21343E" transform="translate(283,164)"/>
<path d="M0 0 C3 2 3 2 3.51171875 4.1640625 C3.56972656 4.97617188 3.62773438 5.78828125 3.6875 6.625 C3.75324219 7.44226563 3.81898437 8.25953125 3.88671875 9.1015625 C3.92410156 9.72804688 3.96148437 10.35453125 4 11 C3.34 11 2.68 11 2 11 C2 11.66 2 12.32 2 13 C1.34 13 0.68 13 0 13 C-0.83796731 8.34462607 -1.0161692 4.62921525 0 0 Z " fill="#12252F" transform="translate(51,67)"/>
<path d="M0 0 C0.33 0.99 0.66 1.98 1 3 C-4.62256097 7.58682606 -6.88832156 8.11470449 -14 8 C-11.67072184 6.7457733 -9.55375363 5.86984481 -7 5.125 C-3.77550789 3.91581546 -2.23178928 2.57514147 0 0 Z " fill="#16252F" transform="translate(79,175)"/>
<path d="M0 0 C5.94 0.99 5.94 0.99 12 2 C12 2.66 12 3.32 12 4 C8.04 4 4.08 4 0 4 C0 2.66666667 0 1.33333333 0 0 Z " fill="#304048" transform="translate(147,125)"/>
<path d="M0 0 C0.33 0.99 0.66 1.98 1 3 C3.00016466 4.20882096 3.00016466 4.20882096 5 5 C1.1496895 7.56687367 -0.58569763 6.83288724 -5 6 C-4.75 4.125 -4.75 4.125 -4 2 C-1.9375 0.75 -1.9375 0.75 0 0 Z " fill="#263640" transform="translate(224,98)"/>
<path d="M0 0 C0.33 0 0.66 0 1 0 C1 8.375 1 8.375 0 12 C-1.32 12.33 -2.64 12.66 -4 13 C-3.71682074 11.39431334 -3.42312209 9.79047953 -3.125 8.1875 C-2.96257812 7.29417969 -2.80015625 6.40085938 -2.6328125 5.48046875 C-2 3 -2 3 0 0 Z " fill="#182833" transform="translate(310,167)"/>
<path d="M0 0 C0.80824219 0.11085937 1.61648437 0.22171875 2.44921875 0.3359375 C3.37154297 0.47902344 3.37154297 0.47902344 4.3125 0.625 C2.60421079 2.73133718 1.79101584 3.56301608 -0.94921875 3.91796875 C-1.74972656 3.88316406 -2.55023438 3.84835938 -3.375 3.8125 C-4.18324219 3.78542969 -4.99148437 3.75835937 -5.82421875 3.73046875 C-6.43910156 3.69566406 -7.05398437 3.66085938 -7.6875 3.625 C-7.6875 2.965 -7.6875 2.305 -7.6875 1.625 C-4.33422361 -0.61051759 -3.78006343 -0.54783528 0 0 Z " fill="#152834" transform="translate(155.6875,151.375)"/>
<path d="M0 0 C0.33 0 0.66 0 1 0 C1.06058594 0.67546875 1.12117187 1.3509375 1.18359375 2.046875 C1.26738281 2.93890625 1.35117188 3.8309375 1.4375 4.75 C1.55931641 6.07257813 1.55931641 6.07257813 1.68359375 7.421875 C1.96238465 9.69350452 2.38790577 11.79851823 3 14 C1.68 14.33 0.36 14.66 -1 15 C-1.09038099 9.84828377 -0.84681133 5.08086796 0 0 Z " fill="#13252E" transform="translate(230,103)"/>
<path d="M0 0 C2 2 2 2 2 5 C0.02 5.33 -1.96 5.66 -4 6 C-3.34 5.01 -2.68 4.02 -2 3 C-4.31 3.33 -6.62 3.66 -9 4 C-6.06279492 2.47700477 -3.0831351 1.19899698 0 0 Z " fill="#152832" transform="translate(224,170)"/>
<path d="M0 0 C2 2 2 2 2.265625 4.3125 C2.26046875 5.199375 2.2553125 6.08625 2.25 7 C2.25515625 7.886875 2.2603125 8.77375 2.265625 9.6875 C2 12 2 12 0 14 C-0.66 12.02 -1.32 10.04 -2 8 C-1.34 8 -0.68 8 0 8 C0 5.36 0 2.72 0 0 Z " fill="#30404F" transform="translate(82,123)"/>
<path d="M0 0 C-1.70828921 2.10633718 -2.52148416 2.93801608 -5.26171875 3.29296875 C-6.06222656 3.25816406 -6.86273438 3.22335938 -7.6875 3.1875 C-8.89986328 3.14689453 -8.89986328 3.14689453 -10.13671875 3.10546875 C-11.05904297 3.05326172 -11.05904297 3.05326172 -12 3 C-12.33 2.34 -12.66 1.68 -13 1 C-8.60563789 0.14256349 -4.47427924 -0.08948558 0 0 Z " fill="#182A32" transform="translate(208,178)"/>
<path d="M0 0 C1.093125 0.185625 2.18625 0.37125 3.3125 0.5625 C6.93624133 1.2578068 6.93624133 1.2578068 10 0 C9 3 9 3 6.6875 4.375 C4 5 4 5 1.6875 3.75 C0 2 0 2 0 0 Z " fill="#172932" transform="translate(218,148)"/>
<path d="M0 0 C-0.33 1.32 -0.66 2.64 -1 4 C-3.31 4 -5.62 4 -8 4 C-8.33 3.01 -8.66 2.02 -9 1 C-5.8035914 -0.06546953 -3.34252724 -0.07427838 0 0 Z " fill="#132933" transform="translate(69,151)"/>
<path d="M0 0 C2.97 0 5.94 0 9 0 C8.01 0.66 7.02 1.32 6 2 C6.33 2.66 6.66 3.32 7 4 C5.02 4 3.04 4 1 4 C0.67 2.68 0.34 1.36 0 0 Z " fill="#21343E" transform="translate(273,120)"/>
<path d="M0 0 C1.65 0 3.3 0 5 0 C5 0.33 5 0.66 5 1 C6.65 1.33 8.3 1.66 10 2 C10 2.33 10 2.66 10 3 C7.69 3 5.38 3 3 3 C2.67 3.99 2.34 4.98 2 6 C2 5.34 2 4.68 2 4 C1.01 4 0.02 4 -1 4 C-0.67 2.68 -0.34 1.36 0 0 Z " fill="#2B3A45" transform="translate(50,104)"/>
<path d="M0 0 C1.231394 3.69418201 0.64432764 6.2056261 0 10 C-0.66 10 -1.32 10 -2 10 C-2.33 7.03 -2.66 4.06 -3 1 C-2.01 0.67 -1.02 0.34 0 0 Z " fill="#20333A" transform="translate(287,64)"/>
<path d="M0 0 C1.60568666 0.28317926 3.20952047 0.57687791 4.8125 0.875 C6.15248047 1.11863281 6.15248047 1.11863281 7.51953125 1.3671875 C10 2 10 2 13 4 C5.73846154 4.49230769 5.73846154 4.49230769 2 2 C1.34 1.34 0.68 0.68 0 0 Z " fill="#152832" transform="translate(141,174)"/>
<path d="M0 0 C0.598125 0.350625 1.19625 0.70125 1.8125 1.0625 C1.4825 1.7225 1.1525 2.3825 0.8125 3.0625 C-1.50906597 3.46979228 -3.8443787 3.80688677 -6.1875 4.0625 C-5.875 2.125 -5.875 2.125 -5.1875 0.0625 C-2.1875 -0.9375 -2.1875 -0.9375 0 0 Z " fill="#233541" transform="translate(220.1875,124.9375)"/>
<path d="M0 0 C0 0.66 0 1.32 0 2 C-5.17578125 5.22265625 -5.17578125 5.22265625 -7 6 C-7.99 5.67 -8.98 5.34 -10 5 C-8.71186658 4.16121545 -7.41936744 3.32913217 -6.125 2.5 C-5.40570313 2.0359375 -4.68640625 1.571875 -3.9453125 1.09375 C-2 0 -2 0 0 0 Z " fill="#1C2A32" transform="translate(229,120)"/>
<path d="M0 0 C0.33 0 0.66 0 1 0 C1.2475 0.9075 1.495 1.815 1.75 2.75 C3.03981342 6.10351489 4.31971042 7.67708236 7 10 C4 10 4 10 1.8125 8.9375 C0 7 0 7 -0.25 3.3125 C-0.1675 2.219375 -0.085 1.12625 0 0 Z " fill="#15242C" transform="translate(131,163)"/>
<path d="M0 0 C2.31 1.98 4.62 3.96 7 6 C6.34 6.66 5.68 7.32 5 8 C3.02 5.69 1.04 3.38 -1 1 C-0.67 0.67 -0.34 0.34 0 0 Z " fill="#21333D" transform="translate(90,84)"/>
<path d="M0 0 C1.85776765 3.13498292 2.20140476 5.37471432 2 9 C1.01 9.33 0.02 9.66 -1 10 C-1.125 2.25 -1.125 2.25 0 0 Z " fill="#1B2A32" transform="translate(313,65)"/>
<path d="M0 0 C1.32 0.66 2.64 1.32 4 2 C3.01 3.32 2.02 4.64 1 6 C0.01 5.67 -0.98 5.34 -2 5 C-1.34 3.35 -0.68 1.7 0 0 Z " fill="#2A3C47" transform="translate(79,171)"/>
<path d="M0 0 C2.97 0 5.94 0 9 0 C8.01 0.66 7.02 1.32 6 2 C6.33 2.66 6.66 3.32 7 4 C5.35 3.67 3.7 3.34 2 3 C2 2.34 2 1.68 2 1 C1.34 0.67 0.68 0.34 0 0 Z " fill="#1F3540" transform="translate(283,106)"/>
<path d="M0 0 C2 2 2 2 2.125 5.625 C2.08375 6.73875 2.0425 7.8525 2 9 C1.01 9 0.02 9 -1 9 C-1.125 2.25 -1.125 2.25 0 0 Z " fill="#142632" transform="translate(80,65)"/>
<path d="M0 0 C3.23739279 1.6186964 4.42244771 4.84489543 6 8 C4.125 7.6875 4.125 7.6875 2 7 C0 4 0 4 0 0 Z " fill="#162731" transform="translate(283,172)"/>
<path d="M0 0 C-0.99 0.33 -1.98 0.66 -3 1 C-3 1.66 -3 2.32 -3 3 C-4.98 3 -6.96 3 -9 3 C-9.33 2.34 -9.66 1.68 -10 1 C-6.59437148 0.22157062 -3.49234244 -0.09978121 0 0 Z " fill="#152831" transform="translate(73,86)"/>
<path d="M0 0 C-3.25852365 2.1723491 -6.59244728 4.07119658 -10 6 C-7.82304683 0.97626191 -5.41372848 -0.29263397 0 0 Z " fill="#15262E" transform="translate(142,61)"/>
<path d="M0 0 C-3.8642073 2.5761382 -5.62817334 3.18466897 -10.25 2.5625 C-11.1575 2.376875 -12.065 2.19125 -13 2 C-13 1.67 -13 1.34 -13 1 C-8.61414671 0.29826347 -4.44209357 -0.10834375 0 0 Z " fill="#122836" transform="translate(174,57)"/>
<path d="M0 0 C4.55384615 -0.36923077 4.55384615 -0.36923077 6.8125 1.5 C7.204375 1.995 7.59625 2.49 8 3 C7.67 3.66 7.34 4.32 7 5 C6.01 4.67 5.02 4.34 4 4 C4 3.34 4 2.68 4 2 C2.68 1.34 1.36 0.68 0 0 Z " fill="#1A2C35" transform="translate(302,152)"/>
<path d="M0 0 C-0.33 0.99 -0.66 1.98 -1 3 C-4.3 3 -7.6 3 -11 3 C-11 2.67 -11 2.34 -11 2 C-9.5422647 1.664061 -8.08378894 1.33133376 -6.625 1 C-5.40683594 0.7215625 -5.40683594 0.7215625 -4.1640625 0.4375 C-2 0 -2 0 0 0 Z " fill="#16262F" transform="translate(306,85)"/>
<path d="" fill="#FFFFFF" transform="translate(0,0)"/>
<path d="" fill="#FFFFFF" transform="translate(0,0)"/>
<path d="" fill="#FFFFFF" transform="translate(0,0)"/>
<path d="" fill="#FFFFFF" transform="translate(0,0)"/>
<path d="" fill="#FFFFFF" transform="translate(0,0)"/>
<path d="" fill="#FFFFFF" transform="translate(0,0)"/>
<path d="" fill="#808080" transform="translate(0,0)"/>
<path d="" fill="#808080" transform="translate(0,0)"/>
<path d="" fill="#FFFFFF" transform="translate(0,0)"/>
<path d="" fill="#FFFFFF" transform="translate(0,0)"/>
<path d="" fill="#FFFFFF" transform="translate(0,0)"/>
<path d="" fill="#555555" transform="translate(0,0)"/>
<path d="" fill="#555555" transform="translate(0,0)"/>
<path d="" fill="#336666" transform="translate(0,0)"/>
<path d="" fill="#FFFFFF" transform="translate(0,0)"/>
<path d="" fill="#FFFFFF" transform="translate(0,0)"/>
<path d="" fill="#FFFFFF" transform="translate(0,0)"/>
<path d="" fill="#FFFFFF" transform="translate(0,0)"/>
<path d="" fill="#555555" transform="translate(0,0)"/>
<path d="" fill="#FFFFFF" transform="translate(0,0)"/>
<path d="" fill="#FFFFFF" transform="translate(0,0)"/>
<path d="" fill="#FFFFFF" transform="translate(0,0)"/>
<path d="" fill="#FFFFFF" transform="translate(0,0)"/>
<path d="" fill="#FFFFFF" transform="translate(0,0)"/>
<path d="" fill="#FFFFFF" transform="translate(0,0)"/>
<path d="" fill="#FFFFFF" transform="translate(0,0)"/>
</svg>
