<?xml version="1.0" encoding="UTF-8"?>
<svg version="1.1" xmlns="http://www.w3.org/2000/svg" width="512" height="512">
<path d="M0 0 C1.51436105 -0.00435792 3.0287199 -0.00954463 4.54307556 -0.01548767 C8.62177969 -0.02877366 12.70039058 -0.02946799 16.7791121 -0.02692437 C20.20060477 -0.02584743 23.62207913 -0.03075645 27.04356784 -0.03552979 C35.12476255 -0.0465893 43.20591077 -0.04708267 51.28710938 -0.04101562 C59.58615148 -0.03498021 67.88502386 -0.04728405 76.18403703 -0.06858569 C83.34370074 -0.08627793 90.50331079 -0.09219106 97.66299552 -0.08894795 C101.92394014 -0.08714686 106.1847637 -0.08965247 110.44568825 -0.10366249 C114.45711398 -0.11636094 118.46827776 -0.11418499 122.47970009 -0.1012516 C123.9392252 -0.09891205 125.39876945 -0.10152449 126.85827255 -0.10987473 C148.74748685 -0.2259321 168.73182397 5.30639623 184.74291992 20.8996582 C198.21048727 34.59537996 205.18438571 52.41418086 205.86791992 71.5246582 C205.40795914 91.44670943 197.72636159 109.31607434 184.13354492 123.85668945 C173.4091208 133.91489935 160.77391863 139.8919206 146.55541992 143.2746582 C147.42682617 143.49379883 148.29823242 143.71293945 149.19604492 143.9387207 C162.03629901 147.35722991 172.51780941 152.37768525 182.55541992 161.2746582 C183.16901367 161.79415039 183.78260742 162.31364258 184.41479492 162.84887695 C197.92221466 175.14806419 204.40759422 193.31193037 205.77416992 211.1262207 C206.42425814 231.2247816 199.27847211 248.7008301 186.36010742 263.84887695 C172.81823796 278.1430725 154.07408104 285.59124328 134.61401367 286.2746582 C114.14047024 286.54705507 96.07701458 278.19669216 81.43432617 264.25512695 C74.01144975 256.45604237 68.77312404 247.21516355 65.43920898 237.02978516 C65.08473694 235.9513887 64.73026489 234.87299225 64.36505127 233.76191711 C64.09787292 232.94112167 63.83069458 232.12032623 63.55541992 231.2746582 C63.55395336 231.96689263 63.5524868 232.65912706 63.5509758 233.37233829 C63.51379795 250.27676497 63.45463903 267.18096085 63.37151718 284.08522129 C63.33183957 292.26026772 63.29939016 300.43521945 63.28442383 308.61035156 C63.27134845 315.74228212 63.24423535 322.87400333 63.20080686 330.00581592 C63.17832317 333.77622724 63.16250127 337.54638163 63.16353607 341.31686592 C63.16429054 344.87849622 63.14603069 348.43956146 63.11425209 352.00104523 C63.10190345 353.90537597 63.10875533 355.80980232 63.11656189 357.7141571 C62.89068445 376.76389007 55.89230049 394.12544678 42.40698242 407.62231445 C27.07769538 421.88065131 9.21235973 428.70640545 -11.63208008 428.4855957 C-32.05989695 427.35536813 -49.04144697 418.63773707 -63.09301758 404.02856445 C-74.84189533 390.26949666 -81.11217329 372.40463279 -80.69458008 354.31762695 C-79.00770478 333.78519162 -70.99444883 315.14230088 -55.44458008 301.2746582 C-45.46945254 293.37247323 -33.88704632 287.90671837 -21.44458008 285.2746582 C-22.31598633 285.05551758 -23.18739258 284.83637695 -24.08520508 284.6105957 C-36.92545917 281.1920865 -47.40696957 276.17163115 -57.44458008 267.2746582 C-58.05817383 266.75516602 -58.67176758 266.23567383 -59.30395508 265.70043945 C-72.81137482 253.40125221 -79.29675438 235.23738604 -80.66333008 217.4230957 C-81.3134183 197.32453481 -74.16763227 179.84848631 -61.24926758 164.70043945 C-55.96798288 159.12575004 -50.09036352 155.07509125 -43.44458008 151.2746582 C-42.78973633 150.88536133 -42.13489258 150.49606445 -41.46020508 150.0949707 C-35.23476243 146.66299591 -28.27505325 145.07821011 -21.44458008 143.2746582 C-22.9856543 142.83766602 -22.9856543 142.83766602 -24.55786133 142.3918457 C-45.11499154 136.38792956 -61.1159729 125.59385503 -71.71313477 106.57128906 C-81.23331513 88.81285834 -82.67595659 69.60207979 -77.44458008 50.2746582 C-71.0718485 31.21602172 -58.20809896 16.54886748 -40.44458008 7.2746582 C-27.21365797 1.11381414 -14.45111907 -0.02780198 0 0 Z M62.55541992 143.2746582 C62.55541992 162.7446582 62.55541992 182.2146582 62.55541992 202.2746582 C62.88541992 202.2746582 63.21541992 202.2746582 63.55541992 202.2746582 C63.76295898 201.34266602 63.97049805 200.41067383 64.18432617 199.45043945 C68.73267704 180.62902101 78.61723311 164.55217083 95.29858398 154.19506836 C103.29584179 149.43627766 111.60588069 146.69219607 120.55541992 144.2746582 C120.55541992 143.9446582 120.55541992 143.6146582 120.55541992 143.2746582 C101.41541992 143.2746582 82.27541992 143.2746582 62.55541992 143.2746582 Z " fill="#A258FF" transform="translate(193.444580078125,41.725341796875)"/>
<path d="M0 0 C1.51436105 -0.00435792 3.0287199 -0.00954463 4.54307556 -0.01548767 C8.62177969 -0.02877366 12.70039058 -0.02946799 16.7791121 -0.02692437 C20.20060477 -0.02584743 23.62207913 -0.03075645 27.04356784 -0.03552979 C35.12476255 -0.0465893 43.20591077 -0.04708267 51.28710938 -0.04101562 C59.58615148 -0.03498021 67.88502386 -0.04728405 76.18403703 -0.06858569 C83.34370074 -0.08627793 90.50331079 -0.09219106 97.66299552 -0.08894795 C101.92394014 -0.08714686 106.1847637 -0.08965247 110.44568825 -0.10366249 C114.45711398 -0.11636094 118.46827776 -0.11418499 122.47970009 -0.1012516 C123.9392252 -0.09891205 125.39876945 -0.10152449 126.85827255 -0.10987473 C148.74748685 -0.2259321 168.73182397 5.30639623 184.74291992 20.8996582 C198.21048727 34.59537996 205.18438571 52.41418086 205.86791992 71.5246582 C205.40795914 91.44670943 197.72636159 109.31607434 184.13354492 123.85668945 C168.40607712 138.6071479 150.30901373 143.75321052 129.14526367 143.6628418 C127.5275131 143.66691592 125.90976531 143.67226249 124.29202271 143.67877197 C119.93249197 143.69235149 115.57317621 143.68718598 111.21364212 143.67763472 C106.63086661 143.66998922 102.04810834 143.67709721 97.46533203 143.68179321 C89.77234627 143.68723661 82.07944718 143.68009645 74.38647461 143.66577148 C65.51819506 143.64944771 56.65012249 143.65473722 47.78184795 143.6712507 C40.1398502 143.68490605 32.49791442 143.6867655 24.85590839 143.67893469 C20.30387802 143.67428036 15.75194463 143.67357117 11.19992065 143.68354416 C6.91845992 143.69227076 2.6372636 143.68608905 -1.64416885 143.66886139 C-3.2065398 143.66492673 -4.76893336 143.66597814 -6.33129501 143.67264938 C-18.58183328 143.72009821 -29.60535849 142.31446165 -40.56958008 136.5871582 C-41.24698242 136.23903076 -41.92438477 135.89090332 -42.62231445 135.53222656 C-59.65377831 126.50709313 -71.65187585 111.28386874 -77.70239258 93.05200195 C-82.88633411 73.65314705 -80.85934522 54.01540612 -71.44458008 36.2746582 C-61.29394739 19.70620613 -46.24614929 7.59936167 -27.44458008 2.2746582 C-18.28882607 0.29143256 -9.33690738 -0.01796293 0 0 Z " fill="#F24D1D" transform="translate(193.444580078125,41.725341796875)"/>
<path d="M0 0 C12.560625 -0.061875 25.12125 -0.12375 38.0625 -0.1875 C41.99808838 -0.21481201 45.93367676 -0.24212402 49.98852539 -0.27026367 C54.87194824 -0.28381348 54.87194824 -0.28381348 57.17308044 -0.28633118 C58.74744731 -0.29087548 60.32180513 -0.30129327 61.89610291 -0.31672668 C84.67352275 -0.52845313 105.3406559 4.2178 122.1875 20.625 C135.65506735 34.32072176 142.62896579 52.13952265 143.3125 71.25 C142.85253922 91.17205123 135.17094167 109.04141614 121.578125 123.58203125 C104.79832838 139.31944657 85.95376033 143.49578002 63.671875 143.29296875 C62.03597318 143.28854712 60.40006709 143.28549324 58.76416016 143.28381348 C52.75937455 143.26820969 46.75468035 143.22632633 40.75 143.1875 C27.3025 143.125625 13.855 143.06375 0 143 C0 95.81 0 48.62 0 0 Z " fill="#FE7161" transform="translate(256,42)"/>
<path d="M0 0 C0.8108606 -0.00029205 1.62172119 -0.00058411 2.45715332 -0.00088501 C5.10297841 0.000494 7.748512 0.01598686 10.39428711 0.03173828 C12.24230292 0.03547351 14.09032073 0.03831807 15.93833923 0.04031372 C20.77653577 0.04791005 25.61461015 0.06752375 30.45275879 0.08972168 C35.4000483 0.11026673 40.34735776 0.11933388 45.29467773 0.12939453 C54.98288213 0.15077378 64.67099629 0.18486086 74.35913086 0.22705078 C74.45234577 10.78976956 74.52315473 21.3523884 74.56637955 31.91543674 C74.58713894 36.82178474 74.61524018 41.72784864 74.66088867 46.6340332 C74.70476644 51.38031187 74.72835523 56.12631953 74.73863983 60.87278557 C74.74595676 62.67184647 74.76024182 64.47089475 74.78205109 66.26983833 C75.02441486 87.11506255 70.35590378 105.66654947 55.63598633 121.14819336 C41.46136611 135.33495354 23.82914296 142.96270556 3.85913086 143.47705078 C-16.8062177 143.25813819 -33.90702668 135.55244012 -48.82836914 121.53955078 C-61.75830077 108.09652663 -68.29154791 90.48046936 -68.95336914 71.97705078 C-68.4738331 51.20714609 -60.17022058 32.09237475 -45.23413086 17.64794922 C-32.83466149 6.58988735 -16.60840488 -0.16056872 0 0 Z " fill="#0ACE83" transform="translate(181.640869140625,326.77294921875)"/>
<path d="M0 0 C1.03898437 0.43570313 2.07796875 0.87140625 3.1484375 1.3203125 C10.26061606 4.59872226 16.15538874 8.81954911 22 14 C22.61359375 14.51949219 23.2271875 15.03898437 23.859375 15.57421875 C37.36679474 27.87340599 43.8521743 46.03727216 45.21875 63.8515625 C45.86883822 83.95012339 38.72305219 101.4261719 25.8046875 116.57421875 C12.26281803 130.8684143 -6.48133889 138.31658508 -25.94140625 139 C-46.41494968 139.27239687 -64.47840534 130.92203395 -79.12109375 116.98046875 C-94.16115263 101.17814567 -98.54171787 82.2629819 -98.2734375 61.11328125 C-97.68680009 42.16953967 -88.42365142 25.79639904 -74.875 12.875 C-54.65000151 -4.23846026 -24.86535866 -10.56285684 0 0 Z " fill="#19BBFD" transform="translate(354,189)"/>
</svg>
