<?xml version="1.0" encoding="UTF-8"?>
<svg version="1.1" xmlns="http://www.w3.org/2000/svg" width="324" height="155">
<path d="M0 0 C1.74412561 1.00766415 3.48897185 2.01408158 5.234375 3.01953125 C9.2968695 5.37061387 13.34661466 7.74227756 17.390625 10.125 C23.60284554 13.77881053 29.85182848 17.36623583 36.11376953 20.93389893 C37.87456228 21.93725057 39.63466108 22.94180849 41.39453125 23.94677734 C46.13214752 26.65205366 50.86984324 29.35717216 55.61132812 32.05566406 C59.11903999 34.05245164 62.62206899 36.05733752 66.125 38.0625 C67.17284668 38.65732178 68.22069336 39.25214355 69.30029297 39.86499023 C89.36029417 51.3739497 89.36029417 51.3739497 94.3125 61.75 C95.94674264 69.47551067 95.79732991 76.97760032 92 84 C88.31525713 89.16531054 84.27472439 92.48400304 78.75 95.5 C77.23304478 96.36062749 75.71611969 97.22130809 74.19921875 98.08203125 C73.37083496 98.54561035 72.54245117 99.00918945 71.68896484 99.48681641 C67.71915222 101.72078214 63.78083453 104.0083781 59.83886719 106.29101562 C56.5006511 108.22330047 53.15903892 110.14958527 49.81640625 112.07421875 C44.28441016 115.25983374 38.75413007 118.4484043 33.22509766 121.63916016 C31.08314827 122.87503739 28.94089784 124.11039302 26.79833984 125.34521484 C21.72309512 128.27078099 16.65050806 131.200696 11.5866394 134.14590454 C9.19684332 135.5354863 6.80563164 136.92262172 4.41430664 138.30957031 C2.72859411 139.28863253 1.04493413 140.27122606 -0.63867188 141.25390625 C-1.66154297 141.846875 -2.68441406 142.43984375 -3.73828125 143.05078125 C-4.63587158 143.57325439 -5.53346191 144.09572754 -6.45825195 144.6340332 C-14.17156428 148.77926252 -22.43329719 149.66480832 -30.92578125 147.125 C-38.0232518 143.85090129 -43.73739132 138.60533652 -46.5234375 131.13671875 C-48.32286959 123.06877325 -47.60738403 115.74923389 -43.875 108.4140625 C-38.16567797 101.06331039 -30.57897639 96.77921556 -22.5 92.4375 C-20.29188172 91.22724159 -18.08488155 90.01494134 -15.87890625 88.80078125 C-14.7511377 88.18154785 -13.62336914 87.56231445 -12.46142578 86.92431641 C-6.73728616 83.74208559 -1.08713393 80.43751531 4.5625 77.125 C5.60921875 76.51197021 6.6559375 75.89894043 7.734375 75.26733398 C10.15736357 73.8467711 12.57930962 72.42447438 15 71 C11.74665242 68.28978954 8.52774111 66.03755623 4.81640625 64.00390625 C3.81657715 63.4517041 2.81674805 62.89950195 1.78662109 62.33056641 C0.72266113 61.74710449 -0.34129883 61.16364258 -1.4375 60.5625 C-3.68447917 59.31278857 -5.93055479 58.06145136 -8.17578125 56.80859375 C-9.31096191 56.17550293 -10.44614258 55.54241211 -11.61572266 54.89013672 C-16.80084608 51.99421798 -21.97707799 49.08663096 -27.125 46.125 C-28.01759521 45.62685791 -28.91019043 45.12871582 -29.82983398 44.61547852 C-37.70447653 40.04220662 -44.48456407 34.02597598 -47 25 C-48.01998143 16.2671253 -47.20173377 9.23263739 -42 2 C-29.83599868 -11.63755018 -14.21783233 -8.41574944 0 0 Z " fill="#37A854" transform="translate(228,7)"/>
<path d="M0 0 C5.87093485 3.42230193 10.61118392 8.33419785 13.0234375 14.80078125 C14.83864911 22.93947595 14.08608235 30.24727323 10.27734375 37.62109375 C4.86000041 44.68149947 -2.80120579 48.65163978 -10.4375 52.9375 C-12.15861553 53.91633989 -13.87972158 54.89519707 -15.60015869 55.87522888 C-16.77943541 56.54654543 -17.95924919 57.21691937 -19.1395874 57.8863678 C-25.49993997 61.49488525 -31.81318831 65.18233002 -38.125 68.875 C-40.13801071 70.05079858 -42.15103056 71.22658152 -44.1640625 72.40234375 C-45.60943072 73.24730052 -47.05476672 74.09231244 -48.5 74.9375 C-43.84524877 79.03368108 -38.58177781 81.82638193 -33.1875 84.8125 C-31.12840767 85.96916495 -29.06983114 87.12674852 -27.01171875 88.28515625 C-23.74045297 90.1218733 -20.46762924 91.9555262 -17.18994141 93.78076172 C-13.95150692 95.58927551 -10.7250505 97.4177496 -7.5 99.25 C-6.00666138 100.07443604 -6.00666138 100.07443604 -4.4831543 100.91552734 C3.75160055 105.62692975 10.8642787 111.47991182 13.5 120.9375 C14.51998143 129.6703747 13.70173377 136.70486261 8.5 143.9375 C2.71373596 150.4247129 -3.48290253 153.06457693 -12.0625 153.5625 C-20.48611981 153.31552476 -26.44933074 150.1108975 -33.5 145.9375 C-35.24412561 144.92983585 -36.98897185 143.92341842 -38.734375 142.91796875 C-42.7968695 140.56688613 -46.84661466 138.19522244 -50.890625 135.8125 C-57.10295115 132.15862735 -63.35201619 128.57108581 -69.61404419 125.00332642 C-72.54964919 123.33072906 -75.48370489 121.6554174 -78.41796875 119.98046875 C-78.99965317 119.6484697 -79.58133759 119.31647064 -80.1806488 118.97441101 C-86.6869011 115.26065603 -93.19060813 111.54261045 -99.6875 107.8125 C-100.74372559 107.20929932 -101.79995117 106.60609863 -102.88818359 105.98461914 C-122.78120366 94.54412887 -122.78120366 94.54412887 -127.875 84.125 C-129.38778232 76.40981019 -129.33665526 68.91936936 -125.5 61.9375 C-120.60143234 54.91712683 -114.53233946 51.23498941 -107.0625 47.3125 C-104.80878993 46.0905792 -102.55621234 44.86656766 -100.3046875 43.640625 C-99.16612305 43.02509766 -98.02755859 42.40957031 -96.85449219 41.77539062 C-91.73874106 38.97252494 -86.71285452 36.02350778 -81.6875 33.0625 C-72.25190568 27.52442095 -62.76913721 22.07472866 -53.2612915 16.66210938 C-45.31404498 12.13717296 -37.39109229 7.57655808 -29.55883789 2.85449219 C-20.29360733 -2.67926871 -10.22939329 -4.71887035 0 0 Z " fill="#4386F4" transform="translate(129.5,2.0625)"/>
<path d="M0 0 C3.86656605 1.43756943 7.31213572 3.23786457 10.875 5.3125 C12.09993108 6.02010168 13.32521979 6.72708445 14.55078125 7.43359375 C15.23994629 7.83175293 15.92911133 8.22991211 16.63916016 8.64013672 C21.43650581 11.4034475 26.2486842 14.14051356 31.0625 16.875 C32.06200684 17.44645752 33.06151367 18.01791504 34.09130859 18.60668945 C35.04215332 19.14640381 35.99299805 19.68611816 36.97265625 20.2421875 C37.82093994 20.7254248 38.66922363 21.20866211 39.54321289 21.70654297 C44.79259345 24.47025341 48.90312134 25.2720276 54.8125 25.125 C55.50537109 25.11597656 56.19824219 25.10695313 56.91210938 25.09765625 C58.60822395 25.07426157 60.30415871 25.03839641 62 25 C57.99347202 28.43861236 53.80712099 30.89004043 49.1875 33.375 C41.92980779 37.34285771 34.75899385 41.4390008 27.625 45.625 C15.2649389 52.8693441 2.83418127 59.98508686 -9.61816406 67.06933594 C-12.03030538 68.44640882 -14.43832312 69.82937355 -16.84277344 71.21972656 C-17.79632217 71.76942612 -17.79632217 71.76942612 -18.76913452 72.33023071 C-19.99374437 73.03648782 -21.21713689 73.74486126 -22.43911743 74.45565796 C-29.55097488 78.55034806 -35.89425324 78.75422457 -44 78 C-52.53531237 75.46554639 -57.41949262 70.30084563 -61.875 62.875 C-64.52328665 55.77567735 -64.09141873 47.46580834 -61 40.625 C-56.4661938 31.71481142 -46.93175238 26.9691055 -38.5 22.4375 C-36.29061456 21.22587487 -34.08231116 20.01227491 -31.875 18.796875 C-30.74707031 18.17748047 -29.61914062 17.55808594 -28.45703125 16.91992188 C-22.75839628 13.75508675 -17.12745926 10.47714362 -11.5 7.1875 C-10.46166016 6.58284912 -9.42332031 5.97819824 -8.35351562 5.35522461 C-3.93234834 3.01257216 -3.93234834 3.01257216 0 0 Z " fill="#F9BD06" transform="translate(244,77)"/>
<path d="M0 0 C7.05156406 3.19656744 11.0538324 7.71341859 14.96875 14.23828125 C17.28292073 20.44193169 17.14549592 27.70095006 15.21484375 33.96484375 C10.52273248 44.21625518 1.67132405 48.77643397 -7.84375 54.11328125 C-10.16222127 55.42445994 -12.48001456 56.73676547 -14.796875 58.05078125 C-15.38450119 58.38303711 -15.97212738 58.71529297 -16.57756042 59.05761719 C-20.66626583 61.37889075 -24.69194667 63.78531838 -28.703125 66.23828125 C-29.77828369 66.88925781 -30.85344238 67.54023437 -31.96118164 68.2109375 C-34.00836756 69.45415102 -36.0470934 70.71143302 -38.07592773 71.984375 C-44.9357577 76.11230881 -44.9357577 76.11230881 -49.8046875 76.1171875 C-52.47616158 75.25249123 -54.88121448 74.39005495 -57.34375 73.05078125 C-58.02308594 72.68855469 -58.70242187 72.32632813 -59.40234375 71.953125 C-59.89863281 71.67597656 -60.39492187 71.39882812 -60.90625 71.11328125 C-60.90625 70.45328125 -60.90625 69.79328125 -60.90625 69.11328125 C-61.545625 68.88640625 -62.185 68.65953125 -62.84375 68.42578125 C-68.7606975 65.88994661 -74.18690704 62.65546756 -79.46875 58.98828125 C-83.47035829 56.25255959 -87.32702697 54.66694621 -91.90625 53.11328125 C-92.23625 52.78328125 -92.56625 52.45328125 -92.90625 52.11328125 C-94.92219582 51.87900347 -96.944724 51.69992001 -98.96875 51.55078125 C-100.07347656 51.46699219 -101.17820312 51.38320313 -102.31640625 51.296875 C-103.17105469 51.23628906 -104.02570313 51.17570312 -104.90625 51.11328125 C-103.64952861 47.34311709 -102.61062669 47.10616722 -99.18359375 45.25 C-98.18287842 44.70037598 -97.18216309 44.15075195 -96.15112305 43.58447266 C-95.05968994 42.99585449 -93.96825684 42.40723633 -92.84375 41.80078125 C-90.53540499 40.53311196 -88.22808508 39.26372192 -85.921875 37.9921875 C-85.33266769 37.66845154 -84.74346039 37.34471558 -84.13639832 37.01116943 C-78.39729407 33.85145503 -72.74077821 30.55888452 -67.09375 27.23828125 C-58.70820027 22.3231701 -50.30547402 17.43980455 -41.87246704 12.60662842 C-40.66548577 11.91448418 -39.45906426 11.2213627 -38.25326538 10.52716064 C-34.48702538 8.3596178 -30.70599203 6.2215331 -26.90625 4.11328125 C-25.98424805 3.60120117 -25.06224609 3.08912109 -24.11230469 2.56152344 C-16.17164263 -1.65292829 -8.77360581 -2.67689317 0 0 Z " fill="#E84437" transform="translate(126.90625,0.88671875)"/>
<path d="M0 0 C2.71484375 1.46875 2.71484375 1.46875 5 3 C6.7015625 3.7115625 6.7015625 3.7115625 8.4375 4.4375 C17.12359551 8.24719101 17.12359551 8.24719101 19 12 C16.525 11.505 16.525 11.505 14 11 C14 10.34 14 9.68 14 9 C13.195625 8.87625 12.39125 8.7525 11.5625 8.625 C10.716875 8.41875 9.87125 8.2125 9 8 C8.505 7.01 8.505 7.01 8 6 C5.97536745 5.34786708 5.97536745 5.34786708 4 5 C4 5.99 4 6.98 4 8 C2.68 8 1.36 8 0 8 C0.66 6.68 1.32 5.36 2 4 C0.02 4 -1.96 4 -4 4 C-4 3.34 -4 2.68 -4 2 C-6.31 1.67 -8.62 1.34 -11 1 C-11 1.66 -11 2.32 -11 3 C-13.31 3 -15.62 3 -18 3 C-18 3.66 -18 4.32 -18 5 C-19.6796875 6.5078125 -19.6796875 6.5078125 -21.875 8.125 C-22.95394531 8.93324219 -22.95394531 8.93324219 -24.0546875 9.7578125 C-26 11 -26 11 -28 11 C-26.48966582 7.155513 -24.33639863 5.37255013 -21 3 C-20.030625 2.236875 -19.06125 1.47375 -18.0625 0.6875 C-12.64190336 -2.35186324 -5.85682611 -1.15613471 0 0 Z " fill="#5180E3" transform="translate(34,52)"/>
<path d="M0 0 C4.30764815 1.56641751 8.06171464 3.68336156 12 6 C8.25 7.125 8.25 7.125 6 6 C6 5.34 6 4.68 6 4 C4.01739401 4.42164019 2.03892755 4.86278778 0.0625 5.3125 C-1.03964844 5.55613281 -2.14179688 5.79976563 -3.27734375 6.05078125 C-4.17582031 6.36402344 -5.07429688 6.67726563 -6 7 C-6.33 7.99 -6.66 8.98 -7 10 C-9.06640625 10.73046875 -9.06640625 10.73046875 -11.5625 11.1875 C-12.38878906 11.34605469 -13.21507812 11.50460938 -14.06640625 11.66796875 C-14.70449219 11.77753906 -15.34257812 11.88710937 -16 12 C-16 12.66 -16 13.32 -16 14 C-19.52948291 15.66670026 -21.28272326 16.13583456 -25 15 C-23.91730835 14.37170288 -23.91730835 14.37170288 -22.81274414 13.73071289 C-19.56172662 11.84291536 -16.31209753 9.95274073 -13.0625 8.0625 C-11.92619141 7.40314453 -10.78988281 6.74378906 -9.61914062 6.06445312 C-8.53955078 5.43603516 -7.45996094 4.80761719 -6.34765625 4.16015625 C-5.34742432 3.57886963 -4.34719238 2.99758301 -3.31665039 2.39868164 C-1.11714307 1.19709736 -1.11714307 1.19709736 0 0 Z " fill="#F4C73E" transform="translate(244,77)"/>
<path d="M0 0 C4.76551013 1.37605916 8.7248553 3.46778066 12.875 6.125 C13.46796875 6.49753906 14.0609375 6.87007813 14.671875 7.25390625 C16.1181343 8.16365 17.55958046 9.08103798 19 10 C12.055 11.74 12.055 11.74 9 12 C7.125 10.875 7.125 10.875 6 9 C5.8125 6.3125 5.8125 6.3125 6 4 C4.35 4 2.7 4 1 4 C0.67 2.68 0.34 1.36 0 0 Z " fill="#5691F0" transform="translate(105,93)"/>
<path d="M0 0 C-3.71092921 3.1588324 -7.50210647 5.48595492 -11.8125 7.75 C-12.97394531 8.36359375 -14.13539062 8.9771875 -15.33203125 9.609375 C-16.21246094 10.06828125 -17.09289062 10.5271875 -18 11 C-18 9.68 -18 8.36 -18 7 C-17.34 6.67 -16.68 6.34 -16 6 C-15.67 5.01 -15.34 4.02 -15 3 C-12.3125 1.9375 -12.3125 1.9375 -9 1 C-7.4221875 0.4121875 -7.4221875 0.4121875 -5.8125 -0.1875 C-3 -1 -3 -1 0 0 Z " fill="#E15D51" transform="translate(119,54)"/>
<path d="M0 0 C1.98 0 3.96 0 6 0 C1.98433875 3.09056689 -2.26288838 5.62219778 -6.625 8.1875 C-7.40101563 8.65091797 -8.17703125 9.11433594 -8.9765625 9.59179688 C-9.7190625 10.02943359 -10.4615625 10.46707031 -11.2265625 10.91796875 C-11.90283691 11.31781982 -12.57911133 11.7176709 -13.27587891 12.12963867 C-15 13 -15 13 -17 13 C-16.67 11.68 -16.34 10.36 -16 9 C-14.68 9 -13.36 9 -12 9 C-12 8.34 -12 7.68 -12 7 C-9.47468278 4.89556899 -6.92478369 3.46239184 -4 2 C-3.01 2.33 -2.02 2.66 -1 3 C-0.67 2.01 -0.34 1.02 0 0 Z " fill="#F3CA4A" transform="translate(269,120)"/>
<path d="M0 0 C5.445 1.485 5.445 1.485 11 3 C11 3.66 11 4.32 11 5 C16.61 5 22.22 5 28 5 C22.88057214 8.41295191 16.96632457 7.64106253 11 7 C1.97505669 3.95011338 1.97505669 3.95011338 0 0 Z " fill="#F5CE4F" transform="translate(189,148)"/>
<path d="M0 0 C-6.93 3.96 -13.86 7.92 -21 12 C-21.33 11.01 -21.66 10.02 -22 9 C-21.01 9 -20.02 9 -19 9 C-19 8.34 -19 7.68 -19 7 C-18.01 7 -17.02 7 -16 7 C-16 6.34 -16 5.68 -16 5 C-13.09399739 3.74335022 -11.20395416 3 -8 3 C-8 2.34 -8 1.68 -8 1 C-4.59449725 -1.06762667 -4.18836538 -1.04709135 0 0 Z " fill="#F2CF59" transform="translate(252,134)"/>
<path d="M0 0 C0 0.99 0 1.98 0 3 C-1.32 3.33 -2.64 3.66 -4 4 C-4.33 6.31 -4.66 8.62 -5 11 C-9.75 12 -9.75 12 -12 12 C-10.82763323 7.16398706 -5.40844892 0 0 0 Z " fill="#F3C93F" transform="translate(196,106)"/>
<path d="M0 0 C0.66 0 1.32 0 2 0 C2.55353075 13.6332574 2.55353075 13.6332574 -1 20 C-1.99 19.67 -2.98 19.34 -4 19 C-4 18.34 -4 17.68 -4 17 C-3.34 17 -2.68 17 -2 17 C-1.34 11.39 -0.68 5.78 0 0 Z " fill="#779FE1" transform="translate(141,123)"/>
<path d="M0 0 C1.28132813 0.00902344 2.56265625 0.01804688 3.8828125 0.02734375 C4.87023437 0.03894531 5.85765625 0.05054688 6.875 0.0625 C-3.01630435 5.0625 -3.01630435 5.0625 -7.125 5.0625 C-7.125 4.4025 -7.125 3.7425 -7.125 3.0625 C-8.775 3.0625 -10.425 3.0625 -12.125 3.0625 C-7.63412831 0.06858554 -5.41982037 -0.04927109 0 0 Z " fill="#E0534A" transform="translate(117.125,-0.0625)"/>
<path d="M0 0 C1.02120344 2.65512895 1.05826634 3.82936287 0.125 6.5625 C-1.42928398 11.31170106 -1.66429108 16.03504172 -2 21 C-2.66 20.67 -3.32 20.34 -4 20 C-4.35309809 12.88572728 -4.01004614 7.50169966 -1 1 C-0.67 0.67 -0.34 0.34 0 0 Z " fill="#729EE7" transform="translate(5,63)"/>
<path d="M0 0 C2.97 0.495 2.97 0.495 6 1 C6 1.66 6 2.32 6 3 C7.65 2.67 9.3 2.34 11 2 C11 2.66 11 3.32 11 4 C11.66 4.33 12.32 4.66 13 5 C13 5.66 13 6.32 13 7 C14.65 7 16.3 7 18 7 C18 7.66 18 8.32 18 9 C12.22621075 8.5188509 8.04140164 6.81532819 3 4 C3 3.34 3 2.68 3 2 C2.01 1.67 1.02 1.34 0 1 C0 0.67 0 0.34 0 0 Z " fill="#CF5052" transform="translate(63,68)"/>
<path d="M0 0 C0.66 0 1.32 0 2 0 C-0.1113233 5.13867047 -4.14863842 7.58222045 -9 10 C-11.5762275 10.4590369 -13.37427641 10.33519876 -16 10 C-14.68 9.67 -13.36 9.34 -12 9 C-12 8.34 -12 7.68 -12 7 C-10.35 7 -8.7 7 -7 7 C-7 6.34 -7 5.68 -7 5 C-6.34 5 -5.68 5 -5 5 C-5 4.34 -5 3.68 -5 3 C-4.34 3 -3.68 3 -3 3 C-2.505 2.505 -2.01 2.01 -1.5 1.5 C-1.005 1.005 -0.51 0.51 0 0 Z " fill="#709EE7" transform="translate(136,144)"/>
<path d="M0 0 C1 3 1 3 -0.00390625 5.12109375 C-3.22654933 9.91063597 -5.914229 13.21493493 -11 16 C-10.67 14.68 -10.34 13.36 -10 12 C-9.01 12 -8.02 12 -7 12 C-6.67 10.35 -6.34 8.7 -6 7 C-5.34 7 -4.68 7 -4 7 C-3.34 5.35 -2.68 3.7 -2 2 C-1.34 2 -0.68 2 0 2 C0 1.34 0 0.68 0 0 Z " fill="#73BB8A" transform="translate(321,84)"/>
<path d="M0 0 C3.63 0.33 7.26 0.66 11 1 C10.01 1.495 10.01 1.495 9 2 C9 2.66 9 3.32 9 4 C10.98 4 12.96 4 15 4 C14.67 5.32 14.34 6.64 14 8 C9.02790438 6.23570801 4.56561939 3.6060834 0 1 C0 0.67 0 0.34 0 0 Z " fill="#6396E6" transform="translate(39,114)"/>
<path d="M0 0 C4.32991096 1.20275304 8.14868759 3.73452211 12 6 C8.25 7.125 8.25 7.125 6 6 C6 5.34 6 4.68 6 4 C2.7 4.33 -0.6 4.66 -4 5 C-3 2 -3 2 0 0 Z " fill="#DFC636" transform="translate(244,77)"/>
<path d="M0 0 C0 0.66 0 1.32 0 2 C2.97 2.33 5.94 2.66 9 3 C9 3.66 9 4.32 9 5 C10.65 5 12.3 5 14 5 C14 5.66 14 6.32 14 7 C15.32 7 16.64 7 18 7 C18.33 7.99 18.66 8.98 19 10 C12.54133858 8.35367454 12.54133858 8.35367454 9.65625 6.46875 C6.52768184 4.73883584 4.23855969 4.50761317 0.6875 4.3125 C-0.91544922 4.21388672 -0.91544922 4.21388672 -2.55078125 4.11328125 C-3.35902344 4.07589844 -4.16726562 4.03851563 -5 4 C-4.67 3.01 -4.34 2.02 -4 1 C-2 0 -2 0 0 0 Z " fill="#C65963" transform="translate(27,48)"/>
<path d="M0 0 C0.99 0.33 1.98 0.66 3 1 C3 1.66 3 2.32 3 3 C5.97 3.495 5.97 3.495 9 4 C9.33 5.65 9.66 7.3 10 9 C6 9 6 9 4.296875 7.5390625 C3.78640625 6.90742187 3.2759375 6.27578125 2.75 5.625 C2.22921875 4.99851562 1.7084375 4.37203125 1.171875 3.7265625 C0 2 0 2 0 0 Z " fill="#6698E7" transform="translate(4,89)"/>
<path d="M0 0 C0 0.66 0 1.32 0 2 C-0.99 2 -1.98 2 -3 2 C-3.185625 2.78375 -3.37125 3.5675 -3.5625 4.375 C-5 7 -5 7 -8.375 8.375 C-11.68755473 8.94613013 -12.9459858 8.92831269 -16 8 C-13.71125827 6.66141476 -11.41930344 5.32898986 -9.125 4 C-8.47402344 3.6184375 -7.82304688 3.236875 -7.15234375 2.84375 C-2.2265625 0 -2.2265625 0 0 0 Z " fill="#DF6C63" transform="translate(74,21)"/>
<path d="M0 0 C2.64 0 5.28 0 8 0 C8.12375 0.804375 8.2475 1.60875 8.375 2.4375 C8.58125 3.283125 8.7875 4.12875 9 5 C9.66 5.33 10.32 5.66 11 6 C10.01 6.495 10.01 6.495 9 7 C6.8359375 6.00390625 6.8359375 6.00390625 4.375 4.5625 C3.55773437 4.08941406 2.74046875 3.61632812 1.8984375 3.12890625 C1.27195312 2.75636719 0.64546875 2.38382813 0 2 C0 1.34 0 0.68 0 0 Z " fill="#6495E9" transform="translate(86,140)"/>
<path d="M0 0 C4.29951803 1.59241408 6.39671947 4.35540725 9 8 C8.67 8.99 8.34 9.98 8 11 C5.17369103 9.96368671 4.18909471 9.39919994 2.875 6.625 C2.58625 5.75875 2.2975 4.8925 2 4 C1.34786461 2.65949948 0.68620031 1.32338632 0 0 Z " fill="#6E9AE5" transform="translate(131,108)"/>
<path d="M0 0 C4.61513112 1.31860889 8.09897612 3.21355437 12 6 C11.34 6.66 10.68 7.32 10 8 C8.68 8 7.36 8 6 8 C6 6.68 6 5.36 6 4 C4.35 4 2.7 4 1 4 C0.67 2.68 0.34 1.36 0 0 Z " fill="#6295E4" transform="translate(105,93)"/>
<path d="M0 0 C-4.01254885 3.51098025 -8.20983041 5.76537994 -13 8 C-13 6.68 -13 5.36 -13 4 C-11.68 4 -10.36 4 -9 4 C-9 3.34 -9 2.68 -9 2 C-5.5647952 -0.29013653 -4.014669 -0.17842973 0 0 Z " fill="#F4C849" transform="translate(297,107)"/>
<path d="M0 0 C0 0.66 0 1.32 0 2 C0.99 2.33 1.98 2.66 3 3 C2.34 3.66 1.68 4.32 1 5 C-1.45098556 4.60467975 -3.63904279 3.78698574 -6 3 C-7.33106622 2.65772583 -8.66400079 2.32248257 -10 2 C-6.3558226 -0.4294516 -4.28758728 -0.16179575 0 0 Z " fill="#E25344" transform="translate(110,3)"/>
<path d="M0 0 C-6.75 4 -6.75 4 -9 4 C-9 3.34 -9 2.68 -9 2 C-10.65 2 -12.3 2 -14 2 C-14.33 1.34 -14.66 0.68 -15 0 C-13.06325815 -0.19517554 -11.12555991 -0.38087873 -9.1875 -0.5625 C-8.10855469 -0.66691406 -7.02960938 -0.77132812 -5.91796875 -0.87890625 C-3 -1 -3 -1 0 0 Z " fill="#DFCD4C" transform="translate(306,103)"/>
<path d="M0 0 C0.66 0.33 1.32 0.66 2 1 C-1.16474305 4.25516428 -4.32752791 7.32008793 -8 10 C-8.66 10 -9.32 10 -10 10 C-8.07285135 5.09453071 -4.25585809 2.83723873 0 0 Z " fill="#77A1E1" transform="translate(16,53)"/>
<path d="M0 0 C3 2 3 2 4 5 C6.50447516 6.21869929 6.50447516 6.21869929 9 7 C9 7.66 9 8.32 9 9 C3.68972746 7.53967505 -0.46330032 5.01679014 -5 2 C-4.360625 1.855625 -3.72125 1.71125 -3.0625 1.5625 C-1.02454854 1.18992819 -1.02454854 1.18992819 0 0 Z " fill="#69B67E" transform="translate(203,49)"/>
<path d="M0 0 C-0.33 0.99 -0.66 1.98 -1 3 C-1.66 3 -2.32 3 -3 3 C-3 3.99 -3 4.98 -3 6 C-7.455 6.495 -7.455 6.495 -12 7 C-3.55172414 0 -3.55172414 0 0 0 Z " fill="#DD675D" transform="translate(86,14)"/>
<path d="M0 0 C1.26972656 0.07863281 2.53945313 0.15726563 3.84765625 0.23828125 C4.86730469 0.38652344 5.88695312 0.53476562 6.9375 0.6875 C7.2675 1.3475 7.5975 2.0075 7.9375 2.6875 C3.9775 2.3575 0.0175 2.0275 -4.0625 1.6875 C-4.0625 2.3475 -4.0625 3.0075 -4.0625 3.6875 C-6.0425 3.6875 -8.0225 3.6875 -10.0625 3.6875 C-9.7325 2.6975 -9.4025 1.7075 -9.0625 0.6875 C-6.02838424 -0.82955788 -3.35333483 -0.22855894 0 0 Z " fill="#797AC3" transform="translate(27.0625,51.3125)"/>
<path d="M0 0 C-1.43963639 3.35915158 -3.12416589 5.71624938 -6 8 C-8.25 7.75 -8.25 7.75 -10 7 C-10 6.34 -10 5.68 -10 5 C-8.35 5 -6.7 5 -5 5 C-5.33 3.68 -5.66 2.36 -6 1 C-3 0 -3 0 0 0 Z " fill="#E1635B" transform="translate(139,39)"/>
<path d="M0 0 C1.125 1.6875 1.125 1.6875 2 4 C1.37498605 5.68272986 0.69822617 7.34630643 0 9 C-0.46797058 11.98897336 -0.75044193 14.98560123 -1 18 C-1.33 18 -1.66 18 -2 18 C-2.054348 15.9377952 -2.09294961 13.87517184 -2.125 11.8125 C-2.14820313 10.66394531 -2.17140625 9.51539063 -2.1953125 8.33203125 C-2.00484152 5.08259628 -1.39360127 2.91339479 0 0 Z " fill="#7ABC8C" transform="translate(183,14)"/>
<path d="M0 0 C4.46171506 1.57472296 9.79688514 3.59377029 12 8 C10.35 7.67 8.7 7.34 7 7 C7 6.34 7 5.68 7 5 C6.21625 4.9175 5.4325 4.835 4.625 4.75 C2 4 2 4 0.6875 1.9375 C0.460625 1.298125 0.23375 0.65875 0 0 Z " fill="#7671BC" transform="translate(41,56)"/>
<path d="M0 0 C4.50802601 1.25805377 7.4912812 2.90407165 11 6 C10.01 6.33 9.02 6.66 8 7 C8 6.34 8 5.68 8 5 C5.69 4.67 3.38 4.34 1 4 C0.67 2.68 0.34 1.36 0 0 Z " fill="#6CB882" transform="translate(243,17)"/>
<path d="M0 0 C2.33944736 0.28730055 4.6739143 0.61936779 7 1 C4.64722731 3.72426311 2.37503669 4.8141763 -1 6 C-1.042721 4.33388095 -1.04063832 2.66617115 -1 1 C-0.67 0.67 -0.34 0.34 0 0 Z " fill="#F8C740" transform="translate(276,114)"/>
<path d="M0 0 C0.66 0.33 1.32 0.66 2 1 C0.375 3.5 0.375 3.5 -2 6 C-5.25 6.3125 -5.25 6.3125 -8 6 C-5.63404067 3.38499232 -3.13950774 1.61000397 0 0 Z " fill="#F3CE5A" transform="translate(213,95)"/>
<path d="M0 0 C4.19360449 0.67097672 7.40334352 2.8558394 11 5 C8.50907189 6.24546405 7.58919267 5.7767578 5 5 C4.67 5.66 4.34 6.32 4 7 C4 5.68 4 4.36 4 3 C3.34 3 2.68 3 2 3 C2 2.34 2 1.68 2 1 C1.34 0.67 0.68 0.34 0 0 Z " fill="#6977CD" transform="translate(53,64)"/>
<path d="M0 0 C4.62 0 9.24 0 14 0 C10.71299843 1.64350079 8.52069985 2.41321669 5 3 C5 2.34 5 1.68 5 1 C3.35 1 1.7 1 0 1 C0 0.67 0 0.34 0 0 Z " fill="#F2695F" transform="translate(110,0)"/>
<path d="M0 0 C2.64 0 5.28 0 8 0 C8.33 0.99 8.66 1.98 9 3 C7.3125 3.6875 7.3125 3.6875 5 4 C2.25 2.625 2.25 2.625 0 1 C0 0.67 0 0.34 0 0 Z " fill="#6899E9" transform="translate(55,123)"/>
<path d="M0 0 C0.66 0.33 1.32 0.66 2 1 C1 4 1 4 -1.3125 5.25 C-4.16597407 6.04631835 -5.24802325 5.8214856 -8 5 C-6.71475739 4.13619741 -5.42157581 3.28419631 -4.125 2.4375 C-3.04605469 1.72400391 -3.04605469 1.72400391 -1.9453125 0.99609375 C-1.30335938 0.66738281 -0.66140625 0.33867188 0 0 Z " fill="#F3CF61" transform="translate(227,87)"/>
<path d="M0 0 C0 0.66 0 1.32 0 2 C-0.66 2 -1.32 2 -2 2 C-2 2.99 -2 3.98 -2 5 C-4.31 5 -6.62 5 -9 5 C-2.87096774 0 -2.87096774 0 0 0 Z " fill="#DF6E67" transform="translate(55,32)"/>
<path d="M0 0 C2.5 1.1875 2.5 1.1875 4.5 3.1875 C1.49727245 4.15266243 -0.54215769 4.41143475 -3.5 3.1875 C-3.83 2.1975 -4.16 1.2075 -4.5 0.1875 C-2.5 -0.8125 -2.5 -0.8125 0 0 Z " fill="#5AB277" transform="translate(219.5,2.8125)"/>
<path d="M0 0 C0.33 0 0.66 0 1 0 C2.35384615 7.38461538 2.35384615 7.38461538 0.5625 10.5 C0.046875 10.995 -0.46875 11.49 -1 12 C-1.66 11.67 -2.32 11.34 -3 11 C-3 10.34 -3 9.68 -3 9 C-2.34 9 -1.68 9 -1 9 C-0.67 6.03 -0.34 3.06 0 0 Z " fill="#659BEA" transform="translate(140,131)"/>
<path d="M0 0 C3.9492568 0.55105909 7.34920174 1.38935371 11 3 C9.4375 4.25 9.4375 4.25 7 5 C4.42998985 3.93237266 2.3469597 2.53455057 0 1 C0 0.67 0 0.34 0 0 Z " fill="#6DB881" transform="translate(229,68)"/>
<path d="M0 0 C2.8125 0.1875 2.8125 0.1875 6 1 C7.875 3.5625 7.875 3.5625 9 6 C7.02 5.34 5.04 4.68 3 4 C3 3.34 3 2.68 3 2 C2.01 1.67 1.02 1.34 0 1 C0 0.67 0 0.34 0 0 Z " fill="#AA597C" transform="translate(63,68)"/>
<path d="M0 0 C2.64 0.33 5.28 0.66 8 1 C8 1.99 8 2.98 8 4 C4.31245243 3.50168276 2.39509338 2.89932357 0 0 Z " fill="#75A1E6" transform="translate(102,150)"/>
<path d="M0 0 C-2 2 -2 2 -5 2.25 C-8 2 -8 2 -10 0 C-6.33694766 -0.74926071 -3.57644848 -1.2380014 0 0 Z " fill="#44A346" transform="translate(294,99)"/>
<path d="M0 0 C0.66 0 1.32 0 2 0 C1.8125 2.3125 1.8125 2.3125 1 5 C-1.5625 6.8125 -1.5625 6.8125 -4 8 C-3.67 6.68 -3.34 5.36 -3 4 C-2.01 4 -1.02 4 0 4 C0 2.68 0 1.36 0 0 Z " fill="#62B278" transform="translate(314,92)"/>
<path d="M0 0 C0.33 0.66 0.66 1.32 1 2 C1.66 2 2.32 2 3 2 C3.33 3.65 3.66 5.3 4 7 C3.01 7 2.02 7 1 7 C0.34 5.02 -0.32 3.04 -1 1 C-0.67 0.67 -0.34 0.34 0 0 Z " fill="#5DAE76" transform="translate(184,34)"/>
<path d="M0 0 C1.98 0.66 3.96 1.32 6 2 C6 2.99 6 3.98 6 5 C5.67 4.34 5.34 3.68 5 3 C3.35 3.33 1.7 3.66 0 4 C0 2.68 0 1.36 0 0 Z " fill="#65B87E" transform="translate(269,32)"/>
<path d="M0 0 C1.65 0 3.3 0 5 0 C5 0.66 5 1.32 5 2 C2.04335481 3.4783226 -0.74229737 3.06032783 -4 3 C-2.68 2.67 -1.36 2.34 0 2 C0 1.34 0 0.68 0 0 Z " fill="#6294E5" transform="translate(124,151)"/>
<path d="M0 0 C2.64 0.33 5.28 0.66 8 1 C7.67 1.99 7.34 2.98 7 4 C4.08482708 2.92598892 2.22189824 2.22189824 0 0 Z " fill="#76A2EB" transform="translate(39,114)"/>
<path d="M0 0 C2.02045442 0.60183749 4.02111039 1.27306096 6 2 C6.33 2.66 6.66 3.32 7 4 C5.02 4 3.04 4 1 4 C0.67 2.68 0.34 1.36 0 0 Z " fill="#73A2E6" transform="translate(105,93)"/>
<path d="M0 0 C0.33 1.32 0.66 2.64 1 4 C0.01 4.66 -0.98 5.32 -2 6 C-2.66 4.68 -3.32 3.36 -4 2 C-2.68 1.34 -1.36 0.68 0 0 Z " fill="#E25B4E" transform="translate(43,38)"/>
</svg>
