<?xml version="1.0" encoding="UTF-8"?>
<svg version="1.1" xmlns="http://www.w3.org/2000/svg" width="500" height="500">
<path d="M0 0 C117.48 0 234.96 0 356 0 C351.3805698 57.74287749 351.3805698 57.74287749 349.00756836 83.59692383 C348.83204526 85.51762376 348.6565818 87.43832915 348.48117065 89.35903931 C348.39236004 90.33081242 348.30354942 91.30258553 348.21204758 92.3038063 C347.32308034 102.04576128 346.44329879 111.7885538 345.5625 121.53125 C345.46003904 122.6638003 345.35757809 123.79635059 345.25201225 124.9632206 C343.55655396 143.71260988 341.89468889 162.46484297 340.25 181.21875 C340.16333549 182.20682396 340.16333549 182.20682396 340.07492018 183.21485901 C339.42973252 190.57109411 338.78514357 197.92738162 338.14080811 205.28369141 C333.56403863 257.53537253 328.87284997 309.77507748 324 362 C316.51917422 364.57994058 308.95324314 366.75989903 301.33203125 368.8828125 C299.94338469 369.27134874 298.55478036 369.66003592 297.16621399 370.04885864 C292.44518728 371.36966039 287.722653 372.68502719 283 374 C281.22751842 374.49377336 279.45503715 374.9875478 277.68255615 375.48132324 C265.03130066 379.00482968 252.37758837 382.51947003 239.72332764 386.03216553 C235.63180352 387.16809219 231.54044305 388.30460765 227.44908428 389.44112968 C223.46411354 390.54805086 219.47906807 391.65470279 215.49399757 392.7612648 C213.61350651 393.28344845 211.73303197 393.80569162 209.8525753 394.32799911 C208.95986238 394.57593342 208.06714947 394.82386772 207.14738464 395.07931519 C206.2838931 395.31924257 205.42040155 395.55916996 204.5307436 395.80636787 C202.8724963 396.26615121 201.21382236 396.72439922 199.55468273 397.18095207 C196.24501906 398.0921674 192.94523579 399.01643941 189.65713501 400.003479 C178.92945574 403.18480919 171.10296817 401.83802858 160.43359375 398.765625 C159.19768494 398.42005554 157.96177612 398.07448608 156.68841553 397.71844482 C153.30646482 396.7727671 149.92864426 395.81305542 146.55138779 394.85076904 C142.99077103 393.83883817 139.42655909 392.83974405 135.86254883 391.83984375 C131.34671131 390.57212901 126.83124085 389.30316362 122.31730652 388.02868652 C111.6718992 385.02380343 101.01608843 382.05835847 90.35267448 379.11803436 C87.84626731 378.42687785 85.34004189 377.7350663 82.83387756 377.04302979 C82.01620879 376.81725628 81.19854002 376.59148277 80.35609341 376.35886765 C79.13677419 376.02219007 79.13677419 376.02219007 77.89282227 375.67871094 C73.05143487 374.34193714 68.2098478 373.00590567 63.36740112 371.67297363 C59.56950842 370.62728587 55.77277297 369.57749219 51.97684479 368.52469635 C50.57768699 368.13740983 49.17812262 367.75158872 47.77812958 367.36733246 C45.86169482 366.84115423 43.94679699 366.30938778 42.03198242 365.77734375 C40.42077766 365.33249634 40.42077766 365.33249634 38.77702332 364.87866211 C37.86060562 364.58870361 36.94418793 364.29874512 36 364 C35.23715698 363.76903122 34.47431396 363.53806244 33.68835449 363.3000946 C32 362 32 362 31.27583313 359.1497345 C31.16974228 357.91929916 31.06365143 356.68886383 30.9543457 355.42114258 C30.8578015 354.39247967 30.8578015 354.39247967 30.75930691 353.3430357 C30.54672604 351.02810102 30.36144799 348.71176863 30.17578125 346.39453125 C30.02867443 344.73174737 29.87988838 343.06911132 29.72955322 341.40661621 C29.32149916 336.84100862 28.93702923 332.27367079 28.55620193 327.70572281 C28.14437402 322.81651295 27.71054424 317.92925466 27.27905273 313.04174805 C26.54342398 304.67725674 25.82088012 296.31172291 25.10742188 287.9453125 C24.02308305 275.23267829 22.91279833 262.5223955 21.796875 249.8125 C21.42562109 245.58082458 21.05455644 241.3491326 20.68359375 237.11743164 C20.5913427 236.06524728 20.49909164 235.01306292 20.4040451 233.92899418 C19.74389868 226.39492671 19.08784196 218.8605095 18.43359375 211.32592773 C15.87708631 181.89464404 13.25903511 152.46934338 10.59926605 123.04721832 C7.90709567 93.26631452 5.22718351 63.48458319 2.63412094 33.69486237 C2.43927684 31.45789947 2.24394283 29.22097982 2.04849243 26.98406982 C1.69588098 22.94656698 1.34570435 18.90885757 0.99609375 14.87109375 C0.89346222 13.6951918 0.79083069 12.51928986 0.68508911 11.30775452 C0.59363617 10.24511887 0.50218323 9.18248322 0.40795898 8.08764648 C0.32851547 7.17015121 0.24907196 6.25265594 0.16722107 5.30735779 C0.03927968 3.5419907 0 1.76999716 0 0 Z M179 75 C178.67 89.19 178.34 103.38 178 118 C212.98 118 247.96 118 284 118 C285.31263589 109.46786669 286.45646216 101.13841577 287.125 92.5625 C287.25455078 91.00885742 287.25455078 91.00885742 287.38671875 89.42382812 C287.77866008 84.5743318 288 79.87891639 288 75 C252.03 75 216.06 75 179 75 Z M179 165 C178.67 178.86 178.34 192.72 178 207 C179.02082376 208.24312499 179.02082376 208.24312499 181.17030334 208.12025452 C182.12738693 208.11803391 183.08447052 208.11581329 184.07055664 208.11352539 C185.15160172 208.11344986 186.23264679 208.11337433 187.34645081 208.11329651 C188.5224736 208.10813522 189.6984964 208.10297394 190.91015625 208.09765625 C192.10732773 208.0962413 193.30449921 208.09482635 194.53794861 208.09336853 C198.37949066 208.08774979 202.22097543 208.07519411 206.0625 208.0625 C208.65950437 208.05748741 211.25650965 208.05292409 213.85351562 208.04882812 C220.23569679 208.03777427 226.6178443 208.02101792 233 208 C232.30992651 215.45680792 231.61574142 222.91322487 230.91870117 230.36938477 C230.68207709 232.90575493 230.4463932 235.44221299 230.21166992 237.97875977 C229.87405786 241.62539834 229.53306222 245.27170711 229.19140625 248.91796875 C229.08719864 250.05147263 228.98299103 251.1849765 228.87562561 252.35282898 C228.77559738 253.41355118 228.67556915 254.47427338 228.57250977 255.56713867 C228.48590591 256.49757492 228.39930206 257.42801117 228.31007385 258.38664246 C228.00434147 260.96340931 227.54490985 263.46401897 227 266 C220.8071288 267.69126997 214.61407671 269.38187631 208.42089844 271.07202148 C206.31408586 271.64706388 204.20731473 272.22225816 202.10058594 272.79760742 C199.07237459 273.62458597 196.04401457 274.45101813 193.015625 275.27734375 C192.07382385 275.53466782 191.13202271 275.79199188 190.16168213 276.05711365 C188.84076569 276.41737389 188.84076569 276.41737389 187.49316406 276.78491211 C186.72039124 276.99587021 185.94761841 277.20682831 185.15142822 277.42417908 C183.10671047 277.97143938 181.05348817 278.48662796 179 279 C178.67 293.85 178.34 308.7 178 324 C185.5300731 322.6308958 192.67746281 321.11765726 199.9921875 319.0234375 C201.0093988 318.73676208 202.02661011 318.45008667 203.074646 318.15472412 C206.34274422 317.23272623 209.60885148 316.30387823 212.875 315.375 C215.12142029 314.74015007 217.36800315 314.10587511 219.61474609 313.47216797 C222.96021457 312.528495 226.30558681 311.58449879 229.65042114 310.63858032 C238.63235206 308.09879321 247.62427381 305.59732638 256.625 303.125 C257.62116333 302.85127563 258.61732666 302.57755127 259.64367676 302.29553223 C262.42908242 301.53022581 265.21452598 300.76505759 268 300 C270.82483712 275.572332 272.92504566 251.07779567 275.0715332 226.58325195 C275.58935207 220.6743221 276.11158317 214.76579157 276.63507366 208.85736179 C277.04074187 204.27394192 277.44429302 199.69033761 277.84717751 195.10667229 C278.03913432 192.92532852 278.23171228 190.74403931 278.42493248 188.56280708 C278.69256833 185.53757832 278.95738739 182.512116 279.22143555 179.48657227 C279.34060081 178.14885773 279.34060081 178.14885773 279.46217346 176.78411865 C279.56926132 175.54713982 279.56926132 175.54713982 279.67851257 174.28517151 C279.77222153 173.21836072 279.77222153 173.21836072 279.8678236 172.12999821 C280.01504905 169.75748742 280 167.37707442 280 165 C246.67 165 213.34 165 179 165 Z " fill="#E44D26" transform="translate(72,98)"/>
<path d="M0 0 C47.85 0 95.7 0 145 0 C143.77100193 16.59147389 142.49011386 33.13104715 140.88400269 49.68359375 C140.32449904 55.45505842 139.77551478 61.2275236 139.2265625 67 C139.11865891 68.13356934 139.01075531 69.26713867 138.89958191 70.43505859 C138.0286525 79.61929827 137.21119677 88.80710561 136.4375 98 C136.32081251 99.38256935 136.20411324 100.7651377 136.08740234 102.14770508 C135.91057283 104.24346744 135.73376822 106.33923184 135.55715942 108.43501282 C134.78981844 117.5211488 133.99185935 126.6045748 133.1875 135.6875 C133.10669189 136.60080078 133.02588379 137.51410156 132.94262695 138.45507812 C131.83824392 150.90724021 130.69118766 163.35515094 129.515625 175.80078125 C129.45127888 176.48217918 129.38693275 177.16357712 129.32063675 177.86562347 C128.99211255 181.34392439 128.66336165 184.82220386 128.33453369 188.30047607 C128.26902565 188.99341515 128.20351761 189.68635422 128.13602448 190.40029144 C128.00370533 191.79977451 127.87135569 193.1992547 127.73897552 194.59873199 C126.02894292 212.68133032 124.38620814 230.76500345 122.97680664 248.8737793 C122.12127465 259.82265552 121.07900138 270.74657755 119.99023438 281.67431641 C119.12494626 290.44295909 118.41371188 299.19792303 118 308 C112.7359009 310.04225918 107.51341126 311.78904189 102.0625 313.25 C100.49204094 313.67784781 98.92173773 314.10626798 97.3515625 314.53515625 C96.07974121 314.88151123 96.07974121 314.88151123 94.78222656 315.23486328 C91.71280076 316.07898231 88.64910534 316.94204568 85.5859375 317.80859375 C84.48499756 318.11958008 83.38405762 318.43056641 82.24975586 318.75097656 C80.08866068 319.36201519 77.92799483 319.97457487 75.76782227 320.58886719 C70.49960248 322.07348986 65.25190977 323.45287997 59.88476562 324.5324707 C57.68993636 325.02105493 57.68993636 325.02105493 54.5625 326.5 C50.89440065 328.04446288 47.52607055 328.79895163 43.625 329.47265625 C39.06315733 330.38909786 34.646561 331.80483682 30.1953125 333.1484375 C29.52757812 333.34953125 28.85984375 333.550625 28.171875 333.7578125 C26.84525303 334.15782447 25.51965648 334.56125955 24.1953125 334.96875 C16.1927581 337.36345378 8.1833952 339.07449525 0 341 C0 326.15 0 311.3 0 296 C-1.32 296 -2.64 296 -4 296 C-4 295.34 -4 294.68 -4 294 C-5.03447266 293.83564453 -5.03447266 293.83564453 -6.08984375 293.66796875 C-7.02957031 293.50941406 -7.96929687 293.35085938 -8.9375 293.1875 C-10.31228516 292.96126953 -10.31228516 292.96126953 -11.71484375 292.73046875 C-14.21398717 292.17477336 -16.43147188 291.54029487 -18.83203125 290.703125 C-26.01315325 288.23975885 -33.40556066 286.46687851 -40.75 284.5625 C-49.92364331 282.18299867 -59.02779472 279.72634116 -68.06982422 276.87768555 C-70.81831394 276.05442105 -73.55792339 275.36017213 -76.35546875 274.7265625 C-77.16177734 274.5409375 -77.96808594 274.3553125 -78.79882812 274.1640625 C-80.4305699 273.79581987 -82.06631838 273.44500927 -83.70507812 273.109375 C-84.49720703 272.92117188 -85.28933594 272.73296875 -86.10546875 272.5390625 C-87.15963989 272.31017334 -87.15963989 272.31017334 -88.23510742 272.07666016 C-91.00278047 270.38826091 -91.13921744 268.04698464 -92 265 C-92.2926757 263.04374697 -92.51903864 261.0766764 -92.68603516 259.10571289 C-92.8359642 257.39847801 -92.8359642 257.39847801 -92.98892212 255.65675354 C-93.08796844 254.44100143 -93.18701477 253.22524933 -93.2890625 251.97265625 C-93.39721283 250.71037704 -93.50536316 249.44809784 -93.61679077 248.14756775 C-93.84370067 245.48247274 -94.06785625 242.81732887 -94.28710938 240.15161133 C-94.56693369 236.75072436 -94.85576095 233.35068131 -95.1478672 229.95082951 C-95.42764269 226.6875697 -95.70208781 223.42386556 -95.9765625 220.16015625 C-96.07965729 218.94642838 -96.18275208 217.7327005 -96.28897095 216.48219299 C-96.7412738 210.96990089 -97.13214146 205.53128023 -97 200 C-90.75204325 199.97472876 -84.50409959 199.95716656 -78.25610352 199.94506836 C-76.12881986 199.94002702 -74.00153969 199.93319409 -71.87426758 199.92456055 C-68.82372174 199.91248621 -65.77322155 199.90676986 -62.72265625 199.90234375 C-61.28672874 199.89460182 -61.28672874 199.89460182 -59.8217926 199.88670349 C-58.50053627 199.88659019 -58.50053627 199.88659019 -57.15258789 199.88647461 C-55.9834359 199.88314369 -55.9834359 199.88314369 -54.79066467 199.87974548 C-53 200 -53 200 -52 201 C-51.77179719 202.56254233 -51.60493417 204.1341391 -51.46484375 205.70703125 C-51.3776709 206.68148193 -51.29049805 207.65593262 -51.20068359 208.65991211 C-51.11383301 209.70026611 -51.02698242 210.74062012 -50.9375 211.8125 C-50.84807129 212.85736572 -50.75864258 213.90223145 -50.66650391 214.97875977 C-50.09234582 222.00809523 -49.72694763 228.94614715 -50 236 C-48.70497559 236.20036865 -48.70497559 236.20036865 -47.38378906 236.40478516 C-44.15387122 236.97293376 -41.03278574 237.6997326 -37.859375 238.5234375 C-36.70566406 238.8225 -35.55195313 239.1215625 -34.36328125 239.4296875 C-32.57470703 239.89761719 -32.57470703 239.89761719 -30.75 240.375 C-29.57308594 240.67921875 -28.39617187 240.9834375 -27.18359375 241.296875 C-21.93875459 242.66205004 -16.72641563 244.06188409 -11.5546875 245.68359375 C-7.81219244 246.82772795 -4.29877071 247.4593738 -0.375 247.6875 C1.16027344 247.78611328 1.16027344 247.78611328 2.7265625 247.88671875 C3.47679687 247.92410156 4.22703125 247.96148437 5 248 C3.68 248.33 2.36 248.66 1 249 C1.16677246 249.9799292 1.33354492 250.9598584 1.50537109 251.96948242 C2.10220193 256.17054717 2.04982257 260.25577661 1.9140625 264.48828125 C1.89282318 265.27269089 1.87158386 266.05710052 1.84970093 266.86528015 C1.80373442 268.5099609 1.75483408 270.15456205 1.703125 271.79907227 C1.62469645 274.32226576 1.55780436 276.84558482 1.4921875 279.36914062 C1.44599472 280.97137398 1.39914326 282.57358851 1.3515625 284.17578125 C1.33171295 284.93095535 1.3118634 285.68612946 1.29141235 286.46418762 C1.11528401 291.76943198 1.11528401 291.76943198 0 294 C7.52169766 291.90456191 15.04334443 289.80894121 22.56493282 287.71311092 C26.73962101 286.54987428 30.91434243 285.38675702 35.08910179 284.22377586 C37.11848551 283.65838564 39.14782097 283.09282239 41.17715454 282.5272522 C43.86619742 281.77787793 46.55549293 281.02941951 49.2449646 280.28158569 C55.64937181 278.49965234 62.04977063 276.70506107 68.44189453 274.87939453 C69.59532852 274.55145401 70.74876251 274.22351349 71.93714905 273.88563538 C74.08963508 273.27285612 76.24094982 272.65594175 78.39085388 272.03416443 C79.34025345 271.7645137 80.28965302 271.49486298 81.26782227 271.21704102 C82.09016861 270.98066422 82.91251495 270.74428741 83.75978088 270.50074768 C86 270 86 270 90 270 C90.06912598 268.39443741 90.06912598 268.39443741 90.13964844 266.75643921 C90.78377207 252.81338073 91.98525172 238.93762102 93.25 225.0390625 C93.47060728 222.58956942 93.69098055 220.14005526 93.91113281 217.69052124 C94.3695009 212.59913922 94.83030402 207.50798552 95.29296875 202.41699219 C95.88570886 195.89305922 96.47279449 189.36863193 97.0581665 182.84403419 C97.51080165 177.80475525 97.96609962 172.76571971 98.42224121 167.72675705 C98.63988822 165.31946 98.85677259 162.91209386 99.07287598 160.50465775 C99.37404157 157.15471232 99.67872245 153.80510502 99.984375 150.45556641 C100.07271606 149.46546066 100.16105713 148.47535492 100.2520752 147.45524597 C100.37818176 146.0851664 100.37818176 146.0851664 100.50683594 144.68740845 C100.61412018 143.50350997 100.61412018 143.50350997 100.72357178 142.29569435 C101.01871649 139.84456238 101.51582114 137.42089429 102 135 C68.67 135 35.34 135 1 135 C1 149.19 1 163.38 1 178 C-32 178 -65 178 -99 178 C-101.24975362 164.5014783 -101.24975362 164.5014783 -101.71435547 158.89428711 C-101.82154907 157.63110153 -101.92874268 156.36791595 -102.03918457 155.06645203 C-102.14856984 153.72008674 -102.25790265 152.37371719 -102.3671875 151.02734375 C-102.48760153 149.59104988 -102.60850409 148.15479689 -102.7298584 146.71858215 C-102.98508257 143.68845936 -103.23750206 140.65812292 -103.48748779 137.62756348 C-104.07293213 130.53110978 -104.67117587 123.43573188 -105.26973343 116.34037399 C-105.402421 114.76698699 -105.53492575 113.19358456 -105.66724777 111.62016678 C-106.49346922 101.80093536 -107.35076247 91.98580134 -108.28125 82.17578125 C-108.37657013 81.17050888 -108.47189026 80.16523651 -108.57009888 79.12950134 C-108.99960358 74.62451034 -109.43692907 70.12038922 -109.88232422 65.61694336 C-110.03356676 64.05192426 -110.18477367 62.48690171 -110.3359375 60.921875 C-110.46532715 59.61831055 -110.5947168 58.31474609 -110.72802734 56.97167969 C-111.04626003 52.32445406 -111 47.65810885 -111 43 C-74.37 43 -37.74 43 0 43 C0 28.81 0 14.62 0 0 Z M1 45 C0.67 59.19 0.34 73.38 0 88 C34.98 88 69.96 88 106 88 C107.31263589 79.46786669 108.45646216 71.13841577 109.125 62.5625 C109.25455078 61.00885742 109.25455078 61.00885742 109.38671875 59.42382812 C109.77866008 54.5743318 110 49.87891639 110 45 C74.03 45 38.06 45 1 45 Z " fill="#F06428" transform="translate(250,128)"/>
<path d="M0 0 C73.26 0 146.52 0 222 0 C221.67 6.6 221.34 13.2 221 20 C220.80599475 24.41661328 220.61523765 28.83278241 220.4375 33.25 C220.37272461 34.83167969 220.37272461 34.83167969 220.30664062 36.4453125 C220.20362345 38.96351013 220.10139564 41.48173666 220 44 C217.0993619 45.45031905 214.58520318 45.12265571 211.34359741 45.12025452 C210.65176821 45.12110894 209.95993901 45.12196337 209.2471453 45.12284368 C206.91783003 45.12449709 204.58858602 45.11897939 202.25927734 45.11352539 C200.5939789 45.11324346 198.92868033 45.11340136 197.26338196 45.1139679 C192.73264233 45.11425565 188.201929 45.10836243 183.67119551 45.10139394 C178.93994752 45.09515679 174.20869898 45.09455631 169.47744751 45.09336853 C160.51372696 45.09025628 151.55001855 45.08204432 142.58630335 45.07201904 C132.38330886 45.0608546 122.18031379 45.05534662 111.97731471 45.05032361 C90.98486968 45.03986163 69.99243561 45.02226424 49 45 C49.13277344 45.98613281 49.26554687 46.97226563 49.40234375 47.98828125 C51.15168352 62.12345735 51.46574844 75.57520793 52 90 C105.13 90 158.26 90 213 90 C213 90.33 213 90.66 213 91 C179.67 91 146.34 91 112 91 C112 105.19 112 119.38 112 134 C79 134 46 134 12 134 C9.75024638 120.5014783 9.75024638 120.5014783 9.28564453 114.89428711 C9.17845093 113.63110657 9.07125732 112.36792603 8.96081543 111.06646729 C8.85142965 109.72009695 8.74209685 108.37372232 8.6328125 107.02734375 C8.5123982 105.59100412 8.39149565 104.15470536 8.2701416 102.71844482 C8.01492044 99.68827601 7.76250261 96.65789363 7.51251221 93.62728882 C6.92715437 86.53210379 6.32881646 79.43800987 5.73026657 72.34392738 C5.59757943 70.77078068 5.46507467 69.19761857 5.33275223 67.62444115 C4.03884288 52.24865977 2.6289287 36.88506361 1.11767578 21.52905273 C0.96646049 19.96077579 0.81525535 18.39249786 0.6640625 16.82421875 C0.53467285 15.51541748 0.4052832 14.20661621 0.27197266 12.8581543 C-0.02948323 8.58175628 0 4.28701011 0 0 Z M112 1 C111.67 15.19 111.34 29.38 111 44 C145.98 44 180.96 44 217 44 C218.31263589 35.46786669 219.45646216 27.13841577 220.125 18.5625 C220.25455078 17.00885742 220.25455078 17.00885742 220.38671875 15.42382812 C220.77866008 10.5743318 221 5.87891639 221 1 C185.03 1 149.06 1 112 1 Z " fill="#ECEAE9" transform="translate(139,172)"/>
<path d="M0 0 C6.24795675 -0.02527124 12.49590041 -0.04283344 18.74389648 -0.05493164 C20.87118014 -0.05997298 22.99846031 -0.06680591 25.12573242 -0.07543945 C28.17627826 -0.08751379 31.22677845 -0.09323014 34.27734375 -0.09765625 C35.71327126 -0.10539818 35.71327126 -0.10539818 37.1782074 -0.11329651 C38.49946373 -0.11340981 38.49946373 -0.11340981 39.84741211 -0.11352539 C40.62684677 -0.115746 41.40628143 -0.11796661 42.20933533 -0.12025452 C44 0 44 0 45 1 C45.22820281 2.56254233 45.39506583 4.1341391 45.53515625 5.70703125 C45.66591553 7.16870728 45.66591553 7.16870728 45.79931641 8.65991211 C45.88616699 9.70026611 45.97301758 10.74062012 46.0625 11.8125 C46.15192871 12.85736572 46.24135742 13.90223145 46.33349609 14.97875977 C46.90765418 22.00809523 47.27305237 28.94614715 47 36 C47.86334961 36.1335791 48.72669922 36.2671582 49.61621094 36.40478516 C52.84612878 36.97293376 55.96721426 37.6997326 59.140625 38.5234375 C60.29433594 38.8225 61.44804687 39.1215625 62.63671875 39.4296875 C63.82910156 39.74164063 65.02148438 40.05359375 66.25 40.375 C67.42691406 40.67921875 68.60382813 40.9834375 69.81640625 41.296875 C75.06124541 42.66205004 80.27358437 44.06188409 85.4453125 45.68359375 C89.18780756 46.82772795 92.70122929 47.4593738 96.625 47.6875 C97.64851563 47.75324219 98.67203125 47.81898438 99.7265625 47.88671875 C100.47679687 47.92410156 101.22703125 47.96148437 102 48 C100.68 48.33 99.36 48.66 98 49 C98.16677246 49.9799292 98.33354492 50.9598584 98.50537109 51.96948242 C99.10220193 56.17054717 99.04982257 60.25577661 98.9140625 64.48828125 C98.89282318 65.27269089 98.87158386 66.05710052 98.84970093 66.86528015 C98.80373442 68.5099609 98.75483408 70.15456205 98.703125 71.79907227 C98.62469645 74.32226576 98.55780436 76.84558482 98.4921875 79.36914062 C98.44599472 80.97137398 98.39914326 82.57358851 98.3515625 84.17578125 C98.33171295 84.93095535 98.3118634 85.68612946 98.29141235 86.46418762 C98.11528401 91.76943198 98.11528401 91.76943198 97 94 C98.0725 93.649375 99.145 93.29875 100.25 92.9375 C104.92307692 91.76923077 104.92307692 91.76923077 108 93 C99.56041985 95.81319338 92.94210766 95.33043059 84.625 92.5625 C74.2966134 89.28880184 63.85610203 86.52643823 53.37164307 83.80667114 C45.16599201 81.67794865 37.04314062 79.43057552 28.9543457 76.88427734 C26.19759076 76.0591417 23.45032205 75.36190553 20.64453125 74.7265625 C19.43506836 74.448125 19.43506836 74.448125 18.20117188 74.1640625 C16.5694301 73.79581987 14.93368162 73.44500927 13.29492188 73.109375 C12.10672852 72.82707031 12.10672852 72.82707031 10.89453125 72.5390625 C10.19175049 72.38646973 9.48896973 72.23387695 8.76489258 72.07666016 C5.99721953 70.38826091 5.86078256 68.04698464 5 65 C4.7073243 63.04374697 4.48096136 61.0766764 4.31396484 59.10571289 C4.21401215 57.9675563 4.11405945 56.82939972 4.01107788 55.65675354 C3.91203156 54.44100143 3.81298523 53.22524933 3.7109375 51.97265625 C3.60278717 50.71037704 3.49463684 49.44809784 3.38320923 48.14756775 C3.15629933 45.48247274 2.93214375 42.81732887 2.71289062 40.15161133 C2.43306631 36.75072436 2.14423905 33.35068131 1.8521328 29.95082951 C1.57235731 26.6875697 1.29791219 23.42386556 1.0234375 20.16015625 C0.92034271 18.94642838 0.81724792 17.7327005 0.71102905 16.48219299 C0.2587262 10.96990089 -0.13214146 5.53128023 0 0 Z " fill="#ECE9E9" transform="translate(153,328)"/>
<path d="M0 0 C8.25 0 16.5 0 25 0 C31.80200219 8.28362643 31.80200219 8.28362643 34.13525391 14.08740234 C35.34040676 16.75289287 37.06137062 18.83027573 39 21 C39.35827881 20.39937744 39.71655762 19.79875488 40.08569336 19.17993164 C41.7014398 16.47320887 43.31943878 13.76783959 44.9375 11.0625 C45.50146484 10.11697266 46.06542969 9.17144531 46.64648438 8.19726562 C47.18466797 7.29814453 47.72285156 6.39902344 48.27734375 5.47265625 C48.77484131 4.64000244 49.27233887 3.80734863 49.78491211 2.94946289 C51 1 51 1 52 0 C60.25 0 68.5 0 77 0 C77 22.44 77 44.88 77 68 C69.08 68 61.16 68 53 68 C52.67 58.43 52.34 48.86 52 39 C47.71 45.6 43.42 52.2 39 59 C33.375 53.375 33.375 53.375 31.32421875 50.01171875 C30.93065186 49.37451904 30.53708496 48.73731934 30.1315918 48.08081055 C29.6550415 47.29101807 29.17849121 46.50122559 28.6875 45.6875 C27.140625 43.150625 25.59375 40.61375 24 38 C23.67 47.9 23.34 57.8 23 68 C15.41 68 7.82 68 0 68 C0 45.56 0 23.12 0 0 Z " fill="#0D0D0D" transform="translate(253,0)"/>
<path d="M0 0 C7.92 0 15.84 0 24 0 C24 6.93 24 13.86 24 21 C30.27 21 36.54 21 43 21 C43 14.07 43 7.14 43 0 C50.92 0 58.84 0 67 0 C67 22.44 67 44.88 67 68 C59.08 68 51.16 68 43 68 C43 60.74 43 53.48 43 46 C36.73 46 30.46 46 24 46 C24 53.26 24 60.52 24 68 C16.08 68 8.16 68 0 68 C0 45.56 0 23.12 0 0 Z " fill="#101010" transform="translate(105,0)"/>
<path d="M0 0 C18.15 0 36.3 0 55 0 C53.81796258 23.64074845 53.81796258 23.64074845 52.75268555 35.27832031 C52.55801139 37.42448418 52.37559581 39.57149796 52.19335938 41.71875 C52.06843785 43.11204477 51.94281496 44.50527687 51.81640625 45.8984375 C51.70756104 47.12224121 51.59871582 48.34604492 51.48657227 49.60693359 C50.5548502 56.1042107 50.5548502 56.1042107 49 59 C46.35423567 60.52943323 43.56307188 61.23388755 40.6171875 61.9921875 C39.77012238 62.22785431 38.92305725 62.46352112 38.05032349 62.70632935 C36.24960794 63.2006333 34.44538943 63.68232255 32.63818359 64.15234375 C29.92408618 64.86216248 27.22658198 65.6186808 24.52734375 66.3828125 C8.88057583 70.67501435 -4.55078721 71.92572545 -20 66 C-16.22628488 64.6642543 -13.14168653 65.27591329 -9.25 65.9375 C-8.07953125 66.13214844 -6.9090625 66.32679688 -5.703125 66.52734375 C-4.36507812 66.76130859 -4.36507812 66.76130859 -3 67 C-3 67.66 -3 68.32 -3 69 C-2.01 69 -1.02 69 0 69 C0 46.23 0 23.46 0 0 Z " fill="#F0652A" transform="translate(250,306)"/>
<path d="M0 0 C19.47 0 38.94 0 59 0 C59 14.19 59 28.38 59 43 C39.86 43 20.72 43 1 43 C0.16633626 34.66336257 -0.33910596 26.48319631 -0.625 18.125 C-0.6765625 16.82046875 -0.728125 15.5159375 -0.78125 14.171875 C-0.82507813 12.92148438 -0.86890625 11.67109375 -0.9140625 10.3828125 C-0.9548291 9.25246582 -0.9955957 8.12211914 -1.03759766 6.95751953 C-1 4 -1 4 0 0 Z " fill="#E44D26" transform="translate(191,218)"/>
<path d="M0 0 C20.79 0 41.58 0 63 0 C63 7.59 63 15.18 63 23 C56.4 23 49.8 23 43 23 C43 37.85 43 52.7 43 68 C35.41 68 27.82 68 20 68 C18.98591699 63.94366795 18.85565307 60.30159478 18.8671875 56.1640625 C18.86575241 55.02860489 18.86575241 55.02860489 18.86428833 53.87020874 C18.86360907 52.27154456 18.86544562 50.6728776 18.86962891 49.07421875 C18.87496587 46.64056112 18.86968301 44.2070893 18.86328125 41.7734375 C18.86394237 40.21614543 18.86522422 38.65885347 18.8671875 37.1015625 C18.86516327 36.37949615 18.86313904 35.65742981 18.86105347 34.91348267 C18.88013917 30.75164143 19.30651823 27.16089065 20 23 C13.4 23 6.8 23 0 23 C0 15.41 0 7.82 0 0 Z " fill="#090909" transform="translate(181,0)"/>
<path d="M0 0 C7.92 0 15.84 0 24 0 C24 14.52 24 29.04 24 44 C34.15713092 43.96040178 34.15713092 43.96040178 44.31420898 43.90991211 C45.57048096 43.90741455 46.82675293 43.90491699 48.12109375 43.90234375 C50.06133423 43.89448853 50.06133423 43.89448853 52.04077148 43.88647461 C55 44 55 44 56 45 C56.0991657 46.62257544 56.13079777 48.24939831 56.1328125 49.875 C56.13474609 51.35226563 56.13474609 51.35226563 56.13671875 52.859375 C56.13285156 53.89578125 56.12898438 54.9321875 56.125 56 C56.13080078 57.55460937 56.13080078 57.55460937 56.13671875 59.140625 C56.13542969 60.12546875 56.13414062 61.1103125 56.1328125 62.125 C56.13168457 63.03507812 56.13055664 63.94515625 56.12939453 64.8828125 C56 67 56 67 55 68 C53.28134591 68.0935919 51.55884256 68.11744611 49.83764648 68.11352539 C48.72111694 68.11340454 47.6045874 68.11328369 46.45422363 68.11315918 C44.68057434 68.10548523 44.68057434 68.10548523 42.87109375 68.09765625 C41.79089966 68.09664917 40.71070557 68.09564209 39.59777832 68.09460449 C35.54434149 68.08935374 31.49091973 68.07539263 27.4375 68.0625 C18.383125 68.041875 9.32875 68.02125 0 68 C0 45.56 0 23.12 0 0 Z " fill="#131313" transform="translate(340,0)"/>
<path d="M0 0 C117.48 0 234.96 0 356 0 C351.39921548 57.50980645 351.39921548 57.50980645 349.7109375 75.984375 C349.51944047 78.10221373 349.32817415 80.22007334 349.13711548 82.33795166 C348.65029025 87.7278679 348.16048152 93.11750818 347.66986084 98.50708008 C347.17119065 103.99152314 346.67560349 109.47624483 346.1796875 114.9609375 C345.20774842 125.70469884 344.23254331 136.44816064 343.2554245 147.19145203 C342.8860157 151.25332683 342.51679733 155.31521895 342.14756203 159.37710953 C341.76507485 163.58474273 341.38254013 167.79237161 341 172 C340.67 172 340.34 172 340 172 C339.87917854 161.48853276 340.03883659 151.0051968 340.4375 140.5 C340.47673584 139.39599854 340.51597168 138.29199707 340.55639648 137.15454102 C340.59837158 136.12385498 340.64034668 135.09316895 340.68359375 134.03125 C340.72025146 133.10892578 340.75690918 132.18660156 340.79467773 131.23632812 C341 129 341 129 342 127 C342.14049851 125.36923953 342.22570201 123.73351503 342.28125 122.09765625 C342.31863281 121.12505859 342.35601562 120.15246094 342.39453125 119.15039062 C342.44673828 117.62188477 342.44673828 117.62188477 342.5 116.0625 C342.5688888 114.05324328 342.6416358 112.0441141 342.71875 110.03515625 C342.74904297 109.1419165 342.77933594 108.24867676 342.81054688 107.32836914 C343 105 343 105 344 102 C344.12227516 100.66322807 344.20024792 99.32203819 344.24609375 97.98046875 C344.27896484 97.20509766 344.31183594 96.42972656 344.34570312 95.63085938 C344.40645602 94.0137982 344.46379902 92.39660499 344.51757812 90.77929688 C344.6691028 87.32281896 344.85914802 84.41858028 345.96875 81.12109375 C347.51086118 76.4538709 347.70416551 71.75856512 348.0625 66.875 C348.1860083 65.28026855 348.1860083 65.28026855 348.31201172 63.65332031 C349.56150808 47.08079238 350.15912336 30.61955049 350 14 C350.99 14 351.98 14 353 14 C352.67 10.37 352.34 6.74 352 3 C350.535625 3.185625 349.07125 3.37125 347.5625 3.5625 C346.04681929 3.75462854 344.52519276 3.91062197 343 4 C342.67 3.67 342.34 3.34 342 3 C340.20175255 2.89750221 338.39944107 2.86599929 336.59828091 2.8613348 C335.41890215 2.85586036 334.2395234 2.85038591 333.0244059 2.84474558 C331.71217821 2.84376747 330.39995053 2.84278936 329.04795837 2.84178162 C327.65291134 2.83721997 326.25786567 2.83222054 324.86282164 2.82681805 C321.01135205 2.81318225 317.15989132 2.80580293 313.30840385 2.79939139 C309.16181445 2.79141123 305.01524366 2.77770531 300.8686676 2.76467896 C293.67846697 2.74288224 286.4882645 2.72474949 279.29804802 2.70907402 C268.90207898 2.6864044 258.50613052 2.65825761 248.1101789 2.62875474 C231.24525528 2.58104308 214.38032328 2.53778862 197.51538086 2.49731445 C181.12832994 2.45797768 164.74128649 2.41655585 148.35424805 2.37231445 C147.34490627 2.36959018 146.33556448 2.36686591 145.29563659 2.36405908 C140.23229104 2.35037991 135.16894561 2.33665957 130.10560024 2.32291877 C88.0704157 2.20889787 46.03521507 2.10210097 4 2 C3.97309156 4.62506802 3.95320596 7.24986173 3.9375 9.875 C3.92912109 10.62136719 3.92074219 11.36773437 3.91210938 12.13671875 C3.79311916 16.19845578 3.79311916 16.19845578 5 20 C5.13098915 22.03650358 5.20281742 24.07693453 5.24609375 26.1171875 C5.27896484 27.365 5.31183594 28.6128125 5.34570312 29.8984375 C5.40599774 32.51034907 5.46338083 35.12232979 5.51757812 37.734375 C5.70596073 44.68675927 6.30096187 51.25491936 7.56567383 58.08837891 C8.31848218 63.13503003 8.21061107 68.15943409 8.125 73.25 C8.11597656 74.29285156 8.10695313 75.33570313 8.09765625 76.41015625 C8.07444336 78.94036161 8.04180149 81.47004546 8 84 C7.67 84 7.34 84 7 84 C6.08580068 73.49085465 5.17298322 62.98159028 4.26194 52.47217083 C3.83888343 47.59247161 3.4153472 42.712815 2.99072266 37.83325195 C2.58111535 33.12605645 2.17275773 28.41875408 1.76527405 23.71137428 C1.60942787 21.91356336 1.45312799 20.1157917 1.29637146 18.31805992 C1.07724664 15.80418277 0.85972121 13.29017204 0.64257812 10.77612305 C0.57712296 10.02949905 0.51166779 9.28287506 0.44422913 8.5136261 C0.19943087 5.66382032 0 2.86199424 0 0 Z " fill="#E06C4F" transform="translate(72,98)"/>
<path d="M0 0 C0.33 0 0.66 0 1 0 C1.13827415 7.48169818 0.5929504 14.80730535 -0.08569336 22.25561523 C-0.20112991 23.55759857 -0.31656647 24.85958191 -0.4355011 26.20101929 C-0.7501675 29.74889137 -1.06971945 33.29630786 -1.39021754 36.84365726 C-1.72620989 40.57163332 -2.05773768 44.30000651 -2.38978577 48.02833557 C-2.94792953 54.28841246 -3.50894102 60.54822663 -4.07202148 66.80786133 C-4.8637367 75.60921557 -5.65033233 84.41102173 -6.43586528 93.21292961 C-7.04873462 100.07823651 -7.66286094 106.94343109 -8.27734375 113.80859375 C-8.34272111 114.5390235 -8.40809846 115.26945325 -8.47545695 116.02201724 C-8.91097756 120.88642853 -9.34767863 125.7507326 -9.78491211 130.61499023 C-9.94783249 132.43337654 -9.94783249 132.43337654 -10.11404419 134.28849792 C-10.70601025 140.86294732 -11.32674161 147.4333571 -12 154 C-12.33 154 -12.66 154 -13 154 C-13.12082146 143.48853276 -12.96116341 133.0051968 -12.5625 122.5 C-12.50364624 120.8439978 -12.50364624 120.8439978 -12.44360352 119.15454102 C-12.40162842 118.12385498 -12.35965332 117.09316895 -12.31640625 116.03125 C-12.27974854 115.10892578 -12.24309082 114.18660156 -12.20532227 113.23632812 C-12 111 -12 111 -11 109 C-10.85950149 107.36923953 -10.77429799 105.73351503 -10.71875 104.09765625 C-10.66267578 102.63875977 -10.66267578 102.63875977 -10.60546875 101.15039062 C-10.57066406 100.13138672 -10.53585937 99.11238281 -10.5 98.0625 C-10.4311112 96.05324328 -10.3583642 94.0441141 -10.28125 92.03515625 C-10.25095703 91.1419165 -10.22066406 90.24867676 -10.18945312 89.32836914 C-10 87 -10 87 -9 84 C-8.87772484 82.66322807 -8.79975208 81.32203819 -8.75390625 79.98046875 C-8.72103516 79.20509766 -8.68816406 78.42972656 -8.65429688 77.63085938 C-8.59354398 76.0137982 -8.53620098 74.39660499 -8.48242188 72.77929688 C-8.3308972 69.32281896 -8.14085198 66.41858028 -7.03125 63.12109375 C-5.48905253 58.45360974 -5.29678889 53.75869623 -4.9375 48.875 C-4.85371094 47.81619629 -4.76992188 46.75739258 -4.68359375 45.66650391 C-4.1652252 38.90645156 -3.79124014 32.14814939 -3.5 25.375 C-2.63498858 5.26997717 -2.63498858 5.26997717 0 0 Z " fill="#DF7C62" transform="translate(425,116)"/>
<path d="M0 0 C2 3 2 3 2 13 C55.13 13 108.26 13 163 13 C163 29.72706607 162.86708003 45.51301653 161 62 C160.34 62 159.68 62 159 62 C159.02320313 62.68707031 159.04640625 63.37414062 159.0703125 64.08203125 C159.08835937 64.98308594 159.10640625 65.88414062 159.125 66.8125 C159.14820313 67.70582031 159.17140625 68.59914063 159.1953125 69.51953125 C159 72 159 72 157 75 C157.43388925 61.98332252 158.35214719 49.03280492 159.5 36.0625 C159.56571198 35.31212463 159.63142395 34.56174927 159.6991272 33.78863525 C159.8900001 31.62051104 160.08475698 29.45277773 160.28125 27.28515625 C160.45237305 25.39615601 160.45237305 25.39615601 160.62695312 23.46899414 C160.9679608 20.29793523 161.47567544 17.14594733 162 14 C108.87 14 55.74 14 1 14 C0.1627035 8.97622101 -0.0861953 4.99932751 0 0 Z " fill="#DC7653" transform="translate(190,248)"/>
<path d="M0 0 C0.66 0 1.32 0 2 0 C2.05534912 0.59538574 2.11069824 1.19077148 2.16772461 1.80419922 C2.42018865 4.49487215 2.67876816 7.18492286 2.9375 9.875 C3.02451172 10.81214844 3.11152344 11.74929688 3.20117188 12.71484375 C3.28818359 13.61074219 3.37519531 14.50664062 3.46484375 15.4296875 C3.543396 16.25710449 3.62194824 17.08452148 3.70288086 17.93701172 C3.89777363 20.0581666 3.89777363 20.0581666 5 22 C5.14050291 23.60727367 5.22570442 25.21958453 5.28125 26.83203125 C5.31863281 27.79560547 5.35601562 28.75917969 5.39453125 29.75195312 C5.42933594 30.76193359 5.46414062 31.77191406 5.5 32.8125 C5.56922769 34.79830912 5.64202718 36.78399759 5.71875 38.76953125 C5.74904297 39.65229736 5.77933594 40.53506348 5.81054688 41.44458008 C6.00259986 44.03506792 6.47453177 46.4588685 7 49 C7.24840127 52.46036773 7.43886264 55.91606926 7.60546875 59.38085938 C7.74718021 63.31924939 7.74718021 63.31924939 9 67 C9.14336216 69.22913378 9.22657919 71.46224259 9.28125 73.6953125 C9.29965942 74.36158661 9.31806885 75.02786072 9.33703613 75.71432495 C9.39580854 77.85112629 9.44852368 79.98801126 9.5 82.125 C9.62674789 92.30493657 9.62674789 92.30493657 10.52734375 102.4296875 C11.08626844 106.65164754 11.11038849 110.74897522 11.0625 115 C11.05798828 115.77472656 11.05347656 116.54945313 11.04882812 117.34765625 C11.03719758 119.23180524 11.01926906 121.11591365 11 123 C10.67 123 10.34 123 10 123 C8.69016309 108.58753081 7.38606987 94.17455164 6.08848572 79.76097393 C5.48580721 73.06753745 4.88131683 66.37427411 4.27246094 59.68139648 C3.68460761 53.21732575 3.10157398 46.75283646 2.52182007 40.28803444 C2.30026338 37.82685792 2.07699711 35.36583465 1.85195923 32.90497398 C1.53604359 29.44705455 1.22631902 25.98863046 0.91796875 22.5300293 C0.82446136 21.52229462 0.73095398 20.51455994 0.63461304 19.47628784 C0.06267401 12.96778604 -0.10536069 6.53240315 0 0 Z " fill="#E6947D" transform="translate(88,272)"/>
<path d="M0 0 C0.66 0.33 1.32 0.66 2 1 C2.10999924 7.88666158 1.80249633 14.64220361 1.17382812 21.49853516 C1.08604599 22.49485962 0.99826385 23.49118408 0.90782166 24.5177002 C0.61978536 27.77520528 0.3255704 31.03211972 0.03125 34.2890625 C-0.17091566 36.56160126 -0.37269197 38.83417468 -0.57409668 41.10678101 C-1.10286974 47.06152886 -1.6369017 53.01579359 -2.17205811 58.9699707 C-2.71816427 65.05651854 -3.25925699 71.14351185 -3.80078125 77.23046875 C-4.86230206 89.15408526 -5.9293833 101.07719701 -7 113 C-7.33 113 -7.66 113 -8 113 C-8.1123659 101.23903615 -7.99179096 89.50458937 -7.5625 77.75 C-7.52326416 76.60160645 -7.48402832 75.45321289 -7.44360352 74.27001953 C-7.40162842 73.20638184 -7.35965332 72.14274414 -7.31640625 71.046875 C-7.26141968 69.62133301 -7.26141968 69.62133301 -7.20532227 68.16699219 C-7 66 -7 66 -6 65 C-5.78740899 62.57882455 -5.62335401 60.17596222 -5.5 57.75 C-5.12936704 50.62561093 -5.12936704 50.62561093 -4.5 47.58203125 C-3.60246111 42.9470843 -3.59876035 38.2144748 -3.39453125 33.50585938 C-3.35714844 32.72919922 -3.31976563 31.95253906 -3.28125 31.15234375 C-3.25095703 30.45101318 -3.22066406 29.74968262 -3.18945312 29.02709961 C-3 27 -3 27 -2.5 25.04760742 C-1.92502595 22.69296517 -1.80545375 20.50764707 -1.71875 18.0859375 C-1.68136719 17.16039062 -1.64398438 16.23484375 -1.60546875 15.28125 C-1.5348731 13.33594775 -1.46456286 11.39063513 -1.39453125 9.4453125 C-1.35714844 8.52234375 -1.31976563 7.599375 -1.28125 6.6484375 C-1.23581055 5.38265869 -1.23581055 5.38265869 -1.18945312 4.09130859 C-1 2 -1 2 0 0 Z " fill="#E79B87" transform="translate(408,293)"/>
<path d="M0 0 C0.33 0 0.66 0 1 0 C1.2170641 12.34853548 0.56691997 24.66798292 0 37 C-2.9006381 38.45031905 -5.41479682 38.12265571 -8.65640259 38.12025452 C-9.34823179 38.12110894 -10.04006099 38.12196337 -10.7528547 38.12284368 C-13.08216997 38.12449709 -15.41141398 38.11897939 -17.74072266 38.11352539 C-19.4060211 38.11324346 -21.07131967 38.11340136 -22.73661804 38.1139679 C-27.26735767 38.11425565 -31.798071 38.10836243 -36.32880449 38.10139394 C-41.06005248 38.09515679 -45.79130102 38.09455631 -50.52255249 38.09336853 C-59.48627304 38.09025628 -68.44998145 38.08204432 -77.41369665 38.07201904 C-87.61669114 38.0608546 -97.81968621 38.05534662 -108.02268529 38.05032361 C-129.01513032 38.03986163 -150.00756439 38.02226424 -171 38 C-171 39.65 -171 41.3 -171 43 C-171.33 43 -171.66 43 -172 43 C-172 41.02 -172 39.04 -172 37 C-116.23 37 -60.46 37 -3 37 C-2.01 24.13 -2.01 24.13 -1 11 C-0.67 7.37 -0.34 3.74 0 0 Z " fill="#F6A688" transform="translate(359,179)"/>
<path d="M0 0 C-1 1 -1 1 -3.73114872 1.12304783 C-4.96174235 1.12212604 -6.19233599 1.12120424 -7.46022034 1.12025452 C-8.14302801 1.12110894 -8.82583568 1.12196337 -9.52933449 1.12284368 C-11.83411691 1.12450043 -14.13882772 1.11897397 -16.44360352 1.11352539 C-18.08905028 1.11324353 -19.73449716 1.11340122 -21.37994385 1.1139679 C-25.86115759 1.11425593 -30.34234481 1.10835821 -34.82355237 1.10139394 C-39.50142105 1.09516142 -44.17929028 1.09455668 -48.85716248 1.09336853 C-57.72175168 1.09025491 -66.58632862 1.08204111 -75.45091242 1.07201904 C-85.54022202 1.06085885 -95.6295322 1.05534769 -105.71884644 1.05032361 C-126.47923782 1.03985852 -147.23961814 1.02225849 -168 1 C-167.67 1.99 -167.34 2.98 -167 4 C-167.33 4.33 -167.66 4.66 -168 5 C-168.08748207 6.92667507 -168.10697334 8.85651861 -168.09765625 10.78515625 C-168.09443359 11.95498047 -168.09121094 13.12480469 -168.08789062 14.33007812 C-168.07951172 15.56177734 -168.07113281 16.79347656 -168.0625 18.0625 C-168.05798828 19.29806641 -168.05347656 20.53363281 -168.04882812 21.80664062 C-168.03699608 24.87114117 -168.02051173 27.93554721 -168 31 C-168.33 31 -168.66 31 -169 31 C-169.34292334 27.8968174 -169.67247562 24.79234258 -170 21.6875 C-170.09539062 20.82576172 -170.19078125 19.96402344 -170.2890625 19.07617188 C-170.77370542 14.42013813 -171.05216411 9.84271508 -171.02734375 5.15942383 C-171.023396 4.18765701 -171.01944824 3.2158902 -171.01538086 2.2146759 C-171.01030518 1.48383286 -171.00522949 0.75298981 -171 0 C-148.99971662 -0.15378847 -126.99940129 -0.30182479 -104.99903297 -0.4429636 C-94.78449102 -0.50862784 -84.56996817 -0.57619314 -74.35546875 -0.64819336 C-65.45525027 -0.71092467 -56.55501662 -0.77013036 -47.65474641 -0.82505554 C-42.9396654 -0.85427753 -38.22461129 -0.8852967 -33.50957108 -0.92053413 C-29.0757535 -0.95361426 -24.64193119 -0.98199656 -20.20805931 -1.00670624 C-18.57697961 -1.016637 -16.94590951 -1.0283146 -15.31485558 -1.04183006 C-13.09537 -1.05996552 -10.87593603 -1.07193093 -8.65640259 -1.08229065 C-7.41198206 -1.09058679 -6.16756153 -1.09888292 -4.88543129 -1.10743046 C-2 -1 -2 -1 0 0 Z " fill="#D55E34" transform="translate(359,217)"/>
<path d="M0 0 C0.33 0 0.66 0 1 0 C1.02471455 4.9296024 1.04286691 9.85916874 1.05493164 14.78881836 C1.05996113 16.46590808 1.06678548 18.14299342 1.07543945 19.82006836 C1.08756559 22.230317 1.09324215 24.64050768 1.09765625 27.05078125 C1.10281754 27.80087967 1.10797882 28.55097809 1.11329651 29.32380676 C1.11363785 32.48951232 1.00887343 34.97337972 0 38 C-0.20362986 40.6698137 -0.37156668 43.32668419 -0.5 46 C-0.86486486 53.59459459 -0.86486486 53.59459459 -2 57 C-2.22797562 59.73289293 -2.41668187 62.45042204 -2.5625 65.1875 C-2.60568359 65.93708984 -2.64886719 66.68667969 -2.69335938 67.45898438 C-2.79922685 69.30578375 -2.9000976 71.15286834 -3 73 C-3.66 73 -4.32 73 -5 73 C-5.495 73.99 -5.495 73.99 -6 75 C-5.33779811 58.88977159 -3.90865058 42.86616197 -2.4375 26.8125 C-2.2008465 24.20120134 -1.96451612 21.58987338 -1.72851562 18.97851562 C-1.15606219 12.65200164 -0.57964536 6.32585889 0 0 Z " fill="#EA976F" transform="translate(346,323)"/>
<path d="M0 0 C5.61 0 11.22 0 17 0 C17.22571564 16.47724167 16.8549622 32.6200213 15 49 C14.34 49 13.68 49 13 49 C13.02320313 49.68707031 13.04640625 50.37414062 13.0703125 51.08203125 C13.09738281 52.43361328 13.09738281 52.43361328 13.125 53.8125 C13.15980469 55.15248047 13.15980469 55.15248047 13.1953125 56.51953125 C13 59 13 59 11 62 C11.43388925 48.98332252 12.35214719 36.03280492 13.5 23.0625 C13.56571198 22.31212463 13.63142395 21.56174927 13.6991272 20.78863525 C13.8900001 18.62051104 14.08475698 16.45277773 14.28125 14.28515625 C14.39533203 13.02582275 14.50941406 11.76648926 14.62695312 10.46899414 C14.9679608 7.29793523 15.47567544 4.14594733 16 1 C10.72 1 5.44 1 0 1 C0 0.67 0 0.34 0 0 Z " fill="#EB9873" transform="translate(336,261)"/>
<path d="M0 0 C0.33 0 0.66 0 1 0 C1.77098466 7.98131708 2.5363484 15.96314707 3.2950964 23.9456358 C3.64781375 27.65468765 4.00226036 31.36355498 4.36108398 35.07202148 C5.96878443 51.70089476 7.45780997 68.29458909 8 85 C7.34 85 6.68 85 6 85 C5.93941406 83.95199219 5.87882813 82.90398437 5.81640625 81.82421875 C5.73198262 80.44529952 5.64733553 79.06639395 5.5625 77.6875 C5.52318359 76.99720703 5.48386719 76.30691406 5.44335938 75.59570312 C5.25072585 72.52838465 4.97677283 69.93031848 4 67 C3.91856145 65.37280518 3.8924698 63.74248281 3.90234375 62.11328125 C3.90556641 61.17548828 3.90878906 60.23769531 3.91210938 59.27148438 C3.92048828 58.29501953 3.92886719 57.31855469 3.9375 56.3125 C3.94201172 55.32443359 3.94652344 54.33636719 3.95117188 53.31835938 C3.96295697 50.87884526 3.97940989 48.43945311 4 46 C3.34 46 2.68 46 2 46 C1.97494385 45.34926514 1.9498877 44.69853027 1.92407227 44.02807617 C1.80806298 41.08101954 1.68535885 38.1342787 1.5625 35.1875 C1.52318359 34.16333984 1.48386719 33.13917969 1.44335938 32.08398438 C1.40146484 31.10107422 1.35957031 30.11816406 1.31640625 29.10546875 C1.26141968 27.74651489 1.26141968 27.74651489 1.20532227 26.36010742 C1.0791795 23.84951218 1.0791795 23.84951218 0 21 C-0.08143855 19.37280518 -0.1075302 17.74248281 -0.09765625 16.11328125 C-0.09443359 15.17548828 -0.09121094 14.23769531 -0.08789062 13.27148438 C-0.07532227 11.80678711 -0.07532227 11.80678711 -0.0625 10.3125 C-0.05798828 9.32443359 -0.05347656 8.33636719 -0.04882812 7.31835938 C-0.03704303 4.87884526 -0.02059011 2.43945311 0 0 Z " fill="#D4694D" transform="translate(139,181)"/>
<path d="M0 0 C0.33 0 0.66 0 1 0 C1.04898438 0.556875 1.09796875 1.11375 1.1484375 1.6875 C1.22320312 2.450625 1.29796875 3.21375 1.375 4 C1.44460937 4.7425 1.51421875 5.485 1.5859375 6.25 C2.02874536 9.19091258 2.76702196 12.0105211 3.50537109 14.88867188 C4.30837891 18.31631828 4.74871992 21.75260413 5.125 25.25 C5.20991699 26.03415283 5.29483398 26.81830566 5.38232422 27.6262207 C6.52500097 39.70479683 6.16950528 51.88298038 6 64 C5.67 64 5.34 64 5 64 C4.28134508 56.49329117 3.57006583 48.98590898 2.86376953 41.47802734 C2.62293183 38.92708737 2.38044218 36.37630277 2.13623047 33.82568359 C1.78432672 30.14721216 1.43848161 26.46821218 1.09375 22.7890625 C0.92969666 21.09470566 0.92969666 21.09470566 0.7623291 19.36611938 C0.16205261 12.88766249 -0.14394951 6.50594659 0 0 Z " fill="#E7967E" transform="translate(99,396)"/>
<path d="M0 0 C-2.99850613 1.99900409 -5.17562648 2.7524072 -8.6171875 3.71166992 C-9.76848145 4.03507858 -10.91977539 4.35848724 -12.10595703 4.69169617 C-13.34974121 5.03449112 -14.59352539 5.37728607 -15.875 5.73046875 C-17.16396387 6.08849904 -18.45286273 6.4467635 -19.74169922 6.80525208 C-22.44071364 7.55448939 -25.14086102 8.29946865 -27.84179688 9.04174805 C-31.30467046 9.99400774 -34.76387073 10.95893065 -38.22225952 11.92733288 C-40.8817481 12.67013067 -43.54335032 13.4051084 -46.20562744 14.13784218 C-48.10315602 14.66193549 -49.99861663 15.1934974 -51.89404297 15.72514343 C-53.04533691 16.03909561 -54.19663086 16.35304779 -55.3828125 16.67651367 C-56.39746582 16.95694016 -57.41211914 17.23736664 -58.45751953 17.52629089 C-61 18 -61 18 -64 17 C-63.34 17 -62.68 17 -62 17 C-62 16.34 -62 15.68 -62 15 C-58.29488701 13.98780154 -54.58545143 12.992434 -50.875 12 C-49.82828125 11.71382813 -48.7815625 11.42765625 -47.703125 11.1328125 C-46.68476563 10.86210937 -45.66640625 10.59140625 -44.6171875 10.3125 C-43.68503418 10.06113281 -42.75288086 9.80976563 -41.79248047 9.55078125 C-38.7979395 8.96014614 -36.04457826 8.90571629 -33 9 C-33 8.34 -33 7.68 -33 7 C-28.62815739 5.82127743 -24.252066 4.65916165 -19.875 3.5 C-18.6375 3.16613281 -17.4 2.83226562 -16.125 2.48828125 C-14.92617188 2.17246094 -13.72734375 1.85664063 -12.4921875 1.53125 C-11.39245605 1.23798828 -10.29272461 0.94472656 -9.15966797 0.64257812 C-6.01399299 0.00284574 -3.20003054 -0.11805119 0 0 Z " fill="#E4937E" transform="translate(326,479)"/>
<path d="M0 0 C0.33 0 0.66 0 1 0 C1.19138601 8.2335855 0.4452825 16.34675898 -0.3125 24.53515625 C-0.44737269 26.0244179 -0.58188827 27.51371193 -0.71606445 29.0030365 C-1.067615 32.89456575 -1.42396833 36.78564028 -1.78137207 40.67663574 C-2.14624953 44.65850621 -2.5065162 48.64079362 -2.8671875 52.62304688 C-3.57364911 60.41577655 -4.28519229 68.20803098 -5 76 C-5.33 76 -5.66 76 -6 76 C-6.07648167 68.54111127 -5.86900743 61.14366338 -5.4140625 53.69921875 C-5.35221771 52.6603804 -5.29037292 51.62154205 -5.22665405 50.55122375 C-5.09553166 48.36876191 -4.96266632 46.18640414 -4.828125 44.00415039 C-4.62618829 40.70690248 -4.433909 37.4091838 -4.2421875 34.11132812 C-2.49849847 4.99699694 -2.49849847 4.99699694 0 0 Z " fill="#EBA591" transform="translate(425,116)"/>
<path d="M0 0 C0.33 0 0.66 0 1 0 C0.62541635 22.79579484 -0.62107868 45.32303886 -3 68 C-3.33 68 -3.66 68 -4 68 C-4.1123659 56.23903615 -3.99179096 44.50458937 -3.5625 32.75 C-3.52326416 31.60160645 -3.48402832 30.45321289 -3.44360352 29.27001953 C-3.40162842 28.20638184 -3.35965332 27.14274414 -3.31640625 26.046875 C-3.26141968 24.62133301 -3.26141968 24.62133301 -3.20532227 23.16699219 C-3 21 -3 21 -2 20 C-1.78740899 17.57882455 -1.62335401 15.17596222 -1.5 12.75 C-1.27510588 8.42703524 -0.98376029 4.23016923 0 0 Z " fill="#E2866D" transform="translate(404,338)"/>
<path d="M0 0 C14.52 0 29.04 0 44 0 C44 1.98 44 3.96 44 6 C43.34 5.01 42.68 4.02 42 3 C38.95559724 2.66238965 36.1051876 2.51082557 33.0546875 2.48828125 C32.1696756 2.47033005 31.2846637 2.45237885 30.37283325 2.43388367 C27.54027096 2.37961015 24.70787874 2.34583081 21.875 2.3125 C19.95700749 2.27934192 18.03903747 2.24485369 16.12109375 2.20898438 C11.41418494 2.12387407 6.70732806 2.05714463 2 2 C2 7.28 2 12.56 2 18 C1.67 18 1.34 18 1 18 C0.67 12.06 0.34 6.12 0 0 Z " fill="#F4CCC2" transform="translate(153,328)"/>
<path d="M0 0 C2.9241113 3.60248044 3.38507828 5.63356865 3.44140625 10.3125 C3.46783203 11.55386719 3.49425781 12.79523438 3.52148438 14.07421875 C3.53501953 15.36972656 3.54855469 16.66523438 3.5625 18 C3.675533 26.21373169 4.0582679 34.00470547 5.5612793 42.08398438 C6.32073926 47.13183625 6.21064444 52.15744955 6.125 57.25 C6.11597656 58.29285156 6.10695313 59.33570313 6.09765625 60.41015625 C6.07444336 62.94036161 6.04180149 65.47004546 6 68 C5.67 68 5.34 68 5 68 C4.28026624 60.24515801 3.56913688 52.48956026 2.86376953 44.73339844 C2.6232022 42.09910545 2.38072077 39.46498648 2.13623047 36.83105469 C1.78360393 33.02844522 1.43803989 29.22524727 1.09375 25.421875 C0.92969666 23.67738068 0.92969666 23.67738068 0.7623291 21.89764404 C0.10816044 14.5768781 -0.1312415 7.34889884 0 0 Z " fill="#EDAB98" transform="translate(74,114)"/>
<path d="M0 0 C18.15 0 36.3 0 55 0 C54 20 54 20 53 29 C52.67 29 52.34 29 52 29 C51.74763331 26.20876362 51.52286037 23.41947138 51.3125 20.625 C51.23966797 19.85027344 51.16683594 19.07554687 51.09179688 18.27734375 C50.60771396 11.38628112 51.83362533 8.22124888 54 1 C36.18 1 18.36 1 0 1 C0 0.67 0 0.34 0 0 Z " fill="#EC8C67" transform="translate(250,306)"/>
<path d="M0 0 C-3.58149455 2.38766303 -7.17571515 3.29201956 -11.28125 4.3828125 C-12.0911438 4.60194305 -12.9010376 4.82107361 -13.73547363 5.04684448 C-15.4461425 5.50833942 -17.1575492 5.96710677 -18.86962891 6.42333984 C-21.49186226 7.12282923 -24.11126796 7.83221849 -26.73046875 8.54296875 C-28.39307018 8.99017482 -30.05582562 9.43680882 -31.71875 9.8828125 C-32.50318481 10.09527618 -33.28761963 10.30773987 -34.0958252 10.52664185 C-37.14482305 11.33493802 -39.83099153 12 -43 12 C-43 11.01 -43 10.02 -43 9 C-42.24074219 8.87882812 -41.48148437 8.75765625 -40.69921875 8.6328125 C-39.70535156 8.46523438 -38.71148437 8.29765625 -37.6875 8.125 C-36.70136719 7.96257812 -35.71523438 7.80015625 -34.69921875 7.6328125 C-31.79940173 7.11914546 -31.79940173 7.11914546 -29 5 C-26.51953125 4.8046875 -26.51953125 4.8046875 -23.8125 4.875 C-22.91144531 4.89304687 -22.01039063 4.91109375 -21.08203125 4.9296875 C-20.39496094 4.95289063 -19.70789063 4.97609375 -19 5 C-19 4.34 -19 3.68 -19 3 C-17.35 3 -15.7 3 -14 3 C-14 2.34 -14 1.68 -14 1 C-9.27616037 0.34843591 -4.78025483 -0.11950637 0 0 Z " fill="#EDA582" transform="translate(299,364)"/>
<path d="M0 0 C0.33 0 0.66 0 1 0 C1.2170641 12.34853548 0.56691997 24.66798292 0 37 C-3.01213029 38.50606515 -6.11282622 38.12160331 -9.4140625 38.09765625 C-10.14370209 38.0962413 -10.87334167 38.09482635 -11.62509155 38.09336853 C-13.95843585 38.08776531 -16.29168464 38.07521235 -18.625 38.0625 C-20.20572778 38.05748541 -21.78645707 38.05292243 -23.3671875 38.04882812 C-27.24482854 38.03779484 -31.12239807 38.02052811 -35 38 C-35 37.67 -35 37.34 -35 37 C-24.44 37 -13.88 37 -3 37 C-2.3859509 28.93891039 -2.3859509 28.93891039 -1.77368164 20.87768555 C-1.24050749 13.91258665 -0.65533674 6.95468393 0 0 Z " fill="#F5B391" transform="translate(359,179)"/>
<path d="M0 0 C0.33 0 0.66 0 1 0 C0.43687997 17.41788512 -1.21031339 34.67388063 -3 52 C-3.33 52 -3.66 52 -4 52 C-4.23014019 29.67640187 -4.23014019 29.67640187 -3 19 C-2.67 18.67 -2.34 18.34 -2 18 C-1.7889782 15.16292912 -1.62392187 12.34102354 -1.5 9.5 C-1.13513514 1.13513514 -1.13513514 1.13513514 0 0 Z " fill="#EAA490" transform="translate(399,408)"/>
<path d="M0 0 C0.33 0 0.66 0 1 0 C1.13277344 0.98742187 1.26554688 1.97484375 1.40234375 2.9921875 C1.57894531 4.27351563 1.75554687 5.55484375 1.9375 6.875 C2.11152344 8.15117187 2.28554687 9.42734375 2.46484375 10.7421875 C2.81433227 13.87559454 2.81433227 13.87559454 4 16 C4.14004753 17.51074473 4.22556073 19.02676901 4.28125 20.54296875 C4.33732422 21.90711914 4.33732422 21.90711914 4.39453125 23.29882812 C4.42933594 24.25208984 4.46414062 25.20535156 4.5 26.1875 C4.72382645 32.19350974 5.01513675 38.06619893 6 44 C6.99 44 7.98 44 9 44 C9 44.66 9 45.32 9 46 C10.65 46 12.3 46 14 46 C14.33 46.66 14.66 47.32 15 48 C11.7 47.34 8.4 46.68 5 46 C3.29516714 41.44865019 2.57477448 37.27630609 2.1484375 32.44140625 C2.08467926 31.73402817 2.02092102 31.02665009 1.95523071 30.2978363 C1.82253459 28.80977921 1.69330663 27.32140915 1.56738281 25.83276367 C1.37580314 23.57197763 1.17321241 21.31238807 0.96875 19.05273438 C0.40709064 12.68645758 -0.07759912 6.39778854 0 0 Z " fill="#F9D4C8" transform="translate(155,353)"/>
<path d="M0 0 C6.58787787 -0.35114992 11.81664975 0.85109977 18.0625 2.875 C19.78246398 3.41434354 21.50251449 3.95341124 23.22265625 4.4921875 C24.43719482 4.87842285 24.43719482 4.87842285 25.67626953 5.27246094 C28.76879465 6.24070267 31.8791882 7.12769711 35 8 C35 8.66 35 9.32 35 10 C27.15025111 8.58993195 19.53889812 6.56723132 11.875 4.375 C10.72773437 4.05015625 9.58046875 3.7253125 8.3984375 3.390625 C5.59797033 2.5971593 2.79854224 1.80022316 0 1 C0 0.67 0 0.34 0 0 Z " fill="#E49079" transform="translate(105,460)"/>
<path d="M0 0 C0.639375 0.165 1.27875 0.33 1.9375 0.5 C5.97586652 1.15932515 9.91807258 1.08003779 14 1 C9.23052843 3.56306291 4.13557736 4.76680361 -1.0625 6.1875 C-2.06861328 6.47302734 -3.07472656 6.75855469 -4.11132812 7.05273438 C-5.07619141 7.31763672 -6.04105469 7.58253906 -7.03515625 7.85546875 C-7.9156665 8.09934326 -8.79617676 8.34321777 -9.70336914 8.59448242 C-12 9 -12 9 -15 8 C-14.34 8 -13.68 8 -13 8 C-13 7.34 -13 6.68 -13 6 C-10.36 6 -7.72 6 -5 6 C-5 5.34 -5 4.68 -5 4 C-4.01 4 -3.02 4 -2 4 C-1.34 2.68 -0.68 1.36 0 0 Z " fill="#E4846B" transform="translate(381,459)"/>
<path d="M0 0 C0.33 0 0.66 0 1 0 C1.43214646 4.41034579 1.85919878 8.82114778 2.28173828 13.23242188 C2.42588018 14.72994981 2.57136199 16.22734945 2.71826172 17.72460938 C2.93037111 19.88899093 3.13749923 22.05380321 3.34375 24.21875 C3.53227539 26.1668457 3.53227539 26.1668457 3.72460938 28.15429688 C4.00930908 32.12999702 4.04650122 36.01639567 4 40 C3.67 40 3.34 40 3 40 C1.39891052 34.99496824 0.61061398 30.3229051 0.375 25.0625 C0.33705322 24.33683838 0.29910645 23.61117676 0.26000977 22.86352539 C-0.10269518 15.24343164 -0.09237805 7.62632106 0 0 Z " fill="#D36446" transform="translate(152,328)"/>
<path d="M0 0 C0.99 0.495 0.99 0.495 2 1 C2.02505615 1.56509277 2.0501123 2.13018555 2.07592773 2.71240234 C2.19179956 5.26683742 2.31456537 7.8208955 2.4375 10.375 C2.47681641 11.26445312 2.51613281 12.15390625 2.55664062 13.0703125 C2.59853516 13.92109375 2.64042969 14.771875 2.68359375 15.6484375 C2.72025146 16.43395996 2.75690918 17.21948242 2.79467773 18.02880859 C2.890891 20.07523496 2.890891 20.07523496 4 22 C4.08400529 23.59447464 4.10727467 25.19240545 4.09765625 26.7890625 C4.09282227 28.20058594 4.09282227 28.20058594 4.08789062 29.640625 C4.07951172 30.62546875 4.07113281 31.6103125 4.0625 32.625 C4.05798828 33.61757812 4.05347656 34.61015625 4.04882812 35.6328125 C4.03702145 38.0886016 4.020554 40.54427104 4 43 C3.67 43 3.34 43 3 43 C2.56590098 38.6447707 2.13898498 34.28890996 1.71826172 29.93237305 C1.57465064 28.45529938 1.42919335 26.97840386 1.28173828 25.50170898 C0.43307081 16.98905463 -0.24829357 8.56727753 0 0 Z " fill="#FADBD2" transform="translate(141,191)"/>
<path d="M0 0 C-4.81572971 1.94405482 -9.6312059 3.87960219 -14.5 5.6875 C-17.7917209 6.85224179 -17.7917209 6.85224179 -20 8 C-22.04055005 8.07065617 -24.08334257 8.08421976 -26.125 8.0625 C-27.22070312 8.05347656 -28.31640625 8.04445313 -29.4453125 8.03515625 C-30.70988281 8.01775391 -30.70988281 8.01775391 -32 8 C-27.30148294 4.86765529 -21.96648232 3.82488765 -16.5625 2.3125 C-15.41716797 1.97927734 -14.27183594 1.64605469 -13.09179688 1.30273438 C-11.99029297 0.99271484 -10.88878906 0.68269531 -9.75390625 0.36328125 C-8.74658447 0.07751221 -7.7392627 -0.20825684 -6.70141602 -0.50268555 C-4.01587678 -0.99707718 -2.5406499 -0.90637562 0 0 Z " fill="#EB9A73" transform="translate(293,412)"/>
<path d="M0 0 C5.28 0.33 10.56 0.66 16 1 C16 1.66 16 2.32 16 3 C17.27875 3.144375 18.5575 3.28875 19.875 3.4375 C22.25692894 3.70642746 23.84452691 3.92226346 26 5 C26 5.66 26 6.32 26 7 C19.93629658 6.39502042 14.34485758 5.1366972 8.5 3.4375 C7.67757812 3.20353516 6.85515625 2.96957031 6.0078125 2.72851562 C4.00370942 2.15757928 2.00163409 1.57953295 0 1 C0 0.67 0 0.34 0 0 Z " fill="#E4917A" transform="translate(140,470)"/>
<path d="M0 0 C0.33 1.32 0.66 2.64 1 4 C1.66 4 2.32 4 3 4 C4.19388403 29.76376337 4.19388403 29.76376337 4 42 C3.67 42 3.34 42 3 42 C2.56952889 36.98317981 2.14238595 31.96609122 1.71826172 26.94873047 C1.57365836 25.2435754 1.42816189 23.53849582 1.28173828 21.83349609 C1.07086459 19.37617203 0.86325373 16.91859023 0.65625 14.4609375 C0.59062866 13.70444916 0.52500732 12.94796082 0.45739746 12.16854858 C0.11811372 8.09970366 -0.06776349 4.08275056 0 0 Z " fill="#F9D2C6" transform="translate(146,252)"/>
<path d="M0 0 C-0.66 0 -1.32 0 -2 0 C-2 0.66 -2 1.32 -2 2 C-4.38771735 4.38771735 -5.22854514 4.31289224 -8.5 4.5625 C-11.87644563 4.81036169 -11.87644563 4.81036169 -15 6 C-16.54023996 6.06950541 -18.08334988 6.08452357 -19.625 6.0625 C-20.85089844 6.04896484 -20.85089844 6.04896484 -22.1015625 6.03515625 C-23.04128906 6.01775391 -23.04128906 6.01775391 -24 6 C-20.17661205 3.4510747 -16.39653985 2.52569614 -12 1.3125 C-11.18015625 1.07466797 -10.3603125 0.83683594 -9.515625 0.59179688 C-8.72671875 0.37201172 -7.9378125 0.15222656 -7.125 -0.07421875 C-6.40570313 -0.27619873 -5.68640625 -0.47817871 -4.9453125 -0.6862793 C-3 -1 -3 -1 0 0 Z " fill="#ED9E7B" transform="translate(339,399)"/>
<path d="M0 0 C2.61289776 3.00166801 3.36930244 4.79627311 3.29296875 8.765625 C3.28330078 9.65507813 3.27363281 10.54453125 3.26367188 11.4609375 C3.23853516 12.38132812 3.21339844 13.30171875 3.1875 14.25 C3.16719727 15.65378906 3.16719727 15.65378906 3.14648438 17.0859375 C3.11119954 19.39121327 3.06190281 21.6953106 3 24 C-1.32633033 19.67366967 -0.05564632 11.15950626 -0.0625 5.375 C-0.046704 3.58328184 -0.02770475 1.79157359 0 0 Z " fill="#E48E79" transform="translate(74,114)"/>
<path d="M0 0 C0.33 0 0.66 0 1 0 C1 8.58 1 17.16 1 26 C0.34 26 -0.32 26 -1 26 C-1.33 26.66 -1.66 27.32 -2 28 C-1.8575483 25.02063784 -1.71112006 22.0415558 -1.5625 19.0625 C-1.52318359 18.23169922 -1.48386719 17.40089844 -1.44335938 16.54492188 C-1.16269231 10.99634986 -0.66239935 5.51628363 0 0 Z " fill="#EFAB87" transform="translate(342,370)"/>
<path d="M0 0 C1.258125 -0.020625 2.51625 -0.04125 3.8125 -0.0625 C4.52019531 -0.07410156 5.22789062 -0.08570313 5.95703125 -0.09765625 C8 0 8 0 11 1 C11 1.66 11 2.32 11 3 C12.19625 2.938125 13.3925 2.87625 14.625 2.8125 C18.73497595 2.79056063 21.4478261 3.86869566 25 6 C21.57032105 7.16983989 19.45660565 6.81325413 16.015625 5.78515625 C15.08105469 5.51123047 14.14648438 5.23730469 13.18359375 4.95507812 C12.21550781 4.66052734 11.24742187 4.36597656 10.25 4.0625 C9.26644531 3.77181641 8.28289062 3.48113281 7.26953125 3.18164062 C4.84356612 2.46327231 2.42072642 1.73579178 0 1 C0 0.67 0 0.34 0 0 Z " fill="#EAA391" transform="translate(213,490)"/>
<path d="M0 0 C0.33 0 0.66 0 1 0 C0.85891477 3.14606461 0.71123864 6.29178868 0.5625 9.4375 C0.50352539 10.75524414 0.50352539 10.75524414 0.44335938 12.09960938 C0.17137332 17.76947262 -0.31777645 23.36448953 -1 29 C-1.33 29 -1.66 29 -2 29 C-3.76595745 9.65957447 -3.76595745 9.65957447 0 0 Z " fill="#F0B094" transform="translate(304,306)"/>
<path d="M0 0 C-3.80773693 2.53849129 -7.56055664 3.47302797 -11.9375 4.6875 C-12.74896484 4.92533203 -13.56042969 5.16316406 -14.39648438 5.40820312 C-15.18216797 5.62798828 -15.96785156 5.84777344 -16.77734375 6.07421875 C-17.49140381 6.27619873 -18.20546387 6.47817871 -18.94116211 6.6862793 C-21.25122486 7.03828103 -22.79230597 6.70940527 -25 6 C-23.02 5.67 -21.04 5.34 -19 5 C-19 4.34 -19 3.68 -19 3 C-17.35 3 -15.7 3 -14 3 C-14 2.34 -14 1.68 -14 1 C-9.27616037 0.34843591 -4.78025483 -0.11950637 0 0 Z " fill="#EDA682" transform="translate(299,364)"/>
<path d="M0 0 C0.33 0 0.66 0 1 0 C1.11455246 6.92326453 0.6746729 13.67445441 0 20.5625 C-0.09539062 21.57119141 -0.19078125 22.57988281 -0.2890625 23.61914062 C-0.52230129 26.07980981 -0.75934891 28.5400466 -1 31 C-1.33 31 -1.66 31 -2 31 C-2.05864392 27.33340185 -2.09381108 23.66692636 -2.125 20 C-2.14175781 18.97003906 -2.15851563 17.94007813 -2.17578125 16.87890625 C-2.21401983 10.87544845 -1.75493524 5.7484493 0 0 Z " fill="#EEB3A1" transform="translate(418,196)"/>
<path d="M0 0 C0.33 0 0.66 0 1 0 C1.33 1.65 1.66 3.3 2 5 C13.385 7.97 13.385 7.97 25 11 C25 11.33 25 11.66 25 12 C19.32535284 11.57384073 14.40266898 10.83920646 9 9 C6.00869646 8.5550127 3.01302116 8.2544329 0 8 C0 5.36 0 2.72 0 0 Z " fill="#D36349" transform="translate(158,393)"/>
<path d="M0 0 C4.28973106 -0.07149552 7.85066638 -0.03733341 12 1 C13.33599921 0.67751743 14.66893378 0.34227417 16 0 C18.33300933 -0.03888349 20.66709801 -0.0448635 23 0 C17.89840449 3.40106367 12.99393773 3.43244853 7 3 C4.57182642 2.49043803 2.35528611 1.80179953 0 1 C0 0.67 0 0.34 0 0 Z " fill="#E89882" transform="translate(238,497)"/>
<path d="M0 0 C5.61 0.66 11.22 1.32 17 2 C17 2.66 17 3.32 17 4 C19.97 4 22.94 4 26 4 C26 4.33 26 4.66 26 5 C16.54393261 5.55714963 8.8850907 4.25738186 0 1 C0 0.67 0 0.34 0 0 Z " fill="#D86244" transform="translate(230,371)"/>
<path d="M0 0 C1.77111844 0.47811177 3.54188483 0.9575278 5.3125 1.4375 C6.29863281 1.70433594 7.28476563 1.97117187 8.30078125 2.24609375 C10.21517526 2.78079425 12.11433615 3.37144538 14 4 C14 4.66 14 5.32 14 6 C14.99 6.33 15.98 6.66 17 7 C10.80759538 6.31195504 4.98044406 4.71951285 -1 3 C-0.67 2.01 -0.34 1.02 0 0 Z " fill="#E7917B" transform="translate(174,477)"/>
<path d="M0 0 C0.66 0.33 1.32 0.66 2 1 C2.02708567 2.60407328 2.04643483 4.2082785 2.0625 5.8125 C2.07410156 6.70582031 2.08570313 7.59914063 2.09765625 8.51953125 C2 11 2 11 1 14 C0.34 14 -0.32 14 -1 14 C-1.02694851 12.04174127 -1.04637218 10.08337774 -1.0625 8.125 C-1.07410156 7.03445313 -1.08570313 5.94390625 -1.09765625 4.8203125 C-1 2 -1 2 0 0 Z " fill="#E07D60" transform="translate(408,293)"/>
<path d="M0 0 C0.33 0 0.66 0 1 0 C1.02698189 1.62490954 1.04638757 3.24994633 1.0625 4.875 C1.07410156 5.77992187 1.08570313 6.68484375 1.09765625 7.6171875 C1 10 1 10 0 12 C-0.22622081 13.70363822 -0.40888473 15.41328701 -0.5625 17.125 C-0.64628906 18.03507812 -0.73007812 18.94515625 -0.81640625 19.8828125 C-0.87699219 20.58148438 -0.93757813 21.28015625 -1 22 C-1.33 22 -1.66 22 -2 22 C-2.33 16.72 -2.66 11.44 -3 6 C-2.01 6 -1.02 6 0 6 C0 4.02 0 2.04 0 0 Z " fill="#D95A3A" transform="translate(425,106)"/>
<path d="M0 0 C-3.10423557 1.68054361 -6.16498934 2.73989499 -9.5625 3.6875 C-10.51253906 3.95949219 -11.46257812 4.23148437 -12.44140625 4.51171875 C-15 5 -15 5 -18 4 C-12.14666068 0.04038811 -6.93861074 -0.13877221 0 0 Z " fill="#E6937C" transform="translate(366,468)"/>
<path d="M0 0 C2.54242904 0.62201946 5.08391875 1.24751759 7.625 1.875 C8.33785156 2.04902344 9.05070313 2.22304688 9.78515625 2.40234375 C13.92796216 3.42854338 17.96726678 4.58790729 22 6 C18.21668094 7.37827516 15.40906141 6.62579417 11.5625 5.6875 C10.45003906 5.42324219 9.33757812 5.15898437 8.19140625 4.88671875 C5.35110819 4.09755393 2.70696229 3.15868105 0 2 C0 1.34 0 0.68 0 0 Z " fill="#D16140" transform="translate(184,405)"/>
<path d="M0 0 C-6.25172386 2.86964374 -11.09647445 4.51137226 -18 4 C-15.06836714 2.44596314 -12.16634776 1.30198368 -9 0.3125 C-8.154375 0.04050781 -7.30875 -0.23148437 -6.4375 -0.51171875 C-3.8767932 -1.02468085 -2.44171002 -0.84216387 0 0 Z " fill="#F0B398" transform="translate(293,412)"/>
<path d="M0 0 C-3.0469629 1.69433918 -5.82821466 2.49467112 -9.25 3.125 C-10.58804687 3.37636719 -10.58804687 3.37636719 -11.953125 3.6328125 C-12.62859375 3.75398438 -13.3040625 3.87515625 -14 4 C-13.34 3.67 -12.68 3.34 -12 3 C-12 2.34 -12 1.68 -12 1 C-8.0186217 -0.3271261 -4.14954773 -0.06915913 0 0 Z " fill="#E89982" transform="translate(348,473)"/>
<path d="M0 0 C1.258125 -0.020625 2.51625 -0.04125 3.8125 -0.0625 C4.52019531 -0.07410156 5.22789063 -0.08570313 5.95703125 -0.09765625 C8 0 8 0 11 1 C11 1.66 11 2.32 11 3 C11.99 3.33 12.98 3.66 14 4 C9.13103697 3.40380045 4.67209049 2.43023178 0 1 C0 0.67 0 0.34 0 0 Z " fill="#E99A85" transform="translate(105,460)"/>
<path d="M0 0 C7.50769231 0.61538462 7.50769231 0.61538462 10 2.5625 C10.33 3.036875 10.66 3.51125 11 4 C3.375 3.125 3.375 3.125 0 2 C0 1.34 0 0.68 0 0 Z " fill="#E59D88" transform="translate(227,493)"/>
<path d="M0 0 C0 0.33 0 0.66 0 1 C-3.63 1 -7.26 1 -11 1 C-11 0.34 -11 -0.32 -11 -1 C-6.58937864 -2.0257259 -4.07369424 -2.03684712 0 0 Z " fill="#E15233" transform="translate(151,469)"/>
<path d="M0 0 C0.66 0.33 1.32 0.66 2 1 C2 1.66 2 2.32 2 3 C1.01 3 0.02 3 -1 3 C-1 5.97 -1 8.94 -1 12 C-0.01 12.33 0.98 12.66 2 13 C0.68 13 -0.64 13 -2 13 C-2.05391993 11.20866022 -2.09275571 9.41686101 -2.125 7.625 C-2.14820312 6.62726563 -2.17140625 5.62953125 -2.1953125 4.6015625 C-2 2 -2 2 0 0 Z " fill="#D55633" transform="translate(107,447)"/>
<path d="M0 0 C1.45742463 -0.08096803 2.91612807 -0.13917774 4.375 -0.1875 C5.18710938 -0.22230469 5.99921875 -0.25710938 6.8359375 -0.29296875 C7.55007812 -0.19628906 8.26421875 -0.09960938 9 0 C9.66 0.99 10.32 1.98 11 3 C9.741875 2.87625 8.48375 2.7525 7.1875 2.625 C6.12595703 2.52058594 6.12595703 2.52058594 5.04296875 2.4140625 C3 2 3 2 0 0 Z " fill="#E89E88" transform="translate(202,487)"/>
<path d="M0 0 C-0.99 0.33 -1.98 0.66 -3 1 C-3 1.66 -3 2.32 -3 3 C-5.31 3 -7.62 3 -10 3 C-7.29536552 -0.8183075 -4.37912428 -0.24787496 0 0 Z " fill="#E48559" transform="translate(277,369)"/>
<path d="M0 0 C-3.08888522 2.05925681 -3.70935927 2.2390374 -7.1875 2.125 C-9.0746875 2.063125 -9.0746875 2.063125 -11 2 C-6.98764085 -0.6749061 -4.6342454 -1.48957888 0 0 Z " fill="#F1B596" transform="translate(304,409)"/>
</svg>
