<?xml version="1.0" encoding="UTF-8"?>
<svg version="1.1" xmlns="http://www.w3.org/2000/svg" width="225" height="225">
<path d="M0 0 C21.45 0 42.9 0 65 0 C65 21.45 65 42.9 65 65 C43.55 65 22.1 65 0 65 C-0.4375 36.1875 -0.4375 36.1875 -0.56811523 27.09448242 C-0.60623162 24.72313845 -0.64470019 22.3518001 -0.68359375 19.98046875 C-0.7083075 18.12500427 -0.7083075 18.12500427 -0.73352051 16.23205566 C-0.75370239 15.05485962 -0.77388428 13.87766357 -0.79467773 12.66479492 C-0.81022202 11.64109299 -0.8257663 10.61739105 -0.84178162 9.56266785 C-0.89715622 6.87992024 -0.89715622 6.87992024 -2 4 C-1.34 2.68 -0.68 1.36 0 0 Z " fill="#F04F22" transform="translate(45,45)"/>
<path d="M0 0 C1.88700623 -0.00472824 1.88700623 -0.00472824 3.81213379 -0.009552 C5.19571975 -0.00776222 6.5793054 -0.00571127 7.96289062 -0.00341797 C9.37154151 -0.00409106 10.78019229 -0.00506112 12.18884277 -0.00631714 C15.14462385 -0.00779389 18.10037476 -0.0056403 21.05615234 -0.00097656 C24.85288647 0.00472073 28.64954991 0.0014416 32.44628143 -0.00454903 C35.35610491 -0.00815526 38.2659115 -0.00701577 41.17573547 -0.00442123 C42.57603463 -0.00375214 43.9763353 -0.00457979 45.37663269 -0.00690079 C47.33051526 -0.00942829 49.28440318 -0.0048958 51.23828125 0 C52.35223267 0.00079559 53.46618408 0.00159119 54.6138916 0.00241089 C57.11914062 0.12939453 57.11914062 0.12939453 58.11914062 1.12939453 C58.21319204 3.12371183 58.23657312 5.12138996 58.23266602 7.11791992 C58.23255272 9.03979881 58.23255272 9.03979881 58.23243713 11.00050354 C58.22732972 12.40935301 58.22211371 13.81820209 58.21679688 15.22705078 C58.21493265 16.66051687 58.21350877 18.0939836 58.21250916 19.52745056 C58.20868435 23.3069941 58.19885439 27.08649943 58.18780518 30.86602783 C58.17759025 34.72008751 58.17301136 38.57415335 58.16796875 42.42822266 C58.15723208 49.9952974 58.14015612 57.56234062 58.11914062 65.12939453 C49.93960213 65.28310659 41.75999035 65.4312881 33.58022499 65.57235813 C29.78226857 65.63803346 25.98436648 65.70563241 22.18652344 65.77758789 C18.52320522 65.84692449 14.85983055 65.91125992 11.19636154 65.97208977 C9.7968564 65.99621435 8.39738142 66.02215826 6.99794388 66.04992867 C5.04184899 66.08843826 3.0856201 66.11995097 1.12939453 66.15112305 C0.01464752 66.17110855 -1.10009949 66.19109406 -2.24862671 66.21168518 C-4.88085938 66.12939453 -4.88085938 66.12939453 -6.88085938 65.12939453 C-6.90398622 56.80210506 -6.9217762 48.4748289 -6.93267155 40.1475153 C-6.93789963 36.28119336 -6.94499591 32.41489332 -6.95629883 28.54858398 C-6.96713037 24.82036052 -6.97313677 21.09215819 -6.97573662 17.36392021 C-6.97759039 15.93849797 -6.98121008 14.51307694 -6.98658943 13.08766365 C-6.9938033 11.09776045 -6.99426746 9.10783619 -6.99438477 7.11791992 C-6.99660538 5.98318741 -6.99882599 4.8484549 -7.00111389 3.67933655 C-6.7759608 -1.09493167 -4.19249385 0.00299431 0 0 Z " fill="#01A3EE" transform="translate(51.880859375,114.87060546875)"/>
<path d="M0 0 C21.12 0 42.24 0 64 0 C64 21.45 64 42.9 64 65 C42.55 65 21.1 65 -1 65 C-1.020625 54.64625 -1.04125 44.2925 -1.0625 33.625 C-1.071604 30.35416504 -1.08070801 27.08333008 -1.09008789 23.71337891 C-1.09300721 21.13444052 -1.09555573 18.55550168 -1.09765625 15.9765625 C-1.10026962 15.30418549 -1.102883 14.63180847 -1.10557556 13.9390564 C-1.11287371 11.9628006 -1.11333863 9.98652317 -1.11352539 8.01025391 C-1.115746 6.8955069 -1.11796661 5.78075989 -1.12025452 4.63223267 C-1 2 -1 2 0 0 Z " fill="#FDBA0B" transform="translate(116,115)"/>
<path d="M0 0 C21.12 0 42.24 0 64 0 C64 21.45 64 42.9 64 65 C42.88 65 21.76 65 0 65 C-0.893134 61.42746401 -1.12659345 58.79930805 -1.12939453 55.16162109 C-1.13254669 53.98715424 -1.13569885 52.81268738 -1.13894653 51.60263062 C-1.1369223 50.33899689 -1.13489807 49.07536316 -1.1328125 47.7734375 C-1.13376923 46.47427399 -1.13472595 45.17511047 -1.13571167 43.83657837 C-1.13718379 41.09123543 -1.13504901 38.34592508 -1.13037109 35.60058594 C-1.12466282 32.07868048 -1.1279628 28.55685104 -1.13394356 25.03494835 C-1.13841998 21.67693859 -1.13528904 18.31894943 -1.1328125 14.9609375 C-1.13483673 13.69325531 -1.13686096 12.42557312 -1.13894653 11.11947632 C-1.13421829 9.36723251 -1.13421829 9.36723251 -1.12939453 7.57958984 C-1.12859894 6.54796722 -1.12780334 5.5163446 -1.12698364 4.45346069 C-1 2 -1 2 0 0 Z " fill="#82BB09" transform="translate(116,45)"/>
<path d="M0 0 C1.88700623 -0.00472824 1.88700623 -0.00472824 3.81213379 -0.009552 C5.19571975 -0.00776222 6.5793054 -0.00571127 7.96289062 -0.00341797 C9.37154151 -0.00409106 10.78019229 -0.00506112 12.18884277 -0.00631714 C15.14462385 -0.00779389 18.10037476 -0.0056403 21.05615234 -0.00097656 C24.85288647 0.00472073 28.64954991 0.0014416 32.44628143 -0.00454903 C35.35610491 -0.00815526 38.2659115 -0.00701577 41.17573547 -0.00442123 C42.57603463 -0.00375214 43.9763353 -0.00457979 45.37663269 -0.00690079 C47.33051526 -0.00942829 49.28440318 -0.0048958 51.23828125 0 C52.35223267 0.00079559 53.46618408 0.00159119 54.6138916 0.00241089 C57.11914062 0.12939453 57.11914062 0.12939453 58.11914062 1.12939453 C58.21319204 3.12371183 58.23657312 5.12138996 58.23266602 7.11791992 C58.23255272 9.03979881 58.23255272 9.03979881 58.23243713 11.00050354 C58.22732972 12.40935301 58.22211371 13.81820209 58.21679688 15.22705078 C58.21493265 16.66051687 58.21350877 18.0939836 58.21250916 19.52745056 C58.20868435 23.3069941 58.19885439 27.08649943 58.18780518 30.86602783 C58.17759025 34.72008751 58.17301136 38.57415335 58.16796875 42.42822266 C58.15723208 49.9952974 58.14015612 57.56234062 58.11914062 65.12939453 C57.12914063 64.63439453 57.12914063 64.63439453 56.11914062 64.12939453 C56.11914062 43.66939453 56.11914062 23.20939453 56.11914062 2.12939453 C35.98914063 2.12939453 15.85914062 2.12939453 -4.88085938 2.12939453 C-4.88085938 22.58939453 -4.88085938 43.04939453 -4.88085938 64.12939453 C-5.87085938 64.62439453 -5.87085938 64.62439453 -6.88085938 65.12939453 C-6.90398622 56.80210506 -6.9217762 48.4748289 -6.93267155 40.1475153 C-6.93789963 36.28119336 -6.94499591 32.41489332 -6.95629883 28.54858398 C-6.96713037 24.82036052 -6.97313677 21.09215819 -6.97573662 17.36392021 C-6.97759039 15.93849797 -6.98121008 14.51307694 -6.98658943 13.08766365 C-6.9938033 11.09776045 -6.99426746 9.10783619 -6.99438477 7.11791992 C-6.99660538 5.98318741 -6.99882599 4.8484549 -7.00111389 3.67933655 C-6.7759608 -1.09493167 -4.19249385 0.00299431 0 0 Z " fill="#65BCE8" transform="translate(51.880859375,114.87060546875)"/>
<path d="M0 0 C0.33 0 0.66 0 1 0 C1 21.12 1 42.24 1 64 C21.79 64 42.58 64 64 64 C64 43.21 64 22.42 64 1 C44.53 1 25.06 1 5 1 C5 0.67 5 0.34 5 0 C24.8 0 44.6 0 65 0 C65 21.45 65 42.9 65 65 C43.55 65 22.1 65 0 65 C-0.4375 36.1875 -0.4375 36.1875 -0.56811523 27.09448242 C-0.60623162 24.72313845 -0.64470019 22.3518001 -0.68359375 19.98046875 C-0.7083075 18.12500427 -0.7083075 18.12500427 -0.73352051 16.23205566 C-0.75370239 15.05485962 -0.77388428 13.87766357 -0.79467773 12.66479492 C-0.81022202 11.64109299 -0.8257663 10.61739105 -0.84178162 9.56266785 C-0.89715622 6.87992024 -0.89715622 6.87992024 -2 4 C-1.0625 1.8125 -1.0625 1.8125 0 0 Z " fill="#F8A38C" transform="translate(45,45)"/>
<path d="M0 0 C0.33 0 0.66 0 1 0 C1 21.45 1 42.9 1 65 C0.67 65 0.34 65 0 65 C-0.0154612 63.92005013 -0.0154612 63.92005013 -0.03123474 62.81828308 C-0.12919135 56.03499673 -0.23170327 49.25179289 -0.33933926 42.46865368 C-0.39451576 38.9813316 -0.44792726 35.49400105 -0.49731445 32.0065918 C-0.55416255 27.99779153 -0.61867048 23.98914643 -0.68359375 19.98046875 C-0.70030624 18.72727341 -0.71701874 17.47407806 -0.73423767 16.1829071 C-0.75418289 15.02193008 -0.77412811 13.86095306 -0.79467773 12.66479492 C-0.81022202 11.64109299 -0.8257663 10.61739105 -0.84178162 9.56266785 C-0.89715622 6.87992024 -0.89715622 6.87992024 -2 4 C-1.0625 1.8125 -1.0625 1.8125 0 0 Z " fill="#FEC5B1" transform="translate(45,45)"/>
<path d="M0 0 C0.33 0 0.66 0 1 0 C1 5.28 1 10.56 1 16 C0.67 16 0.34 16 0 16 C-0.06058594 15.38511719 -0.12117188 14.77023438 -0.18359375 14.13671875 C-0.26738281 13.32847656 -0.35117187 12.52023438 -0.4375 11.6875 C-0.51871094 10.88699219 -0.59992187 10.08648437 -0.68359375 9.26171875 C-0.95265693 6.83912821 -0.95265693 6.83912821 -2 4 C-1.0625 1.8125 -1.0625 1.8125 0 0 Z " fill="#FED6C9" transform="translate(45,45)"/>
</svg>
