<?xml version="1.0" encoding="UTF-8"?>
<svg version="1.1" xmlns="http://www.w3.org/2000/svg" width="400" height="400">
<path d="M0 0 C0.66 0 1.32 0 2 0 C3.27758789 1.38598633 3.27758789 1.38598633 4.72265625 3.33203125 C5.25640869 4.04238525 5.79016113 4.75273926 6.34008789 5.48461914 C6.90848389 6.25281982 7.47687988 7.02102051 8.0625 7.8125 C9.24851685 9.39173994 10.43601785 10.96986637 11.625 12.546875 C12.20507812 13.31708984 12.78515625 14.08730469 13.3828125 14.88085938 C15.37882365 17.49640539 17.45479227 20.0363503 19.5625 22.5625 C28.56054494 33.46270518 36.99815785 44.70061806 44 57 C44.35658691 57.62422852 44.71317383 58.24845703 45.08056641 58.89160156 C57.02676518 80.00846268 66.46158385 103.42514836 67 128 C67.03867187 128.77214844 67.07734375 129.54429687 67.1171875 130.33984375 C68.06815022 162.09143238 55.29454017 190.58684874 36.8125 215.5625 C36.10057495 216.52651733 36.10057495 216.52651733 35.37426758 217.51000977 C32.33785226 221.51410266 29.05877681 225.06368312 25.42456055 228.53491211 C23.89251115 229.96256713 23.89251115 229.96256713 23 232 C22.34 232 21.68 232 21 232 C21 232.66 21 233.32 21 234 C20.34 234 19.68 234 19 234 C19 234.66 19 235.32 19 236 C17.05598349 237.75413583 15.00824352 239.34122908 12.9453125 240.953125 C8.84247928 245.27016237 8.71840706 250.5362308 8.4375 256.25 C8.18317035 260.77885255 7.92729533 265.29631701 7.5 269.8125 C7.4278125 270.58207031 7.355625 271.35164063 7.28125 272.14453125 C7 274 7 274 6 276 C2.7 276 -0.6 276 -4 276 C-5.42804498 267.77834296 -6.29983083 259.74145427 -6.65625 251.41015625 C-7.0849905 247.15685557 -7.49551991 243.40236606 -10.7265625 240.390625 C-11.35304687 240.01421875 -11.97953125 239.6378125 -12.625 239.25 C-14.5390625 238.078125 -14.5390625 238.078125 -16 237 C-16 236.34 -16 235.68 -16 235 C-16.55558594 234.77699219 -17.11117187 234.55398438 -17.68359375 234.32421875 C-39.00880977 222.13324366 -54.34362151 187.59580045 -60.8125 165.0625 C-63.1457755 156.45929918 -64.35361838 147.87876969 -65 139 C-65.0721875 138.02417969 -65.144375 137.04835937 -65.21875 136.04296875 C-66.72977938 92.03423807 -43.10606642 54.47507088 -16.5222168 21.67675781 C-12.11765455 16.2216259 -7.93651044 10.6097056 -3.83203125 4.92578125 C-2.60110707 3.24877283 -1.30627007 1.61900899 0 0 Z M1 117 C-1.15830663 129.74029544 -1.39415762 142.53047563 -1.73078918 155.41506958 C-1.75770088 156.44324295 -1.75770088 156.44324295 -1.78515625 157.4921875 C-1.80265427 158.16611542 -1.82015228 158.84004333 -1.83818054 159.53439331 C-1.99267073 165.24558683 -2.34207785 170.91902492 -2.75 176.6171875 C-3.24826271 184.42979109 -3.38876638 192.26935305 -3.60742188 200.09423828 C-3.80910391 206.85854742 -4.14246442 213.5747097 -4.76831055 220.3137207 C-5.80814115 229.13350917 -5.80814115 229.13350917 -3 237.1875 C-2.34 237.785625 -1.68 238.38375 -1 239 C1.81356965 238.69583031 3.53677319 238.41501768 5.67260742 236.50146484 C7.638024 232.79764689 7.18280337 229.28979777 6.92578125 225.2265625 C6.88256744 224.33525131 6.83935364 223.44394012 6.79483032 222.52561951 C6.64821414 219.55784158 6.48002369 216.59166493 6.3125 213.625 C6.15176559 210.46598779 5.9968145 207.30672228 5.84199524 204.14741516 C5.73256274 201.92262374 5.62126528 199.69792338 5.50822449 197.47331238 C4.78835434 183.19059411 4.31523491 168.89881223 3.81704712 154.60699463 C3.37683928 142.05750199 2.88868475 129.52683489 2 117 C1.67 117 1.34 117 1 117 Z " fill="#01EC64" transform="translate(199,62)"/>
<path d="M0 0 C0.33 0 0.66 0 1 0 C2.10590281 5.34519693 2.15242742 10.50686993 2.125 15.9375 C2.12234131 16.89317871 2.11968262 17.84885742 2.11694336 18.83349609 C2.03347588 31.81004828 1.60662645 44.82280186 0.4375 57.75 C0.10299025 61.50089618 -0.14650905 65.2349006 -0.25 69 C-0.27578125 69.86625 -0.3015625 70.7325 -0.328125 71.625 C0.06797184 74.49198664 1.11135388 75.85290757 3 78 C5.43717258 77.72965366 5.43717258 77.72965366 8 77 C10.35157373 73.4726394 10.18209718 72.28716187 9.9765625 68.14453125 C9.8990979 66.38447754 9.8990979 66.38447754 9.82006836 64.58886719 C9.72350952 62.71956543 9.72350952 62.71956543 9.625 60.8125 C9.51214607 58.27223119 9.40145868 55.73186518 9.29296875 53.19140625 C9.21248291 51.34313232 9.21248291 51.34313232 9.13037109 49.45751953 C8.88576134 42.97032223 8.90929538 36.49041944 9 30 C11.84584308 34.26876461 12.11628508 37.30743124 12.0234375 42.375 C11.98349653 46.90898825 12.07272656 51.40836152 12.2890625 55.9375 C12.34320313 57.09894531 12.39734375 58.26039063 12.453125 59.45703125 C12.5692395 61.8505734 12.69179969 64.24381026 12.8203125 66.63671875 C12.89765625 68.36341797 12.89765625 68.36341797 12.9765625 70.125 C13.02893066 71.15882813 13.08129883 72.19265625 13.13525391 73.2578125 C12.9964401 76.07217479 12.45853926 77.62196232 11 80 C12.485 80.495 12.485 80.495 14 81 C14 80.01 14 79.02 14 78 C16.97 77.505 16.97 77.505 20 77 C19.57847656 77.44730469 19.15695313 77.89460938 18.72265625 78.35546875 C18.17480469 78.96003906 17.62695312 79.56460938 17.0625 80.1875 C16.51722656 80.77917969 15.97195312 81.37085938 15.41015625 81.98046875 C12.48921702 86.1636421 12.78741899 91.23465482 12.5 96.1875 C11.45660377 113.08679245 11.45660377 113.08679245 10 116 C6.7 116 3.4 116 0 116 C-1.41886527 107.83119317 -2.29834658 99.79327672 -2.65625 91.5078125 C-3.02518217 87.74302741 -3.85988166 84.59505058 -5 81 C-3.515 80.505 -3.515 80.505 -2 80 C-2.33 79.01 -2.66 78.02 -3 77 C-3.02794465 74.61327294 -2.98869472 72.22556733 -2.9140625 69.83984375 C-2.89282318 69.13533585 -2.87158386 68.43082794 -2.84970093 67.70497131 C-2.80345102 66.21119014 -2.75452366 64.71748983 -2.703125 63.22387695 C-2.62612319 60.97037088 -2.5584407 58.71673541 -2.4921875 56.46289062 C-2.11951735 44.5085684 -2.11951735 44.5085684 -1.49609375 39.04296875 C-0.64896165 31.52467138 -0.63034305 23.93287328 -0.4375 16.375 C-0.39421085 14.78254306 -0.35059363 13.190095 -0.30664062 11.59765625 C-0.2006458 7.73186282 -0.09908675 3.86597641 0 0 Z " fill="#17DC6D" transform="translate(195,222)"/>
<path d="M0 0 C2.64 0.33 5.28 0.66 8 1 C7.67 2.65 7.34 4.3 7 6 C8.32 5.67 9.64 5.34 11 5 C11.19412181 6.47831221 11.38012131 7.95769316 11.5625 9.4375 C11.66691406 10.26121094 11.77132812 11.08492188 11.87890625 11.93359375 C11.91886719 12.61550781 11.95882812 13.29742187 12 14 C11.67 14.33 11.34 14.66 11 15 C10.77428816 16.41120902 10.60611651 17.83176043 10.46484375 19.25390625 C10.33432617 20.53491211 10.33432617 20.53491211 10.20117188 21.84179688 C10.0706543 23.18854492 10.0706543 23.18854492 9.9375 24.5625 C9.84662109 25.46419922 9.75574219 26.36589844 9.66210938 27.29492188 C9.43746077 29.52958434 9.21694231 31.76457839 9 34 C6.6875 34.625 6.6875 34.625 4 35 C1 33 1 33 -0.1875 29.3125 C-1.29806675 23.71415122 -1.10714574 18.13676769 -0.97265625 12.453125 C-0.99649681 9.44240284 -1.40522119 6.92693782 -2 4 C-1.0625 1.6875 -1.0625 1.6875 0 0 Z " fill="#03EB64" transform="translate(195,302)"/>
<path d="M0 0 C0.33 0 0.66 0 1 0 C1 2.31 1 4.62 1 7 C0.34 7 -0.32 7 -1 7 C-0.91621094 7.91523438 -0.83242187 8.83046875 -0.74609375 9.7734375 C-0.64425781 10.96195313 -0.54242188 12.15046875 -0.4375 13.375 C-0.33308594 14.55835938 -0.22867188 15.74171875 -0.12109375 16.9609375 C0 20 0 20 -1 22 C-1.66 22 -2.32 22 -3 22 C-3.33 36.19 -3.66 50.38 -4 65 C-4.33 65 -4.66 65 -5 65 C-7.95639811 42.72142853 -7.23043456 21.50779012 0 0 Z " fill="#29D67C" transform="translate(141,153)"/>
<path d="M0 0 C0.33 0 0.66 0 1 0 C2.10590281 5.34519693 2.15242742 10.50686993 2.125 15.9375 C2.12234131 16.89317871 2.11968262 17.84885742 2.11694336 18.83349609 C2.02714904 32.79367088 1.48826621 46.76993613 0.1875 60.671875 C-0.06404134 63.79518001 -0.07116432 66.86876988 0 70 C-0.66 70 -1.32 70 -2 70 C-2.02938023 65.87501532 -2.04692535 61.75005809 -2.0625 57.625 C-2.07087891 56.46871094 -2.07925781 55.31242187 -2.08789062 54.12109375 C-2.10434115 48.29760627 -1.92009157 42.63606142 -1.25610352 36.85400391 C-0.64585953 30.05347749 -0.61161086 23.19872429 -0.4375 16.375 C-0.39421085 14.78254306 -0.35059363 13.190095 -0.30664062 11.59765625 C-0.2006458 7.73186282 -0.09908675 3.86597641 0 0 Z " fill="#32D87F" transform="translate(195,222)"/>
<path d="M0 0 C0.33 0 0.66 0 1 0 C1.125 5.75 1.125 5.75 0 8 C0.66 8.33 1.32 8.66 2 9 C1.01 9.33 0.02 9.66 -1 10 C-2.34270821 11.99371825 -3.67653494 13.9934562 -5 16 C-5.66 16 -6.32 16 -7 16 C-7 18.31 -7 20.62 -7 23 C-7.66 23 -8.32 23 -9 23 C-9.66 25.31 -10.32 27.62 -11 30 C-11.66 30 -12.32 30 -13 30 C-12.67 31.65 -12.34 33.3 -12 35 C-13.98 35.495 -13.98 35.495 -16 36 C-15.42381576 30.2192663 -13.21016198 25.46374712 -10.8125 20.25 C-10.40902344 19.36344727 -10.00554687 18.47689453 -9.58984375 17.56347656 C-3.96903274 5.38654444 -3.96903274 5.38654444 0 0 Z " fill="#1ADE71" transform="translate(158,117)"/>
<path d="M0 0 C0.33 0 0.66 0 1 0 C1.99139818 9.71594817 2.31275974 19.42651137 2.55761719 29.18334961 C2.62531887 31.82494186 2.70305442 34.46612185 2.78125 37.10742188 C2.82612858 38.80727573 2.87042023 40.5071452 2.9140625 42.20703125 C2.94990952 43.37598686 2.94990952 43.37598686 2.98648071 44.56855774 C3.09128869 49.17594787 2.77840382 53.45555065 2 58 C1.67 58 1.34 58 1 58 C0.97494385 57.11328613 0.9498877 56.22657227 0.92407227 55.31298828 C0.82809955 51.97679384 0.72892585 48.6407247 0.62768555 45.3046875 C0.58476505 43.86950309 0.5430666 42.43428154 0.50268555 40.99902344 C0.27584719 32.96726539 -0.0198239 24.9833239 -1 17 C-1.33 17 -1.66 17 -2 17 C-2.05418326 14.91695462 -2.09287551 12.83350232 -2.125 10.75 C-2.14820313 9.58984375 -2.17140625 8.4296875 -2.1953125 7.234375 C-2.0103949 4.17213954 -1.60823023 2.55797249 0 0 Z " fill="#26D175" transform="translate(201,168)"/>
<path d="M0 0 C0.33 0 0.66 0 1 0 C2.97819784 15.22505834 2.97819784 28.77494166 1 44 C0.67 44 0.34 44 0 44 C0 29.48 0 14.96 0 0 Z " fill="#34D182" transform="translate(263,173)"/>
<path d="M0 0 C0.33 0 0.66 0 1 0 C-0.50457317 24.00914634 -0.50457317 24.00914634 -2 27 C-5.3 27 -8.6 27 -12 27 C-13.07396066 22.70415737 -13.07329796 19.39787789 -13 15 C-12.67 15 -12.34 15 -12 15 C-11.34 17.97 -10.68 20.94 -10 24 C-8.02 24.33 -6.04 24.66 -4 25 C-3.87882813 23.69804687 -3.75765625 22.39609375 -3.6328125 21.0546875 C-3.46390615 19.3280893 -3.29461499 17.60152872 -3.125 15.875 C-3.04636719 15.0190625 -2.96773437 14.163125 -2.88671875 13.28125 C-2.41779282 8.59199072 -1.72786571 4.42856339 0 0 Z " fill="#3AD585" transform="translate(207,311)"/>
<path d="M0 0 C3.23231392 4.84847088 3.09253713 8.38010456 2.87890625 14.171875 C2.85529526 14.8542926 2.83168427 15.53671021 2.80735779 16.23980713 C2.7310504 18.41010058 2.64688594 20.58000714 2.5625 22.75 C2.50924627 24.22524176 2.45650611 25.70050216 2.40429688 27.17578125 C2.2754805 30.78408912 2.13961806 34.3920921 2 38 C1.67 38 1.34 38 1 38 C0.34089443 25.32273538 -0.1637024 12.69603076 0 0 Z " fill="#3ADB84" transform="translate(204,252)"/>
<path d="M0 0 C0.763125 0.309375 1.52625 0.61875 2.3125 0.9375 C4.18789677 1.67893593 6.08684652 2.36228217 8 3 C8 7.62 8 12.24 8 17 C5.53361676 13.71148901 3.96842898 11.0647877 2.3125 7.375 C1.87550781 6.41335937 1.43851563 5.45171875 0.98828125 4.4609375 C0 2 0 2 0 0 Z " fill="#05EA64" transform="translate(143,239)"/>
<path d="M0 0 C0.99 0 1.98 0 3 0 C3 0.99 3 1.98 3 3 C3.66 3 4.32 3 5 3 C5.309375 4.175625 5.309375 4.175625 5.625 5.375 C6.77601154 8.31069367 6.77601154 8.31069367 10 9 C10.99 9.33 11.98 9.66 13 10 C14.125 12.5 14.125 12.5 15 15 C17.01735205 16.34410262 17.01735205 16.34410262 19 17 C19 18.65 19 20.3 19 22 C11.39551174 16.46946308 5.45975826 8.58391952 0 1 C0 0.67 0 0.34 0 0 Z " fill="#2ED97E" transform="translate(162,274)"/>
<path d="M0 0 C1.35642112 4.06926337 0.09079648 6.98734748 -1.125 10.9375 C-1.35147217 11.691521 -1.57794434 12.44554199 -1.8112793 13.22241211 C-3.79649511 19.67213945 -6.215257 25.84986547 -9 32 C-9.97591583 28.61682513 -9.85856655 26.4342662 -9 23 C-8.34 23 -7.68 23 -7 23 C-7.061875 21.824375 -7.061875 21.824375 -7.125 20.625 C-7 18 -7 18 -5 16 C-4.42852122 13.77318879 -4.42852122 13.77318879 -4.0625 11.25 C-3.30419839 7.06417509 -2.15018381 3.71395386 0 0 Z " fill="#3CD484" transform="translate(262,219)"/>
<path d="M0 0 C0.33 0 0.66 0 1 0 C1 2.64 1 5.28 1 8 C1.66 8 2.32 8 3 8 C2.855625 8.9075 2.71125 9.815 2.5625 10.75 C1.88555268 15.31939444 1.64765202 19.91473351 1.37890625 24.5234375 C1.25386719 25.34070313 1.12882813 26.15796875 1 27 C0.34 27.33 -0.32 27.66 -1 28 C-1.14256667 18.60644064 -0.72492332 9.35927791 0 0 Z M3 0 C3.33 0 3.66 0 4 0 C4 2.64 4 5.28 4 8 C3.67 8 3.34 8 3 8 C3 5.36 3 2.72 3 0 Z " fill="#0EE067" transform="translate(198,160)"/>
<path d="M0 0 C0.99 0.33 1.98 0.66 3 1 C1.62712658 4.69876091 -0.06355453 7.9514476 -2.125 11.3125 C-2.66382813 12.19550781 -3.20265625 13.07851563 -3.7578125 13.98828125 C-4.37269531 14.98408203 -4.37269531 14.98408203 -5 16 C-6.231394 12.30581799 -5.64432764 9.7943739 -5 6 C-3.35 5.67 -1.7 5.34 0 5 C0 3.35 0 1.7 0 0 Z " fill="#13E06C" transform="translate(249,250)"/>
<path d="M0 0 C0.66 1.32 1.32 2.64 2 4 C-1.625 8.875 -1.625 8.875 -5 10 C-6.65637688 11.63044124 -6.65637688 11.63044124 -8.1875 13.5625 C-8.71730469 14.20316406 -9.24710938 14.84382813 -9.79296875 15.50390625 C-10.39044922 16.24447266 -10.39044922 16.24447266 -11 17 C-11.66 16.67 -12.32 16.34 -13 16 C-8.71 10.72 -4.42 5.44 0 0 Z " fill="#2BD07C" transform="translate(187,78)"/>
<path d="M0 0 C0.66 1.32 1.32 2.64 2 4 C2.66 4 3.32 4 4 4 C4.13277344 4.73605469 4.26554688 5.47210938 4.40234375 6.23046875 C4.57894531 7.20628906 4.75554687 8.18210938 4.9375 9.1875 C5.19853516 10.63189453 5.19853516 10.63189453 5.46484375 12.10546875 C5.9523735 14.74239972 6.46671105 17.3719905 7 20 C6.34 20.33 5.68 20.66 5 21 C4.15996552 18.2518872 3.32777849 15.50180419 2.5 12.75 C2.26152344 11.97269531 2.02304688 11.19539062 1.77734375 10.39453125 C1.55175781 9.64042969 1.32617188 8.88632813 1.09375 8.109375 C0.77954102 7.07248535 0.77954102 7.07248535 0.45898438 6.01464844 C0 4 0 4 0 0 Z " fill="#28D977" transform="translate(137,218)"/>
<path d="M0 0 C2.57672427 3.14511933 4.17392493 6.32163947 5.75 10.0625 C6.19859375 11.10535156 6.6471875 12.14820313 7.109375 13.22265625 C8 16 8 16 7 19 C5.35 17.68 3.7 16.36 2 15 C2.33 13.02 2.66 11.04 3 9 C2.01 8.34 1.02 7.68 0 7 C-0.1875 3.375 -0.1875 3.375 0 0 Z " fill="#26DC78" transform="translate(249,132)"/>
<path d="M0 0 C5.17226615 4.6873662 8.98925493 10.31728181 13 16 C12.34 16.33 11.68 16.66 11 17 C11 16.34 11 15.68 11 15 C10.34 15 9.68 15 9 15 C8.67 13.68 8.34 12.36 8 11 C6.824375 10.9071875 6.824375 10.9071875 5.625 10.8125 C3 10 3 10 1.75 7.75 C1.04784861 5.17544491 0.45085615 2.62999422 0 0 Z " fill="#2DD67E" transform="translate(218,85)"/>
<path d="M0 0 C0.33 0 0.66 0 1 0 C1 2.31 1 4.62 1 7 C0.34 7 -0.32 7 -1 7 C-0.67 10.63 -0.34 14.26 0 18 C-1.32 18 -2.64 18 -4 18 C-3.41632611 11.69632197 -1.95928381 6.01339937 0 0 Z " fill="#2ED87F" transform="translate(141,153)"/>
<path d="M0 0 C4.15289097 3.67371124 7.23378258 8.22366459 10 13 C10 13.66 10 14.32 10 15 C9.01 15.33 8.02 15.66 7 16 C6.566875 14.948125 6.13375 13.89625 5.6875 12.8125 C4.70211265 10.4961392 3.68521701 8.47939737 2.375 6.3125 C1.0909896 4.15302796 0.45394391 2.45129714 0 0 Z " fill="#2CD87E" transform="translate(231,102)"/>
<path d="M0 0 C0.33 0 0.66 0 1 0 C1 1.65 1 3.3 1 5 C0.01 5.33 -0.98 5.66 -2 6 C-2.144375 6.598125 -2.28875 7.19625 -2.4375 7.8125 C-3.18951488 10.7370023 -4.79712511 12.01030655 -7 14 C-7.66 13.67 -8.32 13.34 -9 13 C-7.52485505 10.8304939 -6.0451561 8.66436293 -4.5625 6.5 C-4.14162109 5.87996094 -3.72074219 5.25992188 -3.28710938 4.62109375 C-2.21691863 3.06289602 -1.11120482 1.52921949 0 0 Z " fill="#24D87A" transform="translate(173,95)"/>
<path d="M0 0 C0.33 0 0.66 0 1 0 C1 2.31 1 4.62 1 7 C0.34 7 -0.32 7 -1 7 C-0.67 8.65 -0.34 10.3 0 12 C-1.32 12.33 -2.64 12.66 -4 13 C-3.40895235 8.15340923 -2.02055843 4.39251833 0 0 Z " fill="#21DB76" transform="translate(146,140)"/>
<path d="M0 0 C0.66 0 1.32 0 2 0 C6 4.47058824 6 4.47058824 6 7 C5.4225 6.835 4.845 6.67 4.25 6.5 C1.73335631 5.85537969 1.73335631 5.85537969 -2 6 C-2.66 5.67 -3.32 5.34 -4 5 C-2.71937515 3.2925002 -1.38232443 1.62626404 0 0 Z " fill="#25D17A" transform="translate(199,62)"/>
<path d="M0 0 C0.33 0 0.66 0 1 0 C1.21824777 6.0018137 0.5056904 11.19233704 -1 17 C-1.33 17 -1.66 17 -2 17 C-2.05418326 14.91695462 -2.09287551 12.83350232 -2.125 10.75 C-2.14820313 9.58984375 -2.17140625 8.4296875 -2.1953125 7.234375 C-2.0103949 4.17213954 -1.60823023 2.55797249 0 0 Z " fill="#38EF88" transform="translate(201,168)"/>
<path d="M0 0 C1.88391785 3.26545761 2.49287967 6.28111761 3 10 C2.01 10 1.02 10 0 10 C-1.60339848 6.88228073 -2.18974141 5.60988311 -1.125 2.1875 C-0.75375 1.465625 -0.3825 0.74375 0 0 Z " fill="#2ADF7D" transform="translate(260,160)"/>
<path d="M0 0 C-0.94875 0.9075 -1.8975 1.815 -2.875 2.75 C-5.14549867 5.00978877 -6.83296506 6.96570916 -8 10 C-8.21952523 6.15830842 -7.72664863 3.45329726 -6 0 C-3.50907189 -1.24546405 -2.58919267 -0.7767578 0 0 Z " fill="#21D578" transform="translate(215,300)"/>
<path d="M0 0 C1.32 0.66 2.64 1.32 4 2 C4 5.3 4 8.6 4 12 C3.67 12 3.34 12 3 12 C2.67 9.36 2.34 6.72 2 4 C0.68 4.33 -0.64 4.66 -2 5 C-1.34 3.35 -0.68 1.7 0 0 Z " fill="#09E167" transform="translate(259,168)"/>
<path d="M0 0 C0.66 0 1.32 0 2 0 C2.33 1.65 2.66 3.3 3 5 C2.34 5 1.68 5 1 5 C0.67 6.65 0.34 8.3 0 10 C-0.33 10 -0.66 10 -1 10 C-1.125 3.375 -1.125 3.375 0 0 Z " fill="#11DD6C" transform="translate(148,135)"/>
<path d="M0 0 C0.99 0.33 1.98 0.66 3 1 C1.7508258 4.45925163 0.32472205 7.14693203 -2 10 C-2.33 8.35 -2.66 6.7 -3 5 C-2.01 5 -1.02 5 0 5 C0 3.35 0 1.7 0 0 Z " fill="#2EDD7E" transform="translate(249,250)"/>
<path d="M0 0 C1.32 0.33 2.64 0.66 4 1 C4.33 2.65 4.66 4.3 5 6 C5.66 6 6.32 6 7 6 C6.67 6.99 6.34 7.98 6 9 C3.59927045 6.11912454 1.52708963 3.43595166 0 0 Z " fill="#2DDC7E" transform="translate(156,265)"/>
<path d="M0 0 C2.4375 0.8125 2.4375 0.8125 5 2 C5.33 2.99 5.66 3.98 6 5 C4.02 5.99 4.02 5.99 2 7 C1.34 4.69 0.68 2.38 0 0 Z " fill="#1CE376" transform="translate(143,239)"/>
<path d="M0 0 C2.0625 0.4375 2.0625 0.4375 4 1 C3.67 1.99 3.34 2.98 3 4 C2.34 4 1.68 4 1 4 C0.67 4.99 0.34 5.98 0 7 C-1 6 -1 6 -1.125 3.5 C-1 1 -1 1 0 0 Z " fill="#18DE6F" transform="translate(137,171)"/>
<path d="M0 0 C0.33 0 0.66 0 1 0 C1.125 2.875 1.125 2.875 1 6 C0.34 6.66 -0.32 7.32 -1 8 C-1.99 8 -2.98 8 -4 8 C-2.87548273 5.0280615 -1.77706209 2.66559313 0 0 Z " fill="#25DA77" transform="translate(163,109)"/>
<path d="M0 0 C0.66 1.32 1.32 2.64 2 4 C0.68 5.65 -0.64 7.3 -2 9 C-2.6875 6.75 -2.6875 6.75 -3 4 C-1.5625 1.6875 -1.5625 1.6875 0 0 Z " fill="#19DF75" transform="translate(187,78)"/>
<path d="M0 0 C2.66735273 2.48952921 4.55746343 4.63408134 6 8 C4.35 7.67 2.7 7.34 1 7 C0.67 4.69 0.34 2.38 0 0 Z " fill="#1CD577" transform="translate(207,71)"/>
<path d="M0 0 C0.99 0 1.98 0 3 0 C3 0.66 3 1.32 3 2 C4.65 2.33 6.3 2.66 8 3 C8.33 4.32 8.66 5.64 9 7 C6.50638429 5.79618552 4.31856917 4.54571278 2 3 C2 2.34 2 1.68 2 1 C1.34 0.67 0.68 0.34 0 0 Z " fill="#36D783" transform="translate(181,296)"/>
<path d="M0 0 C3 1 3 1 4.25 3.3125 C5.04631835 6.16597407 4.8214856 7.24802325 4 10 C3.32845067 8.71086513 2.66291141 7.41859796 2 6.125 C1.62875 5.40570313 1.2575 4.68640625 0.875 3.9453125 C0 2 0 2 0 0 Z " fill="#25D67A" transform="translate(146,246)"/>
<path d="M0 0 C0.66 0.33 1.32 0.66 2 1 C0.02 3.97 0.02 3.97 -2 7 C-2.66 6.01 -3.32 5.02 -4 4 C-3.67 3.01 -3.34 2.02 -3 1 C-2.01 0.67 -1.02 0.34 0 0 Z " fill="#1AD672" transform="translate(237,272)"/>
<path d="M0 0 C1.32 0.33 2.64 0.66 4 1 C4 2.65 4 4.3 4 6 C2 4.6875 2 4.6875 0 3 C0 2.01 0 1.02 0 0 Z " fill="#34E684" transform="translate(177,290)"/>
</svg>
