<?xml version="1.0" encoding="UTF-8"?>
<svg version="1.1" xmlns="http://www.w3.org/2000/svg" width="666" height="375">
<path d="M0 0 C2.0277261 -0.00216792 4.05489089 -0.0202899 6.08251953 -0.03930664 C25.48215437 -0.06808948 44.10976584 6.27763342 58.42895508 19.72460938 C63.28146875 24.4310274 63.28146875 24.4310274 69.52392578 26.66186523 C72.56429106 26.37193349 75.4452069 25.82263393 78.43017578 25.18530273 C101.2165845 23.67059926 122.8379006 31.5316773 140.13330078 46.14233398 C140.89126953 46.81651367 141.64923828 47.49069336 142.43017578 48.18530273 C143.18814453 48.84916992 143.94611328 49.51303711 144.72705078 50.19702148 C154.14278647 58.97963012 160.72551106 70.2742865 165.43017578 82.18530273 C165.71376953 82.88397461 165.99736328 83.58264648 166.28955078 84.30249023 C171.38893547 98.0916427 173.12033628 113.02881917 169.40283203 127.36108398 C167.28872317 134.75733716 167.28872317 134.75733716 168.73486328 142.07202148 C170.10783396 143.85902029 171.54315127 145.59934996 173.02783203 147.29467773 C186.23392583 163.18493694 190.08002971 186.14660597 188.43017578 206.18530273 C185.14840492 229.29334532 173.26257585 251.09668582 154.74414062 265.49633789 C146.23713925 271.66932346 136.5364677 276.93639208 126.3762207 279.75512695 C122.48085521 280.92207211 120.1932011 281.85554997 118.21533203 285.52124023 C117.6179788 286.8574909 117.04468018 288.20468927 116.49267578 289.56030273 C115.83387596 291.01051685 115.16704109 292.45710469 114.49267578 293.90014648 C114.15623047 294.62186035 113.81978516 295.34357422 113.47314453 296.0871582 C103.96408335 315.21657575 86.9326384 327.55176307 67.43017578 335.18530273 C63.79753207 336.3864188 60.16001453 337.3396486 56.43017578 338.18530273 C55.23521484 338.49274414 55.23521484 338.49274414 54.01611328 338.80639648 C34.0266958 343.52702439 10.1515341 338.41935788 -7.25732422 327.93530273 C-13.61548584 323.69342072 -19.17590553 318.57922142 -24.56982422 313.18530273 C-27.29941352 313.16682879 -27.29941352 313.16682879 -30.44482422 313.56030273 C-55.69186806 315.79041239 -78.34414913 310.2562757 -98.25732422 293.98999023 C-100.77205344 291.78960216 -103.18707686 289.52759598 -105.56982422 287.18530273 C-106.60042969 286.1740332 -106.60042969 286.1740332 -107.65185547 285.14233398 C-119.48132818 272.70622165 -127.34125355 256.18754413 -129.56982422 239.18530273 C-129.71548828 238.1140918 -129.86115234 237.04288086 -130.01123047 235.93920898 C-131.14868273 224.81612318 -130.25747702 212.82994745 -126.91894531 202.09179688 C-126.30944871 199.94064294 -126.30944871 199.94064294 -128.19482422 197.44311523 C-128.97857422 196.40928711 -129.76232422 195.37545898 -130.56982422 194.31030273 C-144.21545241 175.52388754 -150.32749127 153.35584334 -147.00341797 130.24780273 C-146.29349277 126.85800282 -145.47416319 123.52797621 -144.56982422 120.18530273 C-144.37646484 119.3409668 -144.18310547 118.49663086 -143.98388672 117.62670898 C-140.77995125 104.95660056 -133.28879796 93.71048295 -124.56982422 84.18530273 C-123.83763672 83.38350586 -123.10544922 82.58170898 -122.35107422 81.75561523 C-112.33635928 71.28248025 -100.45203522 63.96980523 -86.25732422 60.74780273 C-81.41345182 59.23968415 -79.54170206 57.28326607 -77.1484375 53.0090332 C-75.51624972 49.77838378 -74.01415131 46.50359851 -72.56982422 43.18530273 C-64.41243268 25.36196095 -47.26491586 12.58835128 -29.56982422 5.18530273 C-25.27644101 3.69028537 -20.95744352 2.37361629 -16.56982422 1.18530273 C-15.69704834 0.91943359 -15.69704834 0.91943359 -14.80664062 0.64819336 C-9.97043432 -0.35261947 -4.92000077 -0.00058809 0 0 Z M-46.56982422 46.18530273 C-55.86303776 58.30770024 -59.75221947 71.86499938 -59.68334961 86.96630859 C-59.68349564 87.81589142 -59.68364166 88.66547424 -59.68379211 89.540802 C-59.68309976 92.32727684 -59.67533929 95.11368343 -59.66748047 97.90014648 C-59.66561388 99.84070296 -59.66419111 101.7812599 -59.66319275 103.72181702 C-59.65938654 108.8131746 -59.64957254 113.90450336 -59.63848877 118.99584961 C-59.62823378 124.19766856 -59.62368639 129.3994922 -59.61865234 134.60131836 C-59.60794849 144.79599243 -59.59089496 154.99064518 -59.56982422 165.18530273 C-55.8277786 167.36593208 -52.07497199 169.52732654 -48.31982422 171.68530273 C-47.25634766 172.3053418 -46.19287109 172.92538086 -45.09716797 173.56420898 C-43.55996094 174.44399414 -43.55996094 174.44399414 -41.99169922 175.34155273 C-41.04907227 175.88618164 -40.10644531 176.43081055 -39.13525391 176.99194336 C-36.43692336 178.46648296 -36.43692336 178.46648296 -32.56982422 178.18530273 C-32.56617859 177.00845917 -32.56253296 175.8316156 -32.55877686 174.61911011 C-32.52182492 163.52484049 -32.46404984 152.43084839 -32.38592148 141.33679008 C-32.34642368 135.63328785 -32.31424636 129.92994055 -32.29882812 124.22631836 C-32.28367693 118.72129271 -32.24925815 113.21669294 -32.2015152 107.71185684 C-32.18668564 105.61237414 -32.1787823 103.51283065 -32.17794037 101.41329575 C-32.17557376 98.4707888 -32.14851804 95.52946168 -32.11572266 92.5871582 C-32.12075302 91.7204097 -32.12578339 90.85366119 -32.13096619 89.96064758 C-32.03810295 84.57024413 -31.16077621 81.45859267 -27.56982422 77.18530273 C-25.22998047 75.56811523 -25.22998047 75.56811523 -22.63232422 74.31030273 C-18.30888597 72.1111637 -14.18056079 69.76247489 -10.06982422 67.18530273 C-5.34009112 64.24309787 -0.55751555 61.50766388 4.35205078 58.88061523 C9.01157612 56.31432844 13.57185723 53.58351737 18.1472168 50.87084961 C23.09966849 47.94346702 28.11060251 45.15556156 33.18017578 42.43530273 C36.0540367 40.83871334 38.74154023 39.0746142 41.43017578 37.18530273 C33.87946274 28.0723732 20.71417538 25.02764561 9.43017578 23.18530273 C-11.81282136 21.29858917 -32.77435249 29.9076912 -46.56982422 46.18530273 Z M38.52392578 66.27905273 C34.88048739 68.52399962 31.14193954 70.54817256 27.37841797 72.58374023 C24.54692133 74.12188349 21.73159992 75.68504736 18.92236328 77.26342773 C18.00592041 77.77784424 17.08947754 78.29226074 16.14526367 78.82226562 C14.19407196 79.93045127 12.25090727 81.05285328 10.31469727 82.18701172 C5.67688569 84.88874777 1.19105837 87.37625146 -3.83935547 89.26733398 C-10.65893046 91.96558867 -10.65893046 91.96558867 -15.56982422 97.18530273 C-17.68093963 106.11974475 -17.19489593 116.18312418 -15.56982422 125.18530273 C-14.90982422 126.17530273 -14.24982422 127.16530273 -13.56982422 128.18530273 C-12.0866047 127.48549561 -10.60851938 126.77480815 -9.13232422 126.06030273 C-7.89675781 125.46862305 -7.89675781 125.46862305 -6.63623047 124.86499023 C-4.11997504 123.48665924 -1.83579284 122.04058019 0.52783203 120.42749023 C5.97179785 116.74685534 11.67727306 113.60283933 17.43017578 110.43530273 C24.72620334 106.3851457 32.00255874 102.31718446 39.18017578 98.06030273 C39.83373047 97.67672607 40.48728516 97.29314941 41.16064453 96.89794922 C45.07496189 94.59790626 48.95426166 92.24846193 52.82080078 89.86889648 C54.69022568 88.7445885 56.56001303 87.62088296 58.43017578 86.49780273 C59.29094727 85.95559082 60.15171875 85.41337891 61.03857422 84.85473633 C66.00068924 81.90962382 69.56474207 80.42388066 75.33544922 81.52978516 C78.75929523 82.60123347 81.57747463 84.21006955 84.55517578 86.18530273 C85.85179368 87.00341869 87.14867671 87.82111457 88.44580078 88.63842773 C89.10128906 89.05930664 89.75677734 89.48018555 90.43212891 89.91381836 C93.68528395 91.98400793 96.99514619 93.95781728 100.30517578 95.93530273 C100.93891113 96.3162207 101.57264648 96.69713867 102.22558594 97.08959961 C106.10720488 99.41754815 110.02741968 101.64776215 114.00048828 103.81420898 C117.31046897 105.68205982 120.55355042 107.65559564 123.80517578 109.62280273 C134.59268663 116.61075747 134.59268663 116.61075747 146.43017578 121.18530273 C147.35022097 102.37549003 144.6403082 85.73375636 131.73486328 71.02514648 C125.457376 64.24608589 118.74370498 59.31775877 110.43017578 55.18530273 C108.66673828 54.28811523 108.66673828 54.28811523 106.86767578 53.37280273 C81.81735027 44.71905392 59.69553369 52.25629945 38.52392578 66.27905273 Z M-107.31982422 100.56030273 C-114.53665014 107.99350616 -118.47085577 116.39673411 -121.56982422 126.18530273 C-121.98232422 127.40217773 -122.39482422 128.61905273 -122.81982422 129.87280273 C-126.550094 146.27254738 -122.0722035 163.08199778 -113.78369141 177.28686523 C-105.61904297 190.05603382 -93.24712925 197.38356057 -80.28466797 204.54858398 C-74.80737965 207.58942742 -69.41060386 210.76540762 -64.00732422 213.93530273 C-54.65376397 219.41605058 -45.24749332 224.79503662 -35.79223633 230.09838867 C-34.88739502 230.60660156 -33.98255371 231.11481445 -33.05029297 231.63842773 C-32.25518311 232.08347656 -31.46007324 232.52852539 -30.64086914 232.98706055 C-28.9110735 233.98786651 -27.23263578 235.07676169 -25.56982422 236.18530273 C-21.09886013 235.91157024 -18.02614027 233.81665556 -14.31982422 231.43530273 C-9.16390279 228.16422322 -3.94857536 225.07620774 1.43017578 222.18530273 C0.20691942 218.51553364 -0.70949421 218.2332927 -3.99169922 216.36499023 C-5.35198242 215.58140137 -5.35198242 215.58140137 -6.73974609 214.78198242 C-7.67367187 214.25507813 -8.60759766 213.72817383 -9.56982422 213.18530273 C-11.26253255 212.20874023 -12.95524089 211.23217773 -14.64794922 210.25561523 C-16.37132825 209.27282786 -18.09530105 208.29108107 -19.81982422 207.31030273 C-21.20476074 206.52006714 -21.20476074 206.52006714 -22.61767578 205.71386719 C-26.46196533 203.52082286 -30.3075663 201.33034195 -34.16357422 199.15795898 C-41.93264896 194.76381646 -49.60013102 190.20873486 -57.25732422 185.62280273 C-58.30307617 184.99720459 -59.34882813 184.37160645 -60.42626953 183.72705078 C-63.48142172 181.89149953 -66.52809941 180.04301365 -69.56982422 178.18530273 C-70.6083252 177.55253418 -71.64682617 176.91976562 -72.71679688 176.26782227 C-73.70599121 175.65406738 -74.69518555 175.0403125 -75.71435547 174.40795898 C-76.60098877 173.86018799 -77.48762207 173.31241699 -78.40112305 172.74804688 C-80.56982422 171.18530273 -80.56982422 171.18530273 -82.56982422 168.18530273 C-82.78282049 165.49925052 -82.88108539 162.91337521 -82.88867188 160.22558594 C-82.8987175 159.4156015 -82.90876312 158.60561707 -82.91911316 157.77108765 C-82.95001359 155.09276034 -82.96699926 152.4145333 -82.98388672 149.73608398 C-83.00259286 147.87948235 -83.02216585 146.02288927 -83.04257202 144.16630554 C-83.09395779 139.27880895 -83.13354899 134.39128477 -83.17071533 129.50366211 C-83.21071461 124.51661317 -83.26182552 119.5296796 -83.31201172 114.54272461 C-83.4088473 104.75699829 -83.49322764 94.97120693 -83.56982422 85.18530273 C-92.79891874 85.18530273 -101.2128994 94.77155383 -107.31982422 100.56030273 Z M55.74267578 107.37280273 C55.0253125 107.78264404 54.30794922 108.19248535 53.56884766 108.61474609 C48.78408793 111.3618544 44.06546985 114.19167532 39.43017578 117.18530273 C40.7136363 121.03568428 41.99095461 121.37028957 45.47705078 123.33764648 C46.53859375 123.94286133 47.60013672 124.54807617 48.69384766 125.17163086 C49.84433594 125.81551758 50.99482422 126.4594043 52.18017578 127.12280273 C53.37403525 127.79965578 54.56739011 128.47739962 55.76025391 129.15600586 C58.17559391 130.52839148 60.59357643 131.89591802 63.01416016 133.2590332 C67.66428072 135.88120668 72.29742413 138.53260893 76.93017578 141.18530273 C78.61105217 142.14643822 80.29204421 143.10737147 81.97314453 144.06811523 C82.8372998 144.56214844 83.70145508 145.05618164 84.59179688 145.56518555 C87.21558891 147.06281878 89.84166724 148.55638336 92.46817017 150.04925537 C94.81881225 151.38704959 97.16673846 152.72956261 99.51416016 154.07299805 C101.19107265 155.03082773 102.87112461 155.98315449 104.55126953 156.93530273 C111.26786294 160.78526074 117.92350778 164.67863473 123.43017578 170.18530273 C123.64213316 172.61623695 123.73111166 174.93632034 123.7331543 177.36962891 C123.74159363 178.10970184 123.75003296 178.84977478 123.75872803 179.61227417 C123.78458941 182.06761293 123.79667062 184.52283105 123.80908203 186.97827148 C123.82525614 188.68501233 123.84243605 190.39174392 123.86058044 192.09846497 C123.90635484 196.6018951 123.94109967 201.10533778 123.97277832 205.60888672 C124.02454507 212.79970077 124.09009766 219.99037662 124.16099358 227.18102455 C124.18372206 229.68855741 124.20006733 232.1960733 124.2157135 234.70365906 C124.22913352 236.2537758 124.24274945 237.80389087 124.2565918 239.35400391 C124.25920517 240.04570175 124.26181854 240.7373996 124.26451111 241.45005798 C124.31030017 245.79513954 124.73522083 249.90811155 125.43017578 254.18530273 C141.39137684 248.42153568 152.02411149 236.96782271 159.20361328 221.94702148 C165.74738334 207.21311885 166.7782914 190.75021124 161.68408203 175.36108398 C157.91178805 165.80695623 152.77290055 158.36987651 145.43017578 151.18530273 C144.90399658 150.66790527 144.37781738 150.15050781 143.83569336 149.61743164 C137.84242639 144.03216633 130.93657252 140.10134428 123.86767578 136.06030273 C122.57383924 135.31209794 121.28038725 134.5632278 119.98730469 133.8137207 C111.19896471 128.73037365 102.37195777 123.7126089 93.5168457 118.74658203 C88.94970766 116.18518523 84.40352273 113.59605565 79.89111328 110.93920898 C79.01213379 110.42277832 78.1331543 109.90634766 77.22753906 109.37426758 C75.57415597 108.39973183 73.9238852 107.41988903 72.27734375 106.43383789 C71.54918457 106.00506348 70.82102539 105.57628906 70.07080078 105.13452148 C69.4369043 104.75642334 68.80300781 104.3783252 68.14990234 103.98876953 C63.45194072 101.79385305 59.74214759 105.05393089 55.74267578 107.37280273 Z M18.09814453 128.98608398 C17.27958984 129.48495117 16.46103516 129.98381836 15.61767578 130.49780273 C14.19068359 131.34084961 14.19068359 131.34084961 12.73486328 132.20092773 C11.09904297 133.18319336 11.09904297 133.18319336 9.43017578 134.18530273 C7.4084315 135.3269218 5.3783406 136.45274102 3.34765625 137.57836914 C-7.47525041 142.57180639 -7.47525041 142.57180639 -15.56982422 150.18530273 C-15.68110001 152.98272009 -15.73394097 155.7544731 -15.73779297 158.55249023 C-15.74112137 159.38362335 -15.74444977 160.21475647 -15.74787903 161.07107544 C-15.75294638 162.83131354 -15.75528741 164.59156126 -15.75512695 166.35180664 C-15.75730983 169.04256079 -15.77545737 171.73290262 -15.79443359 174.42358398 C-15.79736829 176.133218 -15.79935257 177.84285396 -15.80029297 179.55249023 C-15.80747849 180.3567746 -15.814664 181.16105896 -15.82206726 181.98971558 C-15.84120714 187.41354148 -15.84120714 187.41354148 -13.56982422 192.18530273 C-11.3297396 193.76030542 -11.3297396 193.76030542 -8.63232422 195.06030273 C-7.15119141 195.82987305 -7.15119141 195.82987305 -5.64013672 196.61499023 C-4.62693359 197.13319336 -3.61373047 197.65139648 -2.56982422 198.18530273 C-0.71202195 199.1785322 1.14225901 200.17838079 2.99267578 201.18530273 C3.89501953 201.6712793 4.79736328 202.15725586 5.72705078 202.65795898 C9.27689982 204.66372629 12.66834997 206.89503364 16.04345703 209.18139648 C19.26336074 210.5357586 21.04863265 209.97935139 24.43017578 209.18530273 C27.25592805 207.87609245 27.25592805 207.87609245 30.02001953 206.16577148 C31.05191406 205.55540039 32.08380859 204.9450293 33.14697266 204.31616211 C34.20980469 203.67485352 35.27263672 203.03354492 36.36767578 202.37280273 C38.48089576 201.11618927 40.59417548 199.85967627 42.70751953 198.60327148 C43.69606934 198.01078613 44.68461914 197.41830078 45.703125 196.80786133 C47.99533376 195.4440279 50.2991869 194.11000537 52.62158203 192.79858398 C55.2528444 191.44961811 55.2528444 191.44961811 56.43017578 190.18530273 C56.99086804 184.51094805 57.21531959 178.84016971 57.38452148 173.14208984 C57.45607488 171.22726928 57.55817029 169.31332353 57.69213867 167.40185547 C58.7487623 156.8159058 58.7487623 156.8159058 54.9367981 147.37445068 C51.13437244 144.17692939 46.86506321 142.04445156 42.34121704 140.04660034 C40.01015839 138.99600281 37.90220397 137.70507842 35.76220703 136.31030273 C34.58984723 135.60061755 33.41673377 134.89217502 32.24267578 134.18530273 C31.3406543 133.63422852 31.3406543 133.63422852 30.42041016 133.07202148 C24.61172113 129.05335258 24.61172113 129.05335258 18.09814453 128.98608398 Z M73.43017578 159.18530273 C72.14664323 163.03590039 72.31536604 166.65024634 72.34838867 170.66064453 C72.35145523 171.52605362 72.35452179 172.39146271 72.35768127 173.28309631 C72.36483839 175.16394153 72.37422947 177.04477926 72.38557625 178.92560387 C72.40295895 181.90628428 72.41326422 184.88691111 72.42149353 187.86763 C72.44594784 196.34328286 72.48140177 204.81886388 72.52612305 213.29443359 C72.55297955 218.47852411 72.56997603 223.66257255 72.58099174 228.84671974 C72.58718328 230.81900393 72.59716563 232.79128012 72.61107063 234.76352501 C72.63039316 237.53006624 72.63719808 240.29638841 72.64135742 243.06298828 C72.65011902 243.87107941 72.65888062 244.67917053 72.66790771 245.51174927 C72.64686628 257.83707236 72.64686628 257.83707236 68.65283203 262.06811523 C64.60369099 264.39655439 60.53593745 266.6801342 56.42626953 268.90014648 C50.03853752 272.37861971 43.73021149 275.98845115 37.43017578 279.62280273 C36.33189453 280.25250977 35.23361328 280.8822168 34.10205078 281.53100586 C27.90346537 285.10400562 21.82189142 288.80708141 15.80566406 292.67871094 C13.0522144 294.42501493 10.24457855 296.02651952 7.36767578 297.56030273 C6.01996094 298.2834668 6.01996094 298.2834668 4.64501953 299.02124023 C3.24702879 299.75598669 1.84275653 300.47901236 0.43017578 301.18530273 C0.43017578 302.17530273 0.43017578 303.16530273 0.43017578 304.18530273 C17.81658426 314.21434214 34.60592522 319.25166529 54.54516602 314.02197266 C70.99268137 309.31275168 84.86642294 298.84176998 93.68017578 284.12280273 C100.4041534 270.63964702 101.17515914 256.49545921 101.41845703 241.72436523 C101.44478242 240.308799 101.44478242 240.308799 101.47163963 238.86463547 C101.56006354 233.8864618 101.62273146 228.90869358 101.66577148 223.92993164 C101.71595462 218.81615816 101.8644574 213.70996471 102.03365803 208.59894753 C102.14599395 204.63353313 102.18242954 200.6699387 102.198843 196.70307541 C102.22005172 194.8184308 102.26984998 192.93386577 102.34984779 191.05080032 C102.76650276 182.39565102 102.76650276 182.39565102 100.43017578 174.18530273 C96.31444436 169.82399407 90.93784287 167.36601871 85.48601341 165.05939865 C82.70092269 163.87524072 80.04401546 162.47007609 77.36767578 161.06030273 C76.05841461 160.4285461 74.74742322 159.80023397 73.43017578 159.18530273 Z M44.55517578 216.24780273 C43.05470703 217.08988281 43.05470703 217.08988281 41.52392578 217.94897461 C35.53561483 221.3338403 29.68331051 224.86649347 23.91674805 228.6171875 C20.53327155 230.75092039 17.03563647 232.63489464 13.51220703 234.52514648 C5.05157433 239.08252151 -3.38484971 243.69517767 -11.44482422 248.93530273 C-25.08624322 257.75606991 -25.08624322 257.75606991 -32.56982422 258.18530273 C-35.05749803 257.31264736 -37.08779224 256.42169715 -39.38232422 255.18530273 C-40.05247559 254.83790039 -40.72262695 254.49049805 -41.41308594 254.13256836 C-50.3821591 249.37826276 -59.01841132 244.01193944 -67.69091797 238.74389648 C-73.21461215 235.38906844 -78.78522658 232.14294695 -84.41357422 228.96655273 C-86.75468824 227.64532997 -89.08683451 226.31263873 -91.41357422 224.96655273 C-92.05593018 224.5958667 -92.69828613 224.22518066 -93.36010742 223.84326172 C-95.14290308 222.81386986 -96.92475567 221.78284523 -98.70654297 220.75170898 C-101.51615923 219.10436542 -101.51615923 219.10436542 -104.56982422 218.18530273 C-106.5073423 220.12282081 -105.85784003 223.61636446 -105.88232422 226.24780273 C-105.88232422 243.54250467 -100.22351442 258.57539758 -88.25732422 271.12280273 C-74.14772332 284.3214816 -58.05610005 289.71424597 -38.94482422 289.38842773 C-22.3815451 288.80097579 -8.80222342 280.31102808 4.96142578 271.88452148 C10.84871931 268.29834576 16.83229816 264.87613359 22.80517578 261.43530273 C23.91103027 260.79713623 25.01688477 260.15896973 26.15625 259.50146484 C30.74367181 256.8594561 35.33358648 254.22627203 39.96923828 251.66967773 C40.66452637 251.26531494 41.35981445 250.86095215 42.07617188 250.44433594 C44.43017578 249.18530273 44.43017578 249.18530273 47.62402344 247.90087891 C51.16425835 246.30145042 53.67975957 244.94185329 56.43017578 242.18530273 C57.91922447 236.63791123 57.57451751 231.4304158 57.18017578 225.74780273 C57.11991675 224.23824922 57.06517509 222.72846477 57.01611328 221.21850586 C56.8844907 217.53593824 56.67789967 213.86209684 56.43017578 210.18530273 C52.74198936 210.18530273 47.69605798 214.46887876 44.55517578 216.24780273 Z " fill="#000500" transform="translate(312.56982421875,17.814697265625)"/>
</svg>
