<?xml version="1.0" encoding="UTF-8"?>
<svg version="1.1" xmlns="http://www.w3.org/2000/svg" width="500" height="500">
<path d="M0 0 C11.18283199 11.05126926 16.63902691 24.22324466 16.76977539 39.83569336 C16.76961804 42.29541584 16.76402661 44.75514209 16.75390625 47.21484375 C16.75178383 49.16433678 16.75178383 49.16433678 16.74961853 51.1532135 C16.74582334 54.58743253 16.73601908 58.02160842 16.72491455 61.45581055 C16.71463555 64.96858131 16.71010708 68.48135912 16.70507812 71.99414062 C16.69439376 78.87111133 16.67735388 85.74805359 16.65625 92.625 C17.28692886 92.62055878 17.91760773 92.61611755 18.56739807 92.61154175 C25.2036815 92.56687707 31.83992139 92.53695692 38.47631836 92.51513672 C40.944435 92.50515412 43.41254004 92.49156332 45.88061523 92.47412109 C82.62392764 92.2211807 82.62392764 92.2211807 93.65625 98.625 C94.39101563 99.04652344 95.12578125 99.46804687 95.8828125 99.90234375 C116.07035032 112.42416704 123.48898407 133.82713341 128.69555664 155.86328125 C138.97816193 201.65669932 135.89515856 247.28548458 112.50390625 288.79296875 C109.38739529 293.56986187 105.70940746 297.62995233 101.65625 301.625 C101.08132813 302.21023438 100.50640625 302.79546875 99.9140625 303.3984375 C86.6298924 315.91988013 68.39203636 314.9138898 51.40625 314.75 C49.58203618 314.73994655 47.75781698 314.7308249 45.93359375 314.72265625 C41.50767721 314.70083828 37.08202453 314.66643984 32.65625 314.625 C32.67196045 315.86475586 32.6876709 317.10451172 32.70385742 318.38183594 C32.75864434 323.03362388 32.79277549 327.68538399 32.82104492 332.33740234 C32.83602142 334.34103205 32.85640981 336.34462961 32.88256836 338.34814453 C33.117189 356.79576765 31.87047212 372.06341059 18.65625 386.25 C-8.80092589 411.8519613 -52.09971679 419.75059645 -88.43945312 418.75683594 C-119.28042576 417.35685904 -155.51107403 408.93969537 -177.34375 385.625 C-185.11803189 375.72204569 -189.36920838 365.98213364 -189.54907227 353.3659668 C-189.5789901 351.50460335 -189.5789901 351.50460335 -189.60951233 349.6056366 C-189.62649257 348.26183189 -189.64337152 346.91802591 -189.66015625 345.57421875 C-189.68074526 344.19130357 -189.70174223 342.8083944 -189.72312927 341.42549133 C-189.77814899 337.79732151 -189.8276463 334.16909679 -189.87597656 330.54083252 C-189.92633898 326.833813 -189.98194787 323.12687254 -190.03710938 319.41992188 C-190.14444484 312.155015 -190.24594373 304.89004208 -190.34375 297.625 C-191.0790947 297.62135437 -191.81443939 297.61770874 -192.57206726 297.61395264 C-199.55845609 297.57582442 -206.54438471 297.51869577 -213.53042889 297.44109726 C-217.12064423 297.40186511 -220.71062321 297.36955971 -224.30102539 297.35400391 C-227.77674599 297.33867473 -231.25181568 297.30395051 -234.72724342 297.25669098 C-236.67488756 297.23499418 -238.62271628 297.23254034 -240.57048035 297.23065186 C-255.43357099 296.99047845 -268.09686581 292.56544601 -279.09375 282.375 C-302.83138755 256.88111719 -308.62916004 211.36403293 -307.44873047 177.85009766 C-306.02010115 147.56980099 -296.73377636 110.24435516 -274.34375 88.625 C-273.7353125 88.03074219 -273.126875 87.43648438 -272.5 86.82421875 C-259.18712606 74.63083648 -241.98665762 75.20366274 -225.03125 75.4375 C-223.11524495 75.45258155 -221.19922836 75.46626378 -219.28320312 75.47851562 C-214.63642831 75.51122909 -209.99022005 75.56281747 -205.34375 75.625 C-205.35422363 74.48659668 -205.36469727 73.34819336 -205.37548828 72.17529297 C-205.41214019 67.88496135 -205.43481204 63.59464307 -205.45361328 59.30419922 C-205.46356926 57.45977438 -205.47713892 55.61536488 -205.49462891 53.77099609 C-205.66883903 34.90506426 -205.66932176 18.72870882 -191.78125 4.4375 C-146.85438776 -39.50919071 -47.00408223 -41.4444596 0 0 Z M-160.21875 16.9375 C-165.04158348 23.03696588 -166.23120036 27.97542787 -165.34375 35.625 C-163.57369762 41.03927788 -160.16074731 44.69330688 -155.34375 47.625 C-150.44552894 49.51568142 -146.06215499 50.21810151 -141.03125 48.5 C-135.19219981 45.8041482 -131.68768448 42.71922965 -129.34375 36.625 C-127.93566846 30.38921032 -128.39519711 26.30279194 -131.34375 20.625 C-134.76677174 15.31341455 -138.62782036 13.34241538 -144.65625 11.75 C-150.76357679 11.54297197 -155.45710538 13.10748151 -160.21875 16.9375 Z M-39.21875 346.5625 C-42.78842232 351.70702776 -43.88788827 355.31299606 -43.34375 361.625 C-41.28340073 367.91448725 -38.160412 371.29119435 -33.15625 375.4375 C-28.22090122 377.52131393 -23.23729746 377.42373966 -18.09375 376.00390625 C-12.60342788 373.66428034 -9.66056301 370.06404169 -7.34375 364.625 C-5.68290222 359.39487686 -6.27334642 354.8299711 -8.19921875 349.73828125 C-10.74977343 345.0288953 -14.60903139 342.40385326 -19.40625 340.25 C-27.31027222 338.56829314 -33.81313026 340.39148277 -39.21875 346.5625 Z " fill="#FEEFAD" transform="translate(336.34375,39.375)"/>
<path d="M0 0 C12.68912045 12.53983668 16.15793319 25.13521388 16.3402462 42.44028378 C16.35132236 46.20129782 16.33725164 49.96167104 16.3203125 53.72265625 C16.32368593 56.36576052 16.32854292 59.00886328 16.33480835 61.65196228 C16.34385996 67.17345887 16.33203492 72.69461913 16.30810547 78.21606445 C16.28088878 84.56873124 16.28972953 90.92059555 16.3172375 97.27324301 C16.34279667 103.42587975 16.33992055 109.57816513 16.32532883 115.73083305 C16.32200989 118.3305822 16.3260282 120.93035204 16.33772659 123.53007698 C16.35052142 127.171715 16.33093534 130.81184271 16.30322266 134.45336914 C16.31334381 135.51189087 16.32346497 136.5704126 16.33389282 137.66101074 C16.10685781 153.88306814 6.47991859 168.15918719 -4.80224609 179.20410156 C-9.20753546 183.26472623 -14.03362595 186.84119718 -19.34375 189.625 C-20.12130646 190.04495239 -20.89886292 190.46490479 -21.69998169 190.89758301 C-31.96184775 195.62603737 -42.02792241 195.29895143 -53.13685608 195.21658516 C-56.62834941 195.19092225 -60.11867618 195.196043 -63.61022949 195.20848083 C-71.02153437 195.22911682 -78.43246965 195.20961282 -85.84375 195.1875 C-94.44031999 195.16631142 -103.03650949 195.16196198 -111.6330719 195.18800163 C-115.05249387 195.19133556 -118.4711689 195.17023633 -121.89050293 195.14759827 C-135.95247883 195.12871708 -147.90551801 196.10543795 -160.09375 203.8125 C-161.03541016 204.39668701 -161.03541016 204.39668701 -161.99609375 204.99267578 C-171.41638888 211.03089073 -178.03047453 218.79996507 -183.34375 228.625 C-183.84387856 229.50314613 -183.84387856 229.50314613 -184.35411072 230.39903259 C-187.89801797 237.30542858 -187.94557006 243.76012442 -187.953125 251.41015625 C-187.96966125 252.70698837 -187.98619751 254.0038205 -188.00323486 255.33995056 C-188.04659869 258.75768996 -188.06683761 262.17517425 -188.08197021 265.59313965 C-188.10165439 269.09284358 -188.14361085 272.59227641 -188.18359375 276.09179688 C-188.25855895 282.93609494 -188.30905319 289.78038237 -188.34375 296.625 C-196.33335079 296.71832867 -204.32271786 296.78907939 -212.31273174 296.83224869 C-216.02419696 296.85298433 -219.73528498 296.88103909 -223.4465332 296.92675781 C-227.03868544 296.9707245 -230.63047854 296.99424205 -234.22287941 297.00450897 C-236.23722318 297.01532566 -238.25142563 297.0464672 -240.26554871 297.07818604 C-255.28875147 297.08178738 -267.98439585 292.66966818 -279.09375 282.375 C-302.83138755 256.88111719 -308.62916004 211.36403293 -307.44873047 177.85009766 C-306.02010115 147.56980099 -296.73377636 110.24435516 -274.34375 88.625 C-273.7353125 88.03074219 -273.126875 87.43648438 -272.5 86.82421875 C-259.18712606 74.63083648 -241.98665762 75.20366274 -225.03125 75.4375 C-223.11524495 75.45258155 -221.19922836 75.46626378 -219.28320312 75.47851562 C-214.63642831 75.51122909 -209.99022005 75.56281747 -205.34375 75.625 C-205.35422363 74.48659668 -205.36469727 73.34819336 -205.37548828 72.17529297 C-205.41214019 67.88496135 -205.43481204 63.59464307 -205.45361328 59.30419922 C-205.46356926 57.45977438 -205.47713892 55.61536488 -205.49462891 53.77099609 C-205.66883903 34.90506426 -205.66932176 18.72870882 -191.78125 4.4375 C-146.85438776 -39.50919071 -47.00408223 -41.4444596 0 0 Z M-160.21875 16.9375 C-165.04158348 23.03696588 -166.23120036 27.97542787 -165.34375 35.625 C-163.57369762 41.03927788 -160.16074731 44.69330688 -155.34375 47.625 C-150.44552894 49.51568142 -146.06215499 50.21810151 -141.03125 48.5 C-135.19219981 45.8041482 -131.68768448 42.71922965 -129.34375 36.625 C-127.93566846 30.38921032 -128.39519711 26.30279194 -131.34375 20.625 C-134.76677174 15.31341455 -138.62782036 13.34241538 -144.65625 11.75 C-150.76357679 11.54297197 -155.45710538 13.10748151 -160.21875 16.9375 Z " fill="#5687AF" transform="translate(336.34375,39.375)"/>
<path d="M0 0 C0.33 0 0.66 0 1 0 C1 19.47 1 38.94 1 59 C17.76679071 58.92126909 17.76679071 58.92126909 34.53344727 58.81982422 C67.12417058 58.68701855 67.12417058 58.68701855 78 65 C78.73476563 65.42152344 79.46953125 65.84304687 80.2265625 66.27734375 C100.41410032 78.79916704 107.83273407 100.20213341 113.03930664 122.23828125 C123.32191193 168.03169932 120.23890856 213.66048458 96.84765625 255.16796875 C93.73114529 259.94486187 90.05315746 264.00495233 86 268 C85.42507813 268.58523438 84.85015625 269.17046875 84.2578125 269.7734375 C70.9736424 282.29488013 52.73578636 281.2888898 35.75 281.125 C33.92578618 281.11494655 32.10156698 281.1058249 30.27734375 281.09765625 C25.85142721 281.07583828 21.42577453 281.04143984 17 281 C17.02356567 282.85963379 17.02356567 282.85963379 17.04760742 284.75683594 C17.10239434 289.40862388 17.13652549 294.06038399 17.16479492 298.71240234 C17.17977142 300.71603205 17.20015981 302.71962961 17.22631836 304.72314453 C17.460939 323.17076765 16.21422212 338.43841059 3 352.625 C-24.45717589 378.2269613 -67.75596679 386.12559645 -104.09570312 385.13183594 C-134.93667576 383.73185904 -171.16732403 375.31469537 -193 352 C-200.80517863 342.05768912 -205.02771979 332.30968935 -205.20532227 319.64916992 C-205.22526749 318.3882402 -205.24521271 317.12731049 -205.26576233 315.82817078 C-205.28274268 314.46227133 -205.29962163 313.09637062 -205.31640625 311.73046875 C-205.33699474 310.32513341 -205.3579917 308.919804 -205.37937927 307.51448059 C-205.43440435 303.82712627 -205.48389933 300.13971788 -205.53222656 296.45227051 C-205.58258504 292.68492864 -205.638196 288.91766466 -205.69335938 285.15039062 C-205.80070141 277.76699317 -205.90219888 270.38353066 -206 263 C-205.34 263 -204.68 263 -204 263 C-204.01776489 262.29637329 -204.03552979 261.59274658 -204.05383301 260.86779785 C-204.21564958 254.16254069 -204.3366824 247.45784576 -204.41449738 240.75106049 C-204.45585321 237.30469462 -204.51171769 233.85997135 -204.60351562 230.41455078 C-205.12763421 210.19968311 -204.10023903 196.71496174 -190.3125 181.25 C-185.47791454 176.2405019 -180.45873839 172.10143529 -174.5 168.5 C-173.5821875 167.9328125 -172.664375 167.365625 -171.71875 166.78125 C-159.43645107 160.53743143 -147.7589505 160.46578056 -134.26802444 160.57527542 C-130.78448131 160.60207864 -127.30183634 160.60180449 -123.81820679 160.59457397 C-113.9229277 160.5790184 -104.02797147 160.613171 -94.1328125 160.66015625 C-88.0551793 160.68716167 -81.97808627 160.68477905 -75.90043259 160.66569138 C-73.60178654 160.66461742 -71.30310318 160.67489765 -69.00456619 160.69731522 C-47.36136907 160.90777316 -33.53325082 156.52923839 -17.47265625 141.66015625 C-6.78130905 130.67639614 -0.71296584 117.18935995 -0.68115234 101.94580078 C-0.67110672 100.84277115 -0.6610611 99.73974152 -0.65071106 98.60328674 C-0.61988758 94.96730049 -0.60284596 91.33138786 -0.5859375 87.6953125 C-0.56722522 85.17039355 -0.54765176 82.64548084 -0.5272522 80.12057495 C-0.48117351 74.16029957 -0.44376292 68.20000995 -0.41057932 62.23965251 C-0.37229959 55.45119234 -0.32290486 48.66282712 -0.27259517 41.87444711 C-0.16939782 27.91636858 -0.08009795 13.95822884 0 0 Z M17 76 C16.98598145 77.57128662 16.98598145 77.57128662 16.97167969 79.17431641 C16.93124975 83.12963558 16.86535657 87.08421933 16.79248047 91.0390625 C16.76457351 92.73785828 16.74321151 94.43677661 16.72900391 96.13574219 C16.51882769 119.87164327 8.86586718 138.32404729 -7.3125 155.75 C-14.31972155 162.40852095 -23.11273214 168.21893574 -32 172 C-32.82371094 172.35835938 -33.64742187 172.71671875 -34.49609375 173.0859375 C-42.44915815 176.41842511 -49.44844043 177.14671641 -58.00585938 177.1418457 C-58.99861877 177.14532013 -59.99137817 177.14879456 -61.01422119 177.15237427 C-63.16508936 177.1597104 -65.31596499 177.16506717 -67.46684265 177.16866493 C-70.88213133 177.17586213 -74.29727897 177.19155491 -77.71252441 177.21000671 C-87.4216107 177.26230997 -97.13061972 177.31039194 -106.83984375 177.32592773 C-112.78620188 177.33606433 -118.73220412 177.36553373 -124.67842102 177.40724754 C-126.93318477 177.4194833 -129.18799896 177.42469253 -131.4427948 177.42244911 C-149.15133963 177.40917008 -163.7547339 177.82193669 -176.9609375 190.94921875 C-185.94060647 200.59194345 -188.30244136 210.92088657 -188.29052734 223.81542969 C-188.29724457 224.87021515 -188.30396179 225.92500061 -188.31088257 227.01174927 C-188.32980397 230.48183976 -188.33378392 233.9517362 -188.3359375 237.421875 C-188.34236977 239.84792153 -188.34909845 242.27396728 -188.35610962 244.70001221 C-188.36806797 249.78049517 -188.37179195 254.86091021 -188.37060547 259.94140625 C-188.37040243 266.42853961 -188.39769566 272.91523415 -188.43214989 279.40226364 C-188.45446639 284.41251599 -188.45844153 289.42266356 -188.45738602 294.43296051 C-188.45973515 296.82339234 -188.4685196 299.21382737 -188.48405075 301.6042099 C-189.00489134 322.62940453 -189.00489134 322.62940453 -179.9296875 341.0703125 C-159.72068812 361.27931188 -125.84710313 368.10990858 -98.125 368.3125 C-69.20675642 368.3125 -32.91093327 361.69930546 -10.59765625 341.70703125 C5.82062488 324.16476021 -1 308.29407181 -1 281 C-35.32 281 -69.64 281 -105 281 C-105 275.06 -105 269.12 -105 263 C-101.91381821 263.01332367 -101.91381821 263.01332367 -98.76528931 263.0269165 C-79.37255813 263.10871804 -59.97984974 263.1682123 -40.58698463 263.20724869 C-30.61700238 263.227852 -20.64714694 263.25592991 -10.67724609 263.30175781 C-1.98494834 263.34169392 6.70725754 263.36744902 15.39964449 263.37635398 C19.99993746 263.38155727 24.59996768 263.39374022 29.20017624 263.42292023 C33.53564261 263.45019649 37.87073954 263.45842048 42.20628357 263.45243073 C43.79208513 263.45352553 45.37789985 263.46140651 46.96362686 263.4768219 C56.79867482 263.56769158 65.18217638 263.03124786 73.48046875 257.28125 C95.39037845 234.41873553 102.5332557 195.77898985 102.21484375 165.30078125 C101.99726429 156.36650928 100.70379325 147.75789278 99 139 C98.82307617 138.06236816 98.64615234 137.12473633 98.46386719 136.15869141 C94.49886204 115.4605428 89.78734654 94.29956297 72 81 C64.48519833 76.30324896 56.03238496 75.6967734 47.37109375 75.8046875 C46.49598648 75.8075174 45.62087921 75.81034729 44.71925354 75.81326294 C41.95852245 75.82434606 39.19813095 75.84942743 36.4375 75.875 C34.55143702 75.88504518 32.66536889 75.89416832 30.77929688 75.90234375 C26.18606957 75.92424632 21.59309211 75.95869236 17 76 Z " fill="#BB9507" transform="translate(352,73)"/>
<path d="M0 0 C12.68912045 12.53983668 16.15793319 25.13521388 16.3402462 42.44028378 C16.35132236 46.20129782 16.33725164 49.96167104 16.3203125 53.72265625 C16.32368593 56.36576052 16.32854292 59.00886328 16.33480835 61.65196228 C16.34385996 67.17345887 16.33203492 72.69461913 16.30810547 78.21606445 C16.28088878 84.56873124 16.28972953 90.92059555 16.3172375 97.27324301 C16.34279667 103.42587975 16.33992055 109.57816513 16.32532883 115.73083305 C16.32200989 118.3305822 16.3260282 120.93035204 16.33772659 123.53007698 C16.35052142 127.171715 16.33093534 130.81184271 16.30322266 134.45336914 C16.31334381 135.51189087 16.32346497 136.5704126 16.33389282 137.66101074 C16.10685781 153.88306814 6.47991859 168.15918719 -4.80224609 179.20410156 C-9.20753546 183.26472623 -14.03362595 186.84119718 -19.34375 189.625 C-20.12130646 190.04495239 -20.89886292 190.46490479 -21.69998169 190.89758301 C-31.96184775 195.62603737 -42.02792241 195.29895143 -53.13685608 195.21658516 C-56.62834941 195.19092225 -60.11867618 195.196043 -63.61022949 195.20848083 C-71.02153437 195.22911682 -78.43246965 195.20961282 -85.84375 195.1875 C-94.44031999 195.16631142 -103.03650949 195.16196198 -111.6330719 195.18800163 C-115.05249387 195.19133556 -118.4711689 195.17023633 -121.89050293 195.14759827 C-135.95247883 195.12871708 -147.90551801 196.10543795 -160.09375 203.8125 C-161.03541016 204.39668701 -161.03541016 204.39668701 -161.99609375 204.99267578 C-171.41638888 211.03089073 -178.03047453 218.79996507 -183.34375 228.625 C-183.84387856 229.50314613 -183.84387856 229.50314613 -184.35411072 230.39903259 C-187.89801797 237.30542858 -187.94557006 243.76012442 -187.953125 251.41015625 C-187.96966125 252.70698837 -187.98619751 254.0038205 -188.00323486 255.33995056 C-188.04659869 258.75768996 -188.06683761 262.17517425 -188.08197021 265.59313965 C-188.10165439 269.09284358 -188.14361085 272.59227641 -188.18359375 276.09179688 C-188.25855895 282.93609494 -188.30905319 289.78038237 -188.34375 296.625 C-196.33335079 296.71832867 -204.32271786 296.78907939 -212.31273174 296.83224869 C-216.02419696 296.85298433 -219.73528498 296.88103909 -223.4465332 296.92675781 C-227.03868544 296.9707245 -230.63047854 296.99424205 -234.22287941 297.00450897 C-236.23722318 297.01532566 -238.25142563 297.0464672 -240.26554871 297.07818604 C-255.28875147 297.08178738 -267.98439585 292.66966818 -279.09375 282.375 C-302.83138755 256.88111719 -308.62916004 211.36403293 -307.44873047 177.85009766 C-306.02010115 147.56980099 -296.73377636 110.24435516 -274.34375 88.625 C-273.7353125 88.03074219 -273.126875 87.43648438 -272.5 86.82421875 C-259.18712606 74.63083648 -241.98665762 75.20366274 -225.03125 75.4375 C-223.11524495 75.45258155 -221.19922836 75.46626378 -219.28320312 75.47851562 C-214.63642831 75.51122909 -209.99022005 75.56281747 -205.34375 75.625 C-205.35422363 74.48659668 -205.36469727 73.34819336 -205.37548828 72.17529297 C-205.41214019 67.88496135 -205.43481204 63.59464307 -205.45361328 59.30419922 C-205.46356926 57.45977438 -205.47713892 55.61536488 -205.49462891 53.77099609 C-205.66883903 34.90506426 -205.66932176 18.72870882 -191.78125 4.4375 C-146.85438776 -39.50919071 -47.00408223 -41.4444596 0 0 Z M-178.15625 15.0625 C-194.9002767 34.67693128 -187.34375 38.36735229 -187.34375 75.625 C-153.02375 75.625 -118.70375 75.625 -83.34375 75.625 C-83.34375 81.235 -83.34375 86.845 -83.34375 92.625 C-85.34887161 92.61833817 -87.35399323 92.61167633 -89.4198761 92.60481262 C-108.3266785 92.54343958 -127.23346773 92.49883059 -146.14034748 92.46956348 C-155.86028802 92.45411642 -165.58015531 92.43306831 -175.30004883 92.39868164 C-183.77517901 92.36871303 -192.25025612 92.34940931 -200.72543782 92.34273452 C-205.2100187 92.33883487 -209.6944478 92.32971547 -214.17897987 92.30780983 C-218.40688656 92.28732661 -222.63458007 92.28118993 -226.86253166 92.28567696 C-228.4075906 92.28485702 -229.95265726 92.27896221 -231.49767303 92.26738358 C-244.25128556 92.17655812 -254.64863404 92.78960151 -264.06640625 102.05859375 C-280.1792503 120.21663584 -289.44219647 150.7638832 -290.34375 174.625 C-290.37936035 175.4691748 -290.4149707 176.31334961 -290.45166016 177.18310547 C-291.56856174 208.52787554 -287.11749508 247.79991209 -265.2421875 271.90234375 C-260.11594918 276.55393037 -253.83410493 279.7580262 -246.87231445 279.73852539 C-245.97160721 279.73844986 -245.07089996 279.73837433 -244.14289856 279.73829651 C-242.68964424 279.73055458 -242.68964424 279.73055458 -241.20703125 279.72265625 C-240.21245407 279.7212413 -239.21787689 279.71982635 -238.19316101 279.71836853 C-235.01416018 279.71276761 -231.83522957 279.70021496 -228.65625 279.6875 C-226.50195414 279.68248512 -224.34765718 279.67792219 -222.19335938 279.67382812 C-216.91013226 279.66279788 -211.62694615 279.64605886 -206.34375 279.625 C-206.3344043 278.61300537 -206.32505859 277.60101074 -206.31542969 276.55834961 C-206.27492179 272.72785749 -206.20901141 268.89811854 -206.13623047 265.06811523 C-206.10836716 263.42466054 -206.08698446 261.78108045 -206.07275391 260.13745117 C-205.865493 237.52528667 -199.5322725 216.97786066 -183.59375 200.3125 C-168.60428751 186.28861638 -151.5926355 178.48964862 -131.05908203 178.46728516 C-130.03717773 178.46220444 -129.01527344 178.45712372 -127.96240234 178.45188904 C-125.74931817 178.4412124 -123.53622338 178.43258168 -121.32312393 178.42576981 C-117.81707434 178.41394619 -114.31114601 178.39448506 -110.80514526 178.37265015 C-100.83872521 178.31114512 -90.87231898 178.25698788 -80.90576172 178.22363281 C-74.80386706 178.20266442 -68.70219616 178.16734691 -62.60042953 178.12287521 C-60.27930207 178.10873649 -57.95813506 178.0999976 -55.63696671 178.09682083 C-52.38680917 178.09190091 -49.1372438 178.06871522 -45.88720703 178.04150391 C-44.45772232 178.04601311 -44.45772232 178.04601311 -42.99935913 178.0506134 C-32.03540187 177.91460423 -23.88277374 173.36199528 -15.34375 166.625 C-5.80020022 156.81684164 -0.04083006 145.7157411 -0.05322266 132.13427734 C-0.04650543 131.07832367 -0.03978821 130.02237 -0.03286743 128.93441772 C-0.01387007 125.44320974 -0.00996184 121.95219396 -0.0078125 118.4609375 C-0.00138409 116.02820762 0.00534431 113.59547851 0.01235962 111.16275024 C0.02433796 106.0601421 0.02804003 100.95760168 0.02685547 95.85498047 C0.02665264 89.33515374 0.05391522 82.81576468 0.08839989 76.29604149 C0.11070702 71.2686669 0.11469177 66.24139682 0.11363602 61.21397781 C0.11598774 58.81155519 0.12478696 56.40912951 0.14030075 54.00675583 C0.16003018 50.63489516 0.15409394 47.2639675 0.14208984 43.89208984 C0.15332886 42.91091187 0.16456787 41.92973389 0.17614746 40.91882324 C0.07298506 29.43980807 -3.983941 20.22450029 -11.8984375 12.01171875 C-31.25911931 -5.91312302 -63.61024229 -10.81907908 -88.78125 -10.6875 C-89.52497864 -10.68534485 -90.26870728 -10.6831897 -91.03497314 -10.68096924 C-120.89920052 -10.54266081 -154.75248248 -5.22076518 -178.15625 15.0625 Z " fill="#2A4F72" transform="translate(336.34375,39.375)"/>
<path d="M0 0 C0.33 0 0.66 0 1 0 C0.27095835 15.84706332 -1.22955895 30.05603729 -7 45 C-7.67196934 46.99822462 -8.33897885 48.99812701 -9 51 C-11.03496796 56.68593988 -12.96543248 61.4089404 -17 66 C-17.33 66.99 -17.66 67.98 -18 69 C-19.671875 70.1328125 -19.671875 70.1328125 -21.75 71.125 C-22.42546875 71.45757812 -23.1009375 71.79015625 -23.796875 72.1328125 C-28.56498037 74.00961993 -33.1185078 74.12392321 -38.20698547 74.12025452 C-38.92179571 74.12110894 -39.63660594 74.12196337 -40.37307709 74.12284368 C-42.7621715 74.12448746 -45.15119529 74.11899519 -47.5402832 74.11352539 C-49.25528461 74.11324326 -50.97028614 74.11340177 -52.68528748 74.1139679 C-57.33774616 74.11425484 -61.99017907 74.10837468 -66.64263177 74.10139394 C-71.50599045 74.09514332 -76.36934972 74.09455525 -81.23271179 74.09336853 C-90.44070248 74.09026026 -99.64868129 74.08205365 -108.85666674 74.07201904 C-119.34025755 74.06084227 -129.82384893 74.05534351 -140.30744421 74.05032361 C-161.87163757 74.03987063 -183.43581466 74.02153139 -205 74 C-205 91.16 -205 108.32 -205 126 C-170.35 126 -135.7 126 -100 126 C-100 133.59 -100 141.18 -100 149 C-101.32 150.32 -102.64 151.64 -104 153 C-104.125 147.25 -104.125 147.25 -103 145 C-103.66 145 -104.32 145 -105 145 C-105.33 144.34 -105.66 143.68 -106 143 C-107.64556566 141.96564444 -109.3170608 140.97236487 -111 140 C-111.886875 139.29875 -112.77375 138.5975 -113.6875 137.875 C-118.11593007 135.36834147 -121.92929936 134.67134348 -127 135 C-132.34785839 136.5567396 -135.99885318 139.26742233 -139 144 C-141.14335881 148.07238173 -141.39412153 151.42819023 -141 156 C-139.26505341 161.29615274 -136.9446592 164.16195321 -133 168 C-133 168.99 -133 169.98 -133 171 C-137.63933597 172.44403173 -142.30375178 173.75656866 -147 175 C-148.07652832 175.28810547 -148.07652832 175.28810547 -149.17480469 175.58203125 C-164.4043809 179.51483354 -179.34952907 179.44095388 -195 179 C-195 178.34 -195 177.68 -195 177 C-196.12535156 177.03609375 -197.25070313 177.0721875 -198.41015625 177.109375 C-203.23554882 177.10512823 -207.73584265 176.27564475 -212.4375 175.25 C-213.27788818 175.06953125 -214.11827637 174.8890625 -214.98413086 174.703125 C-219.92581448 173.59481788 -224.4886957 172.30741055 -229.0234375 170.00390625 C-231.35828672 168.81802433 -233.74645166 167.88439633 -236.1875 166.9375 C-239.90792669 165.46906326 -243.46165865 163.86228492 -247 162 C-247 161.34 -247 160.68 -247 160 C-247.8971875 159.6596875 -247.8971875 159.6596875 -248.8125 159.3125 C-251.68949909 157.58630055 -252.52820696 156.01315959 -254 153 C-254.42132568 149.75712585 -254.42132568 149.75712585 -254.48339844 146.04174805 C-254.49829315 145.36136475 -254.51318787 144.68098145 -254.52853394 143.97998047 C-254.57216546 141.7404656 -254.59276239 139.50158788 -254.609375 137.26171875 C-254.61785713 136.49297739 -254.62633926 135.72423603 -254.63507843 134.93219948 C-254.67996194 130.86402953 -254.70770759 126.79617613 -254.72070312 122.7277832 C-254.73714778 118.5404857 -254.80921722 114.35612038 -254.89461899 110.16974163 C-254.95070013 106.93615968 -254.96612489 103.70327485 -254.97071075 100.46924782 C-254.97974752 98.92664364 -255.0036908 97.38404759 -255.0432663 95.84192467 C-255.32975082 83.82068705 -255.32975082 83.82068705 -252.0252533 79.29618835 C-249.77700321 77.27258303 -247.55585189 75.60897146 -245 74 C-244.10410156 73.31808594 -243.20820313 72.63617188 -242.28515625 71.93359375 C-241.18494141 71.19302734 -241.18494141 71.19302734 -240.0625 70.4375 C-238.81146484 69.58671875 -238.81146484 69.58671875 -237.53515625 68.71875 C-236.69855469 68.1515625 -235.86195313 67.584375 -235 67 C-233.33245782 65.81372975 -231.66578843 64.62623165 -230 63.4375 C-206.42371938 47 -206.42371938 47 -197 47 C-197 46.34 -197 45.68 -197 45 C-195.14453125 44.31640625 -193.2890625 43.6328125 -191.43359375 42.94921875 C-189.60627951 42.2364782 -187.80923169 41.44535266 -186.03125 40.6171875 C-180.57551127 38.26858433 -174.80045134 36.91670095 -169.0625 35.4375 C-167.86133545 35.1266748 -166.6601709 34.81584961 -165.42260742 34.49560547 C-156.60454907 32.27372315 -148.0502583 30.78513378 -139 30 C-137.79045654 29.83411377 -136.58091309 29.66822754 -135.3347168 29.49731445 C-130.98848022 28.94898872 -126.68919358 28.81360827 -122.3125 28.75390625 C-120.63947832 28.72280557 -118.9664642 28.69129595 -117.29345703 28.65942383 C-116.42899963 28.644086 -115.56454224 28.62874817 -114.67388916 28.61294556 C-65.90190561 29.7451447 -65.90190561 29.7451447 -23 12 C-21.02067285 11.38708335 -19.01575781 10.8547116 -17 10.375 C-15.9275 10.11460937 -14.855 9.85421875 -13.75 9.5859375 C-11 9 -11 9 -9 9 C-9 8.01 -9 7.02 -9 6 C-8.43410156 5.73445312 -7.86820313 5.46890625 -7.28515625 5.1953125 C-6.55167969 4.84210938 -5.81820312 4.48890625 -5.0625 4.125 C-3.96615234 3.60292969 -3.96615234 3.60292969 -2.84765625 3.0703125 C-0.83667541 2.1315023 -0.83667541 2.1315023 0 0 Z " fill="#FED230" transform="translate(435,245)"/>
<path d="M0 0 C0.10196962 7.07995205 0.17170349 14.15971257 0.21972656 21.24023438 C0.23976034 23.64557981 0.26699522 26.05087703 0.30175781 28.45605469 C0.35063808 31.92655378 0.37305205 35.39640526 0.390625 38.8671875 C0.41127014 39.93113739 0.43191528 40.99508728 0.45318604 42.09127808 C0.45573022 50.68325747 -1.34461069 58.81027111 -7.25 65.375 C-7.77078125 65.98085937 -8.2915625 66.58671875 -8.828125 67.2109375 C-15.19074857 72.45209145 -21.09781938 73.58422319 -29.18530273 73.49829102 C-30.6676516 73.50656921 -30.6676516 73.50656921 -32.1799469 73.51501465 C-34.31548011 73.52430318 -36.45106872 73.52446599 -38.58660698 73.51642036 C-41.98209331 73.50372491 -45.37677427 73.51514451 -48.77223206 73.53245544 C-54.77115654 73.55913181 -60.76988249 73.56475293 -66.76885986 73.56335449 C-76.33657651 73.561126 -85.90404487 73.57563684 -95.47166634 73.61894035 C-98.78881903 73.62866505 -102.10557065 73.6201165 -105.42271423 73.61024475 C-133.43452321 73.63718803 -156.86707542 80.28571369 -177.2578125 100.203125 C-188.55981695 111.73052555 -197.11868078 125.21974595 -201 141 C-201.32798584 141.8964624 -201.65597168 142.7929248 -201.99389648 143.71655273 C-203.04238305 147.13831828 -203.40377588 150.14451011 -203.6328125 153.7109375 C-203.71660156 154.95488281 -203.80039063 156.19882812 -203.88671875 157.48046875 C-203.96535156 158.76566406 -204.04398438 160.05085937 -204.125 161.375 C-204.21136719 162.68339844 -204.29773438 163.99179687 -204.38671875 165.33984375 C-204.59822937 168.55950544 -204.80240911 171.77945906 -205 175 C-208.49971199 175.1173794 -211.99890955 175.18763961 -215.5 175.25 C-216.48226562 175.28351563 -217.46453125 175.31703125 -218.4765625 175.3515625 C-226.60154947 175.45989566 -231.35735783 173.42842811 -238 169 C-252.63069551 148.13327033 -255.42423377 116.78024299 -255 92 C-255.02964844 91.01902344 -255.05929688 90.03804688 -255.08984375 89.02734375 C-255.05086872 85.42493696 -254.74636253 82.99988241 -252.5625 80.07421875 C-250.1740544 77.8210562 -247.65587278 75.93398574 -245 74 C-243.68813623 73.00087367 -242.37699324 72.00080054 -241.06640625 71 C-226.3551722 59.93723134 -210.34087564 49.81492588 -193.09375 43.19140625 C-190.76306123 42.29385565 -188.46126531 41.36145883 -186.15625 40.40234375 C-172.92429838 35.05826953 -159.3196061 32.18193757 -145.31005859 29.61303711 C-143.29679045 29.24017118 -141.28747852 28.84357877 -139.28759766 28.40454102 C-127.44379353 25.99718487 -115.11887461 26.61520129 -103.08642578 26.54370117 C-88.36775787 26.43972673 -74.06691609 25.45250734 -59.49420166 23.35231018 C-57.15295808 23.02160559 -54.81036977 22.72537058 -52.46289062 22.44287109 C-49.66837048 22.08547829 -47.37453764 21.64236227 -44.75 20.6875 C-42.31865506 19.81386419 -39.91465523 18.97561578 -37.4296875 18.265625 C-30.60888315 16.25168277 -24.463815 13.35662834 -18.1875 10.0625 C-17.38715332 9.64347412 -16.58680664 9.22444824 -15.76220703 8.79272461 C-12.01762632 6.78394152 -8.47901995 4.69917133 -5.05078125 2.18359375 C-2 0 -2 0 0 0 Z " fill="#3772A4" transform="translate(318,127)"/>
<path d="M0 0 C0.70662781 -0.00767395 1.41325562 -0.0153479 2.14129639 -0.02325439 C15.76288362 -0.14149665 28.63634159 1.96215437 41.75 5.6875 C42.4937085 5.89769775 43.23741699 6.10789551 44.00366211 6.32446289 C54.68559486 9.45074284 64.68866831 13.64037322 73.625 20.375 C75.2028125 21.5196875 75.2028125 21.5196875 76.8125 22.6875 C82.34804389 27.97701971 87.16670875 34.68311451 87.79870605 42.53239441 C87.85567952 45.07346649 87.84986561 47.60689901 87.8203125 50.1484375 C87.81606766 51.5340538 87.81606766 51.5340538 87.81173706 52.94766235 C87.80059179 55.88190976 87.77549765 58.8158457 87.75 61.75 C87.73996289 63.74608932 87.73083832 65.74218346 87.72265625 67.73828125 C87.70067097 72.61730649 87.66618017 77.49610054 87.625 82.375 C86.965 82.375 86.305 82.375 85.625 82.375 C85.2228125 83.2721875 85.2228125 83.2721875 84.8125 84.1875 C83.62582594 86.37347854 82.52900887 87.78832594 80.625 89.375 C79.965 89.375 79.305 89.375 78.625 89.375 C78.295 90.365 77.965 91.355 77.625 92.375 C75.25 94.625 75.25 94.625 72.625 96.375 C71.635 96.045 70.645 95.715 69.625 95.375 C69.64712303 94.53721008 69.64712303 94.53721008 69.66969299 93.68249512 C69.82273098 87.84220676 69.96734304 82.0017519 70.10717773 76.16113281 C70.16037712 73.98464718 70.21568749 71.80821204 70.27319336 69.63183594 C70.3557236 66.49425134 70.43053106 63.35656046 70.50390625 60.21875 C70.53094131 59.25384644 70.55797638 58.28894287 70.58583069 57.2947998 C71.16388703 46.60970024 71.16388703 46.60970024 66.875 37.3125 C53.55278415 23.72490137 30.41698444 19.41976636 12.125 17.6640625 C9.625 17.375 9.625 17.375 8.625 16.375 C6.92941274 16.27567847 5.22974253 16.24419993 3.53125 16.2421875 C2.50128906 16.24089844 1.47132813 16.23960938 0.41015625 16.23828125 C-0.67394531 16.24214844 -1.75804687 16.24601562 -2.875 16.25 C-4.50115234 16.24419922 -4.50115234 16.24419922 -6.16015625 16.23828125 C-7.19011719 16.23957031 -8.22007812 16.24085937 -9.28125 16.2421875 C-10.70920898 16.24387939 -10.70920898 16.24387939 -12.16601562 16.24560547 C-14.34952138 16.12800544 -14.34952138 16.12800544 -15.375 17.375 C-17.368326 17.70924674 -19.37059355 17.99033826 -21.375 18.25 C-27.12017024 19.04121563 -32.84503968 19.9028351 -38.5625 20.875 C-39.29275391 20.99343262 -40.02300781 21.11186523 -40.77539062 21.23388672 C-44.24689066 21.83447252 -46.39992437 22.39161624 -49.375 24.375 C-51.5390625 24.24609375 -51.5390625 24.24609375 -54 23.8125 C-59.47619989 23.11494599 -63.35107095 24.29967552 -68.375 26.375 C-69.365 26.705 -70.355 27.035 -71.375 27.375 C-72.51709817 29.15728936 -72.51709817 29.15728936 -73.375 31.375 C-73.931875 32.426875 -73.931875 32.426875 -74.5 33.5 C-76.23291797 39.19387333 -75.90402909 45.6411409 -74.375 51.375 C-75.86 50.88 -75.86 50.88 -77.375 50.375 C-77.375 47.075 -77.375 43.775 -77.375 40.375 C-78.035 40.375 -78.695 40.375 -79.375 40.375 C-82.43912939 49.56738816 -81.00259735 59.69253104 -81.375 69.375 C-47.055 69.375 -12.735 69.375 22.625 69.375 C23.625 110.375 23.625 110.375 22.625 115.375 C23.285 115.375 23.945 115.375 24.625 115.375 C24.955 116.695 25.285 118.015 25.625 119.375 C22.739706 120.97373668 20.28864455 121.74139937 17.02734375 122.19140625 C16.14240234 122.31580078 15.25746094 122.44019531 14.34570312 122.56835938 C13.42724609 122.69017578 12.50878906 122.81199219 11.5625 122.9375 C10.22541992 123.12602539 10.22541992 123.12602539 8.86132812 123.31835938 C-1.11793973 124.69257723 -10.96808431 125.50651309 -21.04296875 125.48046875 C-45.18274251 125.5853557 -67.87686989 126.58079132 -91.375 132.375 C-92.41342041 132.61669922 -93.45184082 132.85839844 -94.52172852 133.10742188 C-101.10976876 134.67372831 -107.38328483 136.65946923 -113.6875 139.125 C-114.59556396 139.47788086 -115.50362793 139.83076172 -116.43920898 140.19433594 C-141.3508219 149.99086457 -164.31907394 163.58415041 -183.80859375 182.08203125 C-185.375 183.375 -185.375 183.375 -187.375 183.375 C-187.375 184.035 -187.375 184.695 -187.375 185.375 C-188.035 185.375 -188.695 185.375 -189.375 185.375 C-189.375 186.035 -189.375 186.695 -189.375 187.375 C-190.035 187.375 -190.695 187.375 -191.375 187.375 C-191.375 188.035 -191.375 188.695 -191.375 189.375 C-193.08984375 191.1015625 -193.08984375 191.1015625 -195.3125 193 C-196.04339844 193.63164062 -196.77429688 194.26328125 -197.52734375 194.9140625 C-199.375 196.375 -199.375 196.375 -200.375 196.375 C-200.43014049 193.64554581 -200.46920498 190.91725824 -200.5 188.1875 C-200.51675781 187.43791016 -200.53351563 186.68832031 -200.55078125 185.91601562 C-200.64704807 174.41213043 -198.17679097 163.54887844 -194.75 152.625 C-194.39881104 151.499729 -194.04762207 150.37445801 -193.68579102 149.21508789 C-189.56702681 136.38351798 -184.81309853 123.31423651 -175.375 113.375 C-174.77171875 112.72015625 -174.1684375 112.0653125 -173.546875 111.390625 C-164.390558 102.3831912 -152.33173006 102.94391951 -140.25512695 103.03442383 C-138.65746578 103.03527168 -137.05980344 103.03479187 -135.46214294 103.03309631 C-131.15704212 103.03224111 -126.85219578 103.0497893 -122.54715371 103.07081819 C-118.0361845 103.08966475 -113.52520844 103.09134168 -109.01420593 103.09489441 C-100.48635152 103.10419155 -91.95861349 103.12877354 -83.43081015 103.15894288 C-73.71612515 103.19255975 -64.00143437 103.20899117 -54.28670561 103.22402918 C-34.31607054 103.25532535 -14.34554673 103.30864967 5.625 103.375 C5.625 97.765 5.625 92.155 5.625 86.375 C-28.695 86.375 -63.015 86.375 -98.375 86.375 C-98.375 34.7560219 -98.375 34.7560219 -89.375 25.375 C-87.19918153 23.6636519 -84.92201921 22.19407733 -82.5625 20.75 C-81.98435547 20.38132812 -81.40621094 20.01265625 -80.81054688 19.6328125 C-73.35332894 14.95248125 -65.69460424 11.59883418 -57.375 8.75 C-56.52421875 8.4509375 -55.6734375 8.151875 -54.796875 7.84375 C-36.96192772 1.66169772 -18.77623666 0.08521741 0 0 Z " fill="#759EC0" transform="translate(247.375,28.625)"/>
<path d="M0 0 C0.33 0 0.66 0 1 0 C5.78772544 32.51020018 -1.90083809 68.86797636 -19 97 C-24.25670817 104.04324066 -30.03625461 110.31713345 -39 112 C-41.25956496 112.09013416 -43.52165869 112.12196249 -45.78302002 112.12025452 C-46.46430741 112.12110894 -47.1455948 112.12196337 -47.84752727 112.12284368 C-50.12917258 112.1244901 -52.41074428 112.11899084 -54.69238281 112.11352539 C-56.32841999 112.11324331 -57.96445729 112.11340166 -59.60049438 112.1139679 C-64.04227569 112.11425506 -68.48403005 112.10837131 -72.92580509 112.10139394 C-77.56762112 112.09514703 -82.20943774 112.09455554 -86.85125732 112.09336853 C-95.64137316 112.09025917 -104.43147658 112.08205108 -113.22158694 112.07201904 C-123.22874275 112.06084566 -133.23589915 112.05534436 -143.24305964 112.05032361 C-163.82871355 112.03986816 -184.41435555 112.02207514 -205 112 C-205 117.94 -205 123.88 -205 130 C-170.68 130 -136.36 130 -101 130 C-101 180.53488372 -101 180.53488372 -111 191 C-113.55351183 193.18136325 -116.22922497 195.10498779 -119 197 C-119.66 197.48339844 -120.32 197.96679688 -121 198.46484375 C-129.03745776 203.87577513 -138.36128795 206.39862347 -147.53369141 209.23339844 C-149.59624922 209.87450233 -151.64907982 210.54679099 -153.69921875 211.2265625 C-188.55967299 222.24397988 -229.0379561 218.36521469 -262 203 C-265.83038089 200.87044014 -269.43800726 198.55033834 -273 196 C-273.88945312 195.38705078 -273.88945312 195.38705078 -274.796875 194.76171875 C-282.3272766 189.11391755 -286.04018241 180.95992181 -288 172 C-288.37657965 167.72945068 -288.35169772 163.49530651 -288.29296875 159.2109375 C-288.28872391 158.02650055 -288.28447906 156.8420636 -288.28010559 155.62173462 C-288.26343533 151.87258287 -288.22580413 148.12398679 -288.1875 144.375 C-288.17243814 141.81901823 -288.15875237 139.26302796 -288.14648438 136.70703125 C-288.11357002 130.4711675 -288.06348779 124.23562347 -288 118 C-286.515 117.505 -286.515 117.505 -285 117 C-283.28874963 115.23630348 -283.28874963 115.23630348 -281.625 113.125 C-278.98662994 110.00134835 -276.67311287 107.88902947 -273 106 C-272.01 105.01 -272.01 105.01 -271 104 C-270.99120064 105.29879341 -270.99120064 105.29879341 -270.98222351 106.62382507 C-270.92428286 114.78990929 -270.85219825 122.95572039 -270.76428509 131.12153912 C-270.71958683 135.31953188 -270.68032963 139.51742773 -270.65356445 143.71557617 C-270.62752584 147.76820995 -270.58711983 151.82047065 -270.53681374 155.87287331 C-270.52014872 157.41774665 -270.50863215 158.96268452 -270.50238609 160.50763512 C-270.49274068 162.6743504 -270.46467831 164.84011205 -270.43237305 167.0065918 C-270.42126999 168.23903122 -270.41016693 169.47147064 -270.39872742 170.74125671 C-269.9635179 174.29816308 -269.15319602 176.16286086 -267 179 C-265.515 179.99 -265.515 179.99 -264 181 C-264 181.66 -264 182.32 -264 183 C-262.9171875 183.1546875 -262.9171875 183.1546875 -261.8125 183.3125 C-259 184 -259 184 -256.7578125 185.3828125 C-253.61487655 187.22583726 -250.50372752 188.37058732 -247.0625 189.5625 C-245.28552734 190.18318359 -245.28552734 190.18318359 -243.47265625 190.81640625 C-242.32667969 191.20699219 -241.18070313 191.59757813 -240 192 C-239.00613281 192.34804688 -238.01226562 192.69609375 -236.98828125 193.0546875 C-228.90287068 195.61242522 -220.43189543 197.15681046 -212 198 C-212 198.66 -212 199.32 -212 200 C-207.58288569 199.88852994 -203.16650531 199.75829493 -198.75 199.625 C-196.89761719 199.57859375 -196.89761719 199.57859375 -195.0078125 199.53125 C-184.23766739 199.19114015 -174.02674056 197.71200078 -163.625 194.9375 C-159.10644332 193.74817344 -154.62598038 192.69461315 -150 192 C-150 191.34 -150 190.68 -150 190 C-149.43796875 190.15855469 -148.8759375 190.31710937 -148.296875 190.48046875 C-141.79522175 191.95108079 -135.52674368 191.68395848 -129.69140625 188.32421875 C-125.52348856 185.0611146 -124.26321254 181.16565553 -123.125 176.125 C-122.72249206 171.5632433 -123.77565604 167.37121148 -125 163 C-124.01 163.33 -123.02 163.66 -122 164 C-122 164.66 -122 165.32 -122 166 C-121.34 166 -120.68 166 -120 166 C-120 168.31 -120 170.62 -120 173 C-115.16070218 165.74105327 -117.37895365 155.71593399 -117 147 C-151.65 147 -186.3 147 -222 147 C-222 129.84 -222 112.68 -222 95 C-216.77615479 94.98541748 -211.55230957 94.97083496 -206.17016602 94.95581055 C-188.91537126 94.90548569 -171.66066641 94.83904425 -154.40596104 94.76428509 C-143.94390941 94.71935016 -133.48189165 94.67993014 -123.01977539 94.65356445 C-113.89929629 94.63056577 -104.77892456 94.59714675 -95.65853065 94.55129844 C-90.83089134 94.52739152 -86.00335821 94.50864614 -81.17566109 94.50238609 C-76.62759007 94.49632382 -72.07979064 94.47628265 -67.5318203 94.44572449 C-65.86662306 94.43696258 -64.2013903 94.43321784 -62.53617096 94.43499184 C-54.16667073 94.44109049 -46.85226817 94.26937689 -39 91 C-37.67221062 90.64522648 -36.33988499 90.30593643 -35 90 C-34.9175 89.278125 -34.835 88.55625 -34.75 87.8125 C-34 85 -34 85 -32.1875 82.75 C-26.55255377 75.6660676 -24.50596884 66.54697357 -22 58 C-21.63032104 56.92298828 -21.63032104 56.92298828 -21.25317383 55.82421875 C-18.95163213 48.87956073 -18.27372103 42.15298319 -17.8125 34.875 C-17.6897168 33.15410156 -17.6897168 33.15410156 -17.56445312 31.3984375 C-17.36619468 28.59949471 -17.17825753 25.80027546 -17 23 C-18.11375 23.66 -19.2275 24.32 -20.375 25 C-23.75 27 -23.75 27 -26 27 C-26 27.99 -26 28.98 -26 30 C-27.65 30.33 -29.3 30.66 -31 31 C-31 29.68 -31 28.36 -31 27 C-29.5437455 26.32880451 -28.08492133 25.66318193 -26.625 25 C-25.81289063 24.62875 -25.00078125 24.2575 -24.1640625 23.875 C-22 23 -22 23 -20 23 C-19.6596875 22.0409375 -19.6596875 22.0409375 -19.3125 21.0625 C-18.879375 20.381875 -18.44625 19.70125 -18 19 C-17.26523437 18.896875 -16.53046875 18.79375 -15.7734375 18.6875 C-11.42469672 17.60950228 -8.98538938 14.56595673 -5.84179688 11.50585938 C-2.17405078 8 -2.17405078 8 0 8 C0 5.36 0 2.72 0 0 Z " fill="#FEE179" transform="translate(452,224)"/>
<path d="M0 0 C0.33 0.66 0.66 1.32 1 2 C0.0625 4.125 0.0625 4.125 -1 6 C-1.66 6 -2.32 6 -3 6 C-3.09316026 6.61417912 -3.18632051 7.22835823 -3.28230381 7.86114883 C-4 10 -4 10 -5.45926571 11.24966049 C-13.39611604 15.06130539 -21.68140916 14.53210767 -30.26977539 14.45410156 C-32.01492283 14.45297193 -33.76007217 14.4536092 -35.50521851 14.45587158 C-40.22164569 14.45701515 -44.93766261 14.43356392 -49.6539948 14.40557575 C-54.59071453 14.38050233 -59.52744456 14.37821542 -64.46421814 14.37347412 C-73.8031993 14.36106178 -83.14199225 14.32826377 -92.48089069 14.28807616 C-103.11690429 14.2433042 -113.75292707 14.22135778 -124.3890115 14.20129442 C-146.25946925 14.15952954 -168.12966913 14.08619895 -190 14 C-190 30.17 -190 46.34 -190 63 C-186.16761719 62.98839844 -182.33523437 62.97679687 -178.38671875 62.96484375 C-173.15364932 62.95267363 -167.92057899 62.94408127 -162.6875 62.9375 C-161.6737606 62.93621597 -161.6737606 62.93621597 -160.63954163 62.93490601 C-136.08149697 62.90744537 -111.54746944 63.24764847 -87 64 C-87 64.33 -87 64.66 -87 65 C-121.32 65 -155.64 65 -191 65 C-191 47.84 -191 30.68 -191 13 C-185.77615479 12.98541748 -180.55230957 12.97083496 -175.17016602 12.95581055 C-157.91537126 12.90548569 -140.66066641 12.83904425 -123.40596104 12.76428509 C-112.94390941 12.71935016 -102.48189165 12.67993014 -92.01977539 12.65356445 C-82.89929629 12.63056577 -73.77892456 12.59714675 -64.65853065 12.55129844 C-59.83089134 12.52739152 -55.00335821 12.50864614 -50.17566109 12.50238609 C-45.62759007 12.49632382 -41.07979064 12.47628265 -36.5318203 12.44572449 C-34.86662306 12.43696258 -33.2013903 12.43321784 -31.53617096 12.43499184 C-23.16667073 12.44109049 -15.85226817 12.26937689 -8 9 C-6.67221062 8.64522648 -5.33988499 8.30593643 -4 8 C-3.8453125 6.8553125 -3.8453125 6.8553125 -3.6875 5.6875 C-2.95635961 2.82940576 -2.23048087 1.84257115 0 0 Z " fill="#FEDE5E" transform="translate(421,306)"/>
<path d="M0 0 C1.31475289 4.2359802 0.3135645 6.46236685 -1.375 10.5625 C-2.06722656 12.26599609 -2.06722656 12.26599609 -2.7734375 14.00390625 C-3.17820313 14.99261719 -3.58296875 15.98132813 -4 17 C-4.97851329 19.93553988 -5.12786075 21.82498591 -5.13371277 24.88278198 C-5.13797775 25.88937866 -5.14224274 26.89597534 -5.14663696 27.93307495 C-5.14618378 29.03652252 -5.14573059 30.13997009 -5.14526367 31.27685547 C-5.14862228 32.43969055 -5.1519809 33.60252563 -5.15544128 34.80059814 C-5.16496357 38.65613871 -5.16689505 42.5116359 -5.16796875 46.3671875 C-5.17036904 48.36574792 -5.17277095 50.36430834 -5.17542917 52.36286843 C-5.18357255 58.64897931 -5.18601353 64.93507586 -5.18530273 71.22119141 C-5.1847021 77.70306215 -5.19525124 84.18484962 -5.2110464 90.66669929 C-5.22412817 96.23367481 -5.22948636 101.80062314 -5.22884732 107.36761391 C-5.2285925 110.69162166 -5.23235498 114.01553876 -5.24202538 117.33953476 C-5.25180351 121.04787894 -5.24895566 124.75600795 -5.24291992 128.46435547 C-5.24853943 129.56375458 -5.25415894 130.66315369 -5.25994873 131.79586792 C-5.25575424 132.80810425 -5.25155975 133.82034058 -5.24723816 134.86325073 C-5.24778293 135.73966658 -5.24832769 136.61608242 -5.24888897 137.51905632 C-4.96921528 140.30686435 -4.04794289 142.41464591 -3 145 C-3 146.32 -3 147.64 -3 149 C-2.01 149 -1.02 149 0 149 C0 150.32 0 151.64 0 153 C0.66 153 1.32 153 2 153 C2.30292969 153.58007812 2.60585937 154.16015625 2.91796875 154.7578125 C5.54807998 159.66195836 8.28302849 163.85823175 12 168 C4.11611132 164.58422329 -1.80113166 155.46052304 -4.9375 147.671875 C-7.0155316 141.63759093 -8.11549229 136.05276377 -8.20532227 129.64916992 C-8.22526749 128.3882402 -8.24521271 127.12731049 -8.26576233 125.82817078 C-8.28274268 124.46227133 -8.29962163 123.09637062 -8.31640625 121.73046875 C-8.33699474 120.32513341 -8.3579917 118.919804 -8.37937927 117.51448059 C-8.43440435 113.82712627 -8.48389933 110.13971788 -8.53222656 106.45227051 C-8.58258504 102.68492864 -8.638196 98.91766466 -8.69335938 95.15039062 C-8.80070141 87.76699317 -8.90219888 80.38353066 -9 73 C-8.34 73 -7.68 73 -7 73 C-7.01554428 72.29193207 -7.03108856 71.58386414 -7.04710388 70.8543396 C-7.18847569 64.11899974 -7.29449373 57.38388685 -7.3626852 50.64743614 C-7.39892603 47.1855277 -7.44791921 43.72486405 -7.52807617 40.26367188 C-8.19373845 10.78158208 -8.19373845 10.78158208 0 0 Z " fill="#B89B33" transform="translate(155,263)"/>
<path d="M0 0 C1.8871875 0.0309375 1.8871875 0.0309375 3.8125 0.0625 C3.899485 3.83318832 3.95288579 7.60361932 4 11.375 C4.02513672 12.44685547 4.05027344 13.51871094 4.07617188 14.62304688 C4.09067383 16.16508789 4.09067383 16.16508789 4.10546875 17.73828125 C4.12903442 19.1600769 4.12903442 19.1600769 4.15307617 20.6105957 C3.75725643 23.46021408 3.03425281 24.31226105 0.8125 26.0625 C0.6875 20.3125 0.6875 20.3125 1.8125 18.0625 C1.1525 18.0625 0.4925 18.0625 -0.1875 18.0625 C-3.20454885 14.8625997 -4.68640042 12.44712134 -5.1875 8.0625 C-6.1775 8.3925 -7.1675 8.7225 -8.1875 9.0625 C-8.8475 7.7425 -9.5075 6.4225 -10.1875 5.0625 C-7.29994867 0.79992422 -5.07715232 -0.08323201 0 0 Z " fill="#FCCD27" transform="translate(330.1875,371.9375)"/>
<path d="M0 0 C3.03472303 4.35137535 5 7.62519387 5 13 C4.34 13 3.68 13 3 13 C2 10 1 7 0 4 C-0.66 4 -1.32 4 -2 4 C-3.625 2.625 -3.625 2.625 -5 1 C-5 0.34 -5 -0.32 -5 -1 C-5.57363281 -1.14308594 -6.14726562 -1.28617188 -6.73828125 -1.43359375 C-8.1750445 -1.79340493 -9.61017855 -2.15983645 -11.04296875 -2.53515625 C-17.4860695 -4.11952529 -23.46238958 -4.73700217 -30 -3.375 C-32.27039922 -2.14591954 -32.27039922 -2.14591954 -32.58984375 0.5625 C-33.05950725 4.49872743 -33.34426059 8.418069 -33.5625 12.375 C-33.60568359 13.11105469 -33.64886719 13.84710938 -33.69335938 14.60546875 C-33.79843799 16.40348068 -33.89962093 18.20171958 -34 20 C-34.33 20 -34.66 20 -35 20 C-35.02886751 15.85418113 -35.04675327 11.70838784 -35.0625 7.5625 C-35.07087891 6.37849609 -35.07925781 5.19449219 -35.08789062 3.97460938 C-35.09111328 2.84990234 -35.09433594 1.72519531 -35.09765625 0.56640625 C-35.10289307 -0.47572021 -35.10812988 -1.51784668 -35.11352539 -2.59155273 C-35 -5 -35 -5 -34 -6 C-30.99162 -6.32232643 -28.01731292 -6.56397018 -25 -6.75 C-23.76056641 -6.85248047 -23.76056641 -6.85248047 -22.49609375 -6.95703125 C-14.17166107 -7.46509522 -6.42075275 -5.54519556 0 0 Z M-37 20 C-36.34 20.33 -35.68 20.66 -35 21 C-35.30818356 22.31352023 -35.62167665 23.62579572 -35.9375 24.9375 C-36.11152344 25.66839844 -36.28554688 26.39929688 -36.46484375 27.15234375 C-37 29 -37 29 -38 30 C-38.12375 31.134375 -38.2475 32.26875 -38.375 33.4375 C-38.58125 34.613125 -38.7875 35.78875 -39 37 C-39.99 37.66 -40.98 38.32 -42 39 C-41.23915412 34.81134319 -40.12177302 30.77515205 -38.9375 26.6875 C-38.57527344 25.43324219 -38.21304687 24.17898437 -37.83984375 22.88671875 C-37.42412109 21.45779297 -37.42412109 21.45779297 -37 20 Z " fill="#FDEA8C" transform="translate(421,172)"/>
<path d="M0 0 C5.62357685 -0.04592758 11.24650218 -0.08574829 16.87011719 -0.10986328 C18.78290004 -0.1199169 20.69566755 -0.13356173 22.60839844 -0.15087891 C25.35876252 -0.17515522 28.10892328 -0.1864895 30.859375 -0.1953125 C31.71368103 -0.20563507 32.56798706 -0.21595764 33.44818115 -0.22659302 C34.24870911 -0.22674408 35.04923706 -0.22689514 35.87402344 -0.22705078 C36.92659332 -0.23371262 36.92659332 -0.23371262 38.00042725 -0.24050903 C40 0 40 0 44 2 C30.47 2.33 16.94 2.66 3 3 C2.75052903 12.73766715 2.75052903 12.73766715 2.52197266 22.47583008 C2.4863623 23.68650146 2.45075195 24.89717285 2.4140625 26.14453125 C2.3826416 27.38565674 2.3512207 28.62678223 2.31884766 29.90551758 C2 33 2 33 0 36 C0 24.12 0 12.24 0 0 Z " fill="#F0DB75" transform="translate(369,149)"/>
<path d="M0 0 C0.99 0.495 0.99 0.495 2 1 C0.69390869 2.97161865 0.69390869 2.97161865 -2 5 C-5.69236334 5.61307189 -9.36785203 5.50428253 -13.10253906 5.45410156 C-14.23453735 5.45468567 -15.36653564 5.45526978 -16.53283691 5.45587158 C-20.27741068 5.45308313 -24.02119015 5.42195352 -27.765625 5.390625 C-30.36065231 5.38316536 -32.95568526 5.37747112 -35.55072021 5.37347412 C-41.68478316 5.359758 -47.81851792 5.3282275 -53.95245719 5.28807616 C-60.93665722 5.2433525 -67.92087095 5.22136998 -74.90517855 5.20129442 C-89.27027228 5.15949435 -103.635126 5.08914607 -118 5 C-118 4.67 -118 4.34 -118 4 C-114.74050791 3.27624968 -111.71379227 2.87180218 -108.37696838 2.85523987 C-107.02919312 2.84489212 -107.02919312 2.84489212 -105.65419006 2.83433533 C-104.1945005 2.83041527 -104.1945005 2.83041527 -102.70532227 2.82641602 C-101.67059784 2.819729 -100.63587341 2.81304199 -99.5697937 2.80615234 C-97.32613353 2.79212044 -95.08245924 2.7802205 -92.83877754 2.77020454 C-89.28715494 2.7537709 -85.73563716 2.73053274 -82.18406677 2.70530701 C-72.08720127 2.63459023 -61.99029362 2.57438334 -51.89331055 2.52319336 C-45.71481533 2.49139282 -39.53644203 2.4501177 -33.35804558 2.40299797 C-31.00455861 2.38698856 -28.65104359 2.3746621 -26.29751778 2.36609077 C-23.00624335 2.35392934 -19.71525544 2.3297764 -16.42407227 2.30297852 C-15.45297012 2.30238937 -14.48186798 2.30180023 -13.4813385 2.30119324 C-8.5340217 2.24785066 -4.68854511 1.74115055 0 0 Z " fill="#868141" transform="translate(310,231)"/>
<path d="M0 0 C0.66 0.33 1.32 0.66 2 1 C-1.40604088 4.60639623 -4.84125305 7.31414259 -9 10 C-12.55278974 12.53578763 -12.55278974 12.53578763 -15 16 C-15.10196736 18.09744646 -15.13842651 20.19818326 -15.14526367 22.2980957 C-15.14862228 22.94384552 -15.1519809 23.58959534 -15.15544128 24.25491333 C-15.16495976 26.39522208 -15.16689504 28.53545263 -15.16796875 30.67578125 C-15.17118144 32.16310153 -15.17454552 33.65042148 -15.17805481 35.13774109 C-15.18404883 38.25907117 -15.1858945 41.38037355 -15.18530273 44.50170898 C-15.18520126 48.49648675 -15.19883674 52.49108618 -15.21607494 56.48582172 C-15.22720979 59.55965486 -15.22922146 62.63344514 -15.22869301 65.70729637 C-15.22987153 67.17965495 -15.23428614 68.6520147 -15.24202538 70.12435341 C-15.25185245 72.18760153 -15.2489364 74.25046605 -15.24291992 76.3137207 C-15.24434494 77.48683304 -15.24576996 78.65994537 -15.24723816 79.86860657 C-14.85373444 84.85252555 -13.123528 88.16657927 -10 92 C-13.88055801 90.5280642 -15.19622169 88.69282349 -17 85 C-17.42132568 81.75712585 -17.42132568 81.75712585 -17.48339844 78.04174805 C-17.49829315 77.36136475 -17.51318787 76.68098145 -17.52853394 75.97998047 C-17.57216546 73.7404656 -17.59276239 71.50158788 -17.609375 69.26171875 C-17.61785713 68.49297739 -17.62633926 67.72423603 -17.63507843 66.93219948 C-17.67996194 62.86402953 -17.70770759 58.79617613 -17.72070312 54.7277832 C-17.73714778 50.5404857 -17.80921722 46.35612038 -17.89461899 42.16974163 C-17.95070013 38.93615968 -17.96612489 35.70327485 -17.97071075 32.46924782 C-17.97974752 30.92664364 -18.0036908 29.38404759 -18.0432663 27.84192467 C-18.32913183 15.84666068 -18.32913183 15.84666068 -15.09020996 11.34658813 C-12.82291705 9.29983206 -10.56855659 7.64547642 -8 6 C-6.47270369 4.84180696 -4.95084008 3.67637024 -3.4375 2.5 C-2.29475698 1.66243397 -1.15015451 0.8273591 0 0 Z " fill="#F9D651" transform="translate(198,313)"/>
<path d="M0 0 C-3.45058686 2.30039124 -5.94095502 2.4738275 -10 3 C-10.33 3.33 -10.66 3.66 -11 4 C-13.33333333 4.33333333 -15.66666667 4.66666667 -18 5 C-18.33 5.33 -18.66 5.66 -19 6 C-20.66617115 6.04063832 -22.33388095 6.042721 -24 6 C-24 6.66 -24 7.32 -24 8 C-29.45461169 9.38529821 -34.36718401 10.2396943 -40 10 C-40 10.66 -40 11.32 -40 12 C-43.29528355 15.23703359 -46.80975709 15.82411943 -51.25 16.6875 C-52.51328125 16.93886719 -53.7765625 17.19023437 -55.078125 17.44921875 C-56.04234375 17.63097656 -57.0065625 17.81273437 -58 18 C-57.67 17.34 -57.34 16.68 -57 16 C-54.67843403 15.59270772 -52.3431213 15.25561323 -50 15 C-50 14.34 -50 13.68 -50 13 C-48.14453125 12.31640625 -46.2890625 11.6328125 -44.43359375 10.94921875 C-42.61615021 10.24032825 -40.82932192 9.45202302 -39.0625 8.625 C-33.44299067 6.2037202 -27.47110076 4.84152202 -21.5625 3.3125 C-20.37333984 2.99216797 -19.18417969 2.67183594 -17.95898438 2.34179688 C-11.80645265 0.73961066 -6.36053812 -0.41773051 0 0 Z " fill="#F9D952" transform="translate(288,277)"/>
<path d="M0 0 C1.33282775 -0.05553449 2.66638865 -0.09346189 4 -0.125 C4.7425 -0.14820313 5.485 -0.17140625 6.25 -0.1953125 C9 0 9 0 12.5078125 0.97265625 C17.52461944 2.25298719 22.46797527 2.4500256 27.625 2.6328125 C28.61250244 2.67437469 29.60000488 2.71593689 30.61743164 2.75875854 C33.74469542 2.88860701 36.8722697 3.00698153 40 3.125 C42.13154139 3.21147949 44.26305239 3.29871141 46.39453125 3.38671875 C51.59603436 3.59985024 56.79784025 3.80358527 62 4 C62 4.33 62 4.66 62 5 C41.18939675 7.58568617 20.37871836 5.78276043 0 1 C0 0.67 0 0.34 0 0 Z " fill="#AF9634" transform="translate(213,452)"/>
<path d="M0 0 C1.31475289 4.2359802 0.3135645 6.46236685 -1.375 10.5625 C-2.06722656 12.26599609 -2.06722656 12.26599609 -2.7734375 14.00390625 C-3.17820313 14.99261719 -3.58296875 15.98132813 -4 17 C-4.99824905 19.99474714 -5.15324032 22.07345334 -5.20532227 25.20581055 C-5.22526749 26.26668381 -5.24521271 27.32755707 -5.26576233 28.420578 C-5.28247482 29.56440445 -5.29918732 30.7082309 -5.31640625 31.88671875 C-5.33718735 33.05886429 -5.35796844 34.23100983 -5.37937927 35.43867493 C-5.44483818 39.18822286 -5.50374296 42.93784163 -5.5625 46.6875 C-5.60568868 49.22722091 -5.64930308 51.76693462 -5.69335938 54.30664062 C-5.80051586 60.53768522 -5.9022892 66.76880051 -6 73 C-6.33 73 -6.66 73 -7 73 C-7.16356047 65.54954754 -7.28725192 58.09928543 -7.3626852 50.64743614 C-7.39892603 47.1855277 -7.44791921 43.72486405 -7.52807617 40.26367188 C-8.19373845 10.78158208 -8.19373845 10.78158208 0 0 Z " fill="#B4982B" transform="translate(155,263)"/>
<path d="M0 0 C2.04514127 3.06771191 2.24827274 3.65568048 2.22705078 7.10424805 C2.22689972 7.92487228 2.22674866 8.74549652 2.22659302 9.59098816 C2.21627045 10.47232925 2.20594788 11.35367035 2.1953125 12.26171875 C2.1924826 13.16751175 2.18965271 14.07330475 2.18673706 15.00654602 C2.17553964 17.90033158 2.15043589 20.79380794 2.125 23.6875 C2.11496963 25.64908407 2.10584388 27.610673 2.09765625 29.57226562 C2.07560173 34.3816296 2.04107489 39.19076237 2 44 C5.24849977 42.27773504 5.24849977 42.27773504 6 39 C9.5625 37.8125 9.5625 37.8125 13 37 C12.61328125 37.44730469 12.2265625 37.89460938 11.828125 38.35546875 C11.04695312 39.26232422 11.04695312 39.26232422 10.25 40.1875 C9.70214844 40.82171875 9.15429688 41.4559375 8.58984375 42.109375 C7.27471576 43.67331099 6.03294982 45.29861024 4.8125 46.9375 C3.9153125 47.9584375 3.9153125 47.9584375 3 49 C2.01 49 1.02 49 0 49 C0 32.83 0 16.66 0 0 Z " fill="#FEF3BE" transform="translate(164,293)"/>
<path d="M0 0 C7.61300091 -0.10208695 15.22582288 -0.17175219 22.83935547 -0.21972656 C25.42503455 -0.23974306 28.01066894 -0.2669647 30.59619141 -0.30175781 C34.32986536 -0.35071459 38.06293669 -0.37306955 41.796875 -0.390625 C42.93799744 -0.41127014 44.07911987 -0.43191528 45.25482178 -0.45318604 C54.3044599 -0.45567106 62.69437167 1.01918038 70.25 6.25 C70.8275 6.8275 71.405 7.405 72 8 C70.35 8 68.7 8 67 8 C66.505 6.515 66.505 6.515 66 5 C64.82630859 4.90912109 64.82630859 4.90912109 63.62890625 4.81640625 C62.61699219 4.73261719 61.60507812 4.64882812 60.5625 4.5625 C59.04849609 4.44068359 59.04849609 4.44068359 57.50390625 4.31640625 C55 4 55 4 54 3 C47.72052481 1.993128 41.50662833 1.7935847 35.15625 1.68359375 C34.14655151 1.66281265 33.13685303 1.64203156 32.09655762 1.62062073 C28.8977687 1.55567534 25.69890358 1.49649815 22.5 1.4375 C20.32030489 1.39426236 18.14061724 1.35064647 15.9609375 1.30664062 C10.64070358 1.20005102 5.32039528 1.09818652 0 1 C0 0.67 0 0.34 0 0 Z " fill="#B99C32" transform="translate(362,133)"/>
<path d="M0 0 C1.77049689 -0.05410687 3.54146849 -0.09284119 5.3125 -0.125 C6.29863281 -0.14820313 7.28476563 -0.17140625 8.30078125 -0.1953125 C11 0 11 0 14 2 C16.64711758 2.32873988 16.64711758 2.32873988 19.66479492 2.31884766 C21.40626045 2.34865219 21.40626045 2.34865219 23.1829071 2.37905884 C24.43610245 2.39061005 25.68929779 2.40216125 26.98046875 2.4140625 C28.90515739 2.44311172 28.90515739 2.44311172 30.86872864 2.4727478 C34.2766095 2.52407292 37.68452986 2.56369632 41.09259033 2.60089111 C44.57159193 2.64092857 48.05042918 2.69202204 51.52929688 2.7421875 C58.35274449 2.83895107 65.17629758 2.92335439 72 3 C72 3.33 72 3.66 72 4 C64.23661938 4.0699099 56.47331431 4.12301727 48.70969677 4.15543652 C45.10363225 4.17100636 41.49778515 4.1920828 37.8918457 4.22631836 C34.40345983 4.25922567 30.91528136 4.27691805 27.42675209 4.28463173 C25.46665727 4.29276668 23.50664438 4.31613435 21.54667664 4.33988953 C13.89065673 4.34131099 7.25971784 3.46893511 0 1 C0 0.67 0 0.34 0 0 Z " fill="#314F6A" transform="translate(74,332)"/>
<path d="M0 0 C-0.66 0.99 -1.32 1.98 -2 3 C-4.07141113 3.3473053 -4.07141113 3.3473053 -6.65820312 3.30883789 C-7.62681274 3.30215591 -8.59542236 3.29547394 -9.59338379 3.28858948 C-10.64537964 3.26683151 -11.69737549 3.24507355 -12.78125 3.22265625 C-13.86450562 3.21366806 -14.94776123 3.20467987 -16.06384277 3.19541931 C-19.54288154 3.16530636 -23.02124107 3.11557966 -26.5 3.0625 C-29.95015293 3.01451423 -33.40011284 2.97110679 -36.85046387 2.94029236 C-38.99877713 2.92070797 -41.14703121 2.89128024 -43.29504395 2.85035706 C-49.11820962 2.79273554 -54.29485503 3.26889922 -59.93591309 4.76097107 C-62 5 -62 5 -65 3 C-54.39307105 0.70930173 -43.85958074 0.56551921 -33.0625 0.375 C-31.30011352 0.33669784 -29.5377433 0.29763968 -27.77539062 0.2578125 C-18.5159428 0.05699345 -9.26181906 -0.05709992 0 0 Z " fill="#F9D74F" transform="translate(357,273)"/>
<path d="M0 0 C9.57 0 19.14 0 29 0 C29 0.33 29 0.66 29 1 C10.29376339 3.0257906 -8.21545432 3.23319241 -27 3 C-27 2.67 -27 2.34 -27 2 C-18.09 2 -9.18 2 0 2 C0 1.34 0 0.68 0 0 Z " fill="#FDE98B" transform="translate(339,271)"/>
<path d="M0 0 C0.87454834 0.00523682 1.74909668 0.01047363 2.65014648 0.01586914 C3.59438477 0.0190918 4.53862305 0.02231445 5.51147461 0.02563477 C6.50469727 0.03401367 7.49791992 0.04239258 8.52124023 0.05102539 C9.51833008 0.05553711 10.51541992 0.06004883 11.54272461 0.06469727 C14.01478872 0.07652532 16.48673541 0.0930069 18.95874023 0.11352539 C18.95874023 0.44352539 18.95874023 0.77352539 18.95874023 1.11352539 C15.14744055 1.62296324 11.3345441 2.1193319 7.52124023 2.61352539 C6.45196289 2.75661133 5.38268555 2.89969727 4.28100586 3.04711914 C-1.88669026 3.83930029 -7.82346386 4.27044138 -14.04125977 4.11352539 C-14.04125977 3.45352539 -14.04125977 2.79352539 -14.04125977 2.11352539 C-13.25879883 2.05293945 -12.47633789 1.99235352 -11.67016602 1.92993164 C-10.65825195 1.84614258 -9.64633789 1.76235352 -8.60375977 1.67602539 C-7.59442383 1.59481445 -6.58508789 1.51360352 -5.54516602 1.42993164 C-2.91282807 1.09729611 -2.51863618 0.14007485 0 0 Z " fill="#6593BA" transform="translate(242.041259765625,149.886474609375)"/>
<path d="M0 0 C-6.18669976 4.34182271 -12.69537479 7.21770311 -19.75 9.8125 C-20.97360229 10.26508179 -20.97360229 10.26508179 -22.22192383 10.72680664 C-26.46812829 12.24786751 -30.4994996 13.44106689 -35 14 C-31.63715938 11.12355528 -28.22994324 9.85629871 -24.0625 8.4375 C-19.11363643 6.7497926 -19.11363643 6.7497926 -14.24609375 4.84765625 C-12 4 -12 4 -9 4 C-9 3.01 -9 2.02 -9 1 C-2.25 -1.125 -2.25 -1.125 0 0 Z " fill="#AD9430" transform="translate(341,436)"/>
<path d="M0 0 C2.7972908 2.06756277 3.02692273 3.14440371 3.6875 6.6875 C3.790625 7.780625 3.89375 8.87375 4 10 C4.99 10 5.98 10 7 10 C7 11.32 7 12.64 7 14 C7.66 14 8.32 14 9 14 C9.30292969 14.58007812 9.60585937 15.16015625 9.91796875 15.7578125 C12.54807998 20.66195836 15.28302849 24.85823175 19 29 C11.07976469 25.56847573 5.15608104 16.39453207 2.02734375 8.56640625 C0 2.67296512 0 2.67296512 0 0 Z " fill="#AC9436" transform="translate(148,402)"/>
<path d="M0 0 C0 2 0 2 -2.25 4.5625 C-5 7 -5 7 -7.125 7.5 C-9.3154374 7.85717346 -9.3154374 7.85717346 -10.625 10.5625 C-11.07875 11.366875 -11.5325 12.17125 -12 13 C-12.66 13 -13.32 13 -14 13 C-14.33 13.99 -14.66 14.98 -15 16 C-17.5625 17.6875 -17.5625 17.6875 -20 19 C-17.05532097 12.53607043 -7.89495914 0 0 0 Z " fill="#988827" transform="translate(176,244)"/>
<path d="M0 0 C0.495 0.99 0.495 0.99 1 2 C0.0625 4.125 0.0625 4.125 -1 6 C-1.66 6 -2.32 6 -3 6 C-3.08709229 6.61391602 -3.17418457 7.22783203 -3.26391602 7.86035156 C-4 10 -4 10 -5.62475586 11.25683594 C-12.32835658 14.30109331 -18.27721392 14.47835134 -25.5625 14.25 C-26.66658203 14.23195313 -27.77066406 14.21390625 -28.90820312 14.1953125 C-31.60639981 14.14859048 -34.30272035 14.0831014 -37 14 C-37 13.67 -37 13.34 -37 13 C-36.44127197 12.98541748 -35.88254395 12.97083496 -35.30688477 12.95581055 C-32.72479948 12.88039202 -30.14387816 12.78405119 -27.5625 12.6875 C-26.68400391 12.66494141 -25.80550781 12.64238281 -24.90039062 12.61914062 C-19.55049381 12.40198614 -15.00697676 11.61570099 -9.98803711 9.72973633 C-8.01123276 9.00412314 -6.04969881 8.47592027 -4 8 C-3.896875 7.236875 -3.79375 6.47375 -3.6875 5.6875 C-2.95635961 2.82940576 -2.23048087 1.84257115 0 0 Z " fill="#FCD84C" transform="translate(421,306)"/>
<path d="M0 0 C0.66 0.33 1.32 0.66 2 1 C0.32835296 3.32750856 -1.00439171 4.83388503 -3.91027832 5.31872559 C-6.33198941 5.36635662 -8.7213755 5.29228136 -11.140625 5.171875 C-12.02280701 5.14401917 -12.90498901 5.11616333 -13.81390381 5.08746338 C-16.62700028 4.99421466 -19.43803981 4.87248887 -22.25 4.75 C-24.15878783 4.68171342 -26.0676431 4.61528504 -27.9765625 4.55078125 C-32.65209711 4.38872646 -37.32598976 4.20112791 -42 4 C-42 3.67 -42 3.34 -42 3 C-40.94087402 2.98018066 -39.88174805 2.96036133 -38.79052734 2.93994141 C-34.843029 2.86359306 -30.89588527 2.77492175 -26.94873047 2.68261719 C-25.24372381 2.64444781 -23.53863994 2.60957434 -21.83349609 2.578125 C-19.37569674 2.53221164 -16.91842348 2.47426231 -14.4609375 2.4140625 C-13.32620499 2.39673569 -13.32620499 2.39673569 -12.16854858 2.37905884 C-7.73389217 2.25672648 -4.16426782 1.46223209 0 0 Z " fill="#8D8744" transform="translate(310,231)"/>
<path d="M0 0 C-5.97678498 1.90748457 -11.88681614 3.47129023 -18.06640625 4.5703125 C-19.99665451 4.81769602 -19.99665451 4.81769602 -21 6 C-23.18639453 6.07258946 -25.37500389 6.08373783 -27.5625 6.0625 C-29.35880859 6.04896484 -29.35880859 6.04896484 -31.19140625 6.03515625 C-32.11824219 6.02355469 -33.04507812 6.01195312 -34 6 C-34 5.67 -34 5.34 -34 5 C-32.83984375 4.81824219 -31.6796875 4.63648438 -30.484375 4.44921875 C-22.32499306 3.14385763 -14.33315403 1.76348066 -6.3828125 -0.546875 C-3.8657121 -1.02553672 -2.39928797 -0.82580144 0 0 Z " fill="#FAD952" transform="translate(394,267)"/>
<path d="M0 0 C0.33 0.66 0.66 1.32 1 2 C1.66 2 2.32 2 3 2 C1.62815653 6.06498881 -0.22068459 8.67396561 -3.125 11.8125 C-3.84945313 12.60269531 -4.57390625 13.39289063 -5.3203125 14.20703125 C-5.87460937 14.79871094 -6.42890625 15.39039063 -7 16 C-7.66 15.01 -8.32 14.02 -9 13 C-5.38671875 8.3125 -5.38671875 8.3125 -4 7 C-3.01 7 -2.02 7 -1 7 C-0.67 4.69 -0.34 2.38 0 0 Z " fill="#33505F" transform="translate(340,201)"/>
<path d="M0 0 C0.99 0.495 0.99 0.495 2 1 C2.4140625 3.72265625 2.4140625 3.72265625 2.625 7.0625 C2.69976562 8.16722656 2.77453125 9.27195312 2.8515625 10.41015625 C2.90054688 11.26480469 2.94953125 12.11945313 3 13 C3.66 13 4.32 13 5 13 C5 17.29 5 21.58 5 26 C3.46688648 22.93377297 2.70523766 21.25340575 2.1484375 18.06640625 C2.01953125 17.33486328 1.890625 16.60332031 1.7578125 15.84960938 C1.56832031 14.71749023 1.56832031 14.71749023 1.375 13.5625 C1.2409375 12.81162109 1.106875 12.06074219 0.96875 11.28710938 C0.31271532 7.48143878 -0.16961634 3.87804635 0 0 Z " fill="#4E6A82" transform="translate(31,247)"/>
<path d="M0 0 C0.66 0.33 1.32 0.66 2 1 C1.48050781 1.38671875 0.96101563 1.7734375 0.42578125 2.171875 C-0.27160156 2.69265625 -0.96898437 3.2134375 -1.6875 3.75 C-2.42097656 4.29398437 -3.15445313 4.83796875 -3.91015625 5.3984375 C-6.14288665 7.06446367 -6.14288665 7.06446367 -8.625 9.375 C-11.59231088 11.40526534 -13.47840079 11.32759062 -17 11 C-14.62971052 8.39656729 -12.09047863 6.71786037 -9.0625 4.9375 C-8.20785156 4.43089844 -7.35320312 3.92429687 -6.47265625 3.40234375 C-5.65667969 2.93957031 -4.84070313 2.47679687 -4 2 C-2.91525391 1.38318359 -2.91525391 1.38318359 -1.80859375 0.75390625 C-1.21175781 0.50511719 -0.61492187 0.25632812 0 0 Z " fill="#F7D951" transform="translate(224,297)"/>
<path d="M0 0 C-2.90600261 1.25664978 -4.79604584 2 -8 2 C-8 2.66 -8 3.32 -8 4 C-11.29528355 7.23703359 -14.80975709 7.82411943 -19.25 8.6875 C-21.14492187 9.06455078 -21.14492187 9.06455078 -23.078125 9.44921875 C-24.04234375 9.63097656 -25.0065625 9.81273437 -26 10 C-25.67 9.34 -25.34 8.68 -25 8 C-22.67843403 7.59270772 -20.3431213 7.25561323 -18 7 C-18 6.34 -18 5.68 -18 5 C-16.824375 4.566875 -15.64875 4.13375 -14.4375 3.6875 C-11.62704762 2.64603804 -8.90587487 1.51044305 -6.1875 0.25 C-3 -1 -3 -1 0 0 Z " fill="#FADD61" transform="translate(256,285)"/>
<path d="M0 0 C10.1100147 -0.56253559 18.12287003 0.15032177 26 7 C24.35 7 22.7 7 21 7 C20.67 6.01 20.34 5.02 20 4 C18.82630859 3.90912109 18.82630859 3.90912109 17.62890625 3.81640625 C16.61699219 3.73261719 15.60507812 3.64882812 14.5625 3.5625 C13.04849609 3.44068359 13.04849609 3.44068359 11.50390625 3.31640625 C9 3 9 3 8 2 C6.65252916 1.76924918 5.29622435 1.58846937 3.9375 1.4375 C2.638125 1.293125 1.33875 1.14875 0 1 C0 0.67 0 0.34 0 0 Z " fill="#C3A536" transform="translate(408,134)"/>
<path d="M0 0 C0.66 0.99 1.32 1.98 2 3 C1.01 3.495 1.01 3.495 0 4 C-0.6496875 5.175625 -0.6496875 5.175625 -1.3125 6.375 C-3.29174165 9.45382034 -4.7044335 10.44452954 -8 12 C-11.11328125 12.07421875 -11.11328125 12.07421875 -14.3125 11.6875 C-15.91544922 11.50767578 -15.91544922 11.50767578 -17.55078125 11.32421875 C-18.35902344 11.21722656 -19.16726563 11.11023438 -20 11 C-20 10.67 -20 10.34 -20 10 C-19.19175781 9.89042969 -18.38351562 9.78085937 -17.55078125 9.66796875 C-16.48214844 9.50941406 -15.41351563 9.35085938 -14.3125 9.1875 C-13.25675781 9.03667969 -12.20101563 8.88585937 -11.11328125 8.73046875 C-6.55839617 7.66175669 -3.81410374 6.20711934 -1.1875 2.3125 C-0.795625 1.549375 -0.40375 0.78625 0 0 Z " fill="#FAE69A" transform="translate(327,406)"/>
<path d="M0 0 C-1.155 0.556875 -2.31 1.11375 -3.5 1.6875 C-6.48630356 3.15445613 -9.15504074 4.77797758 -11.875 6.6875 C-16.34783469 9.59216954 -20.76247163 9.88194096 -26 10 C-22.9833393 6.9833393 -19.0297702 6.17251422 -15.0546875 4.85546875 C-11.17524957 3.5330712 -11.17524957 3.5330712 -8 1 C-2.41860465 -1.20930233 -2.41860465 -1.20930233 0 0 Z " fill="#F9DB56" transform="translate(420,256)"/>
<path d="M0 0 C0.99 0.33 1.98 0.66 3 1 C3 1.66 3 2.32 3 3 C3.66 3 4.32 3 5 3 C5 5.31 5 7.62 5 10 C5.99 9.01 6.98 8.02 8 7 C7.67 9.64 7.34 12.28 7 15 C5.109375 14.4140625 5.109375 14.4140625 3 13 C1.953125 9.9609375 1.953125 9.9609375 1.25 6.375 C1.00765625 5.18648438 0.7653125 3.99796875 0.515625 2.7734375 C0.34546875 1.85820312 0.1753125 0.94296875 0 0 Z " fill="#FADB64" transform="translate(327,387)"/>
<path d="M0 0 C0.33 0.99 0.66 1.98 1 3 C-0.3125 5.1875 -0.3125 5.1875 -2 7 C-2.66 7 -3.32 7 -4 7 C-4.33 6.67 -4.66 6.34 -5 6 C-6.98 6.66 -8.96 7.32 -11 8 C-11.66 7.34 -12.32 6.68 -13 6 C-11.54195831 5.18697675 -10.08355685 4.37459869 -8.625 3.5625 C-7.40683594 2.88380859 -7.40683594 2.88380859 -6.1640625 2.19140625 C-2.18360656 0 -2.18360656 0 0 0 Z " fill="#355776" transform="translate(79,118)"/>
<path d="M0 0 C0.93045933 2.55144824 1.08564091 3.74006478 0.22265625 6.359375 C-0.16019531 7.14828125 -0.54304687 7.9371875 -0.9375 8.75 C-1.31777344 9.54921875 -1.69804687 10.3484375 -2.08984375 11.171875 C-2.39019531 11.77515625 -2.69054687 12.3784375 -3 13 C-3.66 13 -4.32 13 -5 13 C-5.33 14.65 -5.66 16.3 -6 18 C-6.71484375 16.453125 -6.71484375 16.453125 -7 14 C-5.94608774 11.46142115 -4.86034426 9.15504473 -3.5625 6.75 C-3.22412109 6.1003125 -2.88574219 5.450625 -2.53710938 4.78125 C-1.70213113 3.18185506 -0.85246886 1.59014141 0 0 Z " fill="#9A8C35" transform="translate(155,263)"/>
<path d="M0 0 C3.07393213 3.07393213 3.84749009 6.92636988 5.1875 11 C5.47302734 11.83273438 5.75855469 12.66546875 6.05273438 13.5234375 C6.31763672 14.32007813 6.58253906 15.11671875 6.85546875 15.9375 C7.09934326 16.66839844 7.34321777 17.39929688 7.59448242 18.15234375 C8 20 8 20 7 22 C6.67 21.01 6.34 20.02 6 19 C5.34 19 4.68 19 4 19 C3.87882812 18.33613281 3.75765625 17.67226562 3.6328125 16.98828125 C2.76607061 12.4212182 1.77342285 8.30688405 0 4 C0 2.68 0 1.36 0 0 Z " fill="#CEB258" transform="translate(455,167)"/>
<path d="M0 0 C-1.43122782 1.48523642 -2.87020889 2.96300462 -4.3125 4.4375 C-5.11300781 5.26121094 -5.91351563 6.08492188 -6.73828125 6.93359375 C-9 9 -9 9 -12 10 C-12 8.02 -12 6.04 -12 4 C-11.67 4.66 -11.34 5.32 -11 6 C-7.75150023 4.27773504 -7.75150023 4.27773504 -7 1 C-2.55696203 -1.27848101 -2.55696203 -1.27848101 0 0 Z " fill="#FEFAD6" transform="translate(177,331)"/>
<path d="M0 0 C0.99 0.33 1.98 0.66 3 1 C1.90033225 2.29549899 0.79508199 3.58626071 -0.3125 4.875 C-0.92738281 5.59429687 -1.54226562 6.31359375 -2.17578125 7.0546875 C-4 9 -4 9 -7 11 C-9.1875 10.625 -9.1875 10.625 -11 10 C-10.01 9.67 -9.02 9.34 -8 9 C-6.14944215 7.17387625 -6.14944215 7.17387625 -4.375 5 C-3.76398438 4.278125 -3.15296875 3.55625 -2.5234375 2.8125 C-2.02070313 2.214375 -1.51796875 1.61625 -1 1 C-0.67 0.67 -0.34 0.34 0 0 Z " fill="#F9E48F" transform="translate(175,332)"/>
<path d="M0 0 C0.66 0.33 1.32 0.66 2 1 C-1.70869837 6.26395897 -5.66637435 9.35710963 -12 11 C-14.27734375 10.59765625 -14.27734375 10.59765625 -16 10 C-15.34773438 9.69707031 -14.69546875 9.39414063 -14.0234375 9.08203125 C-8.72027105 6.53995294 -4.32787414 3.98619986 0 0 Z " fill="#928835" transform="translate(328,220)"/>
<path d="M0 0 C0.33 0 0.66 0 1 0 C0.17467661 8.74842798 -1.63094867 17.30214767 -6 25 C-6.33 23.68 -6.66 22.36 -7 21 C-6.34 21 -5.68 21 -5 21 C-5.061875 20.360625 -5.12375 19.72125 -5.1875 19.0625 C-4.96914645 15.49605875 -3.98500639 12.64359629 -2.80078125 9.29296875 C-1.73048705 6.22827267 -0.86520066 3.12803315 0 0 Z " fill="#BFA12A" transform="translate(368,181)"/>
<path d="M0 0 C3.77545388 1.09068668 6.47043472 1.9083091 9 5 C7 6 5 7 3 8 C2.01 7.67 1.02 7.34 0 7 C0.2784375 6.1028125 0.2784375 6.1028125 0.5625 5.1875 C1.22093687 2.83591238 1.22093687 2.83591238 0 0 Z " fill="#FBEA94" transform="translate(416,151)"/>
<path d="M0 0 C1.77049689 -0.05410687 3.54146849 -0.09284119 5.3125 -0.125 C6.29863281 -0.14820313 7.28476563 -0.17140625 8.30078125 -0.1953125 C11 0 11 0 14 2 C15.65549531 2.38499891 17.3222433 2.72793135 19 3 C19 3.33 19 3.66 19 4 C12.1781317 4.38614349 6.50422293 3.00865708 0 1 C0 0.67 0 0.34 0 0 Z " fill="#445E7A" transform="translate(74,332)"/>
<path d="M0 0 C0.99 0.495 0.99 0.495 2 1 C2 1.99 2 2.98 2 4 C2.99 3.01 3.98 2.02 5 1 C5.99 1.33 6.98 1.66 8 2 C7.04578192 3.14926266 6.08647955 4.29430541 5.125 5.4375 C4.59132813 6.07558594 4.05765625 6.71367187 3.5078125 7.37109375 C2 9 2 9 0 10 C0 6.7 0 3.4 0 0 Z " fill="#92B8D8" transform="translate(47,215)"/>
<path d="M0 0 C0 0.99 0 1.98 0 3 C-5.75 6 -5.75 6 -8 6 C-8 6.99 -8 7.98 -8 9 C-9.65 9.33 -11.3 9.66 -13 10 C-13 8.68 -13 7.36 -13 6 C-12.39671875 5.73445312 -11.7934375 5.46890625 -11.171875 5.1953125 C-10.37265625 4.84210938 -9.5734375 4.48890625 -8.75 4.125 C-7.96109375 3.77695313 -7.1721875 3.42890625 -6.359375 3.0703125 C-4.21131392 2.09586095 -2.10170798 1.07013571 0 0 Z " fill="#FBDE57" transform="translate(434,245)"/>
<path d="M0 0 C0 0.66 0 1.32 0 2 C-6.2638737 4.57616518 -12.54646385 6.94235079 -19 9 C-16.71576315 5.57364472 -15.75766138 5.31599718 -12 4 C-11.14019531 3.64679688 -10.28039062 3.29359375 -9.39453125 2.9296875 C-8.54246094 2.58164063 -7.69039063 2.23359375 -6.8125 1.875 C-5.52279297 1.34519531 -5.52279297 1.34519531 -4.20703125 0.8046875 C-2 0 -2 0 0 0 Z " fill="#FEEA8C" transform="translate(421,253)"/>
<path d="M0 0 C0.66 0.33 1.32 0.66 2 1 C-1.465 3.97 -1.465 3.97 -5 7 C-5.33 6.34 -5.66 5.68 -6 5 C-4.02 3.35 -2.04 1.7 0 0 Z M-14 6 C-11.36 6.33 -8.72 6.66 -6 7 C-8 10 -8 10 -11.125 10.6875 C-12.07375 10.790625 -13.0225 10.89375 -14 11 C-14 9.35 -14 7.7 -14 6 Z " fill="#FDEA97" transform="translate(446,234)"/>
<path d="M0 0 C0.66 0 1.32 0 2 0 C1.51030705 6.61085476 -0.33442742 11.94977014 -3 18 C-4.24964981 14.25105057 -3.75598428 11.84864723 -3 8 C-2.34 7.01 -1.68 6.02 -1 5 C-0.61500109 3.34450469 -0.27206865 1.6777567 0 0 Z " fill="#FAD746" transform="translate(431,272)"/>
<path d="M0 0 C0.33 0 0.66 0 1 0 C1.05423638 1.91635217 1.09289963 3.83314925 1.125 5.75 C1.14820313 6.81734375 1.17140625 7.8846875 1.1953125 8.984375 C1.00487687 11.92470106 0.52670104 13.52361878 -1 16 C-1.66 16 -2.32 16 -3 16 C-2.40984815 10.49191603 -1.43336231 5.35121931 0 0 Z " fill="#4E6881" transform="translate(35,180)"/>
<path d="M0 0 C0.66 0 1.32 0 2 0 C2 0.99 2 1.98 2 3 C2.99 3 3.98 3 5 3 C5.36504603 4.58086048 5.71660506 6.16483907 6.0625 7.75 C6.25972656 8.63171875 6.45695312 9.5134375 6.66015625 10.421875 C7 13 7 13 6 17 C4.02 11.39 2.04 5.78 0 0 Z " fill="#BA9917" transform="translate(439,172)"/>
<path d="M0 0 C1.15224028 0.92961422 2.29659176 1.8690125 3.4375 2.8125 C4.07558594 3.33457031 4.71367187 3.85664063 5.37109375 4.39453125 C7 6 7 6 8 9 C4.93795671 8.66896829 3.39949096 8.39949096 1.1875 6.1875 C0 4 0 4 0 0 Z " fill="#FAE88E" transform="translate(426,156)"/>
<path d="M0 0 C0.66 0.33 1.32 0.66 2 1 C0.44555348 2.46691458 -1.11892175 3.92320641 -2.6875 5.375 C-3.55761719 6.18710937 -4.42773438 6.99921875 -5.32421875 7.8359375 C-7.86371107 9.88977509 -9.92025866 10.9900668 -13 12 C-12.236875 11.2575 -11.47375 10.515 -10.6875 9.75 C-8.06657503 7.2135169 -8.06657503 7.2135169 -6.5 4.875 C-4.61641914 2.52052393 -2.69838857 1.31459956 0 0 Z " fill="#AA922D" transform="translate(354,423)"/>
<path d="M0 0 C7.44230094 0.54701632 14.68160944 1.54198409 22 3 C22 3.33 22 3.66 22 4 C5.30246726 4.27175008 5.30246726 4.27175008 0 0 Z " fill="#FEDA5C" transform="translate(218,419)"/>
<path d="M0 0 C2.475 0.495 2.475 0.495 5 1 C5.33 2.32 5.66 3.64 6 5 C4.02 5.33 2.04 5.66 0 6 C0 4.02 0 2.04 0 0 Z " fill="#F8D03C" transform="translate(296,411)"/>
<path d="M0 0 C0.99 0.33 1.98 0.66 3 1 C3.33 2.98 3.66 4.96 4 7 C1.03 6.505 1.03 6.505 -2 6 C-1.125 1.125 -1.125 1.125 0 0 Z " fill="#FCCB23" transform="translate(290,401)"/>
<path d="M0 0 C0.66 0.33 1.32 0.66 2 1 C0.6062718 5.43458973 -1.60582235 7.87378374 -5 11 C-5 9.35 -5 7.7 -5 6 C-4.01 5.67 -3.02 5.34 -2 5 C-2 4.34 -2 3.68 -2 3 C-1.34 3 -0.68 3 0 3 C0 2.01 0 1.02 0 0 Z " fill="#C2AA37" transform="translate(447,325)"/>
<path d="M0 0 C0.99 0.33 1.98 0.66 3 1 C-0.17320782 4.53586014 -2.16743695 6.58578031 -7 7 C-4.66666667 4.66666667 -2.33333333 2.33333333 0 0 Z " fill="#3F78A9" transform="translate(77,198)"/>
<path d="M0 0 C-1 3 -1 3 -3.25 4.6875 C-6.1364252 6.06511203 -7.85173236 6.26985151 -11 6 C-8.24029211 2.78034079 -4.3526723 0 0 0 Z " fill="#4A657F" transform="translate(170,28)"/>
<path d="M0 0 C1.45792884 -0.05399736 2.91642712 -0.09279177 4.375 -0.125 C5.18710937 -0.14820313 5.99921875 -0.17140625 6.8359375 -0.1953125 C9 0 9 0 11 2 C6.71 2.66 2.42 3.32 -2 4 C-1.34 2.68 -0.68 1.36 0 0 Z " fill="#FDDC68" transform="translate(287,433)"/>
<path d="M0 0 C2.8125 0.625 2.8125 0.625 6 2 C7.8125 5 7.8125 5 9 8 C9.33 8.66 9.66 9.32 10 10 C6.54804233 8.5741914 4.8985744 6.90253666 2.75 3.875 C1.96882812 2.78832031 1.96882812 2.78832031 1.171875 1.6796875 C0.78515625 1.12539063 0.3984375 0.57109375 0 0 Z " fill="#B09514" transform="translate(161,424)"/>
<path d="M0 0 C-1.07749442 0.82022749 -2.16229508 1.63086169 -3.25 2.4375 C-3.85328125 2.88996094 -4.4565625 3.34242188 -5.078125 3.80859375 C-7.06292756 5.03900997 -8.71987655 5.56112668 -11 6 C-9.90648447 2.82880497 -8.9873012 1.99216457 -6.0625 0.1875 C-3 -1 -3 -1 0 0 Z " fill="#FEF3CC" transform="translate(190,258)"/>
<path d="M0 0 C3.125 0.52083333 6.25 1.04166667 9.375 1.5625 C10.674375 1.7790625 10.674375 1.7790625 12 2 C12 2.66 12 3.32 12 4 C5.07 3.505 5.07 3.505 -2 3 C-1.34 2.67 -0.68 2.34 0 2 C0 1.34 0 0.68 0 0 Z " fill="#8DABC3" transform="translate(186,49)"/>
<path d="M0 0 C1.98 0.66 3.96 1.32 6 2 C5.67 2.99 5.34 3.98 5 5 C3.02 5 1.04 5 -1 5 C-0.67 3.35 -0.34 1.7 0 0 Z " fill="#395876" transform="translate(312,25)"/>
<path d="M0 0 C5.56890517 0.47986031 10.67067568 1.29915181 16 3 C16 3.33 16 3.66 16 4 C10.25 4.125 10.25 4.125 8 3 C5.6670134 2.95977609 3.33293334 2.95679753 1 3 C0.67 2.01 0.34 1.02 0 0 Z " fill="#5B758D" transform="translate(279,15)"/>
<path d="M0 0 C2.31 0 4.62 0 7 0 C7.12375 0.804375 7.2475 1.60875 7.375 2.4375 C7.684375 3.7059375 7.684375 3.7059375 8 5 C8.66 5.33 9.32 5.66 10 6 C6.05957221 6 4.91141781 4.53815912 2 2 C1.34 1.34 0.68 0.68 0 0 Z " fill="#F8DD69" transform="translate(318,380)"/>
<path d="M0 0 C-5.14285714 4.42857143 -5.14285714 4.42857143 -9 5 C-8.6875 3.0625 -8.6875 3.0625 -8 1 C-5.07175348 0.02391783 -3.04386724 -0.08226668 0 0 Z " fill="#F5E5A0" transform="translate(329,243)"/>
<path d="M0 0 C0.33 0.99 0.66 1.98 1 3 C-0.98 3.99 -0.98 3.99 -3 5 C-3 5.66 -3 6.32 -3 7 C-3.99 7.33 -4.98 7.66 -6 8 C-6 6.68 -6 5.36 -6 4 C-5.34 4 -4.68 4 -4 4 C-4 3.34 -4 2.68 -4 2 C-2.68 1.34 -1.36 0.68 0 0 Z " fill="#8DB6D6" transform="translate(63,207)"/>
<path d="M0 0 C2.31459868 1.81817001 2.95377187 2.75615543 3.51171875 5.69921875 C3.56972656 6.68535156 3.62773437 7.67148438 3.6875 8.6875 C3.75324219 9.68136719 3.81898438 10.67523438 3.88671875 11.69921875 C3.92410156 12.45847656 3.96148437 13.21773437 4 14 C1.8553857 11.8553857 1.55435397 10.98260002 0.875 8.125 C0.70742188 7.44695312 0.53984375 6.76890625 0.3671875 6.0703125 C0 4 0 4 0 0 Z " fill="#FDEA91" transform="translate(426,186)"/>
<path d="M0 0 C3.98175544 2.10148204 6.35039045 4.36905358 9 8 C7.35 7.67 5.7 7.34 4 7 C4 6.01 4 5.02 4 4 C3.01 4 2.02 4 1 4 C0.67 2.68 0.34 1.36 0 0 Z " fill="#BFA637" transform="translate(434,141)"/>
<path d="M0 0 C0.66 0.33 1.32 0.66 2 1 C1.1875 2.9375 1.1875 2.9375 0 5 C-0.99 5.33 -1.98 5.66 -3 6 C-3.99 5.34 -4.98 4.68 -6 4 C-4.02 2.68 -2.04 1.36 0 0 Z M-5 6 C-4.01 6.495 -4.01 6.495 -3 7 C-3.99 7.495 -3.99 7.495 -5 8 C-5 7.34 -5 6.68 -5 6 Z " fill="#45637B" transform="translate(157,34)"/>
<path d="M0 0 C7.38461538 0.49230769 7.38461538 0.49230769 10.5 3.0625 C10.995 3.701875 11.49 4.34125 12 5 C10.37276701 4.54965877 8.74826336 4.08944646 7.125 3.625 C5.76761719 3.24214844 5.76761719 3.24214844 4.3828125 2.8515625 C2 2 2 2 0 0 Z " fill="#AC9126" transform="translate(184,442)"/>
<path d="M0 0 C1.98 0 3.96 0 6 0 C3.45543849 2.96865509 0.51005335 4.3619751 -3 6 C-2 4 -1 2 0 0 Z " fill="#F9D964" transform="translate(330,418)"/>
<path d="M0 0 C0 4.05164344 -1.61357669 5.79537442 -4 9 C-4.99 9.66 -5.98 10.32 -7 11 C-5.5140084 6.40693504 -3.14985318 3.56430755 0 0 Z " fill="#2A567D" transform="translate(149,243)"/>
<path d="M0 0 C-2.31 1.65 -4.62 3.3 -7 5 C-7 3.35 -7 1.7 -7 0 C-4 -1 -4 -1 0 0 Z " fill="#304D64" transform="translate(332,218)"/>
<path d="M0 0 C0.99 0.33 1.98 0.66 3 1 C2.5020163 4.73487777 2.12508244 6.81237635 0 10 C0 6.7 0 3.4 0 0 Z " fill="#FAD855" transform="translate(293,384)"/>
<path d="M0 0 C-1.75 2.0625 -1.75 2.0625 -4 4 C-6.25 3.75 -6.25 3.75 -8 3 C-8 2.34 -8 1.68 -8 1 C-2.25 -1.125 -2.25 -1.125 0 0 Z " fill="#A6912B" transform="translate(312,232)"/>
<path d="M0 0 C0.99 0.33 1.98 0.66 3 1 C1.35 3.64 -0.3 6.28 -2 9 C-3 6 -3 6 -1.5625 2.8125 C-1.046875 1.884375 -0.53125 0.95625 0 0 Z " fill="#7DA5C4" transform="translate(65,151)"/>
<path d="M0 0 C1.65 1.65 3.3 3.3 5 5 C4.01 6.485 4.01 6.485 3 8 C2.34 8 1.68 8 1 8 C0.67 5.36 0.34 2.72 0 0 Z " fill="#3D5970" transform="translate(339,44)"/>
<path d="M0 0 C-1.49097658 3.7952131 -3.75700849 5.61042731 -7 8 C-4.73913043 0 -4.73913043 0 0 0 Z " fill="#FEF2BF" transform="translate(191,271)"/>
<path d="M0 0 C-1.28610235 2.5722047 -2.33393981 3.00974907 -5 4 C-7.25 3.625 -7.25 3.625 -9 3 C-5.92807025 0.26939578 -4.09590633 -0.34132553 0 0 Z " fill="#F5E6A5" transform="translate(191,255)"/>
<path d="M0 0 C0.99 0.495 0.99 0.495 2 1 C2.6328125 3.06640625 2.6328125 3.06640625 3.125 5.5625 C3.29257812 6.38878906 3.46015625 7.21507812 3.6328125 8.06640625 C3.75398438 8.70449219 3.87515625 9.34257812 4 10 C3.34 9.67 2.68 9.34 2 9 C2 8.34 2 7.68 2 7 C1.34 7 0.68 7 0 7 C0 4.69 0 2.38 0 0 Z " fill="#C3AA41" transform="translate(459,179)"/>
<path d="M0 0 C0.99 0 1.98 0 3 0 C4.60725635 3.21451269 4.05748185 6.43612536 4 10 C2.26337666 6.77484237 1.1094072 3.48670834 0 0 Z " fill="#7A9BB8" transform="translate(204,58)"/>
<path d="M0 0 C1.57432497 3.14864995 0.71895552 5.64487425 0 9 C-0.99 9.66 -1.98 10.32 -3 11 C-2.32829194 7.1936543 -1.27253436 3.64793184 0 0 Z " fill="#FDE996" transform="translate(382,200)"/>
<path d="M0 0 C2.31 0 4.62 0 7 0 C6.38125 0.185625 5.7625 0.37125 5.125 0.5625 C1.94397134 2.71437233 1.80548053 5.37533763 1 9 C0.67 9 0.34 9 0 9 C0 6.03 0 3.06 0 0 Z " fill="#FAE67B" transform="translate(387,167)"/>
<path d="M0 0 C1.32 0.33 2.64 0.66 4 1 C4.33 3.31 4.66 5.62 5 8 C2.74754119 5.31158141 1.11786042 3.35358125 0 0 Z " fill="#B89910" transform="translate(434,163)"/>
<path d="M0 0 C0.66 0.33 1.32 0.66 2 1 C2 1.99 2 2.98 2 4 C0.02 4.66 -1.96 5.32 -4 6 C-4.66 5.34 -5.32 4.68 -6 4 C-4.02 2.68 -2.04 1.36 0 0 Z " fill="#4E6D86" transform="translate(72,120)"/>
<path d="M0 0 C0.66 0.99 1.32 1.98 2 3 C1.01 3.495 1.01 3.495 0 4 C-1.13350534 6.01669827 -1.13350534 6.01669827 -2 8 C-3.32 7.67 -4.64 7.34 -6 7 C-5.195625 6.21625 -4.39125 5.4325 -3.5625 4.625 C-1.01309583 2.28017144 -1.01309583 2.28017144 0 0 Z " fill="#FAECA9" transform="translate(327,406)"/>
<path d="M0 0 C-0.33 0.99 -0.66 1.98 -1 3 C-3.31 2.67 -5.62 2.34 -8 2 C-4.91190305 0.23537317 -3.76687864 0 0 0 Z " fill="#4C667F" transform="translate(202,17)"/>
</svg>
