<?xml version="1.0" encoding="UTF-8"?>
<svg version="1.1" xmlns="http://www.w3.org/2000/svg" width="577" height="433">
<path d="M0 0 C2.3925 0.020625 4.785 0.04125 7.25 0.0625 C7.25 6.0025 7.25 11.9425 7.25 18.0625 C4.25520833 18.453125 1.26041667 18.84375 -1.734375 19.234375 C-5.31437958 20.21748507 -6.47572838 21.15510624 -8.75 24.0625 C-9.34585694 27.12469817 -9.34585694 27.12469817 -9.24829102 30.58081055 C-9.25380981 31.22708405 -9.25932861 31.87335754 -9.26501465 32.53921509 C-9.27432517 33.94088903 -9.27444751 35.34264757 -9.26642036 36.74432945 C-9.25373002 38.98026961 -9.26514158 41.21498522 -9.28245544 43.45088196 C-9.31462393 48.21731028 -9.31418445 52.98348437 -9.3125 57.75 C-9.31501866 63.23509202 -9.33145448 68.71981493 -9.36894035 74.20478249 C-9.3785828 76.37637446 -9.37015559 78.54734105 -9.36024475 80.71891785 C-9.38507808 96.80624589 -11.32619383 113.9419081 -20.796875 127.40625 C-21.99938917 129.17737829 -21.99938917 129.17737829 -21.75 132.0625 C-20.79271836 133.78387772 -20.79271836 133.78387772 -19.5 135.5625 C-10.68355325 149.33508489 -9.29695275 166.53808835 -9.36987495 182.51616859 C-9.37921427 184.7494365 -9.36851876 186.98190501 -9.35325623 189.21513367 C-9.31875688 194.74107258 -9.31140163 200.26693014 -9.31335449 205.79296875 C-9.31501906 210.51035406 -9.30140386 215.2271363 -9.26487541 219.94438744 C-9.2540905 222.13829959 -9.26613785 224.33133941 -9.27870178 226.52522278 C-9.26980316 227.86488713 -9.2597308 229.20454439 -9.24829102 230.54418945 C-9.24845718 231.70980911 -9.24862335 232.87542877 -9.24879456 234.07637024 C-8.64326378 237.70149698 -7.64007199 238.85962831 -4.75 241.0625 C-1.72698602 241.96716931 -1.72698602 241.96716931 1.5 242.3125 C4.34625 242.68375 4.34625 242.68375 7.25 243.0625 C7.25 249.0025 7.25 254.9425 7.25 261.0625 C-4.80552287 261.38541579 -12.84597637 261.50898655 -21.98828125 253.03125 C-27.33836161 247.05244623 -28.86336343 240.47336169 -28.90771484 232.63598633 C-28.91797699 231.32974808 -28.92823914 230.02350983 -28.93881226 228.6776886 C-28.94225018 227.9807873 -28.9456881 227.28388599 -28.94923019 226.56586647 C-28.96110284 224.36386537 -28.98058486 222.16205314 -29.00234985 219.96012878 C-29.06362429 213.6994786 -29.11757586 207.43884208 -29.15136719 201.17797852 C-29.17262516 197.34115333 -29.20818091 193.50466483 -29.25212479 189.66803551 C-29.26605992 188.22238897 -29.27495486 186.77668277 -29.27817917 185.33097267 C-29.29772369 177.39414044 -29.77021187 169.73564587 -31.12744141 161.9050293 C-31.24803106 161.20672154 -31.36862072 160.50841379 -31.49286461 159.7889452 C-32.70732271 153.3573015 -34.63979003 146.82289086 -39.66015625 142.3671875 C-41.93456327 140.79817477 -41.93456327 140.79817477 -45.75 140.0625 C-45.75 133.7925 -45.75 127.5225 -45.75 121.0625 C-43.44 120.0725 -41.13 119.0825 -38.75 118.0625 C-36.98868268 116.31831647 -36.98868268 116.31831647 -35.9375 114.25 C-35.55980469 113.60417969 -35.18210938 112.95835937 -34.79296875 112.29296875 C-29.55687539 101.09518108 -29.46350664 88.43292183 -29.47560501 76.29460907 C-29.4765921 74.10624317 -29.46338197 71.91834003 -29.44662476 69.7300415 C-29.40097031 63.52025689 -29.3757401 57.31053348 -29.36914062 51.10058594 C-29.36409606 47.27166909 -29.33972062 43.44325525 -29.30381393 39.61450958 C-29.29410537 38.17144047 -29.29163439 36.7283015 -29.29698563 35.28520966 C-29.33623474 24.19614573 -28.18914381 14.89812526 -20.39453125 6.53125 C-14.16294529 0.96574805 -8.10377904 -0.09880525 0 0 Z " fill="#333333" transform="translate(203.75,85.9375)"/>
<path d="M0 0 C12.05552287 -0.32291579 20.09597637 -0.44648655 29.23828125 8.03125 C34.58836161 14.01005377 36.11336343 20.58913831 36.15771484 28.42651367 C36.16797699 29.73275192 36.17823914 31.03899017 36.18881226 32.3848114 C36.19225018 33.0817127 36.1956881 33.77861401 36.19923019 34.49663353 C36.21110284 36.69863463 36.23058486 38.90044686 36.25234985 41.10237122 C36.31362429 47.3630214 36.36757586 53.62365792 36.40136719 59.88452148 C36.42262516 63.72134667 36.45818091 67.55783517 36.50212479 71.39446449 C36.51605992 72.84011103 36.52495486 74.28581723 36.52817917 75.73152733 C36.54772369 83.66835956 37.02021187 91.32685413 38.37744141 99.1574707 C38.49803106 99.85577846 38.61862072 100.55408621 38.74286461 101.2735548 C39.95732271 107.7051985 41.88979003 114.23960914 46.91015625 118.6953125 C49.18456327 120.26432523 49.18456327 120.26432523 53 121 C53 127.27 53 133.54 53 140 C50.69 140.99 48.38 141.98 46 143 C38.38362953 150.38503212 37.20370324 164.22811402 36.90151978 174.27386475 C36.86318235 177.56063085 36.83988296 180.84657561 36.83133507 184.13351059 C36.82408166 186.34651493 36.80835221 188.55930857 36.78999329 190.77224731 C36.73792873 197.05891074 36.68958344 203.34544964 36.67407227 209.63232422 C36.66392793 213.49325739 36.63445254 217.35364344 36.59275246 221.21435928 C36.58053956 222.67416349 36.57530322 224.13404521 36.57755089 225.59389877 C36.59040033 236.65936184 35.46206147 246.13977452 27.64453125 254.53125 C21.41294529 260.09675195 15.35377904 261.16130525 7.25 261.0625 C4.8575 261.041875 2.465 261.02125 0 261 C0 255.06 0 249.12 0 243 C3.02734375 242.54427083 6.0546875 242.08854167 9.08203125 241.6328125 C12.17321793 241.14867662 12.17321793 241.14867662 15 239 C16.10641167 235.68076499 16.13796416 233.18392352 16.15771484 229.68701172 C16.17310806 227.72754105 16.17310806 227.72754105 16.18881226 225.72848511 C16.19225018 225.02908688 16.1956881 224.32968864 16.19923019 223.60909653 C16.211081 221.40297432 16.23055883 219.19704251 16.25234985 216.99099731 C16.31368964 210.71753538 16.3675552 204.44408546 16.40136719 198.17041016 C16.42262621 194.32825423 16.45818601 190.48643443 16.50212479 186.64447403 C16.51606299 185.19603636 16.52495559 183.74753908 16.52817917 182.29903793 C16.56924582 165.58282839 18.17350265 147.69309262 28.046875 133.65625 C29.24938917 131.88512171 29.24938917 131.88512171 29 129 C28.278125 127.9275 27.55625 126.855 26.8125 125.75 C17.92386686 111.98776972 16.71025634 94.88762424 16.72560501 78.96925163 C16.72658772 76.71960741 16.71343374 74.47041858 16.69662476 72.22084045 C16.65082343 65.83646865 16.62570183 59.45215818 16.61914062 53.06762695 C16.61413058 49.13615128 16.58993528 45.20517362 16.55381393 41.27386665 C16.54403078 39.78397165 16.54167593 38.29400816 16.54698563 36.8040905 C16.55404696 34.72944225 16.53680621 32.65629341 16.51416016 30.58178711 C16.51131012 29.40410263 16.50846008 28.22641815 16.50552368 27.01304626 C15.89466808 23.37219569 14.90518673 22.21006595 12 20 C8.97698602 19.09533069 8.97698602 19.09533069 5.75 18.75 C2.90375 18.37875 2.90375 18.37875 0 18 C0 12.06 0 6.12 0 0 Z " fill="#323232" transform="translate(366,86)"/>
<path d="M0 0 C12.34367453 10.37893741 20.92679191 25.9306392 22.44238281 42.04882812 C23.53336834 58.79820307 19.02921767 74.63215252 8.7578125 88.0859375 C3.75638875 93.42660511 -2.72100511 94.84944848 -9.7421875 96.0859375 C-11.0621875 96.0859375 -12.3821875 96.0859375 -13.7421875 96.0859375 C-14.97603725 83.8845344 -14.97603725 83.8845344 -12.171875 79.796875 C-10.77751998 78.55096842 -9.35682656 77.33404417 -7.9140625 76.14453125 C-0.76690957 69.37016148 2.29015318 58.37256081 2.5703125 48.8359375 C2.2870163 36.42756373 -1.78607974 27.43807038 -9.7421875 18.0859375 C-19.09825129 9.32609346 -30.46749445 6.29941691 -43.0703125 6.7109375 C-54.66438364 7.89501285 -64.55777356 12.93159181 -72.1015625 21.88671875 C-79.41823267 32.18079302 -82.07985683 42.50583382 -80.7421875 55.0859375 C-78.78816505 64.06119317 -75.09018409 72.85171344 -67.5703125 78.4453125 C-64.3469202 81.61276741 -64.28261352 84.37295417 -64.15625 88.796875 C-64.19597041 91.35222123 -64.26729344 93.90723563 -64.3671875 96.4609375 C-64.40779297 98.42353516 -64.40779297 98.42353516 -64.44921875 100.42578125 C-64.51976781 103.64752166 -64.61831467 106.86587904 -64.7421875 110.0859375 C-67.36613056 110.92273027 -69.99123134 111.75550692 -72.6171875 112.5859375 C-73.73673828 112.94365234 -73.73673828 112.94365234 -74.87890625 113.30859375 C-80.515625 115.0859375 -80.515625 115.0859375 -82.7421875 115.0859375 C-82.73582275 114.40080078 -82.72945801 113.71566406 -82.72290039 113.00976562 C-82.71414806 109.86741393 -82.7590187 106.72795081 -82.8046875 103.5859375 C-82.79373047 102.50828125 -82.78277344 101.430625 -82.77148438 100.3203125 C-82.92082486 93.32264394 -83.96611797 89.77029494 -88.98022461 84.84765625 C-97.93495515 75.89416649 -100.97099797 60.94972125 -101.1796875 48.7734375 C-101.05366109 30.86768483 -93.82971313 16.07115502 -81.7421875 3.0859375 C-77.11467232 -1.41051516 -71.49245016 -4.23173117 -65.8046875 -7.1640625 C-65.14847412 -7.50590576 -64.49226074 -7.84774902 -63.81616211 -8.19995117 C-42.90846147 -18.56469517 -18.40019042 -12.84343776 0 0 Z " fill="#D91456" transform="translate(327.7421875,139.9140625)"/>
<path d="M0 0 C0 5.94 0 11.88 0 18 C-7.87493294 21.37497126 -7.87493294 21.37497126 -11.78833008 22.42285156 C-12.66571335 22.66051743 -13.54309662 22.89818329 -14.44706726 23.14305115 C-15.84418694 23.5131002 -15.84418694 23.5131002 -17.26953125 23.890625 C-18.25585037 24.15637833 -19.24216949 24.42213165 -20.25837708 24.69593811 C-23.44174005 25.55239712 -26.62701164 26.40148352 -29.8125 27.25 C-31.99473373 27.83448834 -34.17686249 28.41936873 -36.35888672 29.00463867 C-39.59544461 29.8725214 -42.83214017 30.73986012 -46.06945801 31.60490417 C-51.96629938 33.18128324 -57.85680121 34.7774353 -63.73828125 36.41015625 C-65.5339856 36.90563965 -65.5339856 36.90563965 -67.3659668 37.41113281 C-69.46664306 37.9921274 -71.56589107 38.57832346 -73.66333008 39.17089844 C-74.57107178 39.42000977 -75.47881348 39.66912109 -76.4140625 39.92578125 C-77.1663916 40.13630127 -77.9187207 40.34682129 -78.69384766 40.5637207 C-81 41 -81 41 -87 41 C-87 35.06 -87 29.12 -87 23 C-72.92976956 18.4284763 -58.68793973 14.66860881 -44.375 10.9375 C-39.71560292 9.71951389 -35.05687892 8.49897932 -30.3984375 7.27734375 C-28.74566803 6.84523087 -28.74566803 6.84523087 -27.05950928 6.40438843 C-20.17670601 4.59757893 -13.33462031 2.70161378 -6.52587891 0.63110352 C-4 0 -4 0 0 0 Z " fill="#D91456" transform="translate(332,236)"/>
<path d="M0 0 C0.10794277 2.26979665 0.18556176 4.54105196 0.25 6.8125 C0.29640625 8.07707031 0.3428125 9.34164063 0.390625 10.64453125 C0 14 0 14 -1.74855042 15.61859131 C-3.9956991 16.99736112 -5.88094367 17.75756334 -8.41381836 18.45800781 C-9.27829086 18.70125793 -10.14276337 18.94450806 -11.03343201 19.19512939 C-11.95954788 19.44526794 -12.88566376 19.69540649 -13.83984375 19.953125 C-14.79895157 20.21760437 -15.75805939 20.48208374 -16.74623108 20.75457764 C-18.77158211 21.31023215 -20.7981857 21.86133845 -22.82592773 22.40820312 C-25.92659219 23.24704903 -29.02088824 24.1069275 -32.11523438 24.96875 C-34.08558778 25.50649139 -36.05628041 26.04299169 -38.02734375 26.578125 C-39.41348122 26.96547821 -39.41348122 26.96547821 -40.82762146 27.36065674 C-41.69524612 27.59129822 -42.56287079 27.8219397 -43.45678711 28.05957031 C-44.21527451 28.26592102 -44.9737619 28.47227173 -45.75523376 28.68487549 C-48 29 -48 29 -53 28 C-53 23.05 -53 18.1 -53 13 C-46.2578121 11.14050587 -39.51341734 9.28932668 -32.7668457 7.44580078 C-30.47227497 6.8175467 -28.17832281 6.18702882 -25.88500977 5.55419922 C-22.58770366 4.64474523 -19.28825549 3.7434675 -15.98828125 2.84375 C-14.96414627 2.55939087 -13.94001129 2.27503174 -12.88484192 1.98205566 C-11.92422348 1.72178589 -10.96360504 1.46151611 -9.97387695 1.19335938 C-8.71145927 0.84694397 -8.71145927 0.84694397 -7.42353821 0.49353027 C-4.88639697 -0.02313417 -2.58207825 -0.08797283 0 0 Z " fill="#B71046" transform="translate(315,264)"/>
<path d="M0 0 C3.66262449 0.81465246 5.13193418 2.40542239 7.16015625 5.48046875 C7.8516695 9.78321784 7.6757303 11.68992187 5.28515625 15.35546875 C2.55970734 18.08091766 1.72515016 18.42716744 -2.15234375 18.79296875 C-6.41520486 18.43170933 -7.85976429 17.46054821 -10.83984375 14.48046875 C-12.40919969 11.34175687 -12.19185478 8.94191053 -11.83984375 5.48046875 C-8.64082959 0.63035051 -5.55413317 -0.34307667 0 0 Z " fill="#333333" transform="translate(290.83984375,328.51953125)"/>
<path d="M0 0 C2.34765625 0.421875 2.34765625 0.421875 4.91015625 2.109375 C6.57533487 4.7881406 7.2739615 6.25300065 7.34765625 9.421875 C5.15787523 15.88172901 5.15787523 15.88172901 1.34765625 18.421875 C-3.51816309 18.9712417 -5.54998815 19.15677873 -9.65234375 16.421875 C-11.88302193 13.07585773 -12.36015741 11.29323143 -12.0546875 7.359375 C-10.60547432 0.38063969 -6.31424027 -0.33477563 0 0 Z " fill="#333333" transform="translate(325.65234375,328.578125)"/>
<path d="M0 0 C2.78993395 2.12566396 3.6918173 3.51593574 4.40234375 6.9375 C4.70781366 10.87135643 4.23067818 12.65398273 2 16 C-1.32830398 18.21886932 -3.13955335 18.76241935 -7.0625 18.47265625 C-10.66317126 17.59426669 -12.00772296 16.05067422 -14 13 C-14.86044823 8.72060261 -14.69813144 5.30106315 -12.625 1.4375 C-8.50486632 -0.81876368 -4.57840437 -0.85940148 0 0 Z " fill="#323232" transform="translate(259,329)"/>
<path d="M0 0 C0.10815225 1.76949095 0.18566083 3.54087487 0.25 5.3125 C0.29640625 6.29863281 0.3428125 7.28476562 0.390625 8.30078125 C0 11 0 11 -1.6015625 12.7421875 C-4.56213047 14.29479806 -7.36692472 15.06601097 -10.625 15.8125 C-12.34589844 16.22435547 -12.34589844 16.22435547 -14.1015625 16.64453125 C-15.53628906 16.82048828 -15.53628906 16.82048828 -17 17 C-19 15 -19 15 -19.1953125 12.3984375 C-19.17210937 11.40070313 -19.14890625 10.40296875 -19.125 9.375 C-19.10695313 8.37210937 -19.08890625 7.36921875 -19.0703125 6.3359375 C-19.04710937 5.56507813 -19.02390625 4.79421875 -19 4 C-16.21079611 3.1369594 -13.41913928 2.28427693 -10.625 1.4375 C-9.8309375 1.19064453 -9.036875 0.94378906 -8.21875 0.68945312 C-7.45820313 0.46064453 -6.69765625 0.23183594 -5.9140625 -0.00390625 C-5.2123291 -0.21861572 -4.5105957 -0.4333252 -3.78759766 -0.65454102 C-2 -1 -2 -1 0 0 Z " fill="#962547" transform="translate(298,289)"/>
<path d="M0 0 C0.66 0.33 1.32 0.66 2 1 C2.05391993 2.79133978 2.09275571 4.58313899 2.125 6.375 C2.14820313 7.37273437 2.17140625 8.37046875 2.1953125 9.3984375 C2 12 2 12 0 14 C-2.1640625 14.1953125 -2.1640625 14.1953125 -4.625 14.125 C-5.44226563 14.10695313 -6.25953125 14.08890625 -7.1015625 14.0703125 C-7.72804688 14.04710937 -8.35453125 14.02390625 -9 14 C-9 12 -9 10 -9 8 C-8.34 8 -7.68 8 -7 8 C-6.938125 7.21625 -6.87625 6.4325 -6.8125 5.625 C-6.544375 4.75875 -6.27625 3.8925 -6 3 C-3.5 1.75 -3.5 1.75 -1 1 C-0.67 0.67 -0.34 0.34 0 0 Z " fill="#991A3F" transform="translate(296,288)"/>
<path d="M0 0 C1.28197266 -0.01836914 1.28197266 -0.01836914 2.58984375 -0.03710938 C3.82927734 -0.04000977 3.82927734 -0.04000977 5.09375 -0.04296875 C5.84333984 -0.04707764 6.59292969 -0.05118652 7.36523438 -0.05541992 C9.77798857 0.21913296 11.40459178 0.98999675 13.5 2.1875 C12.8702124 2.17178955 12.2404248 2.1560791 11.59155273 2.13989258 C8.70696175 2.07709768 5.82251514 2.03836942 2.9375 2 C1.94685547 1.97486328 0.95621094 1.94972656 -0.06445312 1.92382812 C-6.13362835 1.86333801 -10.07265101 2.52809899 -15.5 5.1875 C-18.37109375 5.69921875 -18.37109375 5.69921875 -20.9375 5.875 C-21.80246094 5.94074219 -22.66742188 6.00648438 -23.55859375 6.07421875 C-24.51958984 6.13029297 -24.51958984 6.13029297 -25.5 6.1875 C-23.19412696 3.88162696 -21.72901367 3.50462405 -18.625 2.625 C-17.76132812 2.37621094 -16.89765625 2.12742188 -16.0078125 1.87109375 C-15.18023437 1.64550781 -14.35265625 1.41992188 -13.5 1.1875 C-12.87915527 1.01186523 -12.25831055 0.83623047 -11.61865234 0.65527344 C-7.78977178 -0.19009821 -3.90561786 0.00294541 0 0 Z " fill="#C22558" transform="translate(288.5,126.8125)"/>
<path d="M0 0 C0.33 0 0.66 0 1 0 C1.09796875 1.30453125 1.1959375 2.6090625 1.296875 3.953125 C1.792079 19.45307344 1.792079 19.45307344 8 33 C8.04063832 34.66617115 8.042721 36.33388095 8 38 C5.37504356 34.87255189 4.11651549 31.93857001 2.875 28.0625 C2.54242188 27.04285156 2.20984375 26.02320313 1.8671875 24.97265625 C0.19301635 19.23371821 -0.1272493 14.12949322 -0.0625 8.1875 C-0.05573242 7.00510742 -0.05573242 7.00510742 -0.04882812 5.79882812 C-0.03711312 3.86585239 -0.01917998 1.93291607 0 0 Z " fill="#C73464" transform="translate(227,180)"/>
<path d="M0 0 C-1 3 -1 3 -2.875 4.1875 C-5 5 -5 5 -8 5 C-8 9.62 -8 14.24 -8 19 C-6.35 18.67 -4.7 18.34 -3 18 C-3 18.66 -3 19.32 -3 20 C-4.98 20 -6.96 20 -9 20 C-9 14.06 -9 8.12 -9 2 C-4 0 -4 0 0 0 Z " fill="#D0265C" transform="translate(254,257)"/>
<path d="M0 0 C0.66 0 1.32 0 2 0 C2 5.28 2 10.56 2 16 C3.98 16 5.96 16 8 16 C8 16.66 8 17.32 8 18 C5.36 18 2.72 18 0 18 C0 12.06 0 6.12 0 0 Z " fill="#2A2A2A" transform="translate(366,329)"/>
<path d="M0 0 C0.66 0 1.32 0 2 0 C2 4.29 2 8.58 2 13 C-1.63 13 -5.26 13 -9 13 C-9.33 12.34 -9.66 11.68 -10 11 C-6.7 11 -3.4 11 0 11 C0 7.37 0 3.74 0 0 Z " fill="#2A2A2A" transform="translate(209,334)"/>
<path d="M0 0 C0.66 0.33 1.32 0.66 2 1 C2 10.24 2 19.48 2 29 C-3.625 31.25 -3.625 31.25 -7 30 C-7 29.34 -7 28.68 -7 28 C-4.36 28 -1.72 28 1 28 C0.67 18.76 0.34 9.52 0 0 Z " fill="#D61C55" transform="translate(261,221)"/>
<path d="M0 0 C0.66 0.66 1.32 1.32 2 2 C6.65624995 1.58984222 6.65624995 1.58984222 11 0 C13.6723621 -0.13415472 16.32250488 -0.04318541 19 0 C15.912511 1.67481715 12.88620072 2.70402783 9.5 3.625 C8.09234375 4.01558594 8.09234375 4.01558594 6.65625 4.4140625 C4 5 4 5 0 5 C-0.5625 3.0625 -0.5625 3.0625 -1 1 C-0.67 0.67 -0.34 0.34 0 0 Z " fill="#C4295C" transform="translate(299,258)"/>
<path d="M0 0 C7.59 0 15.18 0 23 0 C23.33 0.99 23.66 1.98 24 3 C23.21367187 2.83628906 22.42734375 2.67257813 21.6171875 2.50390625 C17.09153151 1.87344229 12.68670432 1.89284476 8.125 1.9375 C7.24585938 1.94201172 6.36671875 1.94652344 5.4609375 1.95117188 C3.30726197 1.96287663 1.15362183 1.98080931 -1 2 C-0.67 1.34 -0.34 0.68 0 0 Z " fill="#C5285A" transform="translate(278,145)"/>
<path d="M0 0 C2.97 0.495 2.97 0.495 6 1 C6 8.59 6 16.18 6 24 C5.67 24 5.34 24 5 24 C4.97421875 22.68644531 4.9484375 21.37289062 4.921875 20.01953125 C4.86558171 18.2838215 4.80823465 16.5481457 4.75 14.8125 C4.73582031 13.94818359 4.72164062 13.08386719 4.70703125 12.19335938 C4.50362456 6.88444484 4.00445887 3.86830727 0 0 Z " fill="#D5225A" transform="translate(240,226)"/>
<path d="M0 0 C1.50433594 0.01353516 1.50433594 0.01353516 3.0390625 0.02734375 C3.80992187 0.03894531 4.58078125 0.05054688 5.375 0.0625 C2.17489612 1.8758922 -0.75783843 2.58463974 -4.375 3.1875 C-5.35984375 3.35507812 -6.3446875 3.52265625 -7.359375 3.6953125 C-8.10703125 3.81648438 -8.8546875 3.93765625 -9.625 4.0625 C-8.965 3.7325 -8.305 3.4025 -7.625 3.0625 C-7.625 2.4025 -7.625 1.7425 -7.625 1.0625 C-4.98041621 -0.25979189 -2.94738699 -0.03427194 0 0 Z " fill="#AC2552" transform="translate(294.625,282.9375)"/>
<path d="M0 0 C0.66 0 1.32 0 2 0 C2.33 0.99 2.66 1.98 3 3 C2.54625 3.433125 2.0925 3.86625 1.625 4.3125 C-0.20024334 6.10798342 -0.20024334 6.10798342 -2 9 C-2.6875 6.75 -2.6875 6.75 -3 4 C-1.6875 1.6875 -1.6875 1.6875 0 0 Z " fill="#3C3C3C" transform="translate(282,330)"/>
<path d="M0 0 C0.66 0.66 1.32 1.32 2 2 C1.01 4.31 0.02 6.62 -1 9 C-1.66 9 -2.32 9 -3 9 C-2.25 2.25 -2.25 2.25 0 0 Z " fill="#2D2D2D" transform="translate(317,330)"/>
<path d="M0 0 C-0.6875 2.4375 -0.6875 2.4375 -2 5 C-4.625 5.8125 -4.625 5.8125 -7 6 C-7 5.01 -7 4.02 -7 3 C-4.46815512 0.64276511 -3.52809907 0 0 0 Z " fill="#3C3C3C" transform="translate(185,209)"/>
<path d="M0 0 C4.50802601 1.25805377 7.4912812 2.90407165 11 6 C9.35 6 7.7 6 6 6 C6 5.34 6 4.68 6 4 C5.01 4.33 4.02 4.66 3 5 C1.5 3.625 1.5 3.625 0 2 C0 1.34 0 0.68 0 0 Z " fill="#CC295E" transform="translate(314,133)"/>
<path d="M0 0 C3.55780196 0.60990891 6.6828589 1.5783681 10 3 C10 3.33 10 3.66 10 4 C6.6875 4.6875 6.6875 4.6875 3 5 C1.0625 3.6875 1.0625 3.6875 0 2 C0 1.34 0 0.68 0 0 Z " fill="#CC2256" transform="translate(304,129)"/>
<path d="M0 0 C0.33 0 0.66 0 1 0 C1 1.98 1 3.96 1 6 C-3.43076923 8.09230769 -3.43076923 8.09230769 -6.3125 7.625 C-6.869375 7.41875 -7.42625 7.2125 -8 7 C-8 6.34 -8 5.68 -8 5 C-5.36 5 -2.72 5 0 5 C0 3.35 0 1.7 0 0 Z " fill="#C82558" transform="translate(262,244)"/>
<path d="M0 0 C6 9 6 9 6 12 C3 11 3 11 1.3125 7.6875 C0 4 0 4 0 0 Z " fill="#C02B58" transform="translate(248,202)"/>
<path d="M0 0 C0.66 0.33 1.32 0.66 2 1 C-0.46153846 5.8 -0.46153846 5.8 -3.1875 6.8125 C-3.785625 6.874375 -4.38375 6.93625 -5 7 C-1.125 1.125 -1.125 1.125 0 0 Z " fill="#CC2659" transform="translate(246,143)"/>
<path d="M0 0 C0.99 0.33 1.98 0.66 3 1 C4.1875 4.0625 4.1875 4.0625 5 7 C2.5625 6.1875 2.5625 6.1875 0 5 C-0.33 4.01 -0.66 3.02 -1 2 C-0.67 1.34 -0.34 0.68 0 0 Z " fill="#CA1D55" transform="translate(340,158)"/>
<path d="M0 0 C2.97 0 5.94 0 9 0 C5.09567131 1.95216435 2.27786748 2.50639991 -2 3 C-1.34 2.67 -0.68 2.34 0 2 C0 1.34 0 0.68 0 0 Z " fill="#C53160" transform="translate(316,233)"/>
<path d="M0 0 C1.10191901 4.40767604 0.58706842 5.8922935 -1 10 C-1.66 9.67 -2.32 9.34 -3 9 C-2.01 6.03 -1.02 3.06 0 0 Z " fill="#C12556" transform="translate(233,161)"/>
<path d="M0 0 C2.31 0.33 4.62 0.66 7 1 C4.01353231 2.99097846 1.40312738 3.94124926 -2 5 C-2 4.34 -2 3.68 -2 3 C-1.34 3 -0.68 3 0 3 C0 2.01 0 1.02 0 0 Z " fill="#C8245C" transform="translate(270,146)"/>
</svg>
