<?xml version="1.0" encoding="UTF-8"?>
<svg version="1.1" xmlns="http://www.w3.org/2000/svg" width="500" height="500">
<path d="M0 0 C0.71526695 -0.00205263 1.4305339 -0.00410527 2.16747561 -0.0062201 C4.57063332 -0.01188654 6.97373365 -0.01043329 9.37689686 -0.00901413 C11.11475163 -0.01159797 12.85260581 -0.01461118 14.59045917 -0.01801753 C19.37132341 -0.02608857 24.15217264 -0.02787716 28.93304288 -0.028615 C34.08725441 -0.03046537 39.24145814 -0.03801262 44.39566517 -0.04475021 C55.66840723 -0.05833472 66.94114573 -0.06435842 78.21389461 -0.06876087 C85.25192099 -0.07152305 92.289946 -0.07576036 99.32797146 -0.08026505 C118.8121806 -0.09245778 138.29638863 -0.10275714 157.7806015 -0.10614014 C159.02774222 -0.1063597 160.27488295 -0.10657927 161.55981581 -0.10680549 C162.80994877 -0.10702377 164.06008173 -0.10724204 165.3480975 -0.10746694 C167.88136367 -0.1079104 170.41462984 -0.10835697 172.947896 -0.10880661 C174.20448483 -0.10902804 175.46107365 -0.10924947 176.75574092 -0.10947761 C197.11824226 -0.11342586 217.48070782 -0.13088069 237.84319534 -0.15416613 C258.74637273 -0.17787705 279.64953217 -0.19034187 300.55272323 -0.19150805 C312.29017193 -0.19242495 324.02757401 -0.198181 335.76500988 -0.21632767 C345.75947963 -0.23172511 355.75388834 -0.23685119 365.74836769 -0.22858956 C370.84728321 -0.22468185 375.94607582 -0.22561871 381.04497623 -0.23964691 C385.71522253 -0.25237825 390.38525344 -0.25119499 395.05549941 -0.2390562 C396.74259818 -0.23709789 398.42971216 -0.24018385 400.11678954 -0.24890056 C416.32720559 -0.327335 428.67877196 2.88728379 440.93935108 14.08064651 C449.41611345 23.31363457 453.94142269 33.86610558 453.95359135 46.30926418 C453.95564398 47.02453113 453.95769661 47.73979809 453.95981145 48.47673979 C453.96547789 50.8798975 453.96402464 53.28299783 453.96260548 55.68616104 C453.96518931 57.42401582 453.96820253 59.16186999 453.97160888 60.89972335 C453.97967991 65.68058759 453.98146851 70.46143682 453.98220634 75.24230707 C453.98405671 80.39651859 453.99160396 85.55072233 453.99834156 90.70492935 C454.01192607 101.97767141 454.01794976 113.25040991 454.02235222 124.52315879 C454.0251144 131.56118517 454.0293517 138.59921018 454.03385639 145.63723564 C454.04604913 165.12144478 454.05634849 184.60565281 454.05973148 204.08986568 C454.05995105 205.33700641 454.06017062 206.58414713 454.06039684 207.86908 C454.06061511 209.11921295 454.06083339 210.36934591 454.06105828 211.65736169 C454.06150175 214.19062785 454.06194831 216.72389402 454.06239796 219.25716019 C454.06261939 220.51374901 454.06284082 221.77033783 454.06306896 223.0650051 C454.0670172 243.42750644 454.08447203 263.789972 454.10775748 284.15245952 C454.1314684 305.05563692 454.14393321 325.95879635 454.1450994 346.86198741 C454.1460163 358.59943612 454.15177235 370.3368382 454.16991901 382.07427406 C454.18531646 392.06874381 454.19044254 402.06315252 454.18218091 412.05763187 C454.17827319 417.1565474 454.17921006 422.25534 454.19323826 427.35424042 C454.20596959 432.02448671 454.20478633 436.69451763 454.19264755 441.3647636 C454.19068923 443.05186236 454.19377519 444.73897634 454.20249191 446.42605373 C454.28092635 462.63646977 451.06630756 474.98803614 439.87294483 487.24861526 C430.63995678 495.72537763 420.08748577 500.25068688 407.64432716 500.26285553 C406.57142674 500.26593448 406.57142674 500.26593448 405.47685155 500.26907563 C403.07369385 500.27474207 400.67059352 500.27328882 398.26743031 500.27186966 C396.52957553 500.2744535 394.79172135 500.27746671 393.053868 500.28087306 C388.27300375 500.28894409 383.49215453 500.29073269 378.71128428 500.29147053 C373.55707275 500.2933209 368.40286902 500.30086815 363.24866199 500.30760574 C351.97591994 500.32119025 340.70318144 500.32721395 329.43043256 500.3316164 C322.39240617 500.33437858 315.35438116 500.33861589 308.31635571 500.34312057 C288.83214657 500.35531331 269.34793853 500.36561267 249.86372566 500.36899567 C248.61658494 500.36921523 247.36944422 500.3694348 246.08451135 500.36966102 C244.83437839 500.3698793 243.58424544 500.37009757 242.29622966 500.37032247 C239.76296349 500.37076593 237.22969733 500.3712125 234.69643116 500.37166214 C232.81154793 500.37199428 232.81154793 500.37199428 230.88858625 500.37233314 C210.5260849 500.37628139 190.16361934 500.39373622 169.80113182 500.41702166 C148.89795443 500.44073258 127.99479499 500.4531974 107.09160393 500.45436358 C95.35415523 500.45528048 83.61675315 500.46103653 71.87931728 500.4791832 C61.88484754 500.49458064 51.89043882 500.49970672 41.89595947 500.49144509 C36.79704395 500.48753738 31.69825134 500.48847424 26.59935093 500.50250244 C21.92910463 500.51523378 17.25907372 500.51405051 12.58882775 500.50191173 C10.90172899 500.49995342 9.214615 500.50303938 7.52753762 500.51175609 C-8.68287843 500.59019053 -21.03444479 497.37557174 -33.29502392 486.18220901 C-42.15525684 476.53154038 -46.29655138 465.81088893 -46.30926418 452.84616089 C-46.31131682 452.13142847 -46.31336945 451.41669604 -46.31548429 450.68030506 C-46.32113938 448.28498723 -46.31969888 445.88972716 -46.31827831 443.49440384 C-46.3208628 441.75981081 -46.32387619 440.02521838 -46.32728171 438.29062676 C-46.33534505 433.52342344 -46.33714091 428.75623517 -46.33787918 423.98902583 C-46.33973087 418.8477836 -46.34727873 413.70654916 -46.3540144 408.56531143 C-46.36759298 397.32361934 -46.37362155 386.08193082 -46.37802505 374.8402319 C-46.38078798 367.82112871 -46.3850254 360.80202691 -46.38952923 353.78292465 C-46.40172071 334.34928728 -46.41202063 314.915651 -46.41540432 295.48200989 C-46.41562389 294.2383719 -46.41584345 292.99473391 -46.41606967 291.71340992 C-46.41628795 290.46680001 -46.41650623 289.2201901 -46.41673112 287.93580413 C-46.41717459 285.40970341 -46.41762115 282.8836027 -46.41807079 280.35750198 C-46.41829222 279.10446928 -46.41851365 277.85143657 -46.41874179 276.56043318 C-46.42269054 256.25296085 -46.44014744 235.94552438 -46.46343032 215.6380659 C-46.48714116 194.78909745 -46.49960603 173.94014699 -46.50077224 153.09116483 C-46.50168909 141.3850301 -46.50744404 129.67894213 -46.52559185 117.97282028 C-46.54098913 108.00582308 -46.54611544 98.03888708 -46.53785375 88.07188025 C-46.5339461 82.98713451 -46.53488258 77.90251203 -46.54891109 72.81778145 C-46.5616427 68.16052781 -46.56045894 63.50349016 -46.54832038 58.84623685 C-46.54636213 57.16387858 -46.54944775 55.48150503 -46.55816475 53.7991682 C-46.63674437 37.60488885 -43.40964754 25.26131068 -32.22861767 13.01424026 C-22.99562961 4.5374779 -12.44315861 0.01216865 0 0 Z M320.82216358 235.13142776 C319.61431202 235.37634964 318.40646046 235.62127151 317.16200733 235.87361526 C298.32892861 240.27514142 280.52679829 250.28745536 270.02919483 266.98299026 C261.52486305 282.89973963 260.41968506 300.54805648 265.54481983 317.67439651 C267.98817198 324.28713856 271.23780195 330.72709901 275.82216358 336.13142776 C276.48216358 336.13142776 277.14216358 336.13142776 277.82216358 336.13142776 C277.82216358 336.79142776 277.82216358 337.45142776 277.82216358 338.13142776 C278.48216358 338.13142776 279.14216358 338.13142776 279.82216358 338.13142776 C280.15216358 339.12142776 280.48216358 340.11142776 280.82216358 341.13142776 C281.48216358 341.13142776 282.14216358 341.13142776 282.82216358 341.13142776 C282.82216358 341.79142776 282.82216358 342.45142776 282.82216358 343.13142776 C295.65923901 353.72641125 311.29448023 360.07405728 326.48964405 366.45540237 C352.79855848 377.62045804 352.79855848 377.62045804 359.00575733 388.69392776 C360.99771775 394.64121628 361.00400944 401.3975741 359.11122608 407.37752151 C355.67577038 413.17646741 348.8900982 415.8917302 342.82216358 418.13142776 C319.23123692 424.05751391 294.48904149 418.12582439 273.82216358 406.13142776 C271.25000827 404.31641308 268.80476865 402.44212149 266.39638233 400.41658401 C265.03175472 399.02602776 265.03175472 399.02602776 263.82216358 399.13142776 C263.69555467 405.76981149 263.60789353 412.40788488 263.54750538 419.04719925 C263.52233603 421.30643218 263.48819765 423.5655835 263.44496632 425.824543 C263.38442268 429.06896958 263.35597801 432.31232135 263.33388233 435.55720901 C263.3080759 436.56979279 263.28226948 437.58237656 263.25568104 438.62564468 C263.25463813 441.22356808 263.28877011 443.58883158 263.82216358 446.13142776 C266.05775983 448.35586664 266.05775983 448.35586664 268.82216358 449.13142776 C269.56595264 449.48205276 270.30974171 449.83267776 271.07606983 450.19392776 C287.73753642 456.96000557 304.8880176 458.49385631 322.68251514 458.44710159 C325.18784074 458.44393953 327.69198241 458.46751786 330.19716358 458.49275589 C354.7589318 458.58976177 378.50398228 453.35565278 396.91981983 436.17439651 C408.3513916 424.30230175 412.18052499 410.30792122 412.13466358 394.25642776 C412.1588335 392.5761348 412.1588335 392.5761348 412.18349171 390.86189651 C412.19224986 375.85042686 406.81852795 362.36012714 396.32997608 351.49080276 C382.36177369 338.34937871 364.59838382 330.39367584 347.01381397 323.21150589 C341.36991674 320.89226506 336.08994516 318.20923273 330.82216358 315.13142776 C329.95204639 314.62998245 329.08192921 314.12853714 328.18544483 313.61189651 C322.54660033 310.05673931 317.24622985 305.67280984 315.18153858 299.08845901 C313.96802637 292.48009358 315.49529238 287.23946467 317.82216358 281.13142776 C318.48216358 281.13142776 319.14216358 281.13142776 319.82216358 281.13142776 C319.82216358 280.47142776 319.82216358 279.81142776 319.82216358 279.13142776 C320.54403858 278.84396683 321.26591358 278.55650589 322.00966358 278.26033401 C323.78417121 277.54806637 325.5555008 276.82778032 327.32216358 276.09627151 C328.14716358 275.75724808 328.97216358 275.41822464 329.82216358 275.06892776 C330.64716358 274.7273262 331.47216358 274.38572464 332.32216358 274.03377151 C350.89230984 267.33110935 374.35497623 272.85166439 391.82216358 280.13142776 C394.32850637 281.41074321 396.74967542 282.74691902 399.15028858 284.21345901 C400.79646573 285.29185765 400.79646573 285.29185765 402.82216358 285.13142776 C402.82216358 270.61142776 402.82216358 256.09142776 402.82216358 241.13142776 C393.35672505 237.8986248 393.35672505 237.8986248 383.82216358 235.44392776 C382.77028858 235.21318558 381.71841358 234.98244339 380.63466358 234.74470901 C361.52449513 231.67063479 339.81815456 231.16347767 320.82216358 235.13142776 Z M69.82216358 238.13142776 C69.82216358 251.00142776 69.82216358 263.87142776 69.82216358 277.13142776 C90.28216358 277.13142776 110.74216358 277.13142776 131.82216358 277.13142776 C131.82216358 336.20142776 131.82216358 395.27142776 131.82216358 456.13142776 C147.99216358 456.13142776 164.16216358 456.13142776 180.82216358 456.13142776 C180.82216358 397.06142776 180.82216358 337.99142776 180.82216358 277.13142776 C201.61216358 277.13142776 222.40216358 277.13142776 243.82216358 277.13142776 C243.82216358 264.26142776 243.82216358 251.39142776 243.82216358 238.13142776 C186.40216358 238.13142776 128.98216358 238.13142776 69.82216358 238.13142776 Z " fill="#3178C5" transform="translate(46.177836418151855,-0.13142776489257813)"/>
<path d="M0 0 C20.79 0 41.58 0 63 0 C63 0.66 63 1.32 63 2 C42.87 2 22.74 2 2 2 C2 60.41 2 118.82 2 179 C-2.20976285 180.68390514 -3.62875712 181.2498965 -7.7902832 181.13525391 C-9.17114861 181.10499619 -9.17114861 181.10499619 -10.57991028 181.0741272 C-11.5602977 181.04193085 -12.54068512 181.0097345 -13.55078125 180.9765625 C-14.56472458 180.95153656 -15.57866791 180.92651062 -16.62333679 180.90072632 C-19.85340816 180.81872862 -23.08284959 180.72206009 -26.3125 180.625 C-28.50583386 180.56673982 -30.69919338 180.50943699 -32.89257812 180.453125 C-38.26206563 180.31318004 -43.63111073 180.1611963 -49 180 C-49 179.67 -49 179.34 -49 179 C-32.83 179 -16.66 179 0 179 C0 119.93 0 60.86 0 0 Z " fill="#4076AE" transform="translate(227,277)"/>
<path d="M0 0 C0 0.66 0 1.32 0 2 C-3 4 -3 4 -6 4 C-6.268125 4.61875 -6.53625 5.2375 -6.8125 5.875 C-8 8 -8 8 -11 10 C-11.25005386 12.95817107 -11.25005386 12.95817107 -11 16 C-11 19 -11 19 -12 22 C-12.03920815 23.99961564 -12.04443347 26.00049364 -12 28 C-14.95324405 25.04675595 -14.93887642 22.80988743 -15.25 18.6875 C-14.9150068 13.74635024 -13.20512395 10.4102479 -11 6 C-10.34 6 -9.68 6 -9 6 C-9 5.34 -9 4.68 -9 4 C-2.25 0 -2.25 0 0 0 Z " fill="#3F79B1" transform="translate(375,275)"/>
<path d="M0 0 C1.68749368 3.12334356 2.72884347 6.23010242 3.75 9.625 C5.45950289 14.89542968 7.72210398 19.30319323 10.73046875 23.94140625 C12 26 12 26 13 29 C12.34 29 11.68 29 11 29 C11 28.34 11 27.68 11 27 C10.34 27 9.68 27 9 27 C8.67 26.01 8.34 25.02 8 24 C7.34 23.67 6.68 23.34 6 23 C5.29289322 21.35008418 4.63437344 19.6792238 4 18 C2.23211169 13.8996279 2.23211169 13.8996279 -0.6484375 10.61328125 C-2 9 -2 9 -1.85546875 6.73828125 C-1.63503906 5.93777344 -1.41460937 5.13726562 -1.1875 4.3125 C-0.97480469 3.50425781 -0.76210938 2.69601562 -0.54296875 1.86328125 C-0.36378906 1.24839844 -0.18460937 0.63351562 0 0 Z " fill="#3E74AC" transform="translate(309,307)"/>
<path d="M0 0 C0.66 0.99 1.32 1.98 2 3 C1.01 3 0.02 3 -1 3 C-1 3.99 -1 4.98 -1 6 C-1.66 6 -2.32 6 -3 6 C-3.08004482 9.5219721 -3.04005702 12.61981469 -2 16 C-2.99 15.67 -3.98 15.34 -5 15 C-5 16.32 -5 17.64 -5 19 C-5.99 19 -6.98 19 -8 19 C-8.33 19.66 -8.66 20.32 -9 21 C-8.6610428 13.54294158 -5.30270738 5.30270738 0 0 Z " fill="#3C77B6" transform="translate(10,18)"/>
<path d="M0 0 C0.99 0.33 1.98 0.66 3 1 C2.47599609 2.42892578 2.47599609 2.42892578 1.94140625 3.88671875 C1.48158334 5.15357779 1.02195838 6.4205087 0.5625 7.6875 C0.33240234 8.31333984 0.10230469 8.93917969 -0.13476562 9.58398438 C-1.38053667 13.03242308 -2.39804449 16.3813479 -3 20 C-3.33 20 -3.66 20 -4 20 C-4.33 15.71 -4.66 11.42 -5 7 C-4.01 7 -3.02 7 -2 7 C-1.34 4.69 -0.68 2.38 0 0 Z " fill="#3A79B5" transform="translate(313,268)"/>
<path d="M0 0 C5.23175837 -0.38281159 8.37802694 0.78145293 13 3 C12.01 3.495 12.01 3.495 11 4 C10.67 4.66 10.34 5.32 10 6 C9.01 5.67 8.02 5.34 7 5 C4.85744207 5.38932856 4.85744207 5.38932856 3 6 C1 3 1 3 0 0 Z M8 6 C10 7 10 7 10 7 Z " fill="#3876B7" transform="translate(460,1)"/>
<path d="M0 0 C0.6640625 1.74609375 0.6640625 1.74609375 1 4 C-1.40570484 8.71192565 -5.06517969 12.94382487 -10 15 C-10.66 14.67 -11.32 14.34 -12 14 C-10.38405168 11.95880212 -8.7143618 9.95927063 -7 8 C-6.34 8 -5.68 8 -5 8 C-4.67 7.01 -4.34 6.02 -4 5 C-3.34 5 -2.68 5 -2 5 C-1.34 3.35 -0.68 1.7 0 0 Z " fill="#497FB7" transform="translate(406,401)"/>
<path d="M0 0 C3 3 3 3 3.2487793 6.09448242 C3.19117432 7.33560791 3.13356934 8.5767334 3.07421875 9.85546875 C3.04777786 10.51710526 3.02133698 11.17874176 2.99409485 11.86042786 C2.90643127 13.97038073 2.79725639 16.07859224 2.6875 18.1875 C2.62423028 19.61907854 2.56236456 21.05071987 2.50195312 22.48242188 C2.35091097 25.98915579 2.18056436 29.4946482 2 33 C1.01 33.495 1.01 33.495 0 34 C0 22.78 0 11.56 0 0 Z " fill="#3A72AF" transform="translate(457,377)"/>
<path d="M0 0 C0.92941406 0.54269531 1.85882813 1.08539063 2.81640625 1.64453125 C4.06498532 2.36739282 5.31368999 3.09003747 6.5625 3.8125 C7.17158203 4.16892578 7.78066406 4.52535156 8.40820312 4.89257812 C12.50419646 7.25481767 16.62127791 9.21357155 21 11 C20.34 11.66 19.68 12.32 19 13 C16.36 12.01 13.72 11.02 11 10 C11 9.34 11 8.68 11 8 C10.278125 7.731875 9.55625 7.46375 8.8125 7.1875 C5.99052179 5.99599809 3.51659576 4.74763594 1 3 C0.67 2.01 0.34 1.02 0 0 Z " fill="#4177AD" transform="translate(337,348)"/>
<path d="M0 0 C3 1 3 1 4.640625 3.65234375 C5.17171875 4.73644531 5.7028125 5.82054687 6.25 6.9375 C6.79140625 8.01902344 7.3328125 9.10054687 7.890625 10.21484375 C8.25671875 11.13394531 8.6228125 12.05304687 9 13 C8.67 13.66 8.34 14.32 8 15 C7.67 14.01 7.34 13.02 7 12 C6.01 11.67 5.02 11.34 4 11 C3.67 10.01 3.34 9.02 3 8 C2.34 7.34 1.68 6.68 1 6 C0.60235737 4.01178687 0.26224651 2.01055661 0 0 Z " fill="#3C76B4" transform="translate(489,19)"/>
<path d="M0 0 C0.66 0 1.32 0 2 0 C2 0.66 2 1.32 2 2 C2.763125 2.12375 3.52625 2.2475 4.3125 2.375 C7 3 7 3 10 5 C11.71383721 5.58837246 13.44519841 6.12719954 15.1875 6.625 C16.08855469 6.88539063 16.98960937 7.14578125 17.91796875 7.4140625 C18.60503906 7.60742188 19.29210937 7.80078125 20 8 C15.87234443 9.74631582 12.35529658 8.09432896 8.375 6.6875 C7.3540625 6.3481543 7.3540625 6.3481543 6.3125 6.00195312 C3.34024936 4.98281185 1.24917045 4.24917045 -1 2 C-0.67 1.34 -0.34 0.68 0 0 Z " fill="#477CB4" transform="translate(333,410)"/>
<path d="M0 0 C4.92665995 -0.47677354 9.62237338 0.76758483 14 3 C15.5625 5.6875 15.5625 5.6875 16 8 C10.31497465 6.35433477 5.23318364 3.70967216 0 1 C0 0.67 0 0.34 0 0 Z " fill="#4278B2" transform="translate(407,329)"/>
<path d="M0 0 C1.77260631 0.45142775 3.5430368 0.91140523 5.3125 1.375 C6.79169922 1.75785156 6.79169922 1.75785156 8.30078125 2.1484375 C11 3 11 3 14 5 C16.32387947 5.39387788 18.65793749 5.73486085 21 6 C21 6.66 21 7.32 21 8 C12.86304398 7.72876813 7.06820635 4.91083499 0 1 C0 0.67 0 0.34 0 0 Z " fill="#4980B6" transform="translate(22,492)"/>
<path d="M0 0 C1.875 0.625 1.875 0.625 4 2 C6.07568864 6.34906192 6.10633079 9.3534107 5 14 C1.06966866 10.06966866 0.63119459 5.365154 0 0 Z " fill="#3D76B3" transform="translate(0,459)"/>
<path d="M0 0 C8.415 2.475 8.415 2.475 17 5 C13.66203244 5.83449189 10.39305036 6.46019653 7 7 C7.33 6.34 7.66 5.68 8 5 C5.69 5 3.38 5 1 5 C0.67 3.35 0.34 1.7 0 0 Z " fill="#3F76B3" transform="translate(316,449)"/>
<path d="M0 0 C1.98 0 3.96 0 6 0 C5.29875 0.680625 4.5975 1.36125 3.875 2.0625 C0.72065663 5.20780513 -2.13934304 8.5888386 -5 12 C-5.33 11.01 -5.66 10.02 -6 9 C-4.0625 6.3125 -4.0625 6.3125 -2 4 C-2.66 3.67 -3.32 3.34 -4 3 C-3.34 2.67 -2.68 2.34 -2 2 C-1.34 2.33 -0.68 2.66 0 3 C0 2.01 0 1.02 0 0 Z " fill="#4078B2" transform="translate(326,250)"/>
<path d="M0 0 C0.66 0 1.32 0 2 0 C0.40956621 5.08938811 -2.7446951 8.87456643 -6 13 C-6.66 11.68 -7.32 10.36 -8 9 C-5.74259377 6.66475218 -3.7194239 4.81294927 -1 3 C-0.67 2.01 -0.34 1.02 0 0 Z " fill="#487CB9" transform="translate(493,473)"/>
<path d="M0 0 C1.73684533 3.47369066 2.30084112 5.07619937 2.625 8.75 C2.69976562 9.54921875 2.77453125 10.3484375 2.8515625 11.171875 C2.92503906 12.07679688 2.92503906 12.07679688 3 13 C1.35 12.01 -0.3 11.02 -2 10 C-1.34 6.7 -0.68 3.4 0 0 Z " fill="#3D7BB8" transform="translate(309,307)"/>
<path d="M0 0 C1.32 0.33 2.64 0.66 4 1 C0.04 2.65 -3.92 4.3 -8 6 C-8 4.35 -8 2.7 -8 1 C-6.865625 1.020625 -5.73125 1.04125 -4.5625 1.0625 C-1.18424326 1.41577477 -1.18424326 1.41577477 0 0 Z " fill="#5088C0" transform="translate(348,239)"/>
<path d="M0 0 C7.66742597 4.81776765 7.66742597 4.81776765 9 10 C8.01 9.67 7.02 9.34 6 9 C5.690625 8.34 5.38125 7.68 5.0625 7 C4.17972859 4.79394438 4.17972859 4.79394438 1.875 4.25 C1.25625 4.1675 0.6375 4.085 0 4 C0 2.68 0 1.36 0 0 Z " fill="#4176AF" transform="translate(395,378)"/>
<path d="M0 0 C3.63 0.33 7.26 0.66 11 1 C11 2.32 11 3.64 11 5 C9.53932801 4.54917531 8.08151968 4.08906463 6.625 3.625 C5.81289063 3.36976563 5.00078125 3.11453125 4.1640625 2.8515625 C2 2 2 2 0 0 Z " fill="#4881B9" transform="translate(384,319)"/>
<path d="M0 0 C0 3 0 3 -1 6 C-1.03920815 7.99961564 -1.04443347 10.00049364 -1 12 C-3.32528287 9.67471713 -3.29511025 9.15334102 -3.3125 6 C-3.32925781 5.29875 -3.34601563 4.5975 -3.36328125 3.875 C-3.24339844 3.25625 -3.12351562 2.6375 -3 2 C-2.01 1.34 -1.02 0.68 0 0 Z " fill="#3977B8" transform="translate(364,291)"/>
<path d="M0 0 C1.43655854 -0.08131463 2.8744483 -0.13933559 4.3125 -0.1875 C5.51326172 -0.23970703 5.51326172 -0.23970703 6.73828125 -0.29296875 C9.47851584 0.06198392 10.29171079 0.89366282 12 3 C10.56163249 2.88541307 9.12429034 2.75790884 7.6875 2.625 C6.88699219 2.55539063 6.08648437 2.48578125 5.26171875 2.4140625 C3 2 3 2 0 0 Z " fill="#4078B3" transform="translate(429,235)"/>
</svg>
