<?xml version="1.0" encoding="UTF-8"?>
<svg version="1.1" xmlns="http://www.w3.org/2000/svg" width="594" height="420">
<path d="M0 0 C0.95519531 0.16628906 1.91039062 0.33257812 2.89453125 0.50390625 C20.50597977 3.66201737 37.91291562 9.36975735 54.0625 17 C54.91859863 17.40299316 55.77469727 17.80598633 56.65673828 18.22119141 C61.73251005 20.6873017 66.41372628 23.46383946 71.05102539 26.68017578 C73.18986965 28.17028988 73.18986965 28.17028988 76.375 29.875 C85.50061415 34.98450285 94.36613854 41.88293767 102 49 C102 49.66 102 50.32 102 51 C102.804375 51.3403125 102.804375 51.3403125 103.625 51.6875 C106.82460161 53.45570089 109.29037223 55.53670203 112 58 C112 58.66 112 59.32 112 60 C112.99 60.33 113.98 60.66 115 61 C121.00993609 66.67516511 125.82527379 73.8106405 130.79199219 80.40234375 C131.88547628 81.84853613 132.99273801 83.28428561 134.1015625 84.71875 C151.55051694 107.79864193 162.11732888 135.83256009 168.25 163.875 C168.51321045 165.05219604 168.51321045 165.05219604 168.78173828 166.25317383 C169.5531877 169.92242393 170.09396021 173.36559517 170.046875 177.12109375 C170.00062688 180.94812542 170.40714221 184.41214867 171 188.1875 C171.99436836 195.20091519 172.32398468 201.92273467 172 209 C171.95431885 210.19085205 171.95431885 210.19085205 171.90771484 211.40576172 C170.90664611 234.54961892 166.42352096 258.72760147 157 280 C156.71382813 280.67111816 156.42765625 281.34223633 156.1328125 282.03369141 C147.01539142 303.147964 134.88368394 322.29585993 119.50585938 339.32666016 C118.14032737 340.84406553 116.79548152 342.38002347 115.453125 343.91796875 C110.94358091 349.057294 106.2948575 353.67871307 101 358 C100.18305664 358.66950684 100.18305664 358.66950684 99.34960938 359.35253906 C84.11623546 371.80367269 68.63362576 381.36846007 51 390 C49.87980469 390.55171875 48.75960938 391.1034375 47.60546875 391.671875 C31.18315658 399.52866553 13.8892256 403.81774401 -4 406.75 C-4.76473633 406.87777832 -5.52947266 407.00555664 -6.31738281 407.13720703 C-10.94453479 407.85271487 -15.37318299 408.09520789 -20.0546875 407.94628906 C-22.21914737 407.91198039 -22.21914737 407.91198039 -25 409 C-26.5564656 409.09267799 -28.11656034 409.13068304 -29.67578125 409.1328125 C-30.58650391 409.13410156 -31.49722656 409.13539063 -32.43554688 409.13671875 C-33.85963867 409.13091797 -33.85963867 409.13091797 -35.3125 409.125 C-36.25029297 409.12886719 -37.18808594 409.13273437 -38.15429688 409.13671875 C-42.90962812 409.13001638 -47.31084979 408.83418845 -52 408 C-54.20679618 407.86112747 -56.41173222 407.78477717 -58.62158203 407.70996094 C-67.41272078 407.40396811 -75.51165383 406.43386229 -84 404 C-84.96969727 403.72881348 -84.96969727 403.72881348 -85.95898438 403.45214844 C-90.29506483 402.23731579 -94.60972108 400.96241762 -98.9140625 399.63964844 C-100.85634149 399.04405258 -102.80301831 398.46285079 -104.75 397.8828125 C-134.17153104 388.68858405 -159.92853404 371.21097996 -182 350 C-182.53463867 349.48727539 -183.06927734 348.97455078 -183.62011719 348.44628906 C-185.25557572 346.86879126 -186.88001527 345.28087461 -188.5 343.6875 C-188.99258301 343.20804932 -189.48516602 342.72859863 -189.99267578 342.23461914 C-193.16199759 339.07241325 -195.54523937 335.72741317 -198 332 C-199.3168977 330.65043118 -200.64922219 329.31565758 -202 328 C-207.17886271 321.30447036 -211.61506628 314.03614927 -215.94091797 306.77148438 C-216.649384 305.58646144 -217.36462168 304.40546181 -218.08642578 303.22851562 C-229.45975231 284.63315188 -238.32474815 262.78892308 -240.74951172 240.99536133 C-241.0031185 238.97515839 -241.36155754 237.00151481 -241.75390625 235.00390625 C-249.76698135 192.2788718 -241.65995139 146.02834946 -221 108 C-220.63616211 107.31921387 -220.27232422 106.63842773 -219.89746094 105.93701172 C-215.1845658 97.14383855 -210.15360059 88.88200234 -204 81 C-203.35289062 80.16082031 -202.70578125 79.32164063 -202.0390625 78.45703125 C-191.27089511 64.73080997 -179.18684649 51.26092671 -165 41 C-163.87894678 40.15270825 -162.75927025 39.30359336 -161.640625 38.453125 C-153.09459441 32.00582269 -144.28120313 26.32614498 -135 21 C-134.12480713 20.47865479 -134.12480713 20.47865479 -133.23193359 19.94677734 C-129.46313054 17.7241499 -125.73055993 16.00030338 -121.625 14.5 C-117.96703266 13.15662738 -114.41934114 11.73273825 -110.8984375 10.0703125 C-105.12765967 7.47766184 -99.10980248 5.95850385 -93 4.375 C-91.8759375 4.0759375 -90.751875 3.776875 -89.59375 3.46875 C-60.48445861 -4.21664703 -29.64157487 -6.024223 0 0 Z M-14.80249023 83.82470703 C-16.44648517 86.81104646 -17.3109795 89.91613804 -18.1875 93.1875 C-20.29972824 100.72866469 -22.64126819 108.17759025 -25.0625 115.625 C-27.64005283 123.58652332 -30.01178195 131.52947596 -32.0859375 139.63671875 C-33.03381945 143.12443824 -34.14367763 146.51775196 -35.3125 149.9375 C-37.54932277 156.49015567 -39.52053874 163.09710908 -41.4375 169.75 C-45.10548724 182.46442726 -48.97528505 195.10055842 -53.25 207.625 C-54.59797377 211.61367648 -55.60095802 215.54363489 -56.44140625 219.6640625 C-57.36420141 223.5230241 -58.71765975 227.23400058 -60.00390625 230.984375 C-60.89573246 233.68433512 -61.66183927 236.37363433 -62.375 239.125 C-63.69051002 244.12682929 -65.32647279 248.98502769 -67 253.875 C-69.14730169 260.16533848 -70.84432462 266.38877223 -72.234375 272.89453125 C-73.0459391 276.18633461 -74.12516718 279.26251192 -75.3125 282.4375 C-77.96733448 289.56785605 -79.94041132 296.82518341 -81.85668945 304.18530273 C-82.95739347 308.37008678 -84.10879405 312.44159468 -85.6796875 316.4765625 C-87.17544795 319.84109222 -87.17544795 319.84109222 -87 323 C-82.72989093 323.22551667 -78.45898818 323.42747453 -74.1875 323.625 C-72.97255859 323.68945312 -71.75761719 323.75390625 -70.50585938 323.8203125 C-69.34248047 323.871875 -68.17910156 323.9234375 -66.98046875 323.9765625 C-65.37014771 324.05511475 -65.37014771 324.05511475 -63.72729492 324.13525391 C-60.77848496 324.22268345 -60.77848496 324.22268345 -58 322 C-57.03927441 319.30235284 -56.23281789 316.6959648 -55.5 313.9375 C-55.06630224 312.38117606 -54.63141821 310.82518217 -54.1953125 309.26953125 C-53.98938477 308.52525879 -53.78345703 307.78098633 -53.57128906 307.01416016 C-52.91220547 304.69046799 -52.16746414 302.40646254 -51.375 300.125 C-50.35483873 297.14905994 -49.48974701 294.16704648 -48.6875 291.125 C-47.31769648 285.99002974 -45.74049888 280.93649085 -44.125 275.875 C-40.37883925 264.12430185 -36.81691775 252.32314163 -33.67578125 240.39453125 C-32.87629439 237.56166741 -31.938908 234.78989807 -31 232 C-27.13570887 220.0572973 -23.49667103 208.05475924 -20 196 C-16.93530104 185.43446271 -13.74266601 174.92060957 -10.40625 164.4375 C-9.22283515 160.71638807 -8.0729696 156.98606127 -6.9375 153.25 C-5.72835904 149.27998717 -4.44274811 145.34642245 -3.09545898 141.42114258 C-0.88055097 134.95393991 0.8692368 128.53985989 2.3203125 121.86328125 C3.21737942 118.08425796 4.56119045 114.59702387 6 111 C8.17115596 105.0293211 9.80524613 98.99169751 11.3046875 92.8203125 C12.11879106 89.51816209 13.03646622 86.26119126 14 83 C11.33780398 80.33780398 3.70525525 81.71591472 0.125 81.6875 C-1.08542969 81.65849609 -2.29585938 81.62949219 -3.54296875 81.59960938 C-4.70183594 81.59123047 -5.86070312 81.58285156 -7.0546875 81.57421875 C-8.65546143 81.55234497 -8.65546143 81.55234497 -10.28857422 81.5300293 C-13.0988804 81.74671654 -13.0988804 81.74671654 -14.80249023 83.82470703 Z M-127 137 C-128.27783934 138.37039312 -129.52187287 139.77238359 -130.75 141.1875 C-135.08322498 146.11127069 -139.55933532 150.62357532 -144.5 154.9375 C-148.04808891 158.058883 -150.98063114 161.36127343 -154 165 C-155.9910084 166.83156419 -158.03292759 168.59062693 -160.08984375 170.34765625 C-162.51971824 172.44957222 -164.75755447 174.70005587 -167 177 C-167.61359375 177.59167969 -168.2271875 178.18335938 -168.859375 178.79296875 C-169.50390625 179.41816406 -170.1484375 180.04335937 -170.8125 180.6875 C-171.41707031 181.26886719 -172.02164063 181.85023438 -172.64453125 182.44921875 C-174.21936724 183.90769892 -174.21936724 183.90769892 -174 186 C-174.8820813 186.39856201 -174.8820813 186.39856201 -175.78198242 186.80517578 C-179.53920486 188.82915449 -182.30076688 191.89061865 -185.3125 194.875 C-185.97056641 195.50019531 -186.62863281 196.12539062 -187.30664062 196.76953125 C-187.92345703 197.37925781 -188.54027344 197.98898438 -189.17578125 198.6171875 C-189.74208252 199.17003418 -190.30838379 199.72288086 -190.8918457 200.29248047 C-192.23038351 201.96067522 -192.23038351 201.96067522 -191.76733398 204.11816406 C-190.81974054 206.44207444 -189.73013962 207.35115343 -187.75 208.875 C-185.37059315 210.80280514 -183.29921015 212.67868551 -181.375 215.0625 C-177.01157619 220.6504935 -177.01157619 220.6504935 -171 224 C-171 224.66 -171 225.32 -171 226 C-170.34 226 -169.68 226 -169 226 C-169 226.66 -169 227.32 -169 228 C-167.01739574 229.68732277 -165.0167658 231.35366057 -163 233 C-162.505 233.99 -162.505 233.99 -162 235 C-161.34 235 -160.68 235 -160 235 C-160 235.66 -160 236.32 -160 237 C-158.47379124 238.50846152 -158.47379124 238.50846152 -156.5625 240 C-153.10169492 242.79661017 -153.10169492 242.79661017 -152 245 C-151.34 245 -150.68 245 -150 245 C-150 245.66 -150 246.32 -150 247 C-148.47379124 248.50846152 -148.47379124 248.50846152 -146.5625 250 C-143.10169492 252.79661017 -143.10169492 252.79661017 -142 255 C-141.34 255 -140.68 255 -140 255 C-140 255.66 -140 256.32 -140 257 C-138.56972679 258.2307002 -137.13251822 259.45479148 -135.65234375 260.625 C-134 262 -134 262 -131.375 264.8125 C-129.04778624 267.4516505 -129.04778624 267.4516505 -125 267 C-123.32813818 265.87658118 -123.32813818 265.87658118 -121.87109375 264.26171875 C-121.31099609 263.68873047 -120.75089844 263.11574219 -120.17382812 262.52539062 C-119.60083984 261.91888672 -119.02785156 261.31238281 -118.4375 260.6875 C-117.86064453 260.09259766 -117.28378906 259.49769531 -116.68945312 258.88476562 C-115.61180176 257.77231122 -114.53831748 256.65579361 -113.47045898 255.53393555 C-112.000955 254.00099622 -110.50655021 252.49646358 -109 251 C-109.33 250.01 -109.66 249.02 -110 248 C-110.66 248 -111.32 248 -112 248 C-112.2578125 247.41734375 -112.515625 246.8346875 -112.78125 246.234375 C-114.09834017 243.8197097 -115.55088384 242.18259823 -117.5 240.25 C-118.1084375 239.63640625 -118.716875 239.0228125 -119.34375 238.390625 C-120.89484277 236.78565912 -120.89484277 236.78565912 -123 237 C-123.25136719 236.4225 -123.50273437 235.845 -123.76171875 235.25 C-126.49885052 230.2765366 -131.2755478 226.36352034 -135.6875 222.875 C-138.54638106 220.55698833 -140.64697405 217.82363113 -143 215 C-144.65533995 213.65263027 -146.32012773 212.31665664 -148 211 C-148.66 210.01 -149.32 209.02 -150 208 C-150.66 208 -151.32 208 -152 208 C-152 207.34 -152 206.68 -152 206 C-153.45833358 204.37485532 -153.45833358 204.37485532 -155 203 C-151.63695446 198.74673652 -148.18131445 195.48442871 -144 192 C-143.175 191.01 -142.35 190.02 -141.5 189 C-138.90701956 185.88842347 -136.13767128 183.54935791 -133 181 C-131.87135934 179.87987738 -130.74464895 178.7577406 -129.62792969 177.62573242 C-127.55288637 175.55348986 -125.43504323 173.52780819 -123.3203125 171.49609375 C-121.58822913 169.81021687 -119.8564667 168.12401022 -118.125 166.4375 C-116.78695312 165.16229492 -116.78695312 165.16229492 -115.421875 163.86132812 C-114.58398438 163.03955078 -113.74609375 162.21777344 -112.8828125 161.37109375 C-112.11340332 160.62786865 -111.34399414 159.88464355 -110.55126953 159.11889648 C-108.79263347 157.1645755 -108.79263347 157.1645755 -109.03466797 154.9699707 C-110.22285415 152.54521747 -111.63838033 151.00619551 -113.5625 149.109375 C-114.63371094 148.04589844 -114.63371094 148.04589844 -115.7265625 146.9609375 C-116.47679687 146.23132813 -117.22703125 145.50171875 -118 144.75 C-118.75023437 144.00492188 -119.50046875 143.25984375 -120.2734375 142.4921875 C-123.23209459 138.93940456 -123.23209459 138.93940456 -127 137 Z M53 137 C51.43555374 138.74688898 49.96189859 140.55985307 48.47265625 142.37109375 C47 144 47 144 45 145 C45 145.66 45 146.32 45 147 C44.40703125 147.25523437 43.8140625 147.51046875 43.203125 147.7734375 C40.78775462 149.11816498 39.48788294 150.49214367 37.75 152.625 C36.96882813 153.57246094 36.96882813 153.57246094 36.171875 154.5390625 C35.78515625 155.02117187 35.3984375 155.50328125 35 156 C35.99 156.33 36.98 156.66 38 157 C38.68170862 158.32570569 39.34564554 159.6605813 40 161 C41.38868013 162.52509271 42.83179259 164.0015871 44.3125 165.4375 C45.12332031 166.22898438 45.93414062 167.02046875 46.76953125 167.8359375 C47.87361328 168.90714844 47.87361328 168.90714844 49 170 C50.2375 171.2684375 50.2375 171.2684375 51.5 172.5625 C53.77880881 174.78433859 56.1150539 176.89355912 58.5 179 C63.10861192 183.07626401 67.37730226 187.25877854 71.375 191.9375 C74.20826384 195.23054788 77.19916893 198.0011434 80.6171875 200.67578125 C82 202 82 202 83 205 C82.443125 205.226875 81.88625 205.45375 81.3125 205.6875 C78.38553595 207.34874987 76.33295079 209.61498592 74 212 C72.64941022 213.35334762 71.29729399 214.70517272 69.9440918 216.0559082 C69.18368088 216.81631912 68.42326996 217.57673004 67.63981628 218.36018372 C57.09321086 228.90678914 46.54660543 239.45339457 36 250 C36.94806544 251.12028778 37.89816879 252.23885113 38.84912109 253.35668945 C39.3779892 253.97977493 39.9068573 254.60286041 40.45175171 255.24482727 C42.36468063 257.41342045 44.43033226 259.30691015 46.625 261.1875 C49.5345661 263.69381045 52.31141359 266.25666862 55 269 C55.4125 268.50371094 55.825 268.00742187 56.25 267.49609375 C59.95414775 263.13875923 63.80527264 259.28493612 68.16015625 255.58203125 C70.5711076 253.50892022 72.78081121 251.27609106 75 249 C75.61359375 248.40832031 76.2271875 247.81664062 76.859375 247.20703125 C77.82617188 246.26923828 77.82617188 246.26923828 78.8125 245.3125 C79.41707031 244.73113281 80.02164063 244.14976562 80.64453125 243.55078125 C82.21936724 242.09230108 82.21936724 242.09230108 82 240 C82.53625 239.79375 83.0725 239.5875 83.625 239.375 C86.91978009 237.46749574 89.59363628 234.95180616 92 232 C92 231.34 92 230.68 92 230 C92.53625 229.79375 93.0725 229.5875 93.625 229.375 C96.91978009 227.46749574 99.59363628 224.95180616 102 222 C102 221.34 102 220.68 102 220 C102.556875 219.773125 103.11375 219.54625 103.6875 219.3125 C106.66159588 217.62449964 108.72008865 215.53323483 111 213 C111 212.34 111 211.68 111 211 C111.5775 210.7525 112.155 210.505 112.75 210.25 C115.38288682 208.7872851 117.12450669 207.36173231 119 205 C118.66067053 201.43016226 117.08663464 199.73143187 114.578125 197.28515625 C113.88203125 196.59873047 113.1859375 195.91230469 112.46875 195.20507812 C111.7365625 194.49802734 111.004375 193.79097656 110.25 193.0625 C109.53328125 192.35931641 108.8165625 191.65613281 108.078125 190.93164062 C106.72900726 189.60856284 105.37681828 188.28860378 104.02050781 186.97290039 C101.66031053 184.66831433 99.32813158 182.33686353 97 180 C96.30904236 179.30664047 95.61808472 178.61328094 94.90618896 177.89891052 C93.23842135 176.22518614 91.57074364 174.55137216 89.90313721 172.87748718 C86.54405965 169.50685053 83.18316622 166.13802989 79.82164383 162.76983166 C77.27056704 160.21350377 74.72044886 157.65623356 72.17236328 155.09692383 C69.69841644 152.61215486 67.2220726 150.12979871 64.74401093 147.64913368 C63.34133682 146.2437065 61.94119392 144.83575454 60.54107666 143.42778015 C59.69639832 142.58302628 58.85171997 141.7382724 57.98144531 140.86791992 C56.86156219 139.74470589 56.86156219 139.74470589 55.71905518 138.59880066 C54.26922734 136.88649487 54.26922734 136.88649487 53 137 Z " fill="#41C8F4" transform="translate(333,8)"/>
<path d="M0 0 C0.66 0.33 1.32 0.66 2 1 C1.32453125 1.61746094 0.6490625 2.23492187 -0.046875 2.87109375 C-5.0913157 7.66039656 -8.76710238 11.60383308 -11.1953125 18.1484375 C-12.25392854 20.58428216 -13.67981655 21.75704458 -16 23 C-16.66 22.34 -17.32 21.68 -18 21 C-20.51610876 23.44621685 -22.87077361 25.83039037 -25 28.625 C-27.59152116 31.70243138 -30.45005632 33.22502816 -34 35 C-32.58911589 31.69346646 -30.94468631 29.8452183 -28.1875 27.5625 C-24.94873789 24.86248748 -21.95813377 21.9992253 -19 19 C-17.45269058 17.45095574 -15.90441207 15.90287922 -14.35546875 14.35546875 C-13.09379883 13.09379883 -13.09379883 13.09379883 -11.80664062 11.80664062 C-7.87109375 7.87109375 -3.93554688 3.93554688 0 0 Z " fill="#50C5EA" transform="translate(223,165)"/>
<path d="M0 0 C0 2.62113708 -0.31292445 4.50935112 -1 7 C-0.34 7 0.32 7 1 7 C1.33 8.98 1.66 10.96 2 13 C1.34 13 0.68 13 0 13 C0.33 13.66 0.66 14.32 1 15 C2.32 15 3.64 15 5 15 C5 15.66 5 16.32 5 17 C5.66 17.33 6.32 17.66 7 18 C7 19.65 7 21.3 7 23 C6.34 22.67 5.68 22.34 5 22 C5 21.34 5 20.68 5 20 C4.443125 19.773125 3.88625 19.54625 3.3125 19.3125 C0.33840412 17.62449964 -1.72008865 15.53323483 -4 13 C-4 12.34 -4 11.68 -4 11 C-5.32 10.34 -6.64 9.68 -8 9 C-5.89851796 5.01824456 -3.63094642 2.64960955 0 0 Z " fill="#57CBED" transform="translate(185,203)"/>
<path d="M0 0 C0.97792207 3.18565522 1.04657813 5.81321089 0.75 9.125 C0.68296875 9.99382812 0.6159375 10.86265625 0.546875 11.7578125 C0 14 0 14 -3 16 C-6.00268555 16.22705078 -6.00268555 16.22705078 -9.63671875 16.1953125 C-11.58481445 16.18564453 -11.58481445 16.18564453 -13.57226562 16.17578125 C-14.94401307 16.1590706 -16.31575786 16.14214071 -17.6875 16.125 C-19.07095718 16.11496674 -20.45442127 16.10584149 -21.83789062 16.09765625 C-25.22543452 16.07404967 -28.61263072 16.04112037 -32 16 C-32 15.34 -32 14.68 -32 14 C-31.22285645 14.00523682 -30.44571289 14.01047363 -29.64501953 14.01586914 C-26.13835451 14.03660156 -22.63170237 14.04964821 -19.125 14.0625 C-17.90167969 14.07087891 -16.67835938 14.07925781 -15.41796875 14.08789062 C-14.25136719 14.09111328 -13.08476562 14.09433594 -11.8828125 14.09765625 C-10.80402832 14.10289307 -9.72524414 14.10812988 -8.61376953 14.11352539 C-6.01767814 14.17883106 -6.01767814 14.17883106 -4 13 C-3.21376109 10.83927773 -2.51798774 8.64509125 -1.875 6.4375 C-1.52179688 5.23996094 -1.16859375 4.04242188 -0.8046875 2.80859375 C-0.53914063 1.88175781 -0.27359375 0.95492188 0 0 Z " fill="#68C7E6" transform="translate(278,317)"/>
<path d="M0 0 C-1.53643852 3.68069887 -3.78150945 5.98775204 -6.625 8.75 C-7.85089844 9.94882813 -7.85089844 9.94882813 -9.1015625 11.171875 C-9.72804688 11.77515625 -10.35453125 12.3784375 -11 13 C-12.14490236 9.56529291 -12.80923275 6.62457773 -13 3 C-9.9760885 -2.49802091 -5.33421469 -1.04860631 0 0 Z " fill="#54C9F3" transform="translate(399,227)"/>
<path d="M0 0 C8.79505772 6.69189174 14.9906684 15.82713521 21 25 C20.67 25.66 20.34 26.32 20 27 C19.34 26.67 18.68 26.34 18 26 C17.67 26.66 17.34 27.32 17 28 C17.04125 27.05125 17.0825 26.1025 17.125 25.125 C17.34973818 21.89755144 17.34973818 21.89755144 15 20 C14.01 20.33 13.02 20.66 12 21 C11.5978125 19.2984375 11.5978125 19.2984375 11.1875 17.5625 C10.795625 16.386875 10.40375 15.21125 10 14 C9.01 13.67 8.02 13.34 7 13 C6.71125 12.0925 6.4225 11.185 6.125 10.25 C4.80491199 6.43641242 2.8924173 4.74018481 0 2 C0 1.34 0 0.68 0 0 Z " fill="#4CC3E9" transform="translate(448,71)"/>
<path d="M0 0 C0.33 0 0.66 0 1 0 C0.48041715 4.37934119 -0.05675742 8.68803391 -1 13 C-0.34 13.33 0.32 13.66 1 14 C1.625 16.0625 1.625 16.0625 2 18 C1.34 18 0.68 18 0 18 C0 18.99 0 19.98 0 21 C-0.804375 21.28875 -1.60875 21.5775 -2.4375 21.875 C-5.1326468 22.73262568 -5.1326468 22.73262568 -6 25 C-5.4138281 19.07090494 -4.19595619 13.68419734 -2.4375 8 C-2.20353516 7.22527344 -1.96957031 6.45054687 -1.72851562 5.65234375 C-1.15809962 3.7664786 -0.57987197 1.8829791 0 0 Z " fill="#5CCDF1" transform="translate(326,157)"/>
<path d="M0 0 C2.125 0.375 2.125 0.375 4 1 C-0.71006297 7.91790499 -5.69684421 14.52601761 -11 21 C-11.66 20.34 -12.32 19.68 -13 19 C-12.505 17.515 -12.505 17.515 -12 16 C-11.01 16 -10.02 16 -9 16 C-8.938125 15.443125 -8.87625 14.88625 -8.8125 14.3125 C-8 12 -8 12 -5.5 9.5625 C-2.81703009 6.81245584 -2.49655554 5.67451097 -2 2 C-1.34 1.34 -0.68 0.68 0 0 Z " fill="#58C4EB" transform="translate(466,324)"/>
<path d="M0 0 C1.98 0 3.96 0 6 0 C6.33 1.65 6.66 3.3 7 5 C7.598125 5.04125 8.19625 5.0825 8.8125 5.125 C12.09750076 6.4390003 12.57319593 8.88697293 14 12 C14.66 12.33 15.32 12.66 16 13 C15.67 13.99 15.34 14.98 15 16 C14.175 14.989375 13.35 13.97875 12.5 12.9375 C9.49569912 9.40977677 6.19317923 6.44079871 2.63671875 3.48046875 C1 2 1 2 0 0 Z " fill="#58C7EA" transform="translate(424,182)"/>
<path d="M0 0 C2.64 0.66 5.28 1.32 8 2 C8 2.66 8 3.32 8 4 C11.3 4 14.6 4 18 4 C17.67 4.66 17.34 5.32 17 6 C7.43 5.34 -2.14 4.68 -12 4 C-12 3.67 -12 3.34 -12 3 C-6.06 2.505 -6.06 2.505 0 2 C0 1.34 0 0.68 0 0 Z " fill="#5DC6EA" transform="translate(274,411)"/>
<path d="M0 0 C1.65 0.33 3.3 0.66 5 1 C2.1604084 4.91457985 -0.62527172 7.30820069 -4.75 9.8125 C-5.73484375 10.41707031 -6.7196875 11.02164062 -7.734375 11.64453125 C-8.48203125 12.09183594 -9.2296875 12.53914063 -10 13 C-10 12.01 -10 11.02 -10 10 C-8.8553125 9.319375 -8.8553125 9.319375 -7.6875 8.625 C-4.63259454 6.77784786 -3.73078038 5.04947019 -2 2 C-1.34 2 -0.68 2 0 2 C0 1.34 0 0.68 0 0 Z " fill="#52C7EA" transform="translate(421,370)"/>
<path d="M0 0 C0 3 0 3 -1 5 C-1.66 5 -2.32 5 -3 5 C-2.67 6.32 -2.34 7.64 -2 9 C-2.66 9 -3.32 9 -4 9 C-4.33 10.32 -4.66 11.64 -5 13 C-5.99 13 -6.98 13 -8 13 C-8.38730126 9.61111395 -8.17469717 8.26204576 -6.25 5.375 C-4.27282826 3.28798539 -2.37223421 1.60973036 0 0 Z " fill="#55C9F2" transform="translate(410,254)"/>
<path d="M0 0 C0.66 0.33 1.32 0.66 2 1 C0.68 5.95 -0.64 10.9 -2 16 C-2.99 16 -3.98 16 -5 16 C-4.67 13.36 -4.34 10.72 -4 8 C-3.01 7.67 -2.02 7.34 -1 7 C-0.67 4.69 -0.34 2.38 0 0 Z " fill="#61C8E9" transform="translate(304,131)"/>
<path d="M0 0 C1.32 0.66 2.64 1.32 4 2 C4 2.66 4 3.32 4 4 C1.79496964 4.53464435 -0.41422172 5.05214435 -2.625 5.5625 C-3.85476563 5.85253906 -5.08453125 6.14257812 -6.3515625 6.44140625 C-9.93858643 6.99059728 -12.49097129 6.81517436 -16 6 C-16 5.67 -16 5.34 -16 5 C-15.02160156 4.96132813 -15.02160156 4.96132813 -14.0234375 4.921875 C-8.11925307 4.53871259 -4.60333137 3.75534928 0 0 Z " fill="#4DC5EA" transform="translate(332,409)"/>
<path d="M0 0 C4.42761914 1.39153744 6.9556255 3.52071486 10 7 C10 7.66 10 8.32 10 9 C10.99 9 11.98 9 13 9 C13 9.66 13 10.32 13 11 C14.32 11.33 15.64 11.66 17 12 C16.01 13.485 16.01 13.485 15 15 C12.49600402 12.69179519 9.99749023 10.37774095 7.5 8.0625 C6.78457031 7.40314453 6.06914062 6.74378906 5.33203125 6.06445312 C4.65527344 5.43603516 3.97851562 4.80761719 3.28125 4.16015625 C2.65283203 3.57886963 2.02441406 2.99758301 1.37695312 2.39868164 C0 1 0 1 0 0 Z " fill="#62C8E8" transform="translate(150,356)"/>
<path d="M0 0 C2.27474277 3.41211416 2.56629644 5.6568529 3.125 9.6875 C3.29257812 10.86699219 3.46015625 12.04648438 3.6328125 13.26171875 C3.75398438 14.16535156 3.87515625 15.06898438 4 16 C3.01 16 2.02 16 1 16 C1 15.34 1 14.68 1 14 C0.34 14 -0.32 14 -1 14 C-1.33 13.01 -1.66 12.02 -2 11 C-1.01 11 -0.02 11 1 11 C0.835 10.484375 0.67 9.96875 0.5 9.4375 C-0.15049 6.26636124 -0.0620734 3.22781666 0 0 Z " fill="#62CAE9" transform="translate(499,168)"/>
<path d="M0 0 C0.66 0.33 1.32 0.66 2 1 C1.67 1.61875 1.34 2.2375 1 2.875 C-0.14193235 4.91018344 -0.14193235 4.91018344 0 7 C-0.70125 7.020625 -1.4025 7.04125 -2.125 7.0625 C-6.3793624 8.44979209 -8.35307139 11.51624172 -11 15 C-11.99 14.67 -12.98 14.34 -14 14 C-9.38 9.38 -4.76 4.76 0 0 Z " fill="#54C1E5" transform="translate(154,61)"/>
<path d="M0 0 C10.55808656 0.96355353 10.55808656 0.96355353 15 2 C13.515 4.475 13.515 4.475 12 7 C11.01 6.67 10.02 6.34 9 6 C9 5.01 9 4.02 9 3 C4.545 2.01 4.545 2.01 0 1 C0 0.67 0 0.34 0 0 Z " fill="#56C5EB" transform="translate(323,7)"/>
<path d="M0 0 C0 3 0 3 -2.3125 5.4375 C-3.199375 6.283125 -4.08625 7.12875 -5 8 C-5.495 8.70125 -5.99 9.4025 -6.5 10.125 C-8.7933148 12.9916435 -11.76280828 14.38140414 -15 16 C-13.58911589 12.69346646 -11.94468631 10.8452183 -9.1875 8.5625 C-5.9595887 5.83435639 -2.94106875 3.03297715 0 0 Z " fill="#66CCE8" transform="translate(204,184)"/>
<path d="M0 0 C0.66 0 1.32 0 2 0 C1.48378772 6.83981276 -0.48590969 12.63876684 -3 19 C-3.33 19 -3.66 19 -4 19 C-4.07414355 15.14453537 -4.09847762 11.70736197 -3 8 C-3 7.34 -3 6.68 -3 6 C-2.34 6 -1.68 6 -1 6 C-0.67 4.02 -0.34 2.04 0 0 Z " fill="#5AC4EA" transform="translate(311,107)"/>
<path d="M0 0 C0.33 0.99 0.66 1.98 1 3 C-1.35968744 5.09749995 -2.54616994 5.96905704 -5.75 6.1875 C-6.86375 6.0946875 -6.86375 6.0946875 -8 6 C-8 6.66 -8 7.32 -8 8 C-9.65 8.33 -11.3 8.66 -13 9 C-4.66666667 0 -4.66666667 0 0 0 Z " fill="#58CAE9" transform="translate(182,40)"/>
<path d="M0 0 C2.29013653 3.4352048 2.17842973 4.985331 2 9 C0.68 9 -0.64 9 -2 9 C-2 10.65 -2 12.3 -2 14 C-2.66 14 -3.32 14 -4 14 C-3.46148032 8.72250715 -2.22656164 4.74354436 0 0 Z " fill="#54C3ED" transform="translate(107,125)"/>
<path d="M0 0 C0 4.53850662 -2.5336296 7.3004444 -5 11 C-5.38499891 12.65549531 -5.72793135 14.3222433 -6 16 C-6.33 15.34 -6.66 14.68 -7 14 C-7.66 14 -8.32 14 -9 14 C-7.65070536 10.16336928 -5.92248975 7.34827431 -3.375 4.1875 C-2.42753906 3.00220703 -2.42753906 3.00220703 -1.4609375 1.79296875 C-0.97882813 1.20128906 -0.49671875 0.60960938 0 0 Z " fill="#5AC4E7" transform="translate(133,84)"/>
<path d="M0 0 C3.94139078 1.66751148 6.7892812 4.22710649 10 7 C8.02 7.99 8.02 7.99 6 9 C5.34 7.35 4.68 5.7 4 4 C2.35 4.33 0.7 4.66 -1 5 C-1 4.34 -1 3.68 -1 3 C-0.34 2.67 0.32 2.34 1 2 C0.67 1.34 0.34 0.68 0 0 Z " fill="#4EC3E6" transform="translate(421,47)"/>
<path d="M0 0 C-1.03538614 2.82378039 -1.66619755 3.8243145 -4.375 5.25 C-7 6 -7 6 -11 6 C-10.67 5.01 -10.34 4.02 -10 3 C-9.01 3 -8.02 3 -7 3 C-6.525625 2.505 -6.05125 2.01 -5.5625 1.5 C-4 0 -4 0 0 0 Z " fill="#57C7EA" transform="translate(396,272)"/>
<path d="M0 0 C0.66 0 1.32 0 2 0 C1.01 3.63 0.02 7.26 -1 11 C-2.32 11 -3.64 11 -5 11 C-4.67 10.01 -4.34 9.02 -4 8 C-3.34 8 -2.68 8 -2 8 C-2.33 6.35 -2.66 4.7 -3 3 C-2.01 2.67 -1.02 2.34 0 2 C0 1.34 0 0.68 0 0 Z " fill="#5DCEF0" transform="translate(262,271)"/>
<path d="M0 0 C1.32 0.33 2.64 0.66 4 1 C3.01 2.485 3.01 2.485 2 4 C1.34 4 0.68 4 0 4 C-0.66 5.32 -1.32 6.64 -2 8 C-2.99 7.01 -3.98 6.02 -5 5 C-4.34 4.01 -3.68 3.02 -3 2 C-2.01 2 -1.02 2 0 2 C0 1.34 0 0.68 0 0 Z " fill="#62CEF3" transform="translate(410,212)"/>
<path d="M0 0 C2.4294516 3.6441774 2.16179575 5.71241272 2 10 C-1 10 -1 10 -3 9 C-2.01 6.03 -1.02 3.06 0 0 Z " fill="#55C6ED" transform="translate(340,114)"/>
<path d="M0 0 C0.99 0.33 1.98 0.66 3 1 C3 1.99 3 2.98 3 4 C0.1875 5.125 0.1875 5.125 -3 6 C-3.99 5.34 -4.98 4.68 -6 4 C-3.1875 1.9375 -3.1875 1.9375 0 0 Z " fill="#4DCEF0" transform="translate(381,394)"/>
<path d="M0 0 C1.62484861 2.43727292 2.65689075 4.37286123 3.6875 7.0625 C3.95949219 7.75472656 4.23148437 8.44695312 4.51171875 9.16015625 C5 11 5 11 4 13 C2.5393715 10.35261084 2 9.10551666 2 6 C1.01 6.33 0.02 6.66 -1 7 C-1.66 6.01 -2.32 5.02 -3 4 C-2.34 4 -1.68 4 -1 4 C-0.67 2.68 -0.34 1.36 0 0 Z " fill="#50C0EA" transform="translate(486,127)"/>
<path d="M0 0 C0.66 0 1.32 0 2 0 C3.12377697 3.30435084 2.89554742 5.0506862 1.5625 8.25 C1.27503906 8.95640625 0.98757813 9.6628125 0.69140625 10.390625 C0.46324219 10.92171875 0.23507812 11.4528125 0 12 C-0.33 12 -0.66 12 -1 12 C-1 10.02 -1 8.04 -1 6 C-1.66 5.67 -2.32 5.34 -3 5 C-2.34 4.67 -1.68 4.34 -1 4 C-0.34786708 1.97536745 -0.34786708 1.97536745 0 0 Z " fill="#4CC3E6" transform="translate(276,220)"/>
<path d="M0 0 C0.66 0 1.32 0 2 0 C2.33 2.31 2.66 4.62 3 7 C2.4225 7.0825 1.845 7.165 1.25 7.25 C-1.60798931 8.2026631 -2.92954588 9.86053074 -5 12 C-5.66 12 -6.32 12 -7 12 C-7 11.34 -7 10.68 -7 10 C-5.25007579 8.43756767 -3.40045788 7.0495534 -1.53125 5.6328125 C0.45603814 3.88679482 0.45603814 3.88679482 0 0 Z " fill="#5DCAE7" transform="translate(451,209)"/>
<path d="M0 0 C0.99 1.32 1.98 2.64 3 4 C3.66 3.67 4.32 3.34 5 3 C4.67 5.31 4.34 7.62 4 10 C3.360625 9.505 2.72125 9.01 2.0625 8.5 C0.29025661 6.90197138 0.29025661 6.90197138 -1 7 C-0.67 4.69 -0.34 2.38 0 0 Z " fill="#56C7F5" transform="translate(249,300)"/>
<path d="M0 0 C0.86625 0.556875 0.86625 0.556875 1.75 1.125 C0.43 2.445 -0.89 3.765 -2.25 5.125 C-3.57 3.805 -4.89 2.485 -6.25 1.125 C-2.80384615 -1.09038462 -2.80384615 -1.09038462 0 0 Z " fill="#51CCF4" transform="translate(446.25,196.875)"/>
<path d="M0 0 C0.66 0.33 1.32 0.66 2 1 C1.54857225 2.77260631 1.08859477 4.5430368 0.625 6.3125 C0.24214844 7.79169922 0.24214844 7.79169922 -0.1484375 9.30078125 C-1 12 -1 12 -3 15 C-3.125 7.25 -3.125 7.25 -2 5 C-1.34 5 -0.68 5 0 5 C0 3.35 0 1.7 0 0 Z " fill="#63C2E0" transform="translate(271,241)"/>
<path d="M0 0 C0.66 0.33 1.32 0.66 2 1 C-0.64 3.64 -3.28 6.28 -6 9 C-6.33 7.68 -6.66 6.36 -7 5 C-6.34 4.67 -5.68 4.34 -5 4 C-5 3.34 -5 2.68 -5 2 C-2.625 0.9375 -2.625 0.9375 0 0 Z " fill="#69C6EA" transform="translate(385,240)"/>
<path d="M0 0 C0 0.66 0 1.32 0 2 C0.66 2.33 1.32 2.66 2 3 C2 4.65 2 6.3 2 8 C1.34 7.67 0.68 7.34 0 7 C0 6.34 0 5.68 0 5 C-1.32 4.34 -2.64 3.68 -4 3 C-4 2.34 -4 1.68 -4 1 C-2 0 -2 0 0 0 Z " fill="#62CBF2" transform="translate(190,218)"/>
<path d="M0 0 C3.79588866 0.54226981 5.47211993 2.20127563 8 5 C7.67 5.66 7.34 6.32 7 7 C4.69 6.01 2.38 5.02 0 4 C0 2.68 0 1.36 0 0 Z " fill="#4BC0E3" transform="translate(397,194)"/>
<path d="M0 0 C0 1.98 0 3.96 0 6 C-2.02045442 5.39816251 -4.02111039 4.72693904 -6 4 C-6.33 3.34 -6.66 2.68 -7 2 C-2.25 0 -2.25 0 0 0 Z " fill="#50C7ED" transform="translate(197,385)"/>
<path d="M0 0 C0.86625 0.4640625 0.86625 0.4640625 1.75 0.9375 C3.91680462 2.08149783 3.91680462 2.08149783 6.125 2.375 C8 3 8 3 9.25 5.0625 C9.4975 5.701875 9.745 6.34125 10 7 C7 7 7 7 5 6 C5 5.34 5 4.68 5 4 C4.360625 3.896875 3.72125 3.79375 3.0625 3.6875 C2.381875 3.460625 1.70125 3.23375 1 3 C0.67 2.01 0.34 1.02 0 0 Z " fill="#46C6E8" transform="translate(377,176)"/>
<path d="M0 0 C4.56048012 3.61251516 8.01665146 6.98797445 11 12 C9.1875 11.8125 9.1875 11.8125 7 11 C5.94228261 9.36935236 4.94726954 7.69719127 4 6 C3.278125 5.278125 2.55625 4.55625 1.8125 3.8125 C1.214375 3.214375 0.61625 2.61625 0 2 C0 1.34 0 0.68 0 0 Z " fill="#55BFE1" transform="translate(448,71)"/>
<path d="M0 0 C0.33 0.66 0.66 1.32 1 2 C0.34 2 -0.32 2 -1 2 C-1 3.65 -1 5.3 -1 7 C-3.31 7 -5.62 7 -8 7 C-5.42215154 4.35247996 -3.08351902 2.05567935 0 0 Z " fill="#59C4E9" transform="translate(165,52)"/>
<path d="M0 0 C-1.5625 2.5625 -1.5625 2.5625 -4 5 C-7.75 4.8125 -7.75 4.8125 -11 4 C-8.32997607 0.73663741 -4.08378642 -2.04189321 0 0 Z " fill="#5FC6E8" transform="translate(213,24)"/>
<path d="M0 0 C3.94139078 1.66751148 6.7892812 4.22710649 10 7 C9.67 7.66 9.34 8.32 9 9 C8.01 8.67 7.02 8.34 6 8 C6 7.01 6 6.02 6 5 C5.38125 4.690625 4.7625 4.38125 4.125 4.0625 C2.75 3.375 1.375 2.6875 0 2 C0 1.34 0 0.68 0 0 Z " fill="#54C0E6" transform="translate(149,222)"/>
<path d="M0 0 C1.12377697 3.30435084 0.89554742 5.0506862 -0.4375 8.25 C-0.72496094 8.95640625 -1.01242187 9.6628125 -1.30859375 10.390625 C-1.53675781 10.92171875 -1.76492188 11.4528125 -2 12 C-3.231394 8.30581799 -2.64432764 5.7943739 -2 2 C-1.34 2 -0.68 2 0 2 C0 1.34 0 0.68 0 0 Z " fill="#54C1E5" transform="translate(295,162)"/>
<path d="M0 0 C1.98 0.495 1.98 0.495 4 1 C2.63016497 4.16115776 2.0109362 4.9927092 -1 7 C-0.67 4.69 -0.34 2.38 0 0 Z " fill="#4FC3E8" transform="translate(449,344)"/>
<path d="M0 0 C0.99 0 1.98 0 3 0 C1.25 5.75 1.25 5.75 -1 8 C-2.2077558 4.37673261 -1.54311128 3.35853631 0 0 Z " fill="#71D2F0" transform="translate(483,295)"/>
<path d="M0 0 C0 0.66 0 1.32 0 2 C-3.63 2.33 -7.26 2.66 -11 3 C-3.71428571 -1.85714286 -3.71428571 -1.85714286 0 0 Z " fill="#61C6E7" transform="translate(243,13)"/>
<path d="M0 0 C0.66 1.32 1.32 2.64 2 4 C1.67 4.33 1.34 4.66 1 5 C1 5.99 1 6.98 1 8 C-0.32 6.68 -1.64 5.36 -3 4 C-2.01 2.68 -1.02 1.36 0 0 Z " fill="#50C7EF" transform="translate(220,262)"/>
<path d="M0 0 C0.33 0.99 0.66 1.98 1 3 C0.01 3.66 -0.98 4.32 -2 5 C-2.33 5.99 -2.66 6.98 -3 8 C-4.32 7.67 -5.64 7.34 -7 7 C-4.69 4.69 -2.38 2.38 0 0 Z " fill="#55C5E6" transform="translate(433,231)"/>
<path d="M0 0 C1.98 0 3.96 0 6 0 C6.33 1.32 6.66 2.64 7 4 C5.68 4 4.36 4 3 4 C1.25 2 1.25 2 0 0 Z " fill="#4AC5EC" transform="translate(424,182)"/>
<path d="M0 0 C0.95465783 2.16967689 1.14401212 3.56328793 0.3984375 5.82421875 C-0.35870385 7.5684743 -1.17609198 9.28627131 -2 11 C-2.66 10.67 -3.32 10.34 -4 10 C-3.52449439 8.51965236 -3.04448784 7.04074979 -2.5625 5.5625 C-2.29566406 4.73878906 -2.02882813 3.91507813 -1.75390625 3.06640625 C-1 1 -1 1 0 0 Z " fill="#52C0E1" transform="translate(100,145)"/>
<path d="M0 0 C2.64 0.33 5.28 0.66 8 1 C8 2.32 8 3.64 8 5 C4.75791433 4.64950425 3.38472296 4.43778819 1.1875 1.9375 C0.795625 1.298125 0.40375 0.65875 0 0 Z " fill="#6AD3F8" transform="translate(253,9)"/>
<path d="M0 0 C1.1875 1.625 1.1875 1.625 2 4 C0.625 7.25 0.625 7.25 -1 10 C-3 6.25 -3 6.25 -3 4 C-2.01 4 -1.02 4 0 4 C0 2.68 0 1.36 0 0 Z " fill="#5BCAEC" transform="translate(477,306)"/>
<path d="M0 0 C1.0625 1.8125 1.0625 1.8125 2 4 C1.67 4.99 1.34 5.98 1 7 C0.34 7 -0.32 7 -1 7 C-1.33 7.66 -1.66 8.32 -2 9 C-1.125 1.125 -1.125 1.125 0 0 Z " fill="#53BEE3" transform="translate(322,173)"/>
<path d="M0 0 C1 2 1 2 1 5 C1.66 5.33 2.32 5.66 3 6 C2.67 6.99 2.34 7.98 2 9 C0.29115995 7.37660195 -1.37446717 5.70680947 -3 4 C-3 3.34 -3 2.68 -3 2 C-2.01 1.34 -1.02 0.68 0 0 Z " fill="#53C3E5" transform="translate(395,147)"/>
<path d="M0 0 C0.66 0.99 1.32 1.98 2 3 C1.01 4.485 1.01 4.485 0 6 C-0.39387788 8.32387947 -0.73486085 10.65793749 -1 13 C-1.33 13 -1.66 13 -2 13 C-2.16682272 8.07872966 -2.24828052 4.49656104 0 0 Z " fill="#5CBEDF" transform="translate(93,172)"/>
<path d="M0 0 C1.32 1.65 2.64 3.3 4 5 C3.34 5 2.68 5 2 5 C1.67 5.66 1.34 6.32 1 7 C0.34 6.34 -0.32 5.68 -1 5 C-0.625 2.375 -0.625 2.375 0 0 Z " fill="#65CEF3" transform="translate(469,97)"/>
<path d="M0 0 C0.66 0 1.32 0 2 0 C3.25541557 3.76624671 2.37061958 5.37188934 1 9 C0.67 9 0.34 9 0 9 C-0.87890625 2.84765625 -0.87890625 2.84765625 -1 1 C-0.67 0.67 -0.34 0.34 0 0 Z " fill="#70D1F3" transform="translate(313,97)"/>
<path d="M0 0 C3.77545388 1.09068668 6.47043472 1.9083091 9 5 C5.625 4.75 5.625 4.75 2 4 C0.5625 1.9375 0.5625 1.9375 0 0 Z " fill="#69CCEB" transform="translate(389,27)"/>
<path d="M0 0 C0.66 0 1.32 0 2 0 C2 1.32 2 2.64 2 4 C0.35 4.33 -1.3 4.66 -3 5 C-3 4.01 -3 3.02 -3 2 C-2.34 2.33 -1.68 2.66 -1 3 C-0.67 2.01 -0.34 1.02 0 0 Z " fill="#46C3E9" transform="translate(140,338)"/>
<path d="M0 0 C0.66 0.33 1.32 0.66 2 1 C0.7260411 3.03833424 -0.61061923 5.03852126 -2 7 C-2.66 7 -3.32 7 -4 7 C-3.67 5.35 -3.34 3.7 -3 2 C-2.01 2 -1.02 2 0 2 C0 1.34 0 0.68 0 0 Z " fill="#58C6E9" transform="translate(473,316)"/>
<path d="M0 0 C1.32 0 2.64 0 4 0 C4.33 1.98 4.66 3.96 5 6 C4.01 5.67 3.02 5.34 2 5 C0.8125 2.4375 0.8125 2.4375 0 0 Z " fill="#51CAEE" transform="translate(482,289)"/>
<path d="M0 0 C0.33 0.99 0.66 1.98 1 3 C1.99 3.33 2.98 3.66 4 4 C3.67 4.99 3.34 5.98 3 7 C1.35 5.35 -0.3 3.7 -2 2 C-1.34 2 -0.68 2 0 2 C0 1.34 0 0.68 0 0 Z " fill="#72D2F1" transform="translate(218,152)"/>
<path d="M0 0 C1.125 1.75 1.125 1.75 2 4 C1.125 6.25 1.125 6.25 0 8 C-0.66 8 -1.32 8 -2 8 C-1.47731534 5.23723823 -0.89130413 2.6739124 0 0 Z " fill="#48C1F0" transform="translate(492,143)"/>
<path d="M0 0 C0.66 0 1.32 0 2 0 C2.66 1.98 3.32 3.96 4 6 C2.68 6 1.36 6 0 6 C-1 3 -1 3 0 0 Z " fill="#5FCDEE" transform="translate(475,108)"/>
</svg>
